<svg width="83" height="17" viewBox="0 0 83 17" fill="none" xmlns="http://www.w3.org/2000/svg">
<g clip-path="url(#clip0_22_824)">
<path d="M7.99992 15.6668C11.6818 15.6668 14.6666 12.6821 14.6666 9.00016C14.6666 5.31826 11.6818 2.3335 7.99992 2.3335C4.31802 2.3335 1.33325 5.31826 1.33325 9.00016C1.33325 12.6821 4.31802 15.6668 7.99992 15.6668Z" stroke="#ADAEAF" stroke-linecap="round" stroke-linejoin="round"/>
<path d="M11 10H7.00003C6.99997 9.5 7.0001 9.46826 7 9.11467V5" stroke="#ADAEAF" stroke-linecap="round" stroke-linejoin="round"/>
</g>
<path d="M28.2168 13H22.5859V12.1621L24.8418 9.89453C25.5293 9.19922 25.9824 8.70312 26.2012 8.40625C26.4199 8.10938 26.584 7.82031 26.6934 7.53906C26.8027 7.25781 26.8574 6.95508 26.8574 6.63086C26.8574 6.17383 26.7188 5.8125 26.4414 5.54688C26.1641 5.27734 25.7793 5.14258 25.2871 5.14258C24.9316 5.14258 24.5938 5.20117 24.2734 5.31836C23.957 5.43555 23.6035 5.64844 23.2129 5.95703L22.6973 5.29492C23.4863 4.63867 24.3457 4.31055 25.2754 4.31055C26.0801 4.31055 26.7109 4.51758 27.168 4.93164C27.625 5.3418 27.8535 5.89453 27.8535 6.58984C27.8535 7.13281 27.7012 7.66992 27.3965 8.20117C27.0918 8.73242 26.5215 9.4043 25.6855 10.2168L23.8105 12.0508V12.0977H28.2168V13ZM41.2012 13V8.82227C41.2012 8.31055 41.0918 7.92773 40.873 7.67383C40.6543 7.41602 40.3145 7.28711 39.8535 7.28711C39.248 7.28711 38.8008 7.46094 38.5117 7.80859C38.2227 8.15625 38.0781 8.69141 38.0781 9.41406V13H37.1055V8.82227C37.1055 8.31055 36.9961 7.92773 36.7773 7.67383C36.5586 7.41602 36.2168 7.28711 35.752 7.28711C35.1426 7.28711 34.6953 7.4707 34.4102 7.83789C34.1289 8.20117 33.9883 8.79883 33.9883 9.63086V13H33.0156V6.57812H33.8066L33.9648 7.45703H34.0117C34.1953 7.14453 34.4531 6.90039 34.7852 6.72461C35.1211 6.54883 35.4961 6.46094 35.9102 6.46094C36.9141 6.46094 37.5703 6.82422 37.8789 7.55078H37.9258C38.1172 7.21484 38.3945 6.94922 38.7578 6.75391C39.1211 6.55859 39.5352 6.46094 40 6.46094C40.7266 6.46094 41.2695 6.64844 41.6289 7.02344C41.9922 7.39453 42.1738 7.99023 42.1738 8.81055V13H41.2012ZM45.1562 13H44.1836V6.57812H45.1562V13ZM44.1016 4.83789C44.1016 4.61523 44.1562 4.45312 44.2656 4.35156C44.375 4.24609 44.5117 4.19336 44.6758 4.19336C44.832 4.19336 44.9668 4.24609 45.0801 4.35156C45.1934 4.45703 45.25 4.61914 45.25 4.83789C45.25 5.05664 45.1934 5.2207 45.0801 5.33008C44.9668 5.43555 44.832 5.48828 44.6758 5.48828C44.5117 5.48828 44.375 5.43555 44.2656 5.33008C44.1562 5.2207 44.1016 5.05664 44.1016 4.83789ZM51.6133 13V8.8457C51.6133 8.32227 51.4941 7.93164 51.2559 7.67383C51.0176 7.41602 50.6445 7.28711 50.1367 7.28711C49.4648 7.28711 48.9727 7.46875 48.6602 7.83203C48.3477 8.19531 48.1914 8.79492 48.1914 9.63086V13H47.2188V6.57812H48.0098L48.168 7.45703H48.2148C48.4141 7.14062 48.6934 6.89648 49.0527 6.72461C49.4121 6.54883 49.8125 6.46094 50.2539 6.46094C51.0273 6.46094 51.6094 6.64844 52 7.02344C52.3906 7.39453 52.5859 7.99023 52.5859 8.81055V13H51.6133ZM60.6367 6.46094C60.9219 6.46094 61.1777 6.48438 61.4043 6.53125L61.2695 7.43359C61.0039 7.375 60.7695 7.3457 60.5664 7.3457C60.0469 7.3457 59.6016 7.55664 59.2305 7.97852C58.8633 8.40039 58.6797 8.92578 58.6797 9.55469V13H57.707V6.57812H58.5098L58.6211 7.76758H58.668C58.9062 7.34961 59.1934 7.02734 59.5293 6.80078C59.8652 6.57422 60.2344 6.46094 60.6367 6.46094ZM65.3184 13.1172C64.3691 13.1172 63.6191 12.8281 63.0684 12.25C62.5215 11.6719 62.248 10.8691 62.248 9.8418C62.248 8.80664 62.502 7.98438 63.0098 7.375C63.5215 6.76562 64.207 6.46094 65.0664 6.46094C65.8711 6.46094 66.5078 6.72656 66.9766 7.25781C67.4453 7.78516 67.6797 8.48242 67.6797 9.34961V9.96484H63.2559C63.2754 10.7188 63.4648 11.291 63.8242 11.6816C64.1875 12.0723 64.6973 12.2676 65.3535 12.2676C66.0449 12.2676 66.7285 12.123 67.4043 11.834V12.7012C67.0605 12.8496 66.7344 12.9551 66.4258 13.0176C66.1211 13.084 65.752 13.1172 65.3184 13.1172ZM65.0547 7.27539C64.5391 7.27539 64.127 7.44336 63.8184 7.7793C63.5137 8.11523 63.334 8.58008 63.2793 9.17383H66.6367C66.6367 8.56055 66.5 8.0918 66.2266 7.76758C65.9531 7.43945 65.5625 7.27539 65.0547 7.27539ZM73.293 13L73.0996 12.0859H73.0527C72.7324 12.4883 72.4121 12.7617 72.0918 12.9062C71.7754 13.0469 71.3789 13.1172 70.9023 13.1172C70.2656 13.1172 69.7656 12.9531 69.4023 12.625C69.043 12.2969 68.8633 11.8301 68.8633 11.2246C68.8633 9.92773 69.9004 9.24805 71.9746 9.18555L73.0645 9.15039V8.75195C73.0645 8.24805 72.9551 7.87695 72.7363 7.63867C72.5215 7.39648 72.1758 7.27539 71.6992 7.27539C71.1641 7.27539 70.5586 7.43945 69.8828 7.76758L69.584 7.02344C69.9004 6.85156 70.2461 6.7168 70.6211 6.61914C71 6.52148 71.3789 6.47266 71.7578 6.47266C72.5234 6.47266 73.0898 6.64258 73.457 6.98242C73.8281 7.32227 74.0137 7.86719 74.0137 8.61719V13H73.293ZM71.0957 12.3145C71.7012 12.3145 72.1758 12.1484 72.5195 11.8164C72.8672 11.4844 73.041 11.0195 73.041 10.4219V9.8418L72.0684 9.88281C71.2949 9.91016 70.7363 10.0312 70.3926 10.2461C70.0527 10.457 69.8828 10.7871 69.8828 11.2363C69.8828 11.5879 69.9883 11.8555 70.1992 12.0391C70.4141 12.2227 70.7129 12.3145 71.0957 12.3145ZM80.3945 12.1387H80.3418C79.8926 12.791 79.2207 13.1172 78.3262 13.1172C77.4863 13.1172 76.832 12.8301 76.3633 12.2559C75.8984 11.6816 75.666 10.8652 75.666 9.80664C75.666 8.74805 75.9004 7.92578 76.3691 7.33984C76.8379 6.75391 77.4902 6.46094 78.3262 6.46094C79.1973 6.46094 79.8652 6.77734 80.3301 7.41016H80.4062L80.3652 6.94727L80.3418 6.49609V3.88281H81.3145V13H80.5234L80.3945 12.1387ZM78.4492 12.3027C79.1133 12.3027 79.5938 12.123 79.8906 11.7637C80.1914 11.4004 80.3418 10.8164 80.3418 10.0117V9.80664C80.3418 8.89648 80.1895 8.24805 79.8848 7.86133C79.584 7.4707 79.1016 7.27539 78.4375 7.27539C77.8672 7.27539 77.4297 7.49805 77.125 7.94336C76.8242 8.38477 76.6738 9.00977 76.6738 9.81836C76.6738 10.6387 76.8242 11.2578 77.125 11.6758C77.4258 12.0938 77.8672 12.3027 78.4492 12.3027Z" fill="#ADAEAF"/>
<defs>
<clipPath id="clip0_22_824">
<rect width="16" height="16" fill="white" transform="translate(0 1)"/>
</clipPath>
</defs>
</svg>
