<svg width="83" height="28" viewBox="0 0 83 28" fill="none" xmlns="http://www.w3.org/2000/svg">
<g clip-path="url(#clip0_22_854)">
<path d="M7.99992 21.6668C11.6818 21.6668 14.6666 18.6821 14.6666 15.0002C14.6666 11.3183 11.6818 8.3335 7.99992 8.3335C4.31802 8.3335 1.33325 11.3183 1.33325 15.0002C1.33325 18.6821 4.31802 21.6668 7.99992 21.6668Z" stroke="#ADAEAF" stroke-linecap="round" stroke-linejoin="round"/>
<path d="M11 16H7.00003C6.99997 15.5 7.0001 15.4683 7 15.1147V11" stroke="#ADAEAF" stroke-linecap="round" stroke-linejoin="round"/>
</g>
<path d="M27.8887 12.4316C27.8887 12.8145 27.8145 13.1465 27.666 13.4277C27.5176 13.709 27.3105 13.9395 27.0449 14.1191C26.7793 14.2949 26.4668 14.418 26.1074 14.4883V14.5352C26.7871 14.6211 27.2969 14.8398 27.6367 15.1914C27.9805 15.543 28.1523 16.0039 28.1523 16.5742C28.1523 17.0703 28.0352 17.5098 27.8008 17.8926C27.5703 18.2754 27.2148 18.5762 26.7344 18.7949C26.2578 19.0098 25.6465 19.1172 24.9004 19.1172C24.4473 19.1172 24.0273 19.0801 23.6406 19.0059C23.2578 18.9355 22.8906 18.8164 22.5391 18.6484V17.7344C22.8945 17.9102 23.2812 18.0488 23.6992 18.1504C24.1172 18.248 24.5215 18.2969 24.9121 18.2969C25.6934 18.2969 26.2578 18.1426 26.6055 17.834C26.9531 17.5215 27.127 17.0957 27.127 16.5566C27.127 16.1855 27.0293 15.8867 26.834 15.6602C26.6426 15.4297 26.3652 15.2617 26.002 15.1562C25.6426 15.0469 25.209 14.9922 24.7012 14.9922H23.8457V14.1602H24.707C25.1719 14.1602 25.5664 14.0918 25.8906 13.9551C26.2148 13.8184 26.4609 13.627 26.6289 13.3809C26.8008 13.1309 26.8867 12.8359 26.8867 12.4961C26.8867 12.0625 26.7422 11.7285 26.4531 11.4941C26.1641 11.2559 25.7715 11.1367 25.2754 11.1367C24.9707 11.1367 24.6934 11.168 24.4434 11.2305C24.1934 11.293 23.959 11.3789 23.7402 11.4883C23.5215 11.5977 23.3027 11.7246 23.084 11.8691L22.5918 11.2012C22.9043 10.959 23.2852 10.75 23.7344 10.5742C24.1836 10.3984 24.6934 10.3105 25.2637 10.3105C26.1387 10.3105 26.7949 10.5098 27.2324 10.9082C27.6699 11.3066 27.8887 11.8145 27.8887 12.4316ZM39.9824 12.4609C40.6895 12.4609 41.2227 12.6465 41.582 13.0176C41.9414 13.3848 42.1211 13.9766 42.1211 14.793V19H41.1602V14.8398C41.1602 14.3203 41.0469 13.9316 40.8203 13.6738C40.5977 13.4121 40.2656 13.2812 39.8242 13.2812C39.2031 13.2812 38.752 13.4609 38.4707 13.8203C38.1895 14.1797 38.0488 14.709 38.0488 15.4082V19H37.082V14.8398C37.082 14.4922 37.0312 14.2031 36.9297 13.9727C36.832 13.7422 36.6836 13.5703 36.4844 13.457C36.2891 13.3398 36.041 13.2812 35.7402 13.2812C35.3145 13.2812 34.9727 13.3691 34.7148 13.5449C34.457 13.7207 34.2695 13.9824 34.1523 14.3301C34.0391 14.6738 33.9824 15.0977 33.9824 15.6016V19H33.0098V12.5781H33.7949L33.9414 13.4863H33.9941C34.123 13.2637 34.2852 13.0762 34.4805 12.9238C34.6758 12.7715 34.8945 12.6562 35.1367 12.5781C35.3789 12.5 35.6367 12.4609 35.9102 12.4609C36.3984 12.4609 36.8066 12.5527 37.1348 12.7363C37.4668 12.916 37.707 13.1914 37.8555 13.5625H37.9082C38.1191 13.1914 38.4082 12.916 38.7754 12.7363C39.1426 12.5527 39.5449 12.4609 39.9824 12.4609ZM45.0918 12.5781V19H44.1191V12.5781H45.0918ZM44.6172 10.1758C44.7773 10.1758 44.9141 10.2285 45.0273 10.334C45.1445 10.4355 45.2031 10.5957 45.2031 10.8145C45.2031 11.0293 45.1445 11.1895 45.0273 11.2949C44.9141 11.4004 44.7773 11.4531 44.6172 11.4531C44.4492 11.4531 44.3086 11.4004 44.1953 11.2949C44.0859 11.1895 44.0312 11.0293 44.0312 10.8145C44.0312 10.5957 44.0859 10.4355 44.1953 10.334C44.3086 10.2285 44.4492 10.1758 44.6172 10.1758ZM50.1953 12.4609C50.957 12.4609 51.5332 12.6484 51.9238 13.0234C52.3145 13.3945 52.5098 13.9922 52.5098 14.8164V19H51.5488V14.8809C51.5488 14.3457 51.4258 13.9453 51.1797 13.6797C50.9375 13.4141 50.5645 13.2812 50.0605 13.2812C49.3496 13.2812 48.8496 13.4824 48.5605 13.8848C48.2715 14.2871 48.127 14.8711 48.127 15.6367V19H47.1543V12.5781H47.9395L48.0859 13.5039H48.1387C48.2754 13.2773 48.4492 13.0879 48.6602 12.9355C48.8711 12.7793 49.1074 12.6621 49.3691 12.584C49.6309 12.502 49.9062 12.4609 50.1953 12.4609ZM60.5488 12.4609C60.6777 12.4609 60.8125 12.4688 60.9531 12.4844C61.0938 12.4961 61.2188 12.5137 61.3281 12.5371L61.2051 13.4395C61.0996 13.4121 60.9824 13.3906 60.8535 13.375C60.7246 13.3594 60.6035 13.3516 60.4902 13.3516C60.2324 13.3516 59.9883 13.4043 59.7578 13.5098C59.5312 13.6113 59.332 13.7598 59.1602 13.9551C58.9883 14.1465 58.8535 14.3789 58.7559 14.6523C58.6582 14.9219 58.6094 15.2227 58.6094 15.5547V19H57.6309V12.5781H58.4395L58.5449 13.7617H58.5859C58.7188 13.5234 58.8789 13.3066 59.0664 13.1113C59.2539 12.9121 59.4707 12.7539 59.7168 12.6367C59.9668 12.5195 60.2441 12.4609 60.5488 12.4609ZM65.0137 12.4609C65.5605 12.4609 66.0293 12.582 66.4199 12.8242C66.8105 13.0664 67.1094 13.4062 67.3164 13.8438C67.5234 14.2773 67.627 14.7852 67.627 15.3672V15.9707H63.1914C63.2031 16.7246 63.3906 17.2988 63.7539 17.6934C64.1172 18.0879 64.6289 18.2852 65.2891 18.2852C65.6953 18.2852 66.0547 18.248 66.3672 18.1738C66.6797 18.0996 67.0039 17.9902 67.3398 17.8457V18.7012C67.0156 18.8457 66.6934 18.9512 66.373 19.0176C66.0566 19.084 65.6816 19.1172 65.248 19.1172C64.6309 19.1172 64.0918 18.9922 63.6309 18.7422C63.1738 18.4883 62.8184 18.1172 62.5645 17.6289C62.3105 17.1406 62.1836 16.543 62.1836 15.8359C62.1836 15.1445 62.2988 14.5469 62.5293 14.043C62.7637 13.5352 63.0918 13.1445 63.5137 12.8711C63.9395 12.5977 64.4395 12.4609 65.0137 12.4609ZM65.002 13.2578C64.4824 13.2578 64.0684 13.4277 63.7598 13.7676C63.4512 14.1074 63.2676 14.582 63.209 15.1914H66.6074C66.6035 14.8086 66.543 14.4727 66.4258 14.1836C66.3125 13.8906 66.1387 13.6641 65.9043 13.5039C65.6699 13.3398 65.3691 13.2578 65.002 13.2578ZM71.6816 12.4727C72.4473 12.4727 73.0156 12.6445 73.3867 12.9883C73.7578 13.332 73.9434 13.8809 73.9434 14.6348V19H73.2344L73.0469 18.0508H73C72.8203 18.2852 72.6328 18.4824 72.4375 18.6426C72.2422 18.7988 72.0156 18.918 71.7578 19C71.5039 19.0781 71.1914 19.1172 70.8203 19.1172C70.4297 19.1172 70.082 19.0488 69.7773 18.9121C69.4766 18.7754 69.2383 18.5684 69.0625 18.291C68.8906 18.0137 68.8047 17.6621 68.8047 17.2363C68.8047 16.5957 69.0586 16.1035 69.5664 15.7598C70.0742 15.416 70.8477 15.2285 71.8867 15.1973L72.9941 15.1504V14.7578C72.9941 14.2031 72.875 13.8145 72.6367 13.5918C72.3984 13.3691 72.0625 13.2578 71.6289 13.2578C71.293 13.2578 70.9727 13.3066 70.668 13.4043C70.3633 13.502 70.0742 13.6172 69.8008 13.75L69.502 13.0117C69.791 12.8633 70.123 12.7363 70.498 12.6309C70.873 12.5254 71.2676 12.4727 71.6816 12.4727ZM72.9824 15.8359L72.0039 15.877C71.2031 15.9082 70.6387 16.0391 70.3105 16.2695C69.9824 16.5 69.8184 16.8262 69.8184 17.248C69.8184 17.6152 69.9297 17.8867 70.1523 18.0625C70.375 18.2383 70.6699 18.3262 71.0371 18.3262C71.6074 18.3262 72.0742 18.168 72.4375 17.8516C72.8008 17.5352 72.9824 17.0605 72.9824 16.4277V15.8359ZM78.2324 19.1172C77.4199 19.1172 76.7754 18.8398 76.2988 18.2852C75.8262 17.7305 75.5898 16.9062 75.5898 15.8125C75.5898 14.707 75.832 13.873 76.3164 13.3105C76.8008 12.7441 77.4453 12.4609 78.25 12.4609C78.5898 12.4609 78.8867 12.5059 79.1406 12.5957C79.3945 12.6855 79.6133 12.8066 79.7969 12.959C79.9805 13.1074 80.1348 13.2773 80.2598 13.4688H80.3301C80.3145 13.3477 80.2988 13.1816 80.2832 12.9707C80.2676 12.7598 80.2598 12.5879 80.2598 12.4551V9.88281H81.2324V19H80.4473L80.3008 18.0859H80.2598C80.1387 18.2773 79.9844 18.4512 79.7969 18.6074C79.6133 18.7637 79.3926 18.8887 79.1348 18.9824C78.8809 19.0723 78.5801 19.1172 78.2324 19.1172ZM78.3848 18.3086C79.0723 18.3086 79.5586 18.1133 79.8438 17.7227C80.1289 17.332 80.2715 16.752 80.2715 15.9824V15.8066C80.2715 14.9902 80.1348 14.3633 79.8613 13.9258C79.5918 13.4883 79.0996 13.2695 78.3848 13.2695C77.7871 13.2695 77.3398 13.5 77.043 13.9609C76.7461 14.418 76.5977 15.043 76.5977 15.8359C76.5977 16.625 76.7441 17.2344 77.0371 17.6641C77.334 18.0938 77.7832 18.3086 78.3848 18.3086Z" fill="#ADAEAF"/>
<defs>
<clipPath id="clip0_22_854">
<rect width="16" height="16" fill="white" transform="translate(0 7)"/>
</clipPath>
</defs>
</svg>
