<svg width="358" height="36" viewBox="0 0 358 36" fill="none" xmlns="http://www.w3.org/2000/svg">
<path d="M2.82031 13H0.4375V1.57812H6.98438V3.5625H2.82031V6.50781H6.69531V8.48438H2.82031V13ZM14.5781 13L14.1172 11.8125H14.0547C13.6536 12.3177 13.2396 12.6693 12.8125 12.8672C12.3906 13.0599 11.8385 13.1562 11.1562 13.1562C10.3177 13.1562 9.65625 12.9167 9.17188 12.4375C8.69271 11.9583 8.45312 11.276 8.45312 10.3906C8.45312 9.46354 8.77604 8.78125 9.42188 8.34375C10.0729 7.90104 11.0521 7.65625 12.3594 7.60938L13.875 7.5625V7.17969C13.875 6.29427 13.4219 5.85156 12.5156 5.85156C11.8177 5.85156 10.9974 6.0625 10.0547 6.48438L9.26562 4.875C10.2708 4.34896 11.3854 4.08594 12.6094 4.08594C13.7812 4.08594 14.6797 4.34115 15.3047 4.85156C15.9297 5.36198 16.2422 6.13802 16.2422 7.17969V13H14.5781ZM13.875 8.95312L12.9531 8.98438C12.2604 9.00521 11.7448 9.13021 11.4062 9.35938C11.0677 9.58854 10.8984 9.9375 10.8984 10.4062C10.8984 11.0781 11.2839 11.4141 12.0547 11.4141C12.6068 11.4141 13.0469 11.2552 13.375 10.9375C13.7083 10.6198 13.875 10.1979 13.875 9.67188V8.95312ZM24.7969 10.4062C24.7969 11.3021 24.4844 11.9844 23.8594 12.4531C23.2396 12.9219 22.3099 13.1562 21.0703 13.1562C20.4349 13.1562 19.8932 13.112 19.4453 13.0234C18.9974 12.9401 18.5781 12.8151 18.1875 12.6484V10.6797C18.6302 10.888 19.1276 11.0625 19.6797 11.2031C20.237 11.3438 20.7266 11.4141 21.1484 11.4141C22.013 11.4141 22.4453 11.1641 22.4453 10.6641C22.4453 10.4766 22.388 10.3255 22.2734 10.2109C22.1589 10.0911 21.9609 9.95833 21.6797 9.8125C21.3984 9.66146 21.0234 9.48698 20.5547 9.28906C19.8828 9.00781 19.388 8.7474 19.0703 8.50781C18.7578 8.26823 18.5286 7.99479 18.3828 7.6875C18.2422 7.375 18.1719 6.99219 18.1719 6.53906C18.1719 5.76302 18.4714 5.16406 19.0703 4.74219C19.6745 4.3151 20.5286 4.10156 21.6328 4.10156C22.6849 4.10156 23.7083 4.33073 24.7031 4.78906L23.9844 6.50781C23.5469 6.32031 23.138 6.16667 22.7578 6.04688C22.3776 5.92708 21.9896 5.86719 21.5938 5.86719C20.8906 5.86719 20.5391 6.05729 20.5391 6.4375C20.5391 6.65104 20.651 6.83594 20.875 6.99219C21.1042 7.14844 21.6016 7.38021 22.3672 7.6875C23.0495 7.96354 23.5495 8.22135 23.8672 8.46094C24.1849 8.70052 24.4193 8.97656 24.5703 9.28906C24.7214 9.60156 24.7969 9.97396 24.7969 10.4062ZM30.3359 11.2578C30.7526 11.2578 31.2526 11.1667 31.8359 10.9844V12.7578C31.2422 13.0234 30.513 13.1562 29.6484 13.1562C28.6953 13.1562 28 12.9167 27.5625 12.4375C27.1302 11.9531 26.9141 11.2292 26.9141 10.2656V6.05469H25.7734V5.04688L27.0859 4.25L27.7734 2.40625H29.2969V4.26562H31.7422V6.05469H29.2969V10.2656C29.2969 10.6042 29.3906 10.8542 29.5781 11.0156C29.7708 11.1771 30.0234 11.2578 30.3359 11.2578ZM42.5938 6.05469H40.5312V13H38.1484V6.05469H36.8359V4.90625L38.1484 4.26562V3.625C38.1484 2.63021 38.3932 1.90365 38.8828 1.44531C39.3724 0.986979 40.1562 0.757812 41.2344 0.757812C42.0573 0.757812 42.7891 0.880208 43.4297 1.125L42.8203 2.875C42.3411 2.72396 41.8984 2.64844 41.4922 2.64844C41.1536 2.64844 40.9089 2.75 40.7578 2.95312C40.6068 3.15104 40.5312 3.40625 40.5312 3.71875V4.26562H42.5938V6.05469ZM45.8672 8.61719C45.8672 9.48177 46.0078 10.1354 46.2891 10.5781C46.5755 11.0208 47.0391 11.2422 47.6797 11.2422C48.3151 11.2422 48.7708 11.0234 49.0469 10.5859C49.3281 10.1432 49.4688 9.48698 49.4688 8.61719C49.4688 7.7526 49.3281 7.10417 49.0469 6.67188C48.7656 6.23958 48.3047 6.02344 47.6641 6.02344C47.0286 6.02344 46.5703 6.23958 46.2891 6.67188C46.0078 7.09896 45.8672 7.7474 45.8672 8.61719ZM51.9062 8.61719C51.9062 10.0391 51.5312 11.151 50.7812 11.9531C50.0312 12.7552 48.987 13.1562 47.6484 13.1562C46.8099 13.1562 46.0703 12.974 45.4297 12.6094C44.7891 12.2396 44.2969 11.7109 43.9531 11.0234C43.6094 10.3359 43.4375 9.53385 43.4375 8.61719C43.4375 7.1901 43.8099 6.08073 44.5547 5.28906C45.2995 4.4974 46.3464 4.10156 47.6953 4.10156C48.5339 4.10156 49.2734 4.28385 49.9141 4.64844C50.5547 5.01302 51.0469 5.53646 51.3906 6.21875C51.7344 6.90104 51.9062 7.70052 51.9062 8.61719ZM55.7734 8.61719C55.7734 9.48177 55.9141 10.1354 56.1953 10.5781C56.4818 11.0208 56.9453 11.2422 57.5859 11.2422C58.2214 11.2422 58.6771 11.0234 58.9531 10.5859C59.2344 10.1432 59.375 9.48698 59.375 8.61719C59.375 7.7526 59.2344 7.10417 58.9531 6.67188C58.6719 6.23958 58.2109 6.02344 57.5703 6.02344C56.9349 6.02344 56.4766 6.23958 56.1953 6.67188C55.9141 7.09896 55.7734 7.7474 55.7734 8.61719ZM61.8125 8.61719C61.8125 10.0391 61.4375 11.151 60.6875 11.9531C59.9375 12.7552 58.8932 13.1562 57.5547 13.1562C56.7161 13.1562 55.9766 12.974 55.3359 12.6094C54.6953 12.2396 54.2031 11.7109 53.8594 11.0234C53.5156 10.3359 53.3438 9.53385 53.3438 8.61719C53.3438 7.1901 53.7161 6.08073 54.4609 5.28906C55.2057 4.4974 56.2526 4.10156 57.6016 4.10156C58.4401 4.10156 59.1797 4.28385 59.8203 4.64844C60.4609 5.01302 60.9531 5.53646 61.2969 6.21875C61.6406 6.90104 61.8125 7.70052 61.8125 8.61719ZM66.5469 13.1562C65.5208 13.1562 64.7135 12.7578 64.125 11.9609C63.5417 11.1641 63.25 10.0599 63.25 8.64844C63.25 7.21615 63.5469 6.10156 64.1406 5.30469C64.7396 4.5026 65.5625 4.10156 66.6094 4.10156C67.7083 4.10156 68.5469 4.52865 69.125 5.38281H69.2031C69.0833 4.73177 69.0234 4.15104 69.0234 3.64062V0.84375H71.4141V13H69.5859L69.125 11.8672H69.0234C68.4818 12.7266 67.6562 13.1562 66.5469 13.1562ZM67.3828 11.2578C67.9922 11.2578 68.4375 11.0807 68.7188 10.7266C69.0052 10.3724 69.1615 9.77083 69.1875 8.92188V8.66406C69.1875 7.72656 69.0417 7.05469 68.75 6.64844C68.4635 6.24219 67.9948 6.03906 67.3438 6.03906C66.8125 6.03906 66.3984 6.26562 66.1016 6.71875C65.8099 7.16667 65.6641 7.82031 65.6641 8.67969C65.6641 9.53906 65.8125 10.1849 66.1094 10.6172C66.4062 11.0443 66.8307 11.2578 67.3828 11.2578ZM77.2891 9.6875V7.73438H81.4844V9.6875H77.2891ZM94.5547 13L93.8828 9.94531L92.9766 6.08594H92.9219L91.3281 13H88.7656L86.2812 4.26562H88.6562L89.6641 8.13281C89.8255 8.82552 89.9896 9.78125 90.1562 11H90.2031C90.224 10.6042 90.3151 9.97656 90.4766 9.11719L90.6016 8.45312L91.6797 4.26562H94.3047L95.3281 8.45312C95.349 8.56771 95.3802 8.73698 95.4219 8.96094C95.4688 9.1849 95.513 9.42448 95.5547 9.67969C95.5964 9.92969 95.6328 10.1771 95.6641 10.4219C95.7005 10.6615 95.7214 10.8542 95.7266 11H95.7734C95.8203 10.625 95.9036 10.112 96.0234 9.46094C96.1432 8.80469 96.2292 8.36198 96.2812 8.13281L97.3281 4.26562H99.6641L97.1484 13H94.5547ZM109.141 13H106.758V7.89844C106.758 6.63802 106.289 6.00781 105.352 6.00781C104.685 6.00781 104.203 6.23438 103.906 6.6875C103.609 7.14062 103.461 7.875 103.461 8.89062V13H101.078V0.84375H103.461V3.32031C103.461 3.51302 103.443 3.96615 103.406 4.67969L103.352 5.38281H103.477C104.008 4.52865 104.852 4.10156 106.008 4.10156C107.034 4.10156 107.812 4.3776 108.344 4.92969C108.875 5.48177 109.141 6.27344 109.141 7.30469V13ZM110.344 4.26562H112.953L114.602 9.17969C114.742 9.60677 114.839 10.112 114.891 10.6953H114.938C114.995 10.1589 115.107 9.65365 115.273 9.17969L116.891 4.26562H119.445L115.75 14.1172C115.411 15.0286 114.927 15.7109 114.297 16.1641C113.672 16.6172 112.94 16.8438 112.102 16.8438C111.69 16.8438 111.286 16.7995 110.891 16.7109V14.8203C111.177 14.888 111.49 14.9219 111.828 14.9219C112.25 14.9219 112.617 14.7917 112.93 14.5312C113.247 14.276 113.495 13.888 113.672 13.3672L113.812 12.9375L110.344 4.26562ZM130.953 10.4062C130.953 11.3021 130.641 11.9844 130.016 12.4531C129.396 12.9219 128.466 13.1562 127.227 13.1562C126.591 13.1562 126.049 13.112 125.602 13.0234C125.154 12.9401 124.734 12.8151 124.344 12.6484V10.6797C124.786 10.888 125.284 11.0625 125.836 11.2031C126.393 11.3438 126.883 11.4141 127.305 11.4141C128.169 11.4141 128.602 11.1641 128.602 10.6641C128.602 10.4766 128.544 10.3255 128.43 10.2109C128.315 10.0911 128.117 9.95833 127.836 9.8125C127.555 9.66146 127.18 9.48698 126.711 9.28906C126.039 9.00781 125.544 8.7474 125.227 8.50781C124.914 8.26823 124.685 7.99479 124.539 7.6875C124.398 7.375 124.328 6.99219 124.328 6.53906C124.328 5.76302 124.628 5.16406 125.227 4.74219C125.831 4.3151 126.685 4.10156 127.789 4.10156C128.841 4.10156 129.865 4.33073 130.859 4.78906L130.141 6.50781C129.703 6.32031 129.294 6.16667 128.914 6.04688C128.534 5.92708 128.146 5.86719 127.75 5.86719C127.047 5.86719 126.695 6.05729 126.695 6.4375C126.695 6.65104 126.807 6.83594 127.031 6.99219C127.26 7.14844 127.758 7.38021 128.523 7.6875C129.206 7.96354 129.706 8.22135 130.023 8.46094C130.341 8.70052 130.576 8.97656 130.727 9.28906C130.878 9.60156 130.953 9.97396 130.953 10.4062ZM140.875 13H138.492V7.89844C138.492 6.63802 138.023 6.00781 137.086 6.00781C136.419 6.00781 135.938 6.23438 135.641 6.6875C135.344 7.14062 135.195 7.875 135.195 8.89062V13H132.812V0.84375H135.195V3.32031C135.195 3.51302 135.177 3.96615 135.141 4.67969L135.086 5.38281H135.211C135.742 4.52865 136.586 4.10156 137.742 4.10156C138.768 4.10156 139.547 4.3776 140.078 4.92969C140.609 5.48177 140.875 6.27344 140.875 7.30469V13ZM145.227 8.61719C145.227 9.48177 145.367 10.1354 145.648 10.5781C145.935 11.0208 146.398 11.2422 147.039 11.2422C147.674 11.2422 148.13 11.0234 148.406 10.5859C148.688 10.1432 148.828 9.48698 148.828 8.61719C148.828 7.7526 148.688 7.10417 148.406 6.67188C148.125 6.23958 147.664 6.02344 147.023 6.02344C146.388 6.02344 145.93 6.23958 145.648 6.67188C145.367 7.09896 145.227 7.7474 145.227 8.61719ZM151.266 8.61719C151.266 10.0391 150.891 11.151 150.141 11.9531C149.391 12.7552 148.346 13.1562 147.008 13.1562C146.169 13.1562 145.43 12.974 144.789 12.6094C144.148 12.2396 143.656 11.7109 143.312 11.0234C142.969 10.3359 142.797 9.53385 142.797 8.61719C142.797 7.1901 143.169 6.08073 143.914 5.28906C144.659 4.4974 145.706 4.10156 147.055 4.10156C147.893 4.10156 148.633 4.28385 149.273 4.64844C149.914 5.01302 150.406 5.53646 150.75 6.21875C151.094 6.90104 151.266 7.70052 151.266 8.61719ZM159.422 13L159.102 11.8828H158.977C158.721 12.2891 158.359 12.6042 157.891 12.8281C157.422 13.0469 156.888 13.1562 156.289 13.1562C155.263 13.1562 154.49 12.8828 153.969 12.3359C153.448 11.7839 153.188 10.9922 153.188 9.96094V4.26562H155.57V9.36719C155.57 9.9974 155.682 10.4714 155.906 10.7891C156.13 11.1016 156.487 11.2578 156.977 11.2578C157.643 11.2578 158.125 11.0365 158.422 10.5938C158.719 10.1458 158.867 9.40625 158.867 8.375V4.26562H161.25V13H159.422ZM166.133 13H163.75V0.84375H166.133V13ZM171.406 13.1562C170.38 13.1562 169.573 12.7578 168.984 11.9609C168.401 11.1641 168.109 10.0599 168.109 8.64844C168.109 7.21615 168.406 6.10156 169 5.30469C169.599 4.5026 170.422 4.10156 171.469 4.10156C172.568 4.10156 173.406 4.52865 173.984 5.38281H174.062C173.943 4.73177 173.883 4.15104 173.883 3.64062V0.84375H176.273V13H174.445L173.984 11.8672H173.883C173.341 12.7266 172.516 13.1562 171.406 13.1562ZM172.242 11.2578C172.852 11.2578 173.297 11.0807 173.578 10.7266C173.865 10.3724 174.021 9.77083 174.047 8.92188V8.66406C174.047 7.72656 173.901 7.05469 173.609 6.64844C173.323 6.24219 172.854 6.03906 172.203 6.03906C171.672 6.03906 171.258 6.26562 170.961 6.71875C170.669 7.16667 170.523 7.82031 170.523 8.67969C170.523 9.53906 170.672 10.1849 170.969 10.6172C171.266 11.0443 171.69 11.2578 172.242 11.2578ZM190.102 13L189.43 9.94531L188.523 6.08594H188.469L186.875 13H184.312L181.828 4.26562H184.203L185.211 8.13281C185.372 8.82552 185.536 9.78125 185.703 11H185.75C185.771 10.6042 185.862 9.97656 186.023 9.11719L186.148 8.45312L187.227 4.26562H189.852L190.875 8.45312C190.896 8.56771 190.927 8.73698 190.969 8.96094C191.016 9.1849 191.06 9.42448 191.102 9.67969C191.143 9.92969 191.18 10.1771 191.211 10.4219C191.247 10.6615 191.268 10.8542 191.273 11H191.32C191.367 10.625 191.451 10.112 191.57 9.46094C191.69 8.80469 191.776 8.36198 191.828 8.13281L192.875 4.26562H195.211L192.695 13H190.102ZM200.242 5.79688C199.737 5.79688 199.341 5.95833 199.055 6.28125C198.768 6.59896 198.604 7.05208 198.562 7.64062H201.906C201.896 7.05208 201.742 6.59896 201.445 6.28125C201.148 5.95833 200.747 5.79688 200.242 5.79688ZM200.578 13.1562C199.172 13.1562 198.073 12.7682 197.281 11.9922C196.49 11.2161 196.094 10.1172 196.094 8.69531C196.094 7.23177 196.458 6.10156 197.188 5.30469C197.922 4.5026 198.935 4.10156 200.227 4.10156C201.461 4.10156 202.422 4.45312 203.109 5.15625C203.797 5.85938 204.141 6.83073 204.141 8.07031V9.22656H198.508C198.534 9.90365 198.734 10.4323 199.109 10.8125C199.484 11.1927 200.01 11.3828 200.688 11.3828C201.214 11.3828 201.711 11.3281 202.18 11.2188C202.648 11.1094 203.138 10.9349 203.648 10.6953V12.5391C203.232 12.7474 202.786 12.901 202.312 13C201.839 13.1042 201.26 13.1562 200.578 13.1562ZM215.781 13L215.32 11.8125H215.258C214.857 12.3177 214.443 12.6693 214.016 12.8672C213.594 13.0599 213.042 13.1562 212.359 13.1562C211.521 13.1562 210.859 12.9167 210.375 12.4375C209.896 11.9583 209.656 11.276 209.656 10.3906C209.656 9.46354 209.979 8.78125 210.625 8.34375C211.276 7.90104 212.255 7.65625 213.562 7.60938L215.078 7.5625V7.17969C215.078 6.29427 214.625 5.85156 213.719 5.85156C213.021 5.85156 212.201 6.0625 211.258 6.48438L210.469 4.875C211.474 4.34896 212.589 4.08594 213.812 4.08594C214.984 4.08594 215.883 4.34115 216.508 4.85156C217.133 5.36198 217.445 6.13802 217.445 7.17969V13H215.781ZM215.078 8.95312L214.156 8.98438C213.464 9.00521 212.948 9.13021 212.609 9.35938C212.271 9.58854 212.102 9.9375 212.102 10.4062C212.102 11.0781 212.487 11.4141 213.258 11.4141C213.81 11.4141 214.25 11.2552 214.578 10.9375C214.911 10.6198 215.078 10.1979 215.078 9.67188V8.95312ZM221.984 13L218.656 4.26562H221.148L222.836 9.24219C223.023 9.8724 223.141 10.4688 223.188 11.0312H223.234C223.26 10.5312 223.378 9.9349 223.586 9.24219L225.266 4.26562H227.758L224.43 13H221.984ZM230.914 8.61719C230.914 9.48177 231.055 10.1354 231.336 10.5781C231.622 11.0208 232.086 11.2422 232.727 11.2422C233.362 11.2422 233.818 11.0234 234.094 10.5859C234.375 10.1432 234.516 9.48698 234.516 8.61719C234.516 7.7526 234.375 7.10417 234.094 6.67188C233.812 6.23958 233.352 6.02344 232.711 6.02344C232.076 6.02344 231.617 6.23958 231.336 6.67188C231.055 7.09896 230.914 7.7474 230.914 8.61719ZM236.953 8.61719C236.953 10.0391 236.578 11.151 235.828 11.9531C235.078 12.7552 234.034 13.1562 232.695 13.1562C231.857 13.1562 231.117 12.974 230.477 12.6094C229.836 12.2396 229.344 11.7109 229 11.0234C228.656 10.3359 228.484 9.53385 228.484 8.61719C228.484 7.1901 228.857 6.08073 229.602 5.28906C230.346 4.4974 231.393 4.10156 232.742 4.10156C233.581 4.10156 234.32 4.28385 234.961 4.64844C235.602 5.01302 236.094 5.53646 236.438 6.21875C236.781 6.90104 236.953 7.70052 236.953 8.61719ZM238.82 2.00781C238.82 1.23177 239.253 0.84375 240.117 0.84375C240.982 0.84375 241.414 1.23177 241.414 2.00781C241.414 2.3776 241.305 2.66667 241.086 2.875C240.872 3.07812 240.549 3.17969 240.117 3.17969C239.253 3.17969 238.82 2.78906 238.82 2.00781ZM241.305 13H238.922V4.26562H241.305V13ZM246.578 13.1562C245.552 13.1562 244.745 12.7578 244.156 11.9609C243.573 11.1641 243.281 10.0599 243.281 8.64844C243.281 7.21615 243.578 6.10156 244.172 5.30469C244.771 4.5026 245.594 4.10156 246.641 4.10156C247.74 4.10156 248.578 4.52865 249.156 5.38281H249.234C249.115 4.73177 249.055 4.15104 249.055 3.64062V0.84375H251.445V13H249.617L249.156 11.8672H249.055C248.513 12.7266 247.688 13.1562 246.578 13.1562ZM247.414 11.2578C248.023 11.2578 248.469 11.0807 248.75 10.7266C249.036 10.3724 249.193 9.77083 249.219 8.92188V8.66406C249.219 7.72656 249.073 7.05469 248.781 6.64844C248.495 6.24219 248.026 6.03906 247.375 6.03906C246.844 6.03906 246.43 6.26562 246.133 6.71875C245.841 7.16667 245.695 7.82031 245.695 8.67969C245.695 9.53906 245.844 10.1849 246.141 10.6172C246.438 11.0443 246.862 11.2578 247.414 11.2578ZM257.992 2.00781C257.992 1.23177 258.424 0.84375 259.289 0.84375C260.154 0.84375 260.586 1.23177 260.586 2.00781C260.586 2.3776 260.477 2.66667 260.258 2.875C260.044 3.07812 259.721 3.17969 259.289 3.17969C258.424 3.17969 257.992 2.78906 257.992 2.00781ZM260.477 13H258.094V4.26562H260.477V13ZM266.664 11.2578C267.081 11.2578 267.581 11.1667 268.164 10.9844V12.7578C267.57 13.0234 266.841 13.1562 265.977 13.1562C265.023 13.1562 264.328 12.9167 263.891 12.4375C263.458 11.9531 263.242 11.2292 263.242 10.2656V6.05469H262.102V5.04688L263.414 4.25L264.102 2.40625H265.625V4.26562H268.07V6.05469H265.625V10.2656C265.625 10.6042 265.719 10.8542 265.906 11.0156C266.099 11.1771 266.352 11.2578 266.664 11.2578ZM270.844 9.21094V8.63281C270.844 8.13281 270.951 7.69792 271.164 7.32812C271.378 6.95833 271.768 6.5651 272.336 6.14844C272.883 5.75781 273.242 5.4401 273.414 5.19531C273.591 4.95052 273.68 4.67708 273.68 4.375C273.68 4.03646 273.555 3.77865 273.305 3.60156C273.055 3.42448 272.706 3.33594 272.258 3.33594C271.477 3.33594 270.586 3.59115 269.586 4.10156L268.734 2.39062C269.896 1.73958 271.128 1.41406 272.43 1.41406C273.503 1.41406 274.354 1.67188 274.984 2.1875C275.62 2.70312 275.938 3.39062 275.938 4.25C275.938 4.82292 275.807 5.31771 275.547 5.73438C275.286 6.15104 274.792 6.61979 274.062 7.14062C273.562 7.51042 273.245 7.79167 273.109 7.98438C272.979 8.17708 272.914 8.42969 272.914 8.74219V9.21094H270.844ZM270.594 11.8828C270.594 11.4453 270.711 11.1146 270.945 10.8906C271.18 10.6667 271.521 10.5547 271.969 10.5547C272.401 10.5547 272.734 10.6693 272.969 10.8984C273.208 11.1276 273.328 11.4557 273.328 11.8828C273.328 12.2943 273.208 12.6198 272.969 12.8594C272.729 13.0938 272.396 13.2109 271.969 13.2109C271.531 13.2109 271.193 13.0964 270.953 12.8672C270.714 12.6328 270.594 12.3047 270.594 11.8828ZM291.281 13H288.867V8.07031H284.344V13H281.922V1.57812H284.344V6.05469H288.867V1.57812H291.281V13ZM295.883 8.61719C295.883 9.48177 296.023 10.1354 296.305 10.5781C296.591 11.0208 297.055 11.2422 297.695 11.2422C298.331 11.2422 298.786 11.0234 299.062 10.5859C299.344 10.1432 299.484 9.48698 299.484 8.61719C299.484 7.7526 299.344 7.10417 299.062 6.67188C298.781 6.23958 298.32 6.02344 297.68 6.02344C297.044 6.02344 296.586 6.23958 296.305 6.67188C296.023 7.09896 295.883 7.7474 295.883 8.61719ZM301.922 8.61719C301.922 10.0391 301.547 11.151 300.797 11.9531C300.047 12.7552 299.003 13.1562 297.664 13.1562C296.826 13.1562 296.086 12.974 295.445 12.6094C294.805 12.2396 294.312 11.7109 293.969 11.0234C293.625 10.3359 293.453 9.53385 293.453 8.61719C293.453 7.1901 293.826 6.08073 294.57 5.28906C295.315 4.4974 296.362 4.10156 297.711 4.10156C298.549 4.10156 299.289 4.28385 299.93 4.64844C300.57 5.01302 301.062 5.53646 301.406 6.21875C301.75 6.90104 301.922 7.70052 301.922 8.61719ZM311.07 13L310.398 9.94531L309.492 6.08594H309.438L307.844 13H305.281L302.797 4.26562H305.172L306.18 8.13281C306.341 8.82552 306.505 9.78125 306.672 11H306.719C306.74 10.6042 306.831 9.97656 306.992 9.11719L307.117 8.45312L308.195 4.26562H310.82L311.844 8.45312C311.865 8.56771 311.896 8.73698 311.938 8.96094C311.984 9.1849 312.029 9.42448 312.07 9.67969C312.112 9.92969 312.148 10.1771 312.18 10.4219C312.216 10.6615 312.237 10.8542 312.242 11H312.289C312.336 10.625 312.419 10.112 312.539 9.46094C312.659 8.80469 312.745 8.36198 312.797 8.13281L313.844 4.26562H316.18L313.664 13H311.07ZM324.516 13.1562C323.49 13.1562 322.682 12.7578 322.094 11.9609C321.51 11.1641 321.219 10.0599 321.219 8.64844C321.219 7.21615 321.516 6.10156 322.109 5.30469C322.708 4.5026 323.531 4.10156 324.578 4.10156C325.677 4.10156 326.516 4.52865 327.094 5.38281H327.172C327.052 4.73177 326.992 4.15104 326.992 3.64062V0.84375H329.383V13H327.555L327.094 11.8672H326.992C326.451 12.7266 325.625 13.1562 324.516 13.1562ZM325.352 11.2578C325.961 11.2578 326.406 11.0807 326.688 10.7266C326.974 10.3724 327.13 9.77083 327.156 8.92188V8.66406C327.156 7.72656 327.01 7.05469 326.719 6.64844C326.432 6.24219 325.964 6.03906 325.312 6.03906C324.781 6.03906 324.367 6.26562 324.07 6.71875C323.779 7.16667 323.633 7.82031 323.633 8.67969C323.633 9.53906 323.781 10.1849 324.078 10.6172C324.375 11.0443 324.799 11.2578 325.352 11.2578ZM333.773 8.61719C333.773 9.48177 333.914 10.1354 334.195 10.5781C334.482 11.0208 334.945 11.2422 335.586 11.2422C336.221 11.2422 336.677 11.0234 336.953 10.5859C337.234 10.1432 337.375 9.48698 337.375 8.61719C337.375 7.7526 337.234 7.10417 336.953 6.67188C336.672 6.23958 336.211 6.02344 335.57 6.02344C334.935 6.02344 334.477 6.23958 334.195 6.67188C333.914 7.09896 333.773 7.7474 333.773 8.61719ZM339.812 8.61719C339.812 10.0391 339.438 11.151 338.688 11.9531C337.938 12.7552 336.893 13.1562 335.555 13.1562C334.716 13.1562 333.977 12.974 333.336 12.6094C332.695 12.2396 332.203 11.7109 331.859 11.0234C331.516 10.3359 331.344 9.53385 331.344 8.61719C331.344 7.1901 331.716 6.08073 332.461 5.28906C333.206 4.4974 334.253 4.10156 335.602 4.10156C336.44 4.10156 337.18 4.28385 337.82 4.64844C338.461 5.01302 338.953 5.53646 339.297 6.21875C339.641 6.90104 339.812 7.70052 339.812 8.61719ZM345.398 5.79688C344.893 5.79688 344.497 5.95833 344.211 6.28125C343.924 6.59896 343.76 7.05208 343.719 7.64062H347.062C347.052 7.05208 346.898 6.59896 346.602 6.28125C346.305 5.95833 345.904 5.79688 345.398 5.79688ZM345.734 13.1562C344.328 13.1562 343.229 12.7682 342.438 11.9922C341.646 11.2161 341.25 10.1172 341.25 8.69531C341.25 7.23177 341.615 6.10156 342.344 5.30469C343.078 4.5026 344.091 4.10156 345.383 4.10156C346.617 4.10156 347.578 4.45312 348.266 5.15625C348.953 5.85938 349.297 6.83073 349.297 8.07031V9.22656H343.664C343.69 9.90365 343.891 10.4323 344.266 10.8125C344.641 11.1927 345.167 11.3828 345.844 11.3828C346.37 11.3828 346.867 11.3281 347.336 11.2188C347.805 11.1094 348.294 10.9349 348.805 10.6953V12.5391C348.388 12.7474 347.943 12.901 347.469 13C346.995 13.1042 346.417 13.1562 345.734 13.1562ZM357.328 10.4062C357.328 11.3021 357.016 11.9844 356.391 12.4531C355.771 12.9219 354.841 13.1562 353.602 13.1562C352.966 13.1562 352.424 13.112 351.977 13.0234C351.529 12.9401 351.109 12.8151 350.719 12.6484V10.6797C351.161 10.888 351.659 11.0625 352.211 11.2031C352.768 11.3438 353.258 11.4141 353.68 11.4141C354.544 11.4141 354.977 11.1641 354.977 10.6641C354.977 10.4766 354.919 10.3255 354.805 10.2109C354.69 10.0911 354.492 9.95833 354.211 9.8125C353.93 9.66146 353.555 9.48698 353.086 9.28906C352.414 9.00781 351.919 8.7474 351.602 8.50781C351.289 8.26823 351.06 7.99479 350.914 7.6875C350.773 7.375 350.703 6.99219 350.703 6.53906C350.703 5.76302 351.003 5.16406 351.602 4.74219C352.206 4.3151 353.06 4.10156 354.164 4.10156C355.216 4.10156 356.24 4.33073 357.234 4.78906L356.516 6.50781C356.078 6.32031 355.669 6.16667 355.289 6.04688C354.909 5.92708 354.521 5.86719 354.125 5.86719C353.422 5.86719 353.07 6.05729 353.07 6.4375C353.07 6.65104 353.182 6.83594 353.406 6.99219C353.635 7.14844 354.133 7.38021 354.898 7.6875C355.581 7.96354 356.081 8.22135 356.398 8.46094C356.716 8.70052 356.951 8.97656 357.102 9.28906C357.253 9.60156 357.328 9.97396 357.328 10.4062ZM0.148438 24.0078C0.148438 23.2318 0.580729 22.8438 1.44531 22.8438C2.3099 22.8438 2.74219 23.2318 2.74219 24.0078C2.74219 24.3776 2.63281 24.6667 2.41406 24.875C2.20052 25.0781 1.8776 25.1797 1.44531 25.1797C0.580729 25.1797 0.148438 24.7891 0.148438 24.0078ZM2.63281 35H0.25V26.2656H2.63281V35ZM8.82031 33.2578C9.23698 33.2578 9.73698 33.1667 10.3203 32.9844V34.7578C9.72656 35.0234 8.9974 35.1562 8.13281 35.1562C7.17969 35.1562 6.48438 34.9167 6.04688 34.4375C5.61458 33.9531 5.39844 33.2292 5.39844 32.2656V28.0547H4.25781V27.0469L5.57031 26.25L6.25781 24.4062H7.78125V26.2656H10.2266V28.0547H7.78125V32.2656C7.78125 32.6042 7.875 32.8542 8.0625 33.0156C8.25521 33.1771 8.50781 33.2578 8.82031 33.2578ZM21.7969 35L21.3359 33.8125H21.2734C20.8724 34.3177 20.4583 34.6693 20.0312 34.8672C19.6094 35.0599 19.0573 35.1562 18.375 35.1562C17.5365 35.1562 16.875 34.9167 16.3906 34.4375C15.9115 33.9583 15.6719 33.276 15.6719 32.3906C15.6719 31.4635 15.9948 30.7812 16.6406 30.3438C17.2917 29.901 18.2708 29.6562 19.5781 29.6094L21.0938 29.5625V29.1797C21.0938 28.2943 20.6406 27.8516 19.7344 27.8516C19.0365 27.8516 18.2161 28.0625 17.2734 28.4844L16.4844 26.875C17.4896 26.349 18.6042 26.0859 19.8281 26.0859C21 26.0859 21.8984 26.3411 22.5234 26.8516C23.1484 27.362 23.4609 28.138 23.4609 29.1797V35H21.7969ZM21.0938 30.9531L20.1719 30.9844C19.4792 31.0052 18.9635 31.1302 18.625 31.3594C18.2865 31.5885 18.1172 31.9375 18.1172 32.4062C18.1172 33.0781 18.5026 33.4141 19.2734 33.4141C19.8255 33.4141 20.2656 33.2552 20.5938 32.9375C20.9271 32.6198 21.0938 32.1979 21.0938 31.6719V30.9531ZM30.75 28.0547H28.6875V35H26.3047V28.0547H24.9922V26.9062L26.3047 26.2656V25.625C26.3047 24.6302 26.5495 23.9036 27.0391 23.4453C27.5286 22.987 28.3125 22.7578 29.3906 22.7578C30.2135 22.7578 30.9453 22.8802 31.5859 23.125L30.9766 24.875C30.4974 24.724 30.0547 24.6484 29.6484 24.6484C29.3099 24.6484 29.0651 24.75 28.9141 24.9531C28.763 25.151 28.6875 25.4062 28.6875 25.7188V26.2656H30.75V28.0547ZM36.9453 28.0547H34.8828V35H32.5V28.0547H31.1875V26.9062L32.5 26.2656V25.625C32.5 24.6302 32.7448 23.9036 33.2344 23.4453C33.724 22.987 34.5078 22.7578 35.5859 22.7578C36.4089 22.7578 37.1406 22.8802 37.7812 23.125L37.1719 24.875C36.6927 24.724 36.25 24.6484 35.8438 24.6484C35.5052 24.6484 35.2604 24.75 35.1094 24.9531C34.9583 25.151 34.8828 25.4062 34.8828 25.7188V26.2656H36.9453V28.0547ZM41.9297 27.7969C41.4245 27.7969 41.0286 27.9583 40.7422 28.2812C40.4557 28.599 40.2917 29.0521 40.25 29.6406H43.5938C43.5833 29.0521 43.4297 28.599 43.1328 28.2812C42.8359 27.9583 42.4349 27.7969 41.9297 27.7969ZM42.2656 35.1562C40.8594 35.1562 39.7604 34.7682 38.9688 33.9922C38.1771 33.2161 37.7812 32.1172 37.7812 30.6953C37.7812 29.2318 38.1458 28.1016 38.875 27.3047C39.6094 26.5026 40.6224 26.1016 41.9141 26.1016C43.1484 26.1016 44.1094 26.4531 44.7969 27.1562C45.4844 27.8594 45.8281 28.8307 45.8281 30.0703V31.2266H40.1953C40.2214 31.9036 40.4219 32.4323 40.7969 32.8125C41.1719 33.1927 41.6979 33.3828 42.375 33.3828C42.901 33.3828 43.3984 33.3281 43.8672 33.2188C44.3359 33.1094 44.8255 32.9349 45.3359 32.6953V34.5391C44.9193 34.7474 44.474 34.901 44 35C43.526 35.1042 42.9479 35.1562 42.2656 35.1562ZM51.3125 35.1562C48.5938 35.1562 47.2344 33.6641 47.2344 30.6797C47.2344 29.1953 47.6042 28.0625 48.3438 27.2812C49.0833 26.4948 50.1432 26.1016 51.5234 26.1016C52.5339 26.1016 53.4401 26.2995 54.2422 26.6953L53.5391 28.5391C53.1641 28.388 52.8151 28.2656 52.4922 28.1719C52.1693 28.0729 51.8464 28.0234 51.5234 28.0234C50.2839 28.0234 49.6641 28.9036 49.6641 30.6641C49.6641 32.3724 50.2839 33.2266 51.5234 33.2266C51.9818 33.2266 52.4062 33.1667 52.7969 33.0469C53.1875 32.9219 53.5781 32.7292 53.9688 32.4688V34.5078C53.5833 34.7526 53.1927 34.9219 52.7969 35.0156C52.4062 35.1094 51.9115 35.1562 51.3125 35.1562ZM59.6797 33.2578C60.0964 33.2578 60.5964 33.1667 61.1797 32.9844V34.7578C60.5859 35.0234 59.8568 35.1562 58.9922 35.1562C58.0391 35.1562 57.3438 34.9167 56.9062 34.4375C56.474 33.9531 56.2578 33.2292 56.2578 32.2656V28.0547H55.1172V27.0469L56.4297 26.25L57.1172 24.4062H58.6406V26.2656H61.0859V28.0547H58.6406V32.2656C58.6406 32.6042 58.7344 32.8542 58.9219 33.0156C59.1146 33.1771 59.3672 33.2578 59.6797 33.2578ZM69.0078 30.6172C69.0078 31.4818 69.1484 32.1354 69.4297 32.5781C69.7161 33.0208 70.1797 33.2422 70.8203 33.2422C71.4557 33.2422 71.9115 33.0234 72.1875 32.5859C72.4688 32.1432 72.6094 31.487 72.6094 30.6172C72.6094 29.7526 72.4688 29.1042 72.1875 28.6719C71.9062 28.2396 71.4453 28.0234 70.8047 28.0234C70.1693 28.0234 69.7109 28.2396 69.4297 28.6719C69.1484 29.099 69.0078 29.7474 69.0078 30.6172ZM75.0469 30.6172C75.0469 32.0391 74.6719 33.151 73.9219 33.9531C73.1719 34.7552 72.1276 35.1562 70.7891 35.1562C69.9505 35.1562 69.2109 34.974 68.5703 34.6094C67.9297 34.2396 67.4375 33.7109 67.0938 33.0234C66.75 32.3359 66.5781 31.5339 66.5781 30.6172C66.5781 29.1901 66.9505 28.0807 67.6953 27.2891C68.4401 26.4974 69.487 26.1016 70.8359 26.1016C71.6745 26.1016 72.4141 26.2839 73.0547 26.6484C73.6953 27.013 74.1875 27.5365 74.5312 28.2188C74.875 28.901 75.0469 29.7005 75.0469 30.6172ZM83.2031 35L82.8828 33.8828H82.7578C82.5026 34.2891 82.1406 34.6042 81.6719 34.8281C81.2031 35.0469 80.6693 35.1562 80.0703 35.1562C79.0443 35.1562 78.2708 34.8828 77.75 34.3359C77.2292 33.7839 76.9688 32.9922 76.9688 31.9609V26.2656H79.3516V31.3672C79.3516 31.9974 79.4635 32.4714 79.6875 32.7891C79.9115 33.1016 80.2682 33.2578 80.7578 33.2578C81.4245 33.2578 81.9062 33.0365 82.2031 32.5938C82.5 32.1458 82.6484 31.4062 82.6484 30.375V26.2656H85.0312V35H83.2031ZM92.4062 26.1016C92.7292 26.1016 92.9974 26.125 93.2109 26.1719L93.0312 28.4062C92.8385 28.3542 92.6042 28.3281 92.3281 28.3281C91.5677 28.3281 90.974 28.5234 90.5469 28.9141C90.125 29.3047 89.9141 29.8516 89.9141 30.5547V35H87.5312V26.2656H89.3359L89.6875 27.7344H89.8047C90.0755 27.2448 90.4401 26.8516 90.8984 26.5547C91.362 26.2526 91.8646 26.1016 92.4062 26.1016ZM107.016 35H104.633V29.8984C104.633 28.638 104.164 28.0078 103.227 28.0078C102.56 28.0078 102.078 28.2344 101.781 28.6875C101.484 29.1406 101.336 29.875 101.336 30.8906V35H98.9531V22.8438H101.336V25.3203C101.336 25.513 101.318 25.9661 101.281 26.6797L101.227 27.3828H101.352C101.883 26.5286 102.727 26.1016 103.883 26.1016C104.909 26.1016 105.688 26.3776 106.219 26.9297C106.75 27.4818 107.016 28.2734 107.016 29.3047V35ZM113.086 27.7969C112.581 27.7969 112.185 27.9583 111.898 28.2812C111.612 28.599 111.448 29.0521 111.406 29.6406H114.75C114.74 29.0521 114.586 28.599 114.289 28.2812C113.992 27.9583 113.591 27.7969 113.086 27.7969ZM113.422 35.1562C112.016 35.1562 110.917 34.7682 110.125 33.9922C109.333 33.2161 108.938 32.1172 108.938 30.6953C108.938 29.2318 109.302 28.1016 110.031 27.3047C110.766 26.5026 111.779 26.1016 113.07 26.1016C114.305 26.1016 115.266 26.4531 115.953 27.1562C116.641 27.8594 116.984 28.8307 116.984 30.0703V31.2266H111.352C111.378 31.9036 111.578 32.4323 111.953 32.8125C112.328 33.1927 112.854 33.3828 113.531 33.3828C114.057 33.3828 114.555 33.3281 115.023 33.2188C115.492 33.1094 115.982 32.9349 116.492 32.6953V34.5391C116.076 34.7474 115.63 34.901 115.156 35C114.682 35.1042 114.104 35.1562 113.422 35.1562ZM124.469 35L124.008 33.8125H123.945C123.544 34.3177 123.13 34.6693 122.703 34.8672C122.281 35.0599 121.729 35.1562 121.047 35.1562C120.208 35.1562 119.547 34.9167 119.062 34.4375C118.583 33.9583 118.344 33.276 118.344 32.3906C118.344 31.4635 118.667 30.7812 119.312 30.3438C119.964 29.901 120.943 29.6562 122.25 29.6094L123.766 29.5625V29.1797C123.766 28.2943 123.312 27.8516 122.406 27.8516C121.708 27.8516 120.888 28.0625 119.945 28.4844L119.156 26.875C120.161 26.349 121.276 26.0859 122.5 26.0859C123.672 26.0859 124.57 26.3411 125.195 26.8516C125.82 27.362 126.133 28.138 126.133 29.1797V35H124.469ZM123.766 30.9531L122.844 30.9844C122.151 31.0052 121.635 31.1302 121.297 31.3594C120.958 31.5885 120.789 31.9375 120.789 32.4062C120.789 33.0781 121.174 33.4141 121.945 33.4141C122.497 33.4141 122.938 33.2552 123.266 32.9375C123.599 32.6198 123.766 32.1979 123.766 31.6719V30.9531ZM130.977 35H128.594V22.8438H130.977V35ZM137.164 33.2578C137.581 33.2578 138.081 33.1667 138.664 32.9844V34.7578C138.07 35.0234 137.341 35.1562 136.477 35.1562C135.523 35.1562 134.828 34.9167 134.391 34.4375C133.958 33.9531 133.742 33.2292 133.742 32.2656V28.0547H132.602V27.0469L133.914 26.25L134.602 24.4062H136.125V26.2656H138.57V28.0547H136.125V32.2656C136.125 32.6042 136.219 32.8542 136.406 33.0156C136.599 33.1771 136.852 33.2578 137.164 33.2578ZM148.5 35H146.117V29.8984C146.117 28.638 145.648 28.0078 144.711 28.0078C144.044 28.0078 143.562 28.2344 143.266 28.6875C142.969 29.1406 142.82 29.875 142.82 30.8906V35H140.438V22.8438H142.82V25.3203C142.82 25.513 142.802 25.9661 142.766 26.6797L142.711 27.3828H142.836C143.367 26.5286 144.211 26.1016 145.367 26.1016C146.393 26.1016 147.172 26.3776 147.703 26.9297C148.234 27.4818 148.5 28.2734 148.5 29.3047V35ZM151.859 31.2109V30.6328C151.859 30.1328 151.966 29.6979 152.18 29.3281C152.393 28.9583 152.784 28.5651 153.352 28.1484C153.898 27.7578 154.258 27.4401 154.43 27.1953C154.607 26.9505 154.695 26.6771 154.695 26.375C154.695 26.0365 154.57 25.7786 154.32 25.6016C154.07 25.4245 153.721 25.3359 153.273 25.3359C152.492 25.3359 151.602 25.5911 150.602 26.1016L149.75 24.3906C150.911 23.7396 152.143 23.4141 153.445 23.4141C154.518 23.4141 155.37 23.6719 156 24.1875C156.635 24.7031 156.953 25.3906 156.953 26.25C156.953 26.8229 156.823 27.3177 156.562 27.7344C156.302 28.151 155.807 28.6198 155.078 29.1406C154.578 29.5104 154.26 29.7917 154.125 29.9844C153.995 30.1771 153.93 30.4297 153.93 30.7422V31.2109H151.859ZM151.609 33.8828C151.609 33.4453 151.727 33.1146 151.961 32.8906C152.195 32.6667 152.536 32.5547 152.984 32.5547C153.417 32.5547 153.75 32.6693 153.984 32.8984C154.224 33.1276 154.344 33.4557 154.344 33.8828C154.344 34.2943 154.224 34.6198 153.984 34.8594C153.745 35.0938 153.411 35.2109 152.984 35.2109C152.547 35.2109 152.208 35.0964 151.969 34.8672C151.729 34.6328 151.609 34.3047 151.609 33.8828Z" fill="#111112"/>
</svg>
