<svg width="291" height="17" viewBox="0 0 291 17" fill="none" xmlns="http://www.w3.org/2000/svg">
<path d="M8.17969 9.82812C8.17969 10.8594 7.80729 11.6719 7.0625 12.2656C6.32292 12.8594 5.29167 13.1562 3.96875 13.1562C2.75 13.1562 1.67188 12.9271 0.734375 12.4688V10.2188C1.50521 10.5625 2.15625 10.8047 2.6875 10.9453C3.22396 11.0859 3.71354 11.1562 4.15625 11.1562C4.6875 11.1562 5.09375 11.0547 5.375 10.8516C5.66146 10.6484 5.80469 10.3464 5.80469 9.94531C5.80469 9.72135 5.74219 9.52344 5.61719 9.35156C5.49219 9.17448 5.30729 9.00521 5.0625 8.84375C4.82292 8.68229 4.33073 8.42448 3.58594 8.07031C2.88802 7.74219 2.36458 7.42708 2.01562 7.125C1.66667 6.82292 1.38802 6.47135 1.17969 6.07031C0.971354 5.66927 0.867188 5.20052 0.867188 4.66406C0.867188 3.65365 1.20833 2.85938 1.89062 2.28125C2.57812 1.70312 3.52604 1.41406 4.73438 1.41406C5.32812 1.41406 5.89323 1.48438 6.42969 1.625C6.97135 1.76562 7.53646 1.96354 8.125 2.21875L7.34375 4.10156C6.73438 3.85156 6.22917 3.67708 5.82812 3.57812C5.43229 3.47917 5.04167 3.42969 4.65625 3.42969C4.19792 3.42969 3.84635 3.53646 3.60156 3.75C3.35677 3.96354 3.23438 4.24219 3.23438 4.58594C3.23438 4.79948 3.28385 4.98698 3.38281 5.14844C3.48177 5.30469 3.63802 5.45833 3.85156 5.60938C4.07031 5.75521 4.58333 6.02083 5.39062 6.40625C6.45833 6.91667 7.1901 7.42969 7.58594 7.94531C7.98177 8.45573 8.17969 9.08333 8.17969 9.82812ZM17.2422 13L16.5703 9.94531L15.6641 6.08594H15.6094L14.0156 13H11.4531L8.96875 4.26562H11.3438L12.3516 8.13281C12.513 8.82552 12.6771 9.78125 12.8438 11H12.8906C12.9115 10.6042 13.0026 9.97656 13.1641 9.11719L13.2891 8.45312L14.3672 4.26562H16.9922L18.0156 8.45312C18.0365 8.56771 18.0677 8.73698 18.1094 8.96094C18.1562 9.1849 18.2005 9.42448 18.2422 9.67969C18.2839 9.92969 18.3203 10.1771 18.3516 10.4219C18.388 10.6615 18.4089 10.8542 18.4141 11H18.4609C18.5078 10.625 18.5911 10.112 18.7109 9.46094C18.8307 8.80469 18.9167 8.36198 18.9688 8.13281L20.0156 4.26562H22.3516L19.8359 13H17.2422ZM27.3828 5.79688C26.8776 5.79688 26.4818 5.95833 26.1953 6.28125C25.9089 6.59896 25.7448 7.05208 25.7031 7.64062H29.0469C29.0365 7.05208 28.8828 6.59896 28.5859 6.28125C28.2891 5.95833 27.888 5.79688 27.3828 5.79688ZM27.7188 13.1562C26.3125 13.1562 25.2135 12.7682 24.4219 11.9922C23.6302 11.2161 23.2344 10.1172 23.2344 8.69531C23.2344 7.23177 23.599 6.10156 24.3281 5.30469C25.0625 4.5026 26.0755 4.10156 27.3672 4.10156C28.6016 4.10156 29.5625 4.45312 30.25 5.15625C30.9375 5.85938 31.2812 6.83073 31.2812 8.07031V9.22656H25.6484C25.6745 9.90365 25.875 10.4323 26.25 10.8125C26.625 11.1927 27.151 11.3828 27.8281 11.3828C28.3542 11.3828 28.8516 11.3281 29.3203 11.2188C29.7891 11.1094 30.2786 10.9349 30.7891 10.6953V12.5391C30.3724 12.7474 29.9271 12.901 29.4531 13C28.9792 13.1042 28.401 13.1562 27.7188 13.1562ZM36.8359 5.79688C36.3307 5.79688 35.9349 5.95833 35.6484 6.28125C35.362 6.59896 35.1979 7.05208 35.1562 7.64062H38.5C38.4896 7.05208 38.3359 6.59896 38.0391 6.28125C37.7422 5.95833 37.3411 5.79688 36.8359 5.79688ZM37.1719 13.1562C35.7656 13.1562 34.6667 12.7682 33.875 11.9922C33.0833 11.2161 32.6875 10.1172 32.6875 8.69531C32.6875 7.23177 33.0521 6.10156 33.7812 5.30469C34.5156 4.5026 35.5286 4.10156 36.8203 4.10156C38.0547 4.10156 39.0156 4.45312 39.7031 5.15625C40.3906 5.85938 40.7344 6.83073 40.7344 8.07031V9.22656H35.1016C35.1276 9.90365 35.3281 10.4323 35.7031 10.8125C36.0781 11.1927 36.6042 11.3828 37.2812 11.3828C37.8073 11.3828 38.3047 11.3281 38.7734 11.2188C39.2422 11.1094 39.7318 10.9349 40.2422 10.6953V12.5391C39.8255 12.7474 39.3802 12.901 38.9062 13C38.4323 13.1042 37.8542 13.1562 37.1719 13.1562ZM46.3516 11.2578C46.7682 11.2578 47.2682 11.1667 47.8516 10.9844V12.7578C47.2578 13.0234 46.5286 13.1562 45.6641 13.1562C44.7109 13.1562 44.0156 12.9167 43.5781 12.4375C43.1458 11.9531 42.9297 11.2292 42.9297 10.2656V6.05469H41.7891V5.04688L43.1016 4.25L43.7891 2.40625H45.3125V4.26562H47.7578V6.05469H45.3125V10.2656C45.3125 10.6042 45.4062 10.8542 45.5938 11.0156C45.7865 11.1771 46.0391 11.2578 46.3516 11.2578ZM55.7188 10.4062C55.7188 11.3021 55.4062 11.9844 54.7812 12.4531C54.1615 12.9219 53.2318 13.1562 51.9922 13.1562C51.3568 13.1562 50.8151 13.112 50.3672 13.0234C49.9193 12.9401 49.5 12.8151 49.1094 12.6484V10.6797C49.5521 10.888 50.0495 11.0625 50.6016 11.2031C51.1589 11.3438 51.6484 11.4141 52.0703 11.4141C52.9349 11.4141 53.3672 11.1641 53.3672 10.6641C53.3672 10.4766 53.3099 10.3255 53.1953 10.2109C53.0807 10.0911 52.8828 9.95833 52.6016 9.8125C52.3203 9.66146 51.9453 9.48698 51.4766 9.28906C50.8047 9.00781 50.3099 8.7474 49.9922 8.50781C49.6797 8.26823 49.4505 7.99479 49.3047 7.6875C49.1641 7.375 49.0938 6.99219 49.0938 6.53906C49.0938 5.76302 49.3932 5.16406 49.9922 4.74219C50.5964 4.3151 51.4505 4.10156 52.5547 4.10156C53.6068 4.10156 54.6302 4.33073 55.625 4.78906L54.9062 6.50781C54.4688 6.32031 54.0599 6.16667 53.6797 6.04688C53.2995 5.92708 52.9115 5.86719 52.5156 5.86719C51.8125 5.86719 51.4609 6.05729 51.4609 6.4375C51.4609 6.65104 51.5729 6.83594 51.7969 6.99219C52.026 7.14844 52.5234 7.38021 53.2891 7.6875C53.9714 7.96354 54.4714 8.22135 54.7891 8.46094C55.1068 8.70052 55.3411 8.97656 55.4922 9.28906C55.6432 9.60156 55.7188 9.97396 55.7188 10.4062ZM63.6328 8.61719C63.6328 9.48177 63.7734 10.1354 64.0547 10.5781C64.3411 11.0208 64.8047 11.2422 65.4453 11.2422C66.0807 11.2422 66.5365 11.0234 66.8125 10.5859C67.0938 10.1432 67.2344 9.48698 67.2344 8.61719C67.2344 7.7526 67.0938 7.10417 66.8125 6.67188C66.5312 6.23958 66.0703 6.02344 65.4297 6.02344C64.7943 6.02344 64.3359 6.23958 64.0547 6.67188C63.7734 7.09896 63.6328 7.7474 63.6328 8.61719ZM69.6719 8.61719C69.6719 10.0391 69.2969 11.151 68.5469 11.9531C67.7969 12.7552 66.7526 13.1562 65.4141 13.1562C64.5755 13.1562 63.8359 12.974 63.1953 12.6094C62.5547 12.2396 62.0625 11.7109 61.7188 11.0234C61.375 10.3359 61.2031 9.53385 61.2031 8.61719C61.2031 7.1901 61.5755 6.08073 62.3203 5.28906C63.0651 4.4974 64.112 4.10156 65.4609 4.10156C66.2995 4.10156 67.0391 4.28385 67.6797 4.64844C68.3203 5.01302 68.8125 5.53646 69.1562 6.21875C69.5 6.90104 69.6719 7.70052 69.6719 8.61719ZM79.7031 13H77.3203V7.89844C77.3203 7.26823 77.2083 6.79688 76.9844 6.48438C76.7604 6.16667 76.4036 6.00781 75.9141 6.00781C75.2474 6.00781 74.7656 6.23177 74.4688 6.67969C74.1719 7.1224 74.0234 7.85938 74.0234 8.89062V13H71.6406V4.26562H73.4609L73.7812 5.38281H73.9141C74.1797 4.96094 74.5443 4.64323 75.0078 4.42969C75.4766 4.21094 76.0078 4.10156 76.6016 4.10156C77.6172 4.10156 78.388 4.3776 78.9141 4.92969C79.4401 5.47656 79.7031 6.26823 79.7031 7.30469V13ZM91.8594 13L91.3984 11.8125H91.3359C90.9349 12.3177 90.5208 12.6693 90.0938 12.8672C89.6719 13.0599 89.1198 13.1562 88.4375 13.1562C87.599 13.1562 86.9375 12.9167 86.4531 12.4375C85.974 11.9583 85.7344 11.276 85.7344 10.3906C85.7344 9.46354 86.0573 8.78125 86.7031 8.34375C87.3542 7.90104 88.3333 7.65625 89.6406 7.60938L91.1562 7.5625V7.17969C91.1562 6.29427 90.7031 5.85156 89.7969 5.85156C89.099 5.85156 88.2786 6.0625 87.3359 6.48438L86.5469 4.875C87.5521 4.34896 88.6667 4.08594 89.8906 4.08594C91.0625 4.08594 91.9609 4.34115 92.5859 4.85156C93.2109 5.36198 93.5234 6.13802 93.5234 7.17969V13H91.8594ZM91.1562 8.95312L90.2344 8.98438C89.5417 9.00521 89.026 9.13021 88.6875 9.35938C88.349 9.58854 88.1797 9.9375 88.1797 10.4062C88.1797 11.0781 88.5651 11.4141 89.3359 11.4141C89.888 11.4141 90.3281 11.2552 90.6562 10.9375C90.9896 10.6198 91.1562 10.1979 91.1562 9.67188V8.95312ZM102.906 13.1562C101.88 13.1562 101.073 12.7578 100.484 11.9609C99.901 11.1641 99.6094 10.0599 99.6094 8.64844C99.6094 7.21615 99.9062 6.10156 100.5 5.30469C101.099 4.5026 101.922 4.10156 102.969 4.10156C104.068 4.10156 104.906 4.52865 105.484 5.38281H105.562C105.443 4.73177 105.383 4.15104 105.383 3.64062V0.84375H107.773V13H105.945L105.484 11.8672H105.383C104.841 12.7266 104.016 13.1562 102.906 13.1562ZM103.742 11.2578C104.352 11.2578 104.797 11.0807 105.078 10.7266C105.365 10.3724 105.521 9.77083 105.547 8.92188V8.66406C105.547 7.72656 105.401 7.05469 105.109 6.64844C104.823 6.24219 104.354 6.03906 103.703 6.03906C103.172 6.03906 102.758 6.26562 102.461 6.71875C102.169 7.16667 102.023 7.82031 102.023 8.67969C102.023 9.53906 102.172 10.1849 102.469 10.6172C102.766 11.0443 103.19 11.2578 103.742 11.2578ZM110.164 2.00781C110.164 1.23177 110.596 0.84375 111.461 0.84375C112.326 0.84375 112.758 1.23177 112.758 2.00781C112.758 2.3776 112.648 2.66667 112.43 2.875C112.216 3.07812 111.893 3.17969 111.461 3.17969C110.596 3.17969 110.164 2.78906 110.164 2.00781ZM112.648 13H110.266V4.26562H112.648V13ZM118.773 5.79688C118.268 5.79688 117.872 5.95833 117.586 6.28125C117.299 6.59896 117.135 7.05208 117.094 7.64062H120.438C120.427 7.05208 120.273 6.59896 119.977 6.28125C119.68 5.95833 119.279 5.79688 118.773 5.79688ZM119.109 13.1562C117.703 13.1562 116.604 12.7682 115.812 11.9922C115.021 11.2161 114.625 10.1172 114.625 8.69531C114.625 7.23177 114.99 6.10156 115.719 5.30469C116.453 4.5026 117.466 4.10156 118.758 4.10156C119.992 4.10156 120.953 4.45312 121.641 5.15625C122.328 5.85938 122.672 6.83073 122.672 8.07031V9.22656H117.039C117.065 9.90365 117.266 10.4323 117.641 10.8125C118.016 11.1927 118.542 11.3828 119.219 11.3828C119.745 11.3828 120.242 11.3281 120.711 11.2188C121.18 11.1094 121.669 10.9349 122.18 10.6953V12.5391C121.763 12.7474 121.318 12.901 120.844 13C120.37 13.1042 119.792 13.1562 119.109 13.1562ZM128.289 11.2578C128.706 11.2578 129.206 11.1667 129.789 10.9844V12.7578C129.195 13.0234 128.466 13.1562 127.602 13.1562C126.648 13.1562 125.953 12.9167 125.516 12.4375C125.083 11.9531 124.867 11.2292 124.867 10.2656V6.05469H123.727V5.04688L125.039 4.25L125.727 2.40625H127.25V4.26562H129.695V6.05469H127.25V10.2656C127.25 10.6042 127.344 10.8542 127.531 11.0156C127.724 11.1771 127.977 11.2578 128.289 11.2578ZM134.945 9.6875V7.73438H139.141V9.6875H134.945ZM148.578 13.1562C145.859 13.1562 144.5 11.6641 144.5 8.67969C144.5 7.19531 144.87 6.0625 145.609 5.28125C146.349 4.49479 147.409 4.10156 148.789 4.10156C149.799 4.10156 150.706 4.29948 151.508 4.69531L150.805 6.53906C150.43 6.38802 150.081 6.26562 149.758 6.17188C149.435 6.07292 149.112 6.02344 148.789 6.02344C147.549 6.02344 146.93 6.90365 146.93 8.66406C146.93 10.3724 147.549 11.2266 148.789 11.2266C149.247 11.2266 149.672 11.1667 150.062 11.0469C150.453 10.9219 150.844 10.7292 151.234 10.4688V12.5078C150.849 12.7526 150.458 12.9219 150.062 13.0156C149.672 13.1094 149.177 13.1562 148.578 13.1562ZM158.812 13L158.352 11.8125H158.289C157.888 12.3177 157.474 12.6693 157.047 12.8672C156.625 13.0599 156.073 13.1562 155.391 13.1562C154.552 13.1562 153.891 12.9167 153.406 12.4375C152.927 11.9583 152.688 11.276 152.688 10.3906C152.688 9.46354 153.01 8.78125 153.656 8.34375C154.307 7.90104 155.286 7.65625 156.594 7.60938L158.109 7.5625V7.17969C158.109 6.29427 157.656 5.85156 156.75 5.85156C156.052 5.85156 155.232 6.0625 154.289 6.48438L153.5 4.875C154.505 4.34896 155.62 4.08594 156.844 4.08594C158.016 4.08594 158.914 4.34115 159.539 4.85156C160.164 5.36198 160.477 6.13802 160.477 7.17969V13H158.812ZM158.109 8.95312L157.188 8.98438C156.495 9.00521 155.979 9.13021 155.641 9.35938C155.302 9.58854 155.133 9.9375 155.133 10.4062C155.133 11.0781 155.518 11.4141 156.289 11.4141C156.841 11.4141 157.281 11.2552 157.609 10.9375C157.943 10.6198 158.109 10.1979 158.109 9.67188V8.95312ZM171 13H168.617V7.89844C168.617 7.26823 168.505 6.79688 168.281 6.48438C168.057 6.16667 167.701 6.00781 167.211 6.00781C166.544 6.00781 166.062 6.23177 165.766 6.67969C165.469 7.1224 165.32 7.85938 165.32 8.89062V13H162.938V4.26562H164.758L165.078 5.38281H165.211C165.477 4.96094 165.841 4.64323 166.305 4.42969C166.773 4.21094 167.305 4.10156 167.898 4.10156C168.914 4.10156 169.685 4.3776 170.211 4.92969C170.737 5.47656 171 6.26823 171 7.30469V13ZM176.359 4.26562H178.969L180.617 9.17969C180.758 9.60677 180.854 10.112 180.906 10.6953H180.953C181.01 10.1589 181.122 9.65365 181.289 9.17969L182.906 4.26562H185.461L181.766 14.1172C181.427 15.0286 180.943 15.7109 180.312 16.1641C179.688 16.6172 178.956 16.8438 178.117 16.8438C177.706 16.8438 177.302 16.7995 176.906 16.7109V14.8203C177.193 14.888 177.505 14.9219 177.844 14.9219C178.266 14.9219 178.633 14.7917 178.945 14.5312C179.263 14.276 179.51 13.888 179.688 13.3672L179.828 12.9375L176.359 4.26562ZM188.617 8.61719C188.617 9.48177 188.758 10.1354 189.039 10.5781C189.326 11.0208 189.789 11.2422 190.43 11.2422C191.065 11.2422 191.521 11.0234 191.797 10.5859C192.078 10.1432 192.219 9.48698 192.219 8.61719C192.219 7.7526 192.078 7.10417 191.797 6.67188C191.516 6.23958 191.055 6.02344 190.414 6.02344C189.779 6.02344 189.32 6.23958 189.039 6.67188C188.758 7.09896 188.617 7.7474 188.617 8.61719ZM194.656 8.61719C194.656 10.0391 194.281 11.151 193.531 11.9531C192.781 12.7552 191.737 13.1562 190.398 13.1562C189.56 13.1562 188.82 12.974 188.18 12.6094C187.539 12.2396 187.047 11.7109 186.703 11.0234C186.359 10.3359 186.188 9.53385 186.188 8.61719C186.188 7.1901 186.56 6.08073 187.305 5.28906C188.049 4.4974 189.096 4.10156 190.445 4.10156C191.284 4.10156 192.023 4.28385 192.664 4.64844C193.305 5.01302 193.797 5.53646 194.141 6.21875C194.484 6.90104 194.656 7.70052 194.656 8.61719ZM202.812 13L202.492 11.8828H202.367C202.112 12.2891 201.75 12.6042 201.281 12.8281C200.812 13.0469 200.279 13.1562 199.68 13.1562C198.654 13.1562 197.88 12.8828 197.359 12.3359C196.839 11.7839 196.578 10.9922 196.578 9.96094V4.26562H198.961V9.36719C198.961 9.9974 199.073 10.4714 199.297 10.7891C199.521 11.1016 199.878 11.2578 200.367 11.2578C201.034 11.2578 201.516 11.0365 201.812 10.5938C202.109 10.1458 202.258 9.40625 202.258 8.375V4.26562H204.641V13H202.812ZM214.914 5.79688C214.409 5.79688 214.013 5.95833 213.727 6.28125C213.44 6.59896 213.276 7.05208 213.234 7.64062H216.578C216.568 7.05208 216.414 6.59896 216.117 6.28125C215.82 5.95833 215.419 5.79688 214.914 5.79688ZM215.25 13.1562C213.844 13.1562 212.745 12.7682 211.953 11.9922C211.161 11.2161 210.766 10.1172 210.766 8.69531C210.766 7.23177 211.13 6.10156 211.859 5.30469C212.594 4.5026 213.607 4.10156 214.898 4.10156C216.133 4.10156 217.094 4.45312 217.781 5.15625C218.469 5.85938 218.812 6.83073 218.812 8.07031V9.22656H213.18C213.206 9.90365 213.406 10.4323 213.781 10.8125C214.156 11.1927 214.682 11.3828 215.359 11.3828C215.885 11.3828 216.383 11.3281 216.852 11.2188C217.32 11.1094 217.81 10.9349 218.32 10.6953V12.5391C217.904 12.7474 217.458 12.901 216.984 13C216.51 13.1042 215.932 13.1562 215.25 13.1562ZM226.297 13L225.836 11.8125H225.773C225.372 12.3177 224.958 12.6693 224.531 12.8672C224.109 13.0599 223.557 13.1562 222.875 13.1562C222.036 13.1562 221.375 12.9167 220.891 12.4375C220.411 11.9583 220.172 11.276 220.172 10.3906C220.172 9.46354 220.495 8.78125 221.141 8.34375C221.792 7.90104 222.771 7.65625 224.078 7.60938L225.594 7.5625V7.17969C225.594 6.29427 225.141 5.85156 224.234 5.85156C223.536 5.85156 222.716 6.0625 221.773 6.48438L220.984 4.875C221.99 4.34896 223.104 4.08594 224.328 4.08594C225.5 4.08594 226.398 4.34115 227.023 4.85156C227.648 5.36198 227.961 6.13802 227.961 7.17969V13H226.297ZM225.594 8.95312L224.672 8.98438C223.979 9.00521 223.464 9.13021 223.125 9.35938C222.786 9.58854 222.617 9.9375 222.617 10.4062C222.617 11.0781 223.003 11.4141 223.773 11.4141C224.326 11.4141 224.766 11.2552 225.094 10.9375C225.427 10.6198 225.594 10.1979 225.594 9.67188V8.95312ZM234.102 11.2578C234.518 11.2578 235.018 11.1667 235.602 10.9844V12.7578C235.008 13.0234 234.279 13.1562 233.414 13.1562C232.461 13.1562 231.766 12.9167 231.328 12.4375C230.896 11.9531 230.68 11.2292 230.68 10.2656V6.05469H229.539V5.04688L230.852 4.25L231.539 2.40625H233.062V4.26562H235.508V6.05469H233.062V10.2656C233.062 10.6042 233.156 10.8542 233.344 11.0156C233.536 11.1771 233.789 11.2578 234.102 11.2578ZM245.211 11.2578C245.628 11.2578 246.128 11.1667 246.711 10.9844V12.7578C246.117 13.0234 245.388 13.1562 244.523 13.1562C243.57 13.1562 242.875 12.9167 242.438 12.4375C242.005 11.9531 241.789 11.2292 241.789 10.2656V6.05469H240.648V5.04688L241.961 4.25L242.648 2.40625H244.172V4.26562H246.617V6.05469H244.172V10.2656C244.172 10.6042 244.266 10.8542 244.453 11.0156C244.646 11.1771 244.898 11.2578 245.211 11.2578ZM256.547 13H254.164V7.89844C254.164 6.63802 253.695 6.00781 252.758 6.00781C252.091 6.00781 251.609 6.23438 251.312 6.6875C251.016 7.14062 250.867 7.875 250.867 8.89062V13H248.484V0.84375H250.867V3.32031C250.867 3.51302 250.849 3.96615 250.812 4.67969L250.758 5.38281H250.883C251.414 4.52865 252.258 4.10156 253.414 4.10156C254.44 4.10156 255.219 4.3776 255.75 4.92969C256.281 5.48177 256.547 6.27344 256.547 7.30469V13ZM262.617 5.79688C262.112 5.79688 261.716 5.95833 261.43 6.28125C261.143 6.59896 260.979 7.05208 260.938 7.64062H264.281C264.271 7.05208 264.117 6.59896 263.82 6.28125C263.523 5.95833 263.122 5.79688 262.617 5.79688ZM262.953 13.1562C261.547 13.1562 260.448 12.7682 259.656 11.9922C258.865 11.2161 258.469 10.1172 258.469 8.69531C258.469 7.23177 258.833 6.10156 259.562 5.30469C260.297 4.5026 261.31 4.10156 262.602 4.10156C263.836 4.10156 264.797 4.45312 265.484 5.15625C266.172 5.85938 266.516 6.83073 266.516 8.07031V9.22656H260.883C260.909 9.90365 261.109 10.4323 261.484 10.8125C261.859 11.1927 262.385 11.3828 263.062 11.3828C263.589 11.3828 264.086 11.3281 264.555 11.2188C265.023 11.1094 265.513 10.9349 266.023 10.6953V12.5391C265.607 12.7474 265.161 12.901 264.688 13C264.214 13.1042 263.635 13.1562 262.953 13.1562ZM276.273 13H273.891V7.89844C273.891 7.26823 273.784 6.79688 273.57 6.48438C273.362 6.16667 273.031 6.00781 272.578 6.00781C271.969 6.00781 271.526 6.23177 271.25 6.67969C270.974 7.1276 270.836 7.86458 270.836 8.89062V13H268.453V4.26562H270.273L270.594 5.38281H270.727C270.961 4.98177 271.299 4.66927 271.742 4.44531C272.185 4.21615 272.693 4.10156 273.266 4.10156C274.573 4.10156 275.458 4.52865 275.922 5.38281H276.133C276.367 4.97656 276.711 4.66146 277.164 4.4375C277.622 4.21354 278.138 4.10156 278.711 4.10156C279.701 4.10156 280.448 4.35677 280.953 4.86719C281.464 5.3724 281.719 6.1849 281.719 7.30469V13H279.328V7.89844C279.328 7.26823 279.221 6.79688 279.008 6.48438C278.799 6.16667 278.469 6.00781 278.016 6.00781C277.432 6.00781 276.995 6.21615 276.703 6.63281C276.417 7.04948 276.273 7.71094 276.273 8.61719V13ZM285.078 9.21094V8.63281C285.078 8.13281 285.185 7.69792 285.398 7.32812C285.612 6.95833 286.003 6.5651 286.57 6.14844C287.117 5.75781 287.477 5.4401 287.648 5.19531C287.826 4.95052 287.914 4.67708 287.914 4.375C287.914 4.03646 287.789 3.77865 287.539 3.60156C287.289 3.42448 286.94 3.33594 286.492 3.33594C285.711 3.33594 284.82 3.59115 283.82 4.10156L282.969 2.39062C284.13 1.73958 285.362 1.41406 286.664 1.41406C287.737 1.41406 288.589 1.67188 289.219 2.1875C289.854 2.70312 290.172 3.39062 290.172 4.25C290.172 4.82292 290.042 5.31771 289.781 5.73438C289.521 6.15104 289.026 6.61979 288.297 7.14062C287.797 7.51042 287.479 7.79167 287.344 7.98438C287.214 8.17708 287.148 8.42969 287.148 8.74219V9.21094H285.078ZM284.828 11.8828C284.828 11.4453 284.945 11.1146 285.18 10.8906C285.414 10.6667 285.755 10.5547 286.203 10.5547C286.635 10.5547 286.969 10.6693 287.203 10.8984C287.443 11.1276 287.562 11.4557 287.562 11.8828C287.562 12.2943 287.443 12.6198 287.203 12.8594C286.964 13.0938 286.63 13.2109 286.203 13.2109C285.766 13.2109 285.427 13.0964 285.188 12.8672C284.948 12.6328 284.828 12.3047 284.828 11.8828Z" fill="#111112"/>
</svg>
