<svg width="380" height="39" viewBox="0 0 380 39" fill="none" xmlns="http://www.w3.org/2000/svg">
<path d="M26.1074 15.3994C26.1074 19.8896 24.9941 23.3408 22.7676 25.7529C20.541 28.165 17.3496 29.3711 13.1934 29.3711C9.03711 29.3711 5.8457 28.165 3.61914 25.7529C1.39258 23.3408 0.279297 19.8773 0.279297 15.3623C0.279297 10.8473 1.39258 7.40234 3.61914 5.02734C5.85807 2.63997 9.06185 1.44629 13.2305 1.44629C17.3991 1.44629 20.5843 2.64616 22.7861 5.0459C25.0003 7.44564 26.1074 10.8968 26.1074 15.3994ZM6.30957 15.3994C6.30957 18.43 6.88477 20.7122 8.03516 22.2461C9.18555 23.7799 10.9049 24.5469 13.1934 24.5469C17.7826 24.5469 20.0771 21.4977 20.0771 15.3994C20.0771 9.28874 17.7949 6.2334 13.2305 6.2334C10.9421 6.2334 9.21647 7.00651 8.05371 8.55273C6.89095 10.0866 6.30957 12.3688 6.30957 15.3994ZM42.8623 7.86621C43.6292 7.86621 44.2663 7.92188 44.7734 8.0332L44.3467 13.3398C43.889 13.2161 43.3324 13.1543 42.6768 13.1543C40.8708 13.1543 39.4606 13.6182 38.4463 14.5459C37.4443 15.4736 36.9434 16.7725 36.9434 18.4424V29H31.2842V8.25586H35.5703L36.4053 11.7441H36.6836C37.3268 10.5814 38.1927 9.64746 39.2812 8.94238C40.3822 8.22493 41.5758 7.86621 42.8623 7.86621ZM55.1084 29.3711C52.6715 29.3711 50.7542 28.4248 49.3564 26.5322C47.971 24.6396 47.2783 22.0173 47.2783 18.665C47.2783 15.2633 47.9834 12.6162 49.3936 10.7236C50.8161 8.81868 52.7705 7.86621 55.2568 7.86621C57.8669 7.86621 59.8584 8.88053 61.2314 10.9092H61.417C61.1325 9.36296 60.9902 7.98372 60.9902 6.77148V0.128906H66.668V29H62.3262L61.2314 26.3096H60.9902C59.7038 28.3506 57.7432 29.3711 55.1084 29.3711ZM57.0938 24.8623C58.541 24.8623 59.5986 24.4417 60.2666 23.6006C60.9469 22.7594 61.318 21.3307 61.3799 19.3145V18.7021C61.3799 16.4756 61.0335 14.8799 60.3408 13.915C59.6605 12.9502 58.5472 12.4678 57.001 12.4678C55.7393 12.4678 54.7559 13.0059 54.0508 14.082C53.3581 15.1458 53.0117 16.6982 53.0117 18.7393C53.0117 20.7803 53.3643 22.3141 54.0693 23.3408C54.7744 24.3551 55.7826 24.8623 57.0938 24.8623ZM81.1777 11.8926C79.9779 11.8926 79.0378 12.276 78.3574 13.043C77.6771 13.7975 77.2874 14.8737 77.1885 16.2715H85.1299C85.1051 14.8737 84.7402 13.7975 84.0352 13.043C83.3301 12.276 82.3776 11.8926 81.1777 11.8926ZM81.9756 29.3711C78.6357 29.3711 76.0257 28.4495 74.1455 26.6064C72.2653 24.7633 71.3252 22.1533 71.3252 18.7764C71.3252 15.3005 72.1911 12.6162 73.9229 10.7236C75.667 8.81868 78.0729 7.86621 81.1406 7.86621C84.0723 7.86621 86.3545 8.70117 87.9873 10.3711C89.6201 12.041 90.4365 14.348 90.4365 17.292V20.0381H77.0586C77.1204 21.6462 77.5967 22.9017 78.4873 23.8047C79.3779 24.7077 80.6273 25.1592 82.2354 25.1592C83.4847 25.1592 84.666 25.0293 85.7793 24.7695C86.8926 24.5098 88.0553 24.0954 89.2676 23.5264V27.9053C88.278 28.4001 87.2204 28.765 86.0947 29C84.9691 29.2474 83.596 29.3711 81.9756 29.3711ZM106.616 7.86621C107.383 7.86621 108.02 7.92188 108.527 8.0332L108.101 13.3398C107.643 13.2161 107.086 13.1543 106.431 13.1543C104.625 13.1543 103.215 13.6182 102.2 14.5459C101.198 15.4736 100.697 16.7725 100.697 18.4424V29H95.0381V8.25586H99.3242L100.159 11.7441H100.438C101.081 10.5814 101.947 9.64746 103.035 8.94238C104.136 8.22493 105.33 7.86621 106.616 7.86621ZM119.196 8.25586H125.394L129.309 19.9268C129.643 20.9411 129.871 22.141 129.995 23.5264H130.106C130.243 22.2523 130.508 21.0524 130.904 19.9268L134.745 8.25586H140.812L132.036 31.6533C131.232 33.818 130.082 35.4385 128.585 36.5146C127.101 37.5908 125.363 38.1289 123.371 38.1289C122.394 38.1289 121.435 38.0238 120.495 37.8135V33.3232C121.175 33.484 121.918 33.5645 122.722 33.5645C123.724 33.5645 124.596 33.2552 125.338 32.6367C126.092 32.0306 126.68 31.109 127.101 29.8721L127.435 28.8516L119.196 8.25586ZM148.309 18.5908C148.309 20.6442 148.643 22.1966 149.311 23.248C149.991 24.2995 151.092 24.8252 152.613 24.8252C154.122 24.8252 155.205 24.3057 155.86 23.2666C156.528 22.2152 156.862 20.6566 156.862 18.5908C156.862 16.5374 156.528 14.9974 155.86 13.9707C155.192 12.944 154.098 12.4307 152.576 12.4307C151.067 12.4307 149.979 12.944 149.311 13.9707C148.643 14.985 148.309 16.5251 148.309 18.5908ZM162.651 18.5908C162.651 21.9678 161.761 24.6087 159.979 26.5137C158.198 28.4186 155.718 29.3711 152.539 29.3711C150.548 29.3711 148.791 28.9382 147.27 28.0723C145.748 27.194 144.579 25.9385 143.763 24.3057C142.946 22.6729 142.538 20.7679 142.538 18.5908C142.538 15.2015 143.423 12.5667 145.191 10.6865C146.96 8.80632 149.447 7.86621 152.65 7.86621C154.642 7.86621 156.398 8.29915 157.92 9.16504C159.441 10.0309 160.61 11.2741 161.427 12.8945C162.243 14.515 162.651 16.4137 162.651 18.5908ZM182.022 29L181.262 26.3467H180.965C180.359 27.3115 179.499 28.0599 178.386 28.5918C177.272 29.1113 176.005 29.3711 174.582 29.3711C172.145 29.3711 170.308 28.7217 169.071 27.4229C167.834 26.1117 167.216 24.2314 167.216 21.7822V8.25586H172.875V20.3721C172.875 21.8688 173.141 22.9945 173.673 23.749C174.205 24.4912 175.052 24.8623 176.215 24.8623C177.798 24.8623 178.942 24.3366 179.647 23.2852C180.353 22.2214 180.705 20.4648 180.705 18.0156V8.25586H186.364V29H182.022ZM203.88 7.86621C204.647 7.86621 205.284 7.92188 205.791 8.0332L205.364 13.3398C204.907 13.2161 204.35 13.1543 203.694 13.1543C201.888 13.1543 200.478 13.6182 199.464 14.5459C198.462 15.4736 197.961 16.7725 197.961 18.4424V29H192.302V8.25586H196.588L197.423 11.7441H197.701C198.344 10.5814 199.21 9.64746 200.299 8.94238C201.4 8.22493 202.593 7.86621 203.88 7.86621ZM228.168 24.8623C229.158 24.8623 230.345 24.6458 231.73 24.2129V28.4248C230.32 29.0557 228.589 29.3711 226.535 29.3711C224.271 29.3711 222.62 28.8021 221.581 27.6641C220.554 26.5137 220.041 24.7943 220.041 22.5059V12.5049H217.332V10.1113L220.449 8.21875L222.082 3.83984H225.7V8.25586H231.508V12.5049H225.7V22.5059C225.7 23.3099 225.923 23.9036 226.368 24.2871C226.826 24.6706 227.426 24.8623 228.168 24.8623ZM247.521 7.86621C248.287 7.86621 248.924 7.92188 249.432 8.0332L249.005 13.3398C248.547 13.2161 247.991 13.1543 247.335 13.1543C245.529 13.1543 244.119 13.6182 243.104 14.5459C242.103 15.4736 241.602 16.7725 241.602 18.4424V29H235.942V8.25586H240.229L241.063 11.7441H241.342C241.985 10.5814 242.851 9.64746 243.939 8.94238C245.04 8.22493 246.234 7.86621 247.521 7.86621ZM252.957 2.89355C252.957 1.05046 253.984 0.128906 256.037 0.128906C258.09 0.128906 259.117 1.05046 259.117 2.89355C259.117 3.77181 258.857 4.45833 258.338 4.95312C257.831 5.43555 257.064 5.67676 256.037 5.67676C253.984 5.67676 252.957 4.74902 252.957 2.89355ZM258.857 29H253.198V8.25586H258.857V29ZM277.987 29L276.893 26.1797H276.744C275.792 27.3796 274.808 28.2145 273.794 28.6846C272.792 29.1423 271.481 29.3711 269.86 29.3711C267.869 29.3711 266.298 28.8021 265.147 27.6641C264.009 26.526 263.44 24.9056 263.44 22.8027C263.44 20.6009 264.207 18.9805 265.741 17.9414C267.287 16.89 269.613 16.3086 272.718 16.1973L276.317 16.0859V15.1768C276.317 13.0739 275.241 12.0225 273.089 12.0225C271.431 12.0225 269.483 12.5234 267.244 13.5254L265.37 9.70312C267.757 8.45378 270.405 7.8291 273.312 7.8291C276.095 7.8291 278.229 8.43522 279.713 9.64746C281.197 10.8597 281.939 12.7028 281.939 15.1768V29H277.987ZM276.317 19.3887L274.128 19.4629C272.483 19.5124 271.258 19.8092 270.454 20.3535C269.65 20.8978 269.248 21.7266 269.248 22.8398C269.248 24.4355 270.163 25.2334 271.994 25.2334C273.305 25.2334 274.351 24.8561 275.13 24.1016C275.922 23.347 276.317 22.3451 276.317 21.0957V19.3887ZM293.443 29H287.784V0.128906H293.443V29ZM315.839 29.3711C313.402 29.3711 311.485 28.4248 310.087 26.5322C308.701 24.6396 308.009 22.0173 308.009 18.665C308.009 15.2633 308.714 12.6162 310.124 10.7236C311.547 8.81868 313.501 7.86621 315.987 7.86621C318.597 7.86621 320.589 8.88053 321.962 10.9092H322.147C321.863 9.36296 321.721 7.98372 321.721 6.77148V0.128906H327.398V29H323.057L321.962 26.3096H321.721C320.434 28.3506 318.474 29.3711 315.839 29.3711ZM317.824 24.8623C319.271 24.8623 320.329 24.4417 320.997 23.6006C321.677 22.7594 322.049 21.3307 322.11 19.3145V18.7021C322.11 16.4756 321.764 14.8799 321.071 13.915C320.391 12.9502 319.278 12.4678 317.731 12.4678C316.47 12.4678 315.486 13.0059 314.781 14.082C314.089 15.1458 313.742 16.6982 313.742 18.7393C313.742 20.7803 314.095 22.3141 314.8 23.3408C315.505 24.3551 316.513 24.8623 317.824 24.8623ZM333.076 2.89355C333.076 1.05046 334.103 0.128906 336.156 0.128906C338.21 0.128906 339.236 1.05046 339.236 2.89355C339.236 3.77181 338.977 4.45833 338.457 4.95312C337.95 5.43555 337.183 5.67676 336.156 5.67676C334.103 5.67676 333.076 4.74902 333.076 2.89355ZM338.977 29H333.317V8.25586H338.977V29ZM353.523 11.8926C352.324 11.8926 351.383 12.276 350.703 13.043C350.023 13.7975 349.633 14.8737 349.534 16.2715H357.476C357.451 14.8737 357.086 13.7975 356.381 13.043C355.676 12.276 354.723 11.8926 353.523 11.8926ZM354.321 29.3711C350.981 29.3711 348.371 28.4495 346.491 26.6064C344.611 24.7633 343.671 22.1533 343.671 18.7764C343.671 15.3005 344.537 12.6162 346.269 10.7236C348.013 8.81868 350.419 7.86621 353.486 7.86621C356.418 7.86621 358.7 8.70117 360.333 10.3711C361.966 12.041 362.782 14.348 362.782 17.292V20.0381H349.404C349.466 21.6462 349.942 22.9017 350.833 23.8047C351.724 24.7077 352.973 25.1592 354.581 25.1592C355.83 25.1592 357.012 25.0293 358.125 24.7695C359.238 24.5098 360.401 24.0954 361.613 23.5264V27.9053C360.624 28.4001 359.566 28.765 358.44 29C357.315 29.2474 355.942 29.3711 354.321 29.3711ZM376.123 24.8623C377.113 24.8623 378.3 24.6458 379.686 24.2129V28.4248C378.275 29.0557 376.544 29.3711 374.49 29.3711C372.227 29.3711 370.575 28.8021 369.536 27.6641C368.509 26.5137 367.996 24.7943 367.996 22.5059V12.5049H365.287V10.1113L368.404 8.21875L370.037 3.83984H373.655V8.25586H379.463V12.5049H373.655V22.5059C373.655 23.3099 373.878 23.9036 374.323 24.2871C374.781 24.6706 375.381 24.8623 376.123 24.8623Z" fill="#111112"/>
</svg>
