<svg width="321" height="17" viewBox="0 0 321 17" fill="none" xmlns="http://www.w3.org/2000/svg">
<path d="M5.14844 13H3.82031V2.75781H0.203125V1.57812H8.76562V2.75781H5.14844V13ZM14.2031 4.28125C14.5833 4.28125 14.9245 4.3125 15.2266 4.375L15.0469 5.57812C14.6927 5.5 14.3802 5.46094 14.1094 5.46094C13.4167 5.46094 12.8229 5.74219 12.3281 6.30469C11.8385 6.86719 11.5938 7.56771 11.5938 8.40625V13H10.2969V4.4375H11.3672L11.5156 6.02344H11.5781C11.8958 5.46615 12.2786 5.03646 12.7266 4.73438C13.1745 4.43229 13.6667 4.28125 14.2031 4.28125ZM15.4688 4.4375H16.8594L18.7344 9.32031C19.1458 10.4349 19.401 11.2396 19.5 11.7344H19.5625C19.6302 11.4688 19.7708 11.0156 19.9844 10.375C20.2031 9.72917 20.9115 7.75 22.1094 4.4375H23.5L19.8203 14.1875C19.4557 15.151 19.0286 15.8333 18.5391 16.2344C18.0547 16.6406 17.4583 16.8438 16.75 16.8438C16.3542 16.8438 15.9635 16.7995 15.5781 16.7109V15.6719C15.8646 15.7344 16.1849 15.7656 16.5391 15.7656C17.4297 15.7656 18.0651 15.2656 18.4453 14.2656L18.9219 13.0469L15.4688 4.4375ZM34.3125 13L34.0547 11.7812H33.9922C33.5651 12.3177 33.138 12.6823 32.7109 12.875C32.2891 13.0625 31.7604 13.1562 31.125 13.1562C30.276 13.1562 29.6094 12.9375 29.125 12.5C28.6458 12.0625 28.4062 11.4401 28.4062 10.6328C28.4062 8.90365 29.7891 7.9974 32.5547 7.91406L34.0078 7.86719V7.33594C34.0078 6.66406 33.862 6.16927 33.5703 5.85156C33.2839 5.52865 32.8229 5.36719 32.1875 5.36719C31.474 5.36719 30.6667 5.58594 29.7656 6.02344L29.3672 5.03125C29.7891 4.80208 30.25 4.6224 30.75 4.49219C31.2552 4.36198 31.7604 4.29688 32.2656 4.29688C33.2865 4.29688 34.0417 4.52344 34.5312 4.97656C35.026 5.42969 35.2734 6.15625 35.2734 7.15625V13H34.3125ZM31.3828 12.0859C32.1901 12.0859 32.8229 11.8646 33.2812 11.4219C33.7448 10.9792 33.9766 10.3594 33.9766 9.5625V8.78906L32.6797 8.84375C31.6484 8.88021 30.9036 9.04167 30.4453 9.32812C29.9922 9.60938 29.7656 10.0495 29.7656 10.6484C29.7656 11.1172 29.9062 11.474 30.1875 11.7188C30.474 11.9635 30.8724 12.0859 31.3828 12.0859ZM43.8125 13V7.46094C43.8125 6.76302 43.6536 6.24219 43.3359 5.89844C43.0182 5.55469 42.5208 5.38281 41.8438 5.38281C40.9479 5.38281 40.2917 5.625 39.875 6.10938C39.4583 6.59375 39.25 7.39323 39.25 8.50781V13H37.9531V4.4375H39.0078L39.2188 5.60938H39.2812C39.5469 5.1875 39.9193 4.86198 40.3984 4.63281C40.8776 4.39844 41.4115 4.28125 42 4.28125C43.0312 4.28125 43.8073 4.53125 44.3281 5.03125C44.849 5.52604 45.1094 6.32031 45.1094 7.41406V13H43.8125ZM46.4219 4.4375H47.8125L49.6875 9.32031C50.099 10.4349 50.3542 11.2396 50.4531 11.7344H50.5156C50.5833 11.4688 50.724 11.0156 50.9375 10.375C51.1562 9.72917 51.8646 7.75 53.0625 4.4375H54.4531L50.7734 14.1875C50.4089 15.151 49.9818 15.8333 49.4922 16.2344C49.0078 16.6406 48.4115 16.8438 47.7031 16.8438C47.3073 16.8438 46.9167 16.7995 46.5312 16.7109V15.6719C46.8177 15.7344 47.138 15.7656 47.4922 15.7656C48.3828 15.7656 49.0182 15.2656 49.3984 14.2656L49.875 13.0469L46.4219 4.4375ZM65.8281 11.8516H65.7578C65.1589 12.7214 64.263 13.1562 63.0703 13.1562C61.9505 13.1562 61.0781 12.7734 60.4531 12.0078C59.8333 11.2422 59.5234 10.1536 59.5234 8.74219C59.5234 7.33073 59.8359 6.23438 60.4609 5.45312C61.0859 4.67188 61.9557 4.28125 63.0703 4.28125C64.2318 4.28125 65.1224 4.70312 65.7422 5.54688H65.8438L65.7891 4.92969L65.7578 4.32812V0.84375H67.0547V13H66L65.8281 11.8516ZM63.2344 12.0703C64.1198 12.0703 64.7604 11.8307 65.1562 11.3516C65.5573 10.8672 65.7578 10.0885 65.7578 9.01562V8.74219C65.7578 7.52865 65.5547 6.66406 65.1484 6.14844C64.7474 5.6276 64.1042 5.36719 63.2188 5.36719C62.4583 5.36719 61.875 5.66406 61.4688 6.25781C61.0677 6.84635 60.8672 7.67969 60.8672 8.75781C60.8672 9.85156 61.0677 10.6771 61.4688 11.2344C61.8698 11.7917 62.4583 12.0703 63.2344 12.0703ZM71.1094 13H69.8125V4.4375H71.1094V13ZM69.7031 2.11719C69.7031 1.82031 69.776 1.60417 69.9219 1.46875C70.0677 1.32812 70.25 1.25781 70.4688 1.25781C70.6771 1.25781 70.8568 1.32812 71.0078 1.46875C71.1589 1.60938 71.2344 1.82552 71.2344 2.11719C71.2344 2.40885 71.1589 2.6276 71.0078 2.77344C70.8568 2.91406 70.6771 2.98438 70.4688 2.98438C70.25 2.98438 70.0677 2.91406 69.9219 2.77344C69.776 2.6276 69.7031 2.40885 69.7031 2.11719ZM77.4766 13.1562C76.2109 13.1562 75.2109 12.7708 74.4766 12C73.7474 11.2292 73.3828 10.1589 73.3828 8.78906C73.3828 7.40885 73.7214 6.3125 74.3984 5.5C75.0807 4.6875 75.9948 4.28125 77.1406 4.28125C78.2135 4.28125 79.0625 4.63542 79.6875 5.34375C80.3125 6.04688 80.625 6.97656 80.625 8.13281V8.95312H74.7266C74.7526 9.95833 75.0052 10.7214 75.4844 11.2422C75.9688 11.763 76.6484 12.0234 77.5234 12.0234C78.4453 12.0234 79.3568 11.8307 80.2578 11.4453V12.6016C79.7995 12.7995 79.3646 12.9401 78.9531 13.0234C78.5469 13.112 78.0547 13.1562 77.4766 13.1562ZM77.125 5.36719C76.4375 5.36719 75.888 5.59115 75.4766 6.03906C75.0703 6.48698 74.8307 7.10677 74.7578 7.89844H79.2344C79.2344 7.08073 79.0521 6.45573 78.6875 6.02344C78.3229 5.58594 77.8021 5.36719 77.125 5.36719ZM85.6094 12.0859C85.8385 12.0859 86.0599 12.0703 86.2734 12.0391C86.487 12.0026 86.6562 11.9661 86.7812 11.9297V12.9219C86.6406 12.9896 86.4323 13.0443 86.1562 13.0859C85.8854 13.1328 85.6406 13.1562 85.4219 13.1562C83.7656 13.1562 82.9375 12.2839 82.9375 10.5391V5.44531H81.7109V4.82031L82.9375 4.28125L83.4844 2.45312H84.2344V4.4375H86.7188V5.44531H84.2344V10.4844C84.2344 11 84.3568 11.3958 84.6016 11.6719C84.8464 11.9479 85.1823 12.0859 85.6094 12.0859ZM95.4219 12.0859C95.651 12.0859 95.8724 12.0703 96.0859 12.0391C96.2995 12.0026 96.4688 11.9661 96.5938 11.9297V12.9219C96.4531 12.9896 96.2448 13.0443 95.9688 13.0859C95.6979 13.1328 95.4531 13.1562 95.2344 13.1562C93.5781 13.1562 92.75 12.2839 92.75 10.5391V5.44531H91.5234V4.82031L92.75 4.28125L93.2969 2.45312H94.0469V4.4375H96.5312V5.44531H94.0469V10.4844C94.0469 11 94.1693 11.3958 94.4141 11.6719C94.6589 11.9479 94.9948 12.0859 95.4219 12.0859ZM105.703 8.71094C105.703 10.1068 105.352 11.1979 104.648 11.9844C103.945 12.7656 102.974 13.1562 101.734 13.1562C100.969 13.1562 100.289 12.9766 99.6953 12.6172C99.1016 12.2578 98.6432 11.7422 98.3203 11.0703C97.9974 10.3984 97.8359 9.61198 97.8359 8.71094C97.8359 7.3151 98.1849 6.22917 98.8828 5.45312C99.5807 4.67188 100.549 4.28125 101.789 4.28125C102.987 4.28125 103.938 4.67969 104.641 5.47656C105.349 6.27344 105.703 7.35156 105.703 8.71094ZM99.1797 8.71094C99.1797 9.80469 99.3984 10.638 99.8359 11.2109C100.273 11.7839 100.917 12.0703 101.766 12.0703C102.615 12.0703 103.258 11.7865 103.695 11.2188C104.138 10.6458 104.359 9.8099 104.359 8.71094C104.359 7.6224 104.138 6.79688 103.695 6.23438C103.258 5.66667 102.609 5.38281 101.75 5.38281C100.901 5.38281 100.26 5.66146 99.8281 6.21875C99.3958 6.77604 99.1797 7.60677 99.1797 8.71094ZM115.562 13.1562C114.323 13.1562 113.362 12.776 112.68 12.0156C112.003 11.25 111.664 10.1693 111.664 8.77344C111.664 7.34115 112.008 6.23438 112.695 5.45312C113.388 4.67188 114.372 4.28125 115.648 4.28125C116.06 4.28125 116.471 4.32552 116.883 4.41406C117.294 4.5026 117.617 4.60677 117.852 4.72656L117.453 5.82812C117.167 5.71354 116.854 5.61979 116.516 5.54688C116.177 5.46875 115.878 5.42969 115.617 5.42969C113.878 5.42969 113.008 6.53906 113.008 8.75781C113.008 9.8099 113.219 10.6172 113.641 11.1797C114.068 11.7422 114.698 12.0234 115.531 12.0234C116.245 12.0234 116.977 11.8698 117.727 11.5625V12.7109C117.154 13.0078 116.432 13.1562 115.562 13.1562ZM125.625 13V7.46094C125.625 6.76302 125.466 6.24219 125.148 5.89844C124.831 5.55469 124.333 5.38281 123.656 5.38281C122.755 5.38281 122.096 5.6276 121.68 6.11719C121.268 6.60677 121.062 7.40885 121.062 8.52344V13H119.766V0.84375H121.062V4.52344C121.062 4.96615 121.042 5.33333 121 5.625H121.078C121.333 5.21354 121.695 4.89062 122.164 4.65625C122.638 4.41667 123.177 4.29688 123.781 4.29688C124.828 4.29688 125.612 4.54688 126.133 5.04688C126.659 5.54167 126.922 6.33073 126.922 7.41406V13H125.625ZM136.984 8.71094C136.984 10.1068 136.633 11.1979 135.93 11.9844C135.227 12.7656 134.255 13.1562 133.016 13.1562C132.25 13.1562 131.57 12.9766 130.977 12.6172C130.383 12.2578 129.924 11.7422 129.602 11.0703C129.279 10.3984 129.117 9.61198 129.117 8.71094C129.117 7.3151 129.466 6.22917 130.164 5.45312C130.862 4.67188 131.831 4.28125 133.07 4.28125C134.268 4.28125 135.219 4.67969 135.922 5.47656C136.63 6.27344 136.984 7.35156 136.984 8.71094ZM130.461 8.71094C130.461 9.80469 130.68 10.638 131.117 11.2109C131.555 11.7839 132.198 12.0703 133.047 12.0703C133.896 12.0703 134.539 11.7865 134.977 11.2188C135.419 10.6458 135.641 9.8099 135.641 8.71094C135.641 7.6224 135.419 6.79688 134.977 6.23438C134.539 5.66667 133.891 5.38281 133.031 5.38281C132.182 5.38281 131.542 5.66146 131.109 6.21875C130.677 6.77604 130.461 7.60677 130.461 8.71094ZM146.656 8.71094C146.656 10.1068 146.305 11.1979 145.602 11.9844C144.898 12.7656 143.927 13.1562 142.688 13.1562C141.922 13.1562 141.242 12.9766 140.648 12.6172C140.055 12.2578 139.596 11.7422 139.273 11.0703C138.951 10.3984 138.789 9.61198 138.789 8.71094C138.789 7.3151 139.138 6.22917 139.836 5.45312C140.534 4.67188 141.503 4.28125 142.742 4.28125C143.94 4.28125 144.891 4.67969 145.594 5.47656C146.302 6.27344 146.656 7.35156 146.656 8.71094ZM140.133 8.71094C140.133 9.80469 140.352 10.638 140.789 11.2109C141.227 11.7839 141.87 12.0703 142.719 12.0703C143.568 12.0703 144.211 11.7865 144.648 11.2188C145.091 10.6458 145.312 9.8099 145.312 8.71094C145.312 7.6224 145.091 6.79688 144.648 6.23438C144.211 5.66667 143.562 5.38281 142.703 5.38281C141.854 5.38281 141.214 5.66146 140.781 6.21875C140.349 6.77604 140.133 7.60677 140.133 8.71094ZM154.461 10.6641C154.461 11.4609 154.164 12.0755 153.57 12.5078C152.977 12.9401 152.143 13.1562 151.07 13.1562C149.935 13.1562 149.049 12.9766 148.414 12.6172V11.4141C148.826 11.6224 149.266 11.7865 149.734 11.9062C150.208 12.026 150.664 12.0859 151.102 12.0859C151.779 12.0859 152.299 11.9792 152.664 11.7656C153.029 11.5469 153.211 11.2161 153.211 10.7734C153.211 10.4401 153.065 10.1562 152.773 9.92188C152.487 9.68229 151.924 9.40104 151.086 9.07812C150.289 8.78125 149.721 8.52344 149.383 8.30469C149.049 8.08073 148.799 7.82812 148.633 7.54688C148.471 7.26562 148.391 6.92969 148.391 6.53906C148.391 5.84115 148.674 5.29167 149.242 4.89062C149.81 4.48438 150.589 4.28125 151.578 4.28125C152.5 4.28125 153.401 4.46875 154.281 4.84375L153.82 5.89844C152.961 5.54427 152.182 5.36719 151.484 5.36719C150.87 5.36719 150.406 5.46354 150.094 5.65625C149.781 5.84896 149.625 6.11458 149.625 6.45312C149.625 6.68229 149.682 6.8776 149.797 7.03906C149.917 7.20052 150.107 7.35417 150.367 7.5C150.628 7.64583 151.128 7.85677 151.867 8.13281C152.883 8.5026 153.568 8.875 153.922 9.25C154.281 9.625 154.461 10.0964 154.461 10.6641ZM160.195 13.1562C158.93 13.1562 157.93 12.7708 157.195 12C156.466 11.2292 156.102 10.1589 156.102 8.78906C156.102 7.40885 156.44 6.3125 157.117 5.5C157.799 4.6875 158.714 4.28125 159.859 4.28125C160.932 4.28125 161.781 4.63542 162.406 5.34375C163.031 6.04688 163.344 6.97656 163.344 8.13281V8.95312H157.445C157.471 9.95833 157.724 10.7214 158.203 11.2422C158.688 11.763 159.367 12.0234 160.242 12.0234C161.164 12.0234 162.076 11.8307 162.977 11.4453V12.6016C162.518 12.7995 162.083 12.9401 161.672 13.0234C161.266 13.112 160.773 13.1562 160.195 13.1562ZM159.844 5.36719C159.156 5.36719 158.607 5.59115 158.195 6.03906C157.789 6.48698 157.549 7.10677 157.477 7.89844H161.953C161.953 7.08073 161.771 6.45573 161.406 6.02344C161.042 5.58594 160.521 5.36719 159.844 5.36719ZM172.484 12.0859C172.714 12.0859 172.935 12.0703 173.148 12.0391C173.362 12.0026 173.531 11.9661 173.656 11.9297V12.9219C173.516 12.9896 173.307 13.0443 173.031 13.0859C172.76 13.1328 172.516 13.1562 172.297 13.1562C170.641 13.1562 169.812 12.2839 169.812 10.5391V5.44531H168.586V4.82031L169.812 4.28125L170.359 2.45312H171.109V4.4375H173.594V5.44531H171.109V10.4844C171.109 11 171.232 11.3958 171.477 11.6719C171.721 11.9479 172.057 12.0859 172.484 12.0859ZM181.234 13V7.46094C181.234 6.76302 181.076 6.24219 180.758 5.89844C180.44 5.55469 179.943 5.38281 179.266 5.38281C178.365 5.38281 177.706 5.6276 177.289 6.11719C176.878 6.60677 176.672 7.40885 176.672 8.52344V13H175.375V0.84375H176.672V4.52344C176.672 4.96615 176.651 5.33333 176.609 5.625H176.688C176.943 5.21354 177.305 4.89062 177.773 4.65625C178.247 4.41667 178.786 4.29688 179.391 4.29688C180.438 4.29688 181.221 4.54688 181.742 5.04688C182.268 5.54167 182.531 6.33073 182.531 7.41406V13H181.234ZM188.82 13.1562C187.555 13.1562 186.555 12.7708 185.82 12C185.091 11.2292 184.727 10.1589 184.727 8.78906C184.727 7.40885 185.065 6.3125 185.742 5.5C186.424 4.6875 187.339 4.28125 188.484 4.28125C189.557 4.28125 190.406 4.63542 191.031 5.34375C191.656 6.04688 191.969 6.97656 191.969 8.13281V8.95312H186.07C186.096 9.95833 186.349 10.7214 186.828 11.2422C187.312 11.763 187.992 12.0234 188.867 12.0234C189.789 12.0234 190.701 11.8307 191.602 11.4453V12.6016C191.143 12.7995 190.708 12.9401 190.297 13.0234C189.891 13.112 189.398 13.1562 188.82 13.1562ZM188.469 5.36719C187.781 5.36719 187.232 5.59115 186.82 6.03906C186.414 6.48698 186.174 7.10677 186.102 7.89844H190.578C190.578 7.08073 190.396 6.45573 190.031 6.02344C189.667 5.58594 189.146 5.36719 188.469 5.36719ZM202.25 4.28125C202.63 4.28125 202.971 4.3125 203.273 4.375L203.094 5.57812C202.74 5.5 202.427 5.46094 202.156 5.46094C201.464 5.46094 200.87 5.74219 200.375 6.30469C199.885 6.86719 199.641 7.56771 199.641 8.40625V13H198.344V4.4375H199.414L199.562 6.02344H199.625C199.943 5.46615 200.326 5.03646 200.773 4.73438C201.221 4.43229 201.714 4.28125 202.25 4.28125ZM206.172 13H204.875V4.4375H206.172V13ZM204.766 2.11719C204.766 1.82031 204.839 1.60417 204.984 1.46875C205.13 1.32812 205.312 1.25781 205.531 1.25781C205.74 1.25781 205.919 1.32812 206.07 1.46875C206.221 1.60938 206.297 1.82552 206.297 2.11719C206.297 2.40885 206.221 2.6276 206.07 2.77344C205.919 2.91406 205.74 2.98438 205.531 2.98438C205.312 2.98438 205.13 2.91406 204.984 2.77344C204.839 2.6276 204.766 2.40885 204.766 2.11719ZM215.93 4.4375V5.25781L214.344 5.44531C214.49 5.6276 214.62 5.86719 214.734 6.16406C214.849 6.45573 214.906 6.78646 214.906 7.15625C214.906 7.99479 214.62 8.66406 214.047 9.16406C213.474 9.66406 212.688 9.91406 211.688 9.91406C211.432 9.91406 211.193 9.89323 210.969 9.85156C210.417 10.1432 210.141 10.5104 210.141 10.9531C210.141 11.1875 210.237 11.362 210.43 11.4766C210.622 11.5859 210.953 11.6406 211.422 11.6406H212.938C213.865 11.6406 214.576 11.8359 215.07 12.2266C215.57 12.6172 215.82 13.1849 215.82 13.9297C215.82 14.8776 215.44 15.599 214.68 16.0938C213.919 16.5938 212.81 16.8438 211.352 16.8438C210.232 16.8438 209.367 16.6354 208.758 16.2188C208.154 15.8021 207.852 15.2135 207.852 14.4531C207.852 13.9323 208.018 13.4818 208.352 13.1016C208.685 12.7214 209.154 12.4635 209.758 12.3281C209.539 12.2292 209.354 12.0755 209.203 11.8672C209.057 11.6589 208.984 11.4167 208.984 11.1406C208.984 10.8281 209.068 10.5547 209.234 10.3203C209.401 10.0859 209.664 9.85938 210.023 9.64062C209.581 9.45833 209.219 9.14844 208.938 8.71094C208.661 8.27344 208.523 7.77344 208.523 7.21094C208.523 6.27344 208.805 5.55208 209.367 5.04688C209.93 4.53646 210.727 4.28125 211.758 4.28125C212.206 4.28125 212.609 4.33333 212.969 4.4375H215.93ZM209.102 14.4375C209.102 14.901 209.297 15.2526 209.688 15.4922C210.078 15.7318 210.638 15.8516 211.367 15.8516C212.456 15.8516 213.26 15.6875 213.781 15.3594C214.307 15.0365 214.57 14.5964 214.57 14.0391C214.57 13.5755 214.427 13.2526 214.141 13.0703C213.854 12.8932 213.315 12.8047 212.523 12.8047H210.969C210.38 12.8047 209.922 12.9453 209.594 13.2266C209.266 13.5078 209.102 13.9115 209.102 14.4375ZM209.805 7.17969C209.805 7.77865 209.974 8.23177 210.312 8.53906C210.651 8.84635 211.122 9 211.727 9C212.992 9 213.625 8.38542 213.625 7.15625C213.625 5.86979 212.984 5.22656 211.703 5.22656C211.094 5.22656 210.625 5.39062 210.297 5.71875C209.969 6.04688 209.805 6.53385 209.805 7.17969ZM223.547 13V7.46094C223.547 6.76302 223.388 6.24219 223.07 5.89844C222.753 5.55469 222.255 5.38281 221.578 5.38281C220.677 5.38281 220.018 5.6276 219.602 6.11719C219.19 6.60677 218.984 7.40885 218.984 8.52344V13H217.688V0.84375H218.984V4.52344C218.984 4.96615 218.964 5.33333 218.922 5.625H219C219.255 5.21354 219.617 4.89062 220.086 4.65625C220.56 4.41667 221.099 4.29688 221.703 4.29688C222.75 4.29688 223.534 4.54688 224.055 5.04688C224.581 5.54167 224.844 6.33073 224.844 7.41406V13H223.547ZM230.281 12.0859C230.51 12.0859 230.732 12.0703 230.945 12.0391C231.159 12.0026 231.328 11.9661 231.453 11.9297V12.9219C231.312 12.9896 231.104 13.0443 230.828 13.0859C230.557 13.1328 230.312 13.1562 230.094 13.1562C228.438 13.1562 227.609 12.2839 227.609 10.5391V5.44531H226.383V4.82031L227.609 4.28125L228.156 2.45312H228.906V4.4375H231.391V5.44531H228.906V10.4844C228.906 11 229.029 11.3958 229.273 11.6719C229.518 11.9479 229.854 12.0859 230.281 12.0859ZM244.719 8.71094C244.719 10.1068 244.367 11.1979 243.664 11.9844C242.961 12.7656 241.99 13.1562 240.75 13.1562C239.984 13.1562 239.305 12.9766 238.711 12.6172C238.117 12.2578 237.659 11.7422 237.336 11.0703C237.013 10.3984 236.852 9.61198 236.852 8.71094C236.852 7.3151 237.201 6.22917 237.898 5.45312C238.596 4.67188 239.565 4.28125 240.805 4.28125C242.003 4.28125 242.953 4.67969 243.656 5.47656C244.365 6.27344 244.719 7.35156 244.719 8.71094ZM238.195 8.71094C238.195 9.80469 238.414 10.638 238.852 11.2109C239.289 11.7839 239.932 12.0703 240.781 12.0703C241.63 12.0703 242.273 11.7865 242.711 11.2188C243.154 10.6458 243.375 9.8099 243.375 8.71094C243.375 7.6224 243.154 6.79688 242.711 6.23438C242.273 5.66667 241.625 5.38281 240.766 5.38281C239.917 5.38281 239.276 5.66146 238.844 6.21875C238.411 6.77604 238.195 7.60677 238.195 8.71094ZM252.859 13V7.46094C252.859 6.76302 252.701 6.24219 252.383 5.89844C252.065 5.55469 251.568 5.38281 250.891 5.38281C249.995 5.38281 249.339 5.625 248.922 6.10938C248.505 6.59375 248.297 7.39323 248.297 8.50781V13H247V4.4375H248.055L248.266 5.60938H248.328C248.594 5.1875 248.966 4.86198 249.445 4.63281C249.924 4.39844 250.458 4.28125 251.047 4.28125C252.078 4.28125 252.854 4.53125 253.375 5.03125C253.896 5.52604 254.156 6.32031 254.156 7.41406V13H252.859ZM260.445 13.1562C259.18 13.1562 258.18 12.7708 257.445 12C256.716 11.2292 256.352 10.1589 256.352 8.78906C256.352 7.40885 256.69 6.3125 257.367 5.5C258.049 4.6875 258.964 4.28125 260.109 4.28125C261.182 4.28125 262.031 4.63542 262.656 5.34375C263.281 6.04688 263.594 6.97656 263.594 8.13281V8.95312H257.695C257.721 9.95833 257.974 10.7214 258.453 11.2422C258.938 11.763 259.617 12.0234 260.492 12.0234C261.414 12.0234 262.326 11.8307 263.227 11.4453V12.6016C262.768 12.7995 262.333 12.9401 261.922 13.0234C261.516 13.112 261.023 13.1562 260.445 13.1562ZM260.094 5.36719C259.406 5.36719 258.857 5.59115 258.445 6.03906C258.039 6.48698 257.799 7.10677 257.727 7.89844H262.203C262.203 7.08073 262.021 6.45573 261.656 6.02344C261.292 5.58594 260.771 5.36719 260.094 5.36719ZM273.828 5.44531H271.648V13H270.352V5.44531H268.82V4.85938L270.352 4.39062V3.91406C270.352 1.8099 271.271 0.757812 273.109 0.757812C273.562 0.757812 274.094 0.848958 274.703 1.03125L274.367 2.07031C273.867 1.90885 273.44 1.82812 273.086 1.82812C272.596 1.82812 272.234 1.99219 272 2.32031C271.766 2.64323 271.648 3.16406 271.648 3.88281V4.4375H273.828V5.44531ZM282.781 8.71094C282.781 10.1068 282.43 11.1979 281.727 11.9844C281.023 12.7656 280.052 13.1562 278.812 13.1562C278.047 13.1562 277.367 12.9766 276.773 12.6172C276.18 12.2578 275.721 11.7422 275.398 11.0703C275.076 10.3984 274.914 9.61198 274.914 8.71094C274.914 7.3151 275.263 6.22917 275.961 5.45312C276.659 4.67188 277.628 4.28125 278.867 4.28125C280.065 4.28125 281.016 4.67969 281.719 5.47656C282.427 6.27344 282.781 7.35156 282.781 8.71094ZM276.258 8.71094C276.258 9.80469 276.477 10.638 276.914 11.2109C277.352 11.7839 277.995 12.0703 278.844 12.0703C279.693 12.0703 280.336 11.7865 280.773 11.2188C281.216 10.6458 281.438 9.8099 281.438 8.71094C281.438 7.6224 281.216 6.79688 280.773 6.23438C280.336 5.66667 279.688 5.38281 278.828 5.38281C277.979 5.38281 277.339 5.66146 276.906 6.21875C276.474 6.77604 276.258 7.60677 276.258 8.71094ZM288.969 4.28125C289.349 4.28125 289.69 4.3125 289.992 4.375L289.812 5.57812C289.458 5.5 289.146 5.46094 288.875 5.46094C288.182 5.46094 287.589 5.74219 287.094 6.30469C286.604 6.86719 286.359 7.56771 286.359 8.40625V13H285.062V4.4375H286.133L286.281 6.02344H286.344C286.661 5.46615 287.044 5.03646 287.492 4.73438C287.94 4.43229 288.432 4.28125 288.969 4.28125ZM294.391 4.4375H295.781L297.656 9.32031C298.068 10.4349 298.323 11.2396 298.422 11.7344H298.484C298.552 11.4688 298.693 11.0156 298.906 10.375C299.125 9.72917 299.833 7.75 301.031 4.4375H302.422L298.742 14.1875C298.378 15.151 297.951 15.8333 297.461 16.2344C296.977 16.6406 296.38 16.8438 295.672 16.8438C295.276 16.8438 294.885 16.7995 294.5 16.7109V15.6719C294.786 15.7344 295.107 15.7656 295.461 15.7656C296.352 15.7656 296.987 15.2656 297.367 14.2656L297.844 13.0469L294.391 4.4375ZM311.203 8.71094C311.203 10.1068 310.852 11.1979 310.148 11.9844C309.445 12.7656 308.474 13.1562 307.234 13.1562C306.469 13.1562 305.789 12.9766 305.195 12.6172C304.602 12.2578 304.143 11.7422 303.82 11.0703C303.497 10.3984 303.336 9.61198 303.336 8.71094C303.336 7.3151 303.685 6.22917 304.383 5.45312C305.081 4.67188 306.049 4.28125 307.289 4.28125C308.487 4.28125 309.438 4.67969 310.141 5.47656C310.849 6.27344 311.203 7.35156 311.203 8.71094ZM304.68 8.71094C304.68 9.80469 304.898 10.638 305.336 11.2109C305.773 11.7839 306.417 12.0703 307.266 12.0703C308.115 12.0703 308.758 11.7865 309.195 11.2188C309.638 10.6458 309.859 9.8099 309.859 8.71094C309.859 7.6224 309.638 6.79688 309.195 6.23438C308.758 5.66667 308.109 5.38281 307.25 5.38281C306.401 5.38281 305.76 5.66146 305.328 6.21875C304.896 6.77604 304.68 7.60677 304.68 8.71094ZM314.703 4.4375V9.99219C314.703 10.6901 314.862 11.2109 315.18 11.5547C315.497 11.8984 315.995 12.0703 316.672 12.0703C317.568 12.0703 318.221 11.8255 318.633 11.3359C319.049 10.8464 319.258 10.0469 319.258 8.9375V4.4375H320.555V13H319.484L319.297 11.8516H319.227C318.961 12.2734 318.591 12.5964 318.117 12.8203C317.648 13.0443 317.112 13.1562 316.508 13.1562C315.466 13.1562 314.685 12.9089 314.164 12.4141C313.648 11.9193 313.391 11.1276 313.391 10.0391V4.4375H314.703Z" fill="#111112"/>
</svg>
