<svg width="519" height="39" viewBox="0 0 519 39" fill="none" xmlns="http://www.w3.org/2000/svg">
<path d="M13.1689 6.27051C11.0042 6.27051 9.32812 7.08691 8.14062 8.71973C6.95312 10.3402 6.35938 12.6038 6.35938 15.5107C6.35938 21.5596 8.62923 24.584 13.1689 24.584C15.0739 24.584 17.3809 24.1077 20.0898 23.1553V27.9795C17.8633 28.9072 15.377 29.3711 12.6309 29.3711C8.6849 29.3711 5.66667 28.1774 3.57617 25.79C1.48568 23.3903 0.44043 19.9515 0.44043 15.4736C0.44043 12.6533 0.953776 10.1855 1.98047 8.07031C3.00716 5.94271 4.47917 4.31608 6.39648 3.19043C8.32617 2.05241 10.5837 1.4834 13.1689 1.4834C15.8037 1.4834 18.4508 2.12044 21.1104 3.39453L19.2549 8.07031C18.2406 7.58789 17.2201 7.16732 16.1934 6.80859C15.1667 6.44987 14.1585 6.27051 13.1689 6.27051ZM38.6074 29L37.5127 26.1797H37.3643C36.4118 27.3796 35.4284 28.2145 34.4141 28.6846C33.4121 29.1423 32.1009 29.3711 30.4805 29.3711C28.4889 29.3711 26.918 28.8021 25.7676 27.6641C24.6296 26.526 24.0605 24.9056 24.0605 22.8027C24.0605 20.6009 24.8275 18.9805 26.3613 17.9414C27.9076 16.89 30.2331 16.3086 33.3379 16.1973L36.9375 16.0859V15.1768C36.9375 13.0739 35.8613 12.0225 33.709 12.0225C32.0514 12.0225 30.1032 12.5234 27.8643 13.5254L25.9902 9.70312C28.3776 8.45378 31.0247 7.8291 33.9316 7.8291C36.7148 7.8291 38.8486 8.43522 40.333 9.64746C41.8174 10.8597 42.5596 12.7028 42.5596 15.1768V29H38.6074ZM36.9375 19.3887L34.748 19.4629C33.1029 19.5124 31.8783 19.8092 31.0742 20.3535C30.2702 20.8978 29.8682 21.7266 29.8682 22.8398C29.8682 24.4355 30.7835 25.2334 32.6143 25.2334C33.9255 25.2334 34.9707 24.8561 35.75 24.1016C36.5417 23.347 36.9375 22.3451 36.9375 21.0957V19.3887ZM67.5527 29H61.8936V16.8838C61.8936 15.387 61.6276 14.2676 61.0957 13.5254C60.5638 12.7708 59.7165 12.3936 58.5537 12.3936C56.9704 12.3936 55.8262 12.9255 55.1211 13.9893C54.416 15.0407 54.0635 16.791 54.0635 19.2402V29H48.4043V8.25586H52.7275L53.4883 10.9092H53.8037C54.4346 9.90723 55.3005 9.15267 56.4014 8.64551C57.5146 8.12598 58.7764 7.86621 60.1865 7.86621C62.5986 7.86621 64.4294 8.52181 65.6787 9.83301C66.9281 11.1318 67.5527 13.012 67.5527 15.4736V29ZM78.0547 1.87305L77.2939 11.6699H73.6387L72.8779 1.87305H78.0547ZM92.249 24.8623C93.2386 24.8623 94.4261 24.6458 95.8115 24.2129V28.4248C94.4014 29.0557 92.6696 29.3711 90.6162 29.3711C88.3525 29.3711 86.7012 28.8021 85.6621 27.6641C84.6354 26.5137 84.1221 24.7943 84.1221 22.5059V12.5049H81.4131V10.1113L84.5303 8.21875L86.1631 3.83984H89.7812V8.25586H95.5889V12.5049H89.7812V22.5059C89.7812 23.3099 90.0039 23.9036 90.4492 24.2871C90.9069 24.6706 91.5068 24.8623 92.249 24.8623ZM106.926 8.25586H113.123L117.038 19.9268C117.372 20.9411 117.601 22.141 117.725 23.5264H117.836C117.972 22.2523 118.238 21.0524 118.634 19.9268L122.475 8.25586H128.542L119.766 31.6533C118.962 33.818 117.811 35.4385 116.314 36.5146C114.83 37.5908 113.092 38.1289 111.101 38.1289C110.123 38.1289 109.165 38.0238 108.225 37.8135V33.3232C108.905 33.484 109.647 33.5645 110.451 33.5645C111.453 33.5645 112.325 33.2552 113.067 32.6367C113.822 32.0306 114.41 31.109 114.83 29.8721L115.164 28.8516L106.926 8.25586ZM136.038 18.5908C136.038 20.6442 136.372 22.1966 137.04 23.248C137.72 24.2995 138.821 24.8252 140.343 24.8252C141.852 24.8252 142.934 24.3057 143.59 23.2666C144.258 22.2152 144.592 20.6566 144.592 18.5908C144.592 16.5374 144.258 14.9974 143.59 13.9707C142.922 12.944 141.827 12.4307 140.306 12.4307C138.797 12.4307 137.708 12.944 137.04 13.9707C136.372 14.985 136.038 16.5251 136.038 18.5908ZM150.381 18.5908C150.381 21.9678 149.49 24.6087 147.709 26.5137C145.928 28.4186 143.448 29.3711 140.269 29.3711C138.277 29.3711 136.521 28.9382 134.999 28.0723C133.478 27.194 132.309 25.9385 131.492 24.3057C130.676 22.6729 130.268 20.7679 130.268 18.5908C130.268 15.2015 131.152 12.5667 132.921 10.6865C134.69 8.80632 137.176 7.86621 140.38 7.86621C142.371 7.86621 144.128 8.29915 145.649 9.16504C147.171 10.0309 148.34 11.2741 149.156 12.8945C149.973 14.515 150.381 16.4137 150.381 18.5908ZM169.752 29L168.991 26.3467H168.694C168.088 27.3115 167.229 28.0599 166.115 28.5918C165.002 29.1113 163.734 29.3711 162.312 29.3711C159.875 29.3711 158.038 28.7217 156.801 27.4229C155.564 26.1117 154.945 24.2314 154.945 21.7822V8.25586H160.604V20.3721C160.604 21.8688 160.87 22.9945 161.402 23.749C161.934 24.4912 162.782 24.8623 163.944 24.8623C165.528 24.8623 166.672 24.3366 167.377 23.2852C168.082 22.2214 168.435 20.4648 168.435 18.0156V8.25586H174.094V29H169.752ZM198.326 29.3711C191.869 29.3711 188.641 25.8271 188.641 18.7393C188.641 15.2139 189.519 12.5234 191.275 10.668C193.032 8.80013 195.549 7.86621 198.827 7.86621C201.227 7.86621 203.379 8.33626 205.284 9.27637L203.614 13.6553C202.724 13.2965 201.895 13.0059 201.128 12.7832C200.361 12.5482 199.594 12.4307 198.827 12.4307C195.883 12.4307 194.411 14.5212 194.411 18.7021C194.411 22.7594 195.883 24.7881 198.827 24.7881C199.916 24.7881 200.924 24.6458 201.852 24.3613C202.779 24.0645 203.707 23.6068 204.635 22.9883V27.8311C203.719 28.4124 202.792 28.8145 201.852 29.0371C200.924 29.2598 199.749 29.3711 198.326 29.3711ZM228.607 29H222.948V16.8838C222.948 13.8903 221.835 12.3936 219.608 12.3936C218.025 12.3936 216.881 12.9316 216.176 14.0078C215.471 15.084 215.118 16.8281 215.118 19.2402V29H209.459V0.128906H215.118V6.01074C215.118 6.46842 215.075 7.5446 214.988 9.23926L214.858 10.9092H215.155C216.417 8.88053 218.421 7.86621 221.167 7.86621C223.604 7.86621 225.453 8.52181 226.715 9.83301C227.977 11.1442 228.607 13.0244 228.607 15.4736V29ZM238.942 18.5908C238.942 20.6442 239.276 22.1966 239.944 23.248C240.625 24.2995 241.726 24.8252 243.247 24.8252C244.756 24.8252 245.839 24.3057 246.494 23.2666C247.162 22.2152 247.496 20.6566 247.496 18.5908C247.496 16.5374 247.162 14.9974 246.494 13.9707C245.826 12.944 244.731 12.4307 243.21 12.4307C241.701 12.4307 240.612 12.944 239.944 13.9707C239.276 14.985 238.942 16.5251 238.942 18.5908ZM253.285 18.5908C253.285 21.9678 252.395 24.6087 250.613 26.5137C248.832 28.4186 246.352 29.3711 243.173 29.3711C241.181 29.3711 239.425 28.9382 237.903 28.0723C236.382 27.194 235.213 25.9385 234.396 24.3057C233.58 22.6729 233.172 20.7679 233.172 18.5908C233.172 15.2015 234.056 12.5667 235.825 10.6865C237.594 8.80632 240.08 7.86621 243.284 7.86621C245.276 7.86621 247.032 8.29915 248.554 9.16504C250.075 10.0309 251.244 11.2741 252.061 12.8945C252.877 14.515 253.285 16.4137 253.285 18.5908ZM262.47 18.5908C262.47 20.6442 262.804 22.1966 263.472 23.248C264.152 24.2995 265.253 24.8252 266.774 24.8252C268.284 24.8252 269.366 24.3057 270.021 23.2666C270.689 22.2152 271.023 20.6566 271.023 18.5908C271.023 16.5374 270.689 14.9974 270.021 13.9707C269.354 12.944 268.259 12.4307 266.737 12.4307C265.228 12.4307 264.14 12.944 263.472 13.9707C262.804 14.985 262.47 16.5251 262.47 18.5908ZM276.812 18.5908C276.812 21.9678 275.922 24.6087 274.141 26.5137C272.359 28.4186 269.879 29.3711 266.7 29.3711C264.709 29.3711 262.952 28.9382 261.431 28.0723C259.909 27.194 258.74 25.9385 257.924 24.3057C257.107 22.6729 256.699 20.7679 256.699 18.5908C256.699 15.2015 257.584 12.5667 259.353 10.6865C261.121 8.80632 263.608 7.86621 266.812 7.86621C268.803 7.86621 270.56 8.29915 272.081 9.16504C273.603 10.0309 274.771 11.2741 275.588 12.8945C276.404 14.515 276.812 16.4137 276.812 18.5908ZM295.961 22.8398C295.961 24.9674 295.219 26.5879 293.734 27.7012C292.262 28.8145 290.054 29.3711 287.11 29.3711C285.601 29.3711 284.315 29.266 283.251 29.0557C282.187 28.8577 281.191 28.5609 280.264 28.165V23.4893C281.315 23.984 282.496 24.3984 283.808 24.7324C285.131 25.0664 286.294 25.2334 287.296 25.2334C289.349 25.2334 290.376 24.6396 290.376 23.4521C290.376 23.0068 290.24 22.6481 289.968 22.376C289.696 22.0915 289.226 21.776 288.558 21.4297C287.89 21.071 286.999 20.6566 285.886 20.1865C284.29 19.5186 283.115 18.9001 282.36 18.3311C281.618 17.762 281.074 17.1126 280.728 16.3828C280.394 15.6406 280.227 14.7314 280.227 13.6553C280.227 11.8122 280.938 10.3896 282.36 9.3877C283.795 8.37337 285.824 7.86621 288.446 7.86621C290.945 7.86621 293.376 8.41048 295.738 9.49902L294.031 13.5811C292.992 13.1357 292.021 12.7708 291.118 12.4863C290.215 12.2018 289.294 12.0596 288.354 12.0596C286.684 12.0596 285.849 12.5111 285.849 13.4141C285.849 13.9212 286.115 14.3604 286.646 14.7314C287.191 15.1025 288.372 15.653 290.19 16.3828C291.811 17.0384 292.998 17.6507 293.753 18.2197C294.507 18.7887 295.064 19.4443 295.423 20.1865C295.782 20.9287 295.961 21.8132 295.961 22.8398ZM308.968 11.8926C307.768 11.8926 306.828 12.276 306.147 13.043C305.467 13.7975 305.077 14.8737 304.979 16.2715H312.92C312.895 14.8737 312.53 13.7975 311.825 13.043C311.12 12.276 310.168 11.8926 308.968 11.8926ZM309.766 29.3711C306.426 29.3711 303.816 28.4495 301.936 26.6064C300.055 24.7633 299.115 22.1533 299.115 18.7764C299.115 15.3005 299.981 12.6162 301.713 10.7236C303.457 8.81868 305.863 7.86621 308.931 7.86621C311.862 7.86621 314.145 8.70117 315.777 10.3711C317.41 12.041 318.227 14.348 318.227 17.292V20.0381H304.849C304.91 21.6462 305.387 22.9017 306.277 23.8047C307.168 24.7077 308.417 25.1592 310.025 25.1592C311.275 25.1592 312.456 25.0293 313.569 24.7695C314.683 24.5098 315.845 24.0954 317.058 23.5264V27.9053C316.068 28.4001 315.01 28.765 313.885 29C312.759 29.2474 311.386 29.3711 309.766 29.3711ZM329.73 8.25586H335.928L339.843 19.9268C340.177 20.9411 340.406 22.141 340.529 23.5264H340.641C340.777 22.2523 341.043 21.0524 341.438 19.9268L345.279 8.25586H351.347L342.57 31.6533C341.766 33.818 340.616 35.4385 339.119 36.5146C337.635 37.5908 335.897 38.1289 333.905 38.1289C332.928 38.1289 331.969 38.0238 331.029 37.8135V33.3232C331.71 33.484 332.452 33.5645 333.256 33.5645C334.258 33.5645 335.13 33.2552 335.872 32.6367C336.627 32.0306 337.214 31.109 337.635 29.8721L337.969 28.8516L329.73 8.25586ZM358.843 18.5908C358.843 20.6442 359.177 22.1966 359.845 23.248C360.525 24.2995 361.626 24.8252 363.147 24.8252C364.657 24.8252 365.739 24.3057 366.395 23.2666C367.062 22.2152 367.396 20.6566 367.396 18.5908C367.396 16.5374 367.062 14.9974 366.395 13.9707C365.727 12.944 364.632 12.4307 363.11 12.4307C361.601 12.4307 360.513 12.944 359.845 13.9707C359.177 14.985 358.843 16.5251 358.843 18.5908ZM373.186 18.5908C373.186 21.9678 372.295 24.6087 370.514 26.5137C368.732 28.4186 366.252 29.3711 363.073 29.3711C361.082 29.3711 359.325 28.9382 357.804 28.0723C356.282 27.194 355.113 25.9385 354.297 24.3057C353.48 22.6729 353.072 20.7679 353.072 18.5908C353.072 15.2015 353.957 12.5667 355.726 10.6865C357.494 8.80632 359.981 7.86621 363.185 7.86621C365.176 7.86621 366.933 8.29915 368.454 9.16504C369.976 10.0309 371.145 11.2741 371.961 12.8945C372.777 14.515 373.186 16.4137 373.186 18.5908ZM392.557 29L391.796 26.3467H391.499C390.893 27.3115 390.033 28.0599 388.92 28.5918C387.807 29.1113 386.539 29.3711 385.116 29.3711C382.679 29.3711 380.842 28.7217 379.605 27.4229C378.368 26.1117 377.75 24.2314 377.75 21.7822V8.25586H383.409V20.3721C383.409 21.8688 383.675 22.9945 384.207 23.749C384.739 24.4912 385.586 24.8623 386.749 24.8623C388.332 24.8623 389.477 24.3366 390.182 23.2852C390.887 22.2214 391.239 20.4648 391.239 18.0156V8.25586H396.898V29H392.557ZM414.414 7.86621C415.181 7.86621 415.818 7.92188 416.325 8.0332L415.898 13.3398C415.441 13.2161 414.884 13.1543 414.229 13.1543C412.423 13.1543 411.012 13.6182 409.998 14.5459C408.996 15.4736 408.495 16.7725 408.495 18.4424V29H402.836V8.25586H407.122L407.957 11.7441H408.235C408.879 10.5814 409.744 9.64746 410.833 8.94238C411.934 8.22493 413.128 7.86621 414.414 7.86621ZM436.531 29.3711C434.094 29.3711 432.177 28.4248 430.779 26.5322C429.394 24.6396 428.701 22.0173 428.701 18.665C428.701 15.2633 429.406 12.6162 430.816 10.7236C432.239 8.81868 434.193 7.86621 436.68 7.86621C439.29 7.86621 441.281 8.88053 442.654 10.9092H442.84C442.555 9.36296 442.413 7.98372 442.413 6.77148V0.128906H448.091V29H443.749L442.654 26.3096H442.413C441.127 28.3506 439.166 29.3711 436.531 29.3711ZM438.517 24.8623C439.964 24.8623 441.021 24.4417 441.689 23.6006C442.37 22.7594 442.741 21.3307 442.803 19.3145V18.7021C442.803 16.4756 442.456 14.8799 441.764 13.915C441.083 12.9502 439.97 12.4678 438.424 12.4678C437.162 12.4678 436.179 13.0059 435.474 14.082C434.781 15.1458 434.435 16.6982 434.435 18.7393C434.435 20.7803 434.787 22.3141 435.492 23.3408C436.197 24.3551 437.205 24.8623 438.517 24.8623ZM453.769 2.89355C453.769 1.05046 454.795 0.128906 456.849 0.128906C458.902 0.128906 459.929 1.05046 459.929 2.89355C459.929 3.77181 459.669 4.45833 459.149 4.95312C458.642 5.43555 457.875 5.67676 456.849 5.67676C454.795 5.67676 453.769 4.74902 453.769 2.89355ZM459.669 29H454.01V8.25586H459.669V29ZM474.216 11.8926C473.016 11.8926 472.076 12.276 471.396 13.043C470.715 13.7975 470.326 14.8737 470.227 16.2715H478.168C478.143 14.8737 477.778 13.7975 477.073 13.043C476.368 12.276 475.416 11.8926 474.216 11.8926ZM475.014 29.3711C471.674 29.3711 469.064 28.4495 467.184 26.6064C465.303 24.7633 464.363 22.1533 464.363 18.7764C464.363 15.3005 465.229 12.6162 466.961 10.7236C468.705 8.81868 471.111 7.86621 474.179 7.86621C477.11 7.86621 479.393 8.70117 481.025 10.3711C482.658 12.041 483.475 14.348 483.475 17.292V20.0381H470.097C470.159 21.6462 470.635 22.9017 471.525 23.8047C472.416 24.7077 473.665 25.1592 475.273 25.1592C476.523 25.1592 477.704 25.0293 478.817 24.7695C479.931 24.5098 481.093 24.0954 482.306 23.5264V27.9053C481.316 28.4001 480.258 28.765 479.133 29C478.007 29.2474 476.634 29.3711 475.014 29.3711ZM496.815 24.8623C497.805 24.8623 498.993 24.6458 500.378 24.2129V28.4248C498.968 29.0557 497.236 29.3711 495.183 29.3711C492.919 29.3711 491.268 28.8021 490.229 27.6641C489.202 26.5137 488.688 24.7943 488.688 22.5059V12.5049H485.979V10.1113L489.097 8.21875L490.729 3.83984H494.348V8.25586H500.155V12.5049H494.348V22.5059C494.348 23.3099 494.57 23.9036 495.016 24.2871C495.473 24.6706 496.073 24.8623 496.815 24.8623ZM506.742 20.001V18.6279C506.742 17.4404 506.996 16.4076 507.503 15.5293C508.01 14.651 508.938 13.7171 510.286 12.7275C511.585 11.7998 512.438 11.0452 512.847 10.4639C513.267 9.88249 513.478 9.23307 513.478 8.51562C513.478 7.71159 513.181 7.09928 512.587 6.67871C511.993 6.25814 511.164 6.04785 510.101 6.04785C508.245 6.04785 506.13 6.65397 503.755 7.86621L501.732 3.80273C504.491 2.25651 507.416 1.4834 510.509 1.4834C513.057 1.4834 515.079 2.0957 516.576 3.32031C518.085 4.54492 518.84 6.17773 518.84 8.21875C518.84 9.57943 518.531 10.7546 517.912 11.7441C517.294 12.7337 516.118 13.847 514.387 15.084C513.199 15.9622 512.445 16.6302 512.123 17.0879C511.814 17.5456 511.659 18.1455 511.659 18.8877V20.001H506.742ZM506.148 26.3467C506.148 25.3076 506.427 24.5221 506.983 23.9902C507.54 23.4583 508.35 23.1924 509.414 23.1924C510.441 23.1924 511.232 23.4645 511.789 24.0088C512.358 24.5531 512.643 25.3324 512.643 26.3467C512.643 27.3239 512.358 28.097 511.789 28.666C511.22 29.2227 510.428 29.501 509.414 29.501C508.375 29.501 507.571 29.2288 507.002 28.6846C506.433 28.1279 506.148 27.3486 506.148 26.3467Z" fill="#111112"/>
</svg>
