<svg width="384" height="34" viewBox="0 0 384 34" fill="none" xmlns="http://www.w3.org/2000/svg">
<path d="M9.93848 11H8.79004L6.77344 4.30762C6.67773 4.01139 6.57064 3.6377 6.45215 3.18652C6.33366 2.73535 6.27214 2.46419 6.26758 2.37305C6.16732 2.97461 6.00781 3.63314 5.78906 4.34863L3.83398 11H2.68555L0.0263672 1.00586H1.25684L2.83594 7.17871C3.05469 8.0446 3.21419 8.82845 3.31445 9.53027C3.4375 8.69629 3.61979 7.88053 3.86133 7.08301L5.65234 1.00586H6.88281L8.7627 7.1377C8.98145 7.84408 9.16602 8.6416 9.31641 9.53027C9.40299 8.88314 9.56706 8.09473 9.80859 7.16504L11.3809 1.00586H12.6113L9.93848 11ZM17.1709 11.1367C16.0635 11.1367 15.1885 10.7995 14.5459 10.125C13.9079 9.45052 13.5889 8.514 13.5889 7.31543C13.5889 6.10775 13.8851 5.14844 14.4775 4.4375C15.0745 3.72656 15.8743 3.37109 16.877 3.37109C17.8158 3.37109 18.5586 3.68099 19.1055 4.30078C19.6523 4.91602 19.9258 5.72949 19.9258 6.74121V7.45898H14.7646C14.7874 8.33854 15.0085 9.00618 15.4277 9.46191C15.8516 9.91764 16.4463 10.1455 17.2119 10.1455C18.0186 10.1455 18.8161 9.97689 19.6045 9.63965V10.6514C19.2035 10.8245 18.8229 10.9476 18.4629 11.0205C18.1074 11.098 17.6768 11.1367 17.1709 11.1367ZM16.8633 4.32129C16.2617 4.32129 15.7809 4.51725 15.4209 4.90918C15.0654 5.30111 14.8558 5.84342 14.792 6.53613H18.709C18.709 5.82064 18.5495 5.27376 18.2305 4.89551C17.9115 4.5127 17.4557 4.32129 16.8633 4.32129ZM22.8447 1.00586L22.5713 4.61523H21.8535L21.5732 1.00586H22.8447ZM26.1055 11H24.9707V0.363281H26.1055V11ZM29.6465 11H28.5117V0.363281H29.6465V11ZM38.1094 10.2002C38.3099 10.2002 38.5036 10.1865 38.6904 10.1592C38.8773 10.1273 39.0254 10.0954 39.1348 10.0635V10.9316C39.0117 10.9909 38.8294 11.0387 38.5879 11.0752C38.3509 11.1162 38.1367 11.1367 37.9453 11.1367C36.4961 11.1367 35.7715 10.3734 35.7715 8.84668V4.38965H34.6982V3.84277L35.7715 3.37109L36.25 1.77148H36.9062V3.50781H39.0801V4.38965H36.9062V8.79883C36.9062 9.25 37.0133 9.59635 37.2275 9.83789C37.4417 10.0794 37.7357 10.2002 38.1094 10.2002ZM44.0566 3.37109C44.3893 3.37109 44.6878 3.39844 44.9521 3.45312L44.7949 4.50586C44.485 4.4375 44.2116 4.40332 43.9746 4.40332C43.3685 4.40332 42.849 4.64941 42.416 5.1416C41.9876 5.63379 41.7734 6.24674 41.7734 6.98047V11H40.6387V3.50781H41.5752L41.7051 4.89551H41.7598C42.0378 4.40788 42.3727 4.0319 42.7646 3.76758C43.1566 3.50326 43.5872 3.37109 44.0566 3.37109ZM45.1641 3.50781H46.3809L48.0215 7.78027C48.3815 8.75553 48.6048 9.45964 48.6914 9.89258H48.7461C48.8053 9.66016 48.9284 9.26367 49.1152 8.70312C49.3066 8.13802 49.9264 6.40625 50.9746 3.50781H52.1914L48.9717 12.0391C48.6527 12.8822 48.279 13.4792 47.8506 13.8301C47.4268 14.1855 46.9049 14.3633 46.2852 14.3633C45.9388 14.3633 45.597 14.3245 45.2598 14.2471V13.3379C45.5104 13.3926 45.7907 13.4199 46.1006 13.4199C46.8799 13.4199 47.4359 12.9824 47.7686 12.1074L48.1855 11.041L45.1641 3.50781ZM59.4648 10.2002C59.6654 10.2002 59.859 10.1865 60.0459 10.1592C60.2327 10.1273 60.3809 10.0954 60.4902 10.0635V10.9316C60.3672 10.9909 60.1849 11.0387 59.9434 11.0752C59.7064 11.1162 59.4922 11.1367 59.3008 11.1367C57.8516 11.1367 57.127 10.3734 57.127 8.84668V4.38965H56.0537V3.84277L57.127 3.37109L57.6055 1.77148H58.2617V3.50781H60.4355V4.38965H58.2617V8.79883C58.2617 9.25 58.3688 9.59635 58.583 9.83789C58.7972 10.0794 59.0911 10.2002 59.4648 10.2002ZM68.4609 7.24707C68.4609 8.46842 68.1533 9.42318 67.5381 10.1113C66.9229 10.7949 66.0729 11.1367 64.9883 11.1367C64.3184 11.1367 63.7236 10.9795 63.2041 10.665C62.6846 10.3506 62.2835 9.89941 62.001 9.31152C61.7184 8.72363 61.5771 8.03548 61.5771 7.24707C61.5771 6.02572 61.8825 5.07552 62.4932 4.39648C63.1038 3.71289 63.9515 3.37109 65.0361 3.37109C66.0843 3.37109 66.916 3.71973 67.5312 4.41699C68.151 5.11426 68.4609 6.05762 68.4609 7.24707ZM62.7529 7.24707C62.7529 8.2041 62.9443 8.93327 63.3271 9.43457C63.71 9.93587 64.2728 10.1865 65.0156 10.1865C65.7585 10.1865 66.3213 9.93815 66.7041 9.44141C67.0915 8.9401 67.2852 8.20866 67.2852 7.24707C67.2852 6.2946 67.0915 5.57227 66.7041 5.08008C66.3213 4.58333 65.7539 4.33496 65.002 4.33496C64.2591 4.33496 63.6986 4.57878 63.3203 5.06641C62.9421 5.55404 62.7529 6.28092 62.7529 7.24707ZM79.2207 11V6.15332C79.2207 5.54264 79.0817 5.08691 78.8037 4.78613C78.5257 4.48535 78.0905 4.33496 77.498 4.33496C76.7096 4.33496 76.1331 4.54915 75.7686 4.97754C75.4085 5.40592 75.2285 6.10775 75.2285 7.08301V11H74.0938V0.363281H75.2285V3.58301C75.2285 3.97038 75.2103 4.29167 75.1738 4.54688H75.2422C75.4655 4.18685 75.7822 3.9043 76.1924 3.69922C76.6071 3.48958 77.0788 3.38477 77.6074 3.38477C78.5234 3.38477 79.2093 3.60352 79.665 4.04102C80.1253 4.47396 80.3555 5.16439 80.3555 6.1123V11H79.2207ZM85.8584 11.1367C84.751 11.1367 83.876 10.7995 83.2334 10.125C82.5954 9.45052 82.2764 8.514 82.2764 7.31543C82.2764 6.10775 82.5726 5.14844 83.165 4.4375C83.762 3.72656 84.5618 3.37109 85.5645 3.37109C86.5033 3.37109 87.2461 3.68099 87.793 4.30078C88.3398 4.91602 88.6133 5.72949 88.6133 6.74121V7.45898H83.4521C83.4749 8.33854 83.696 9.00618 84.1152 9.46191C84.5391 9.91764 85.1338 10.1455 85.8994 10.1455C86.7061 10.1455 87.5036 9.97689 88.292 9.63965V10.6514C87.891 10.8245 87.5104 10.9476 87.1504 11.0205C86.7949 11.098 86.3643 11.1367 85.8584 11.1367ZM85.5508 4.32129C84.9492 4.32129 84.4684 4.51725 84.1084 4.90918C83.7529 5.30111 83.5433 5.84342 83.4795 6.53613H87.3965C87.3965 5.82064 87.237 5.27376 86.918 4.89551C86.599 4.5127 86.1432 4.32129 85.5508 4.32129ZM91.6895 11H90.5547V0.363281H91.6895V11ZM97.582 11.1367C97.0944 11.1367 96.6478 11.0479 96.2422 10.8701C95.8411 10.6878 95.5039 10.4098 95.2305 10.0361H95.1484C95.2031 10.4736 95.2305 10.8883 95.2305 11.2803V14.3633H94.0957V3.50781H95.0186L95.1758 4.5332H95.2305C95.5221 4.12305 95.8617 3.82682 96.249 3.64453C96.6364 3.46224 97.0807 3.37109 97.582 3.37109C98.5755 3.37109 99.3411 3.71061 99.8789 4.38965C100.421 5.06868 100.692 6.02116 100.692 7.24707C100.692 8.47754 100.417 9.43457 99.8652 10.1182C99.3184 10.7972 98.5573 11.1367 97.582 11.1367ZM97.418 4.33496C96.6523 4.33496 96.0986 4.54688 95.7568 4.9707C95.415 5.39453 95.2396 6.06901 95.2305 6.99414V7.24707C95.2305 8.2998 95.4059 9.05404 95.7568 9.50977C96.1077 9.96094 96.6706 10.1865 97.4453 10.1865C98.0924 10.1865 98.5983 9.92448 98.9629 9.40039C99.332 8.8763 99.5166 8.15397 99.5166 7.2334C99.5166 6.29915 99.332 5.58366 98.9629 5.08691C98.5983 4.58561 98.0833 4.33496 97.418 4.33496ZM105.129 3.50781H106.346L107.986 7.78027C108.346 8.75553 108.57 9.45964 108.656 9.89258H108.711C108.77 9.66016 108.893 9.26367 109.08 8.70312C109.271 8.13802 109.891 6.40625 110.939 3.50781H112.156L108.937 12.0391C108.618 12.8822 108.244 13.4792 107.815 13.8301C107.392 14.1855 106.87 14.3633 106.25 14.3633C105.904 14.3633 105.562 14.3245 105.225 14.2471V13.3379C105.475 13.3926 105.756 13.4199 106.065 13.4199C106.845 13.4199 107.401 12.9824 107.733 12.1074L108.15 11.041L105.129 3.50781ZM119.84 7.24707C119.84 8.46842 119.532 9.42318 118.917 10.1113C118.302 10.7949 117.452 11.1367 116.367 11.1367C115.697 11.1367 115.103 10.9795 114.583 10.665C114.063 10.3506 113.662 9.89941 113.38 9.31152C113.097 8.72363 112.956 8.03548 112.956 7.24707C112.956 6.02572 113.261 5.07552 113.872 4.39648C114.483 3.71289 115.33 3.37109 116.415 3.37109C117.463 3.37109 118.295 3.71973 118.91 4.41699C119.53 5.11426 119.84 6.05762 119.84 7.24707ZM114.132 7.24707C114.132 8.2041 114.323 8.93327 114.706 9.43457C115.089 9.93587 115.652 10.1865 116.395 10.1865C117.137 10.1865 117.7 9.93815 118.083 9.44141C118.47 8.9401 118.664 8.20866 118.664 7.24707C118.664 6.2946 118.47 5.57227 118.083 5.08008C117.7 4.58333 117.133 4.33496 116.381 4.33496C115.638 4.33496 115.077 4.57878 114.699 5.06641C114.321 5.55404 114.132 6.28092 114.132 7.24707ZM122.902 3.50781V8.36816C122.902 8.97884 123.041 9.43457 123.319 9.73535C123.597 10.0361 124.033 10.1865 124.625 10.1865C125.409 10.1865 125.981 9.97233 126.341 9.54395C126.705 9.11556 126.888 8.41602 126.888 7.44531V3.50781H128.022V11H127.086L126.922 9.99512H126.86C126.628 10.3643 126.304 10.6468 125.89 10.8428C125.479 11.0387 125.01 11.1367 124.481 11.1367C123.57 11.1367 122.886 10.9202 122.431 10.4873C121.979 10.0544 121.754 9.36165 121.754 8.40918V3.50781H122.902ZM131.461 8.24512H130.743L130.395 1.00586H131.81L131.461 8.24512ZM130.271 10.2754C130.271 9.6556 130.545 9.3457 131.092 9.3457C131.356 9.3457 131.559 9.42546 131.7 9.58496C131.846 9.74447 131.919 9.97461 131.919 10.2754C131.919 10.5671 131.846 10.7949 131.7 10.959C131.554 11.1185 131.352 11.1982 131.092 11.1982C130.855 11.1982 130.659 11.1276 130.504 10.9863C130.349 10.8405 130.271 10.6035 130.271 10.2754ZM141.065 11H139.903V2.03809H136.738V1.00586H144.23V2.03809H141.065V11ZM150.178 11L149.952 9.93359H149.897C149.524 10.403 149.15 10.722 148.776 10.8906C148.407 11.0547 147.945 11.1367 147.389 11.1367C146.646 11.1367 146.062 10.9453 145.639 10.5625C145.219 10.1797 145.01 9.63509 145.01 8.92871C145.01 7.41569 146.22 6.62272 148.64 6.5498L149.911 6.50879V6.04395C149.911 5.45605 149.784 5.02311 149.528 4.74512C149.278 4.46257 148.874 4.32129 148.318 4.32129C147.694 4.32129 146.988 4.5127 146.199 4.89551L145.851 4.02734C146.22 3.82682 146.623 3.6696 147.061 3.55566C147.503 3.44173 147.945 3.38477 148.387 3.38477C149.28 3.38477 149.941 3.58301 150.369 3.97949C150.802 4.37598 151.019 5.01172 151.019 5.88672V11H150.178ZM147.614 10.2002C148.321 10.2002 148.874 10.0065 149.275 9.61914C149.681 9.23177 149.884 8.68945 149.884 7.99219V7.31543L148.749 7.36328C147.847 7.39518 147.195 7.53646 146.794 7.78711C146.397 8.0332 146.199 8.41829 146.199 8.94238C146.199 9.35254 146.322 9.66471 146.568 9.87891C146.819 10.0931 147.168 10.2002 147.614 10.2002ZM154.484 7.16504C154.68 6.88704 154.979 6.52246 155.38 6.07129L157.8 3.50781H159.146L156.111 6.7002L159.358 11H157.984L155.339 7.45898L154.484 8.19727V11H153.363V0.363281H154.484V6.00293C154.484 6.25358 154.466 6.64095 154.43 7.16504H154.484ZM163.884 11.1367C162.776 11.1367 161.901 10.7995 161.259 10.125C160.621 9.45052 160.302 8.514 160.302 7.31543C160.302 6.10775 160.598 5.14844 161.19 4.4375C161.787 3.72656 162.587 3.37109 163.59 3.37109C164.529 3.37109 165.271 3.68099 165.818 4.30078C166.365 4.91602 166.639 5.72949 166.639 6.74121V7.45898H161.478C161.5 8.33854 161.721 9.00618 162.141 9.46191C162.564 9.91764 163.159 10.1455 163.925 10.1455C164.731 10.1455 165.529 9.97689 166.317 9.63965V10.6514C165.916 10.8245 165.536 10.9476 165.176 11.0205C164.82 11.098 164.39 11.1367 163.884 11.1367ZM163.576 4.32129C162.975 4.32129 162.494 4.51725 162.134 4.90918C161.778 5.30111 161.569 5.84342 161.505 6.53613H165.422C165.422 5.82064 165.262 5.27376 164.943 4.89551C164.624 4.5127 164.169 4.32129 163.576 4.32129ZM176.824 11L176.599 9.93359H176.544C176.17 10.403 175.797 10.722 175.423 10.8906C175.054 11.0547 174.591 11.1367 174.035 11.1367C173.292 11.1367 172.709 10.9453 172.285 10.5625C171.866 10.1797 171.656 9.63509 171.656 8.92871C171.656 7.41569 172.866 6.62272 175.286 6.5498L176.558 6.50879V6.04395C176.558 5.45605 176.43 5.02311 176.175 4.74512C175.924 4.46257 175.521 4.32129 174.965 4.32129C174.34 4.32129 173.634 4.5127 172.846 4.89551L172.497 4.02734C172.866 3.82682 173.27 3.6696 173.707 3.55566C174.149 3.44173 174.591 3.38477 175.033 3.38477C175.926 3.38477 176.587 3.58301 177.016 3.97949C177.449 4.37598 177.665 5.01172 177.665 5.88672V11H176.824ZM174.261 10.2002C174.967 10.2002 175.521 10.0065 175.922 9.61914C176.327 9.23177 176.53 8.68945 176.53 7.99219V7.31543L175.396 7.36328C174.493 7.39518 173.841 7.53646 173.44 7.78711C173.044 8.0332 172.846 8.41829 172.846 8.94238C172.846 9.35254 172.969 9.66471 173.215 9.87891C173.465 10.0931 173.814 10.2002 174.261 10.2002ZM185.109 9.99512H185.048C184.524 10.7562 183.74 11.1367 182.696 11.1367C181.716 11.1367 180.953 10.8018 180.406 10.1318C179.864 9.46191 179.593 8.50944 179.593 7.27441C179.593 6.03939 179.866 5.08008 180.413 4.39648C180.96 3.71289 181.721 3.37109 182.696 3.37109C183.713 3.37109 184.492 3.74023 185.034 4.47852H185.123L185.075 3.93848L185.048 3.41211V0.363281H186.183V11H185.26L185.109 9.99512ZM182.84 10.1865C183.615 10.1865 184.175 9.97689 184.521 9.55762C184.872 9.13379 185.048 8.45247 185.048 7.51367V7.27441C185.048 6.21257 184.87 5.45605 184.515 5.00488C184.164 4.54915 183.601 4.32129 182.826 4.32129C182.161 4.32129 181.65 4.58105 181.295 5.10059C180.944 5.61556 180.769 6.34473 180.769 7.28809C180.769 8.24512 180.944 8.96745 181.295 9.45508C181.646 9.94271 182.161 10.1865 182.84 10.1865ZM190.236 11L187.393 3.50781H188.609L190.223 7.95117C190.587 8.99023 190.801 9.66471 190.865 9.97461H190.92C190.97 9.73307 191.127 9.23405 191.392 8.47754C191.66 7.71647 192.26 6.0599 193.189 3.50781H194.406L191.562 11H190.236ZM200.217 11L199.991 9.93359H199.937C199.563 10.403 199.189 10.722 198.815 10.8906C198.446 11.0547 197.984 11.1367 197.428 11.1367C196.685 11.1367 196.102 10.9453 195.678 10.5625C195.258 10.1797 195.049 9.63509 195.049 8.92871C195.049 7.41569 196.259 6.62272 198.679 6.5498L199.95 6.50879V6.04395C199.95 5.45605 199.823 5.02311 199.567 4.74512C199.317 4.46257 198.913 4.32129 198.357 4.32129C197.733 4.32129 197.027 4.5127 196.238 4.89551L195.89 4.02734C196.259 3.82682 196.662 3.6696 197.1 3.55566C197.542 3.44173 197.984 3.38477 198.426 3.38477C199.319 3.38477 199.98 3.58301 200.408 3.97949C200.841 4.37598 201.058 5.01172 201.058 5.88672V11H200.217ZM197.653 10.2002C198.36 10.2002 198.913 10.0065 199.314 9.61914C199.72 9.23177 199.923 8.68945 199.923 7.99219V7.31543L198.788 7.36328C197.886 7.39518 197.234 7.53646 196.833 7.78711C196.437 8.0332 196.238 8.41829 196.238 8.94238C196.238 9.35254 196.361 9.66471 196.607 9.87891C196.858 10.0931 197.207 10.2002 197.653 10.2002ZM208.529 11V6.15332C208.529 5.54264 208.39 5.08691 208.112 4.78613C207.834 4.48535 207.399 4.33496 206.807 4.33496C206.023 4.33496 205.449 4.54688 205.084 4.9707C204.719 5.39453 204.537 6.09408 204.537 7.06934V11H203.402V3.50781H204.325L204.51 4.5332H204.564C204.797 4.16406 205.123 3.87923 205.542 3.67871C205.961 3.47363 206.428 3.37109 206.943 3.37109C207.846 3.37109 208.525 3.58984 208.98 4.02734C209.436 4.46029 209.664 5.15527 209.664 6.1123V11H208.529ZM214.422 10.2002C214.622 10.2002 214.816 10.1865 215.003 10.1592C215.19 10.1273 215.338 10.0954 215.447 10.0635V10.9316C215.324 10.9909 215.142 11.0387 214.9 11.0752C214.663 11.1162 214.449 11.1367 214.258 11.1367C212.809 11.1367 212.084 10.3734 212.084 8.84668V4.38965H211.011V3.84277L212.084 3.37109L212.562 1.77148H213.219V3.50781H215.393V4.38965H213.219V8.79883C213.219 9.25 213.326 9.59635 213.54 9.83789C213.754 10.0794 214.048 10.2002 214.422 10.2002ZM221.559 11L221.333 9.93359H221.278C220.905 10.403 220.531 10.722 220.157 10.8906C219.788 11.0547 219.326 11.1367 218.77 11.1367C218.027 11.1367 217.443 10.9453 217.02 10.5625C216.6 10.1797 216.391 9.63509 216.391 8.92871C216.391 7.41569 217.601 6.62272 220.021 6.5498L221.292 6.50879V6.04395C221.292 5.45605 221.164 5.02311 220.909 4.74512C220.659 4.46257 220.255 4.32129 219.699 4.32129C219.075 4.32129 218.368 4.5127 217.58 4.89551L217.231 4.02734C217.601 3.82682 218.004 3.6696 218.441 3.55566C218.883 3.44173 219.326 3.38477 219.768 3.38477C220.661 3.38477 221.322 3.58301 221.75 3.97949C222.183 4.37598 222.399 5.01172 222.399 5.88672V11H221.559ZM218.995 10.2002C219.701 10.2002 220.255 10.0065 220.656 9.61914C221.062 9.23177 221.265 8.68945 221.265 7.99219V7.31543L220.13 7.36328C219.228 7.39518 218.576 7.53646 218.175 7.78711C217.778 8.0332 217.58 8.41829 217.58 8.94238C217.58 9.35254 217.703 9.66471 217.949 9.87891C218.2 10.0931 218.549 10.2002 218.995 10.2002ZM230.876 3.50781V4.22559L229.488 4.38965C229.616 4.54915 229.73 4.75879 229.83 5.01855C229.93 5.27376 229.98 5.56315 229.98 5.88672C229.98 6.62044 229.73 7.20605 229.229 7.64355C228.727 8.08105 228.039 8.2998 227.164 8.2998C226.941 8.2998 226.731 8.28158 226.535 8.24512C226.052 8.50033 225.811 8.82161 225.811 9.20898C225.811 9.41406 225.895 9.56673 226.063 9.66699C226.232 9.7627 226.521 9.81055 226.932 9.81055H228.258C229.069 9.81055 229.691 9.98145 230.124 10.3232C230.562 10.665 230.78 11.1618 230.78 11.8135C230.78 12.6429 230.448 13.2741 229.782 13.707C229.117 14.1445 228.146 14.3633 226.87 14.3633C225.89 14.3633 225.134 14.181 224.601 13.8164C224.072 13.4518 223.808 12.9368 223.808 12.2715C223.808 11.8158 223.953 11.4215 224.245 11.0889C224.537 10.7562 224.947 10.5306 225.476 10.4121C225.284 10.3255 225.122 10.1911 224.99 10.0088C224.863 9.8265 224.799 9.61458 224.799 9.37305C224.799 9.09961 224.872 8.86035 225.018 8.65527C225.163 8.4502 225.394 8.25195 225.708 8.06055C225.321 7.90104 225.004 7.62988 224.758 7.24707C224.516 6.86426 224.396 6.42676 224.396 5.93457C224.396 5.11426 224.642 4.48307 225.134 4.04102C225.626 3.5944 226.323 3.37109 227.226 3.37109C227.618 3.37109 227.971 3.41667 228.285 3.50781H230.876ZM224.901 12.2578C224.901 12.6634 225.072 12.971 225.414 13.1807C225.756 13.3903 226.246 13.4951 226.884 13.4951C227.836 13.4951 228.54 13.3516 228.996 13.0645C229.456 12.7819 229.687 12.3968 229.687 11.9092C229.687 11.5036 229.561 11.221 229.311 11.0615C229.06 10.9066 228.588 10.8291 227.896 10.8291H226.535C226.02 10.8291 225.619 10.9521 225.332 11.1982C225.045 11.4443 224.901 11.7975 224.901 12.2578ZM225.517 5.90723C225.517 6.43132 225.665 6.8278 225.961 7.09668C226.257 7.36556 226.67 7.5 227.198 7.5C228.306 7.5 228.859 6.96224 228.859 5.88672C228.859 4.76107 228.299 4.19824 227.178 4.19824C226.645 4.19824 226.234 4.3418 225.947 4.62891C225.66 4.91602 225.517 5.34212 225.517 5.90723ZM235.579 11.1367C234.472 11.1367 233.597 10.7995 232.954 10.125C232.316 9.45052 231.997 8.514 231.997 7.31543C231.997 6.10775 232.293 5.14844 232.886 4.4375C233.483 3.72656 234.283 3.37109 235.285 3.37109C236.224 3.37109 236.967 3.68099 237.514 4.30078C238.061 4.91602 238.334 5.72949 238.334 6.74121V7.45898H233.173C233.196 8.33854 233.417 9.00618 233.836 9.46191C234.26 9.91764 234.854 10.1455 235.62 10.1455C236.427 10.1455 237.224 9.97689 238.013 9.63965V10.6514C237.612 10.8245 237.231 10.9476 236.871 11.0205C236.516 11.098 236.085 11.1367 235.579 11.1367ZM235.271 4.32129C234.67 4.32129 234.189 4.51725 233.829 4.90918C233.474 5.30111 233.264 5.84342 233.2 6.53613H237.117C237.117 5.82064 236.958 5.27376 236.639 4.89551C236.32 4.5127 235.864 4.32129 235.271 4.32129ZM250.379 7.24707C250.379 8.46842 250.071 9.42318 249.456 10.1113C248.841 10.7949 247.991 11.1367 246.906 11.1367C246.236 11.1367 245.642 10.9795 245.122 10.665C244.603 10.3506 244.201 9.89941 243.919 9.31152C243.636 8.72363 243.495 8.03548 243.495 7.24707C243.495 6.02572 243.8 5.07552 244.411 4.39648C245.022 3.71289 245.869 3.37109 246.954 3.37109C248.002 3.37109 248.834 3.71973 249.449 4.41699C250.069 5.11426 250.379 6.05762 250.379 7.24707ZM244.671 7.24707C244.671 8.2041 244.862 8.93327 245.245 9.43457C245.628 9.93587 246.191 10.1865 246.934 10.1865C247.676 10.1865 248.239 9.93815 248.622 9.44141C249.009 8.9401 249.203 8.20866 249.203 7.24707C249.203 6.2946 249.009 5.57227 248.622 5.08008C248.239 4.58333 247.672 4.33496 246.92 4.33496C246.177 4.33496 245.617 4.57878 245.238 5.06641C244.86 5.55404 244.671 6.28092 244.671 7.24707ZM255.752 4.38965H253.845V11H252.71V4.38965H251.37V3.87695L252.71 3.4668V3.0498C252.71 1.20866 253.514 0.288086 255.123 0.288086C255.52 0.288086 255.984 0.367839 256.518 0.527344L256.224 1.43652C255.786 1.29525 255.412 1.22461 255.103 1.22461C254.674 1.22461 254.357 1.36816 254.152 1.65527C253.947 1.93783 253.845 2.39355 253.845 3.02246V3.50781H255.752V4.38965ZM263.176 10.2002C263.376 10.2002 263.57 10.1865 263.757 10.1592C263.944 10.1273 264.092 10.0954 264.201 10.0635V10.9316C264.078 10.9909 263.896 11.0387 263.654 11.0752C263.417 11.1162 263.203 11.1367 263.012 11.1367C261.562 11.1367 260.838 10.3734 260.838 8.84668V4.38965H259.765V3.84277L260.838 3.37109L261.316 1.77148H261.973V3.50781H264.146V4.38965H261.973V8.79883C261.973 9.25 262.08 9.59635 262.294 9.83789C262.508 10.0794 262.802 10.2002 263.176 10.2002ZM270.832 11V6.15332C270.832 5.54264 270.693 5.08691 270.415 4.78613C270.137 4.48535 269.702 4.33496 269.109 4.33496C268.321 4.33496 267.744 4.54915 267.38 4.97754C267.02 5.40592 266.84 6.10775 266.84 7.08301V11H265.705V0.363281H266.84V3.58301C266.84 3.97038 266.822 4.29167 266.785 4.54688H266.854C267.077 4.18685 267.394 3.9043 267.804 3.69922C268.218 3.48958 268.69 3.38477 269.219 3.38477C270.135 3.38477 270.821 3.60352 271.276 4.04102C271.737 4.47396 271.967 5.16439 271.967 6.1123V11H270.832ZM277.47 11.1367C276.362 11.1367 275.487 10.7995 274.845 10.125C274.207 9.45052 273.888 8.514 273.888 7.31543C273.888 6.10775 274.184 5.14844 274.776 4.4375C275.373 3.72656 276.173 3.37109 277.176 3.37109C278.115 3.37109 278.857 3.68099 279.404 4.30078C279.951 4.91602 280.225 5.72949 280.225 6.74121V7.45898H275.063C275.086 8.33854 275.307 9.00618 275.727 9.46191C276.15 9.91764 276.745 10.1455 277.511 10.1455C278.317 10.1455 279.115 9.97689 279.903 9.63965V10.6514C279.502 10.8245 279.122 10.9476 278.762 11.0205C278.406 11.098 277.976 11.1367 277.47 11.1367ZM277.162 4.32129C276.561 4.32129 276.08 4.51725 275.72 4.90918C275.364 5.30111 275.155 5.84342 275.091 6.53613H279.008C279.008 5.82064 278.848 5.27376 278.529 4.89551C278.21 4.5127 277.755 4.32129 277.162 4.32129ZM289.18 4.38965H287.272V11H286.138V4.38965H284.798V3.87695L286.138 3.4668V3.0498C286.138 1.20866 286.942 0.288086 288.551 0.288086C288.947 0.288086 289.412 0.367839 289.945 0.527344L289.651 1.43652C289.214 1.29525 288.84 1.22461 288.53 1.22461C288.102 1.22461 287.785 1.36816 287.58 1.65527C287.375 1.93783 287.272 2.39355 287.272 3.02246V3.50781H289.18V4.38965ZM293.965 3.37109C294.298 3.37109 294.596 3.39844 294.86 3.45312L294.703 4.50586C294.393 4.4375 294.12 4.40332 293.883 4.40332C293.277 4.40332 292.757 4.64941 292.324 5.1416C291.896 5.63379 291.682 6.24674 291.682 6.98047V11H290.547V3.50781H291.483L291.613 4.89551H291.668C291.946 4.40788 292.281 4.0319 292.673 3.76758C293.065 3.50326 293.495 3.37109 293.965 3.37109ZM299.427 11.1367C298.319 11.1367 297.444 10.7995 296.802 10.125C296.164 9.45052 295.845 8.514 295.845 7.31543C295.845 6.10775 296.141 5.14844 296.733 4.4375C297.33 3.72656 298.13 3.37109 299.133 3.37109C300.072 3.37109 300.814 3.68099 301.361 4.30078C301.908 4.91602 302.182 5.72949 302.182 6.74121V7.45898H297.021C297.043 8.33854 297.264 9.00618 297.684 9.46191C298.107 9.91764 298.702 10.1455 299.468 10.1455C300.274 10.1455 301.072 9.97689 301.86 9.63965V10.6514C301.459 10.8245 301.079 10.9476 300.719 11.0205C300.363 11.098 299.933 11.1367 299.427 11.1367ZM299.119 4.32129C298.518 4.32129 298.037 4.51725 297.677 4.90918C297.321 5.30111 297.112 5.84342 297.048 6.53613H300.965C300.965 5.82064 300.805 5.27376 300.486 4.89551C300.167 4.5127 299.712 4.32129 299.119 4.32129ZM307.288 11.1367C306.181 11.1367 305.306 10.7995 304.663 10.125C304.025 9.45052 303.706 8.514 303.706 7.31543C303.706 6.10775 304.002 5.14844 304.595 4.4375C305.192 3.72656 305.992 3.37109 306.994 3.37109C307.933 3.37109 308.676 3.68099 309.223 4.30078C309.77 4.91602 310.043 5.72949 310.043 6.74121V7.45898H304.882C304.905 8.33854 305.126 9.00618 305.545 9.46191C305.969 9.91764 306.563 10.1455 307.329 10.1455C308.136 10.1455 308.933 9.97689 309.722 9.63965V10.6514C309.321 10.8245 308.94 10.9476 308.58 11.0205C308.225 11.098 307.794 11.1367 307.288 11.1367ZM306.98 4.32129C306.379 4.32129 305.898 4.51725 305.538 4.90918C305.183 5.30111 304.973 5.84342 304.909 6.53613H308.826C308.826 5.82064 308.667 5.27376 308.348 4.89551C308.029 4.5127 307.573 4.32129 306.98 4.32129ZM320.229 11L320.003 9.93359H319.948C319.575 10.403 319.201 10.722 318.827 10.8906C318.458 11.0547 317.995 11.1367 317.439 11.1367C316.697 11.1367 316.113 10.9453 315.689 10.5625C315.27 10.1797 315.061 9.63509 315.061 8.92871C315.061 7.41569 316.271 6.62272 318.69 6.5498L319.962 6.50879V6.04395C319.962 5.45605 319.834 5.02311 319.579 4.74512C319.328 4.46257 318.925 4.32129 318.369 4.32129C317.745 4.32129 317.038 4.5127 316.25 4.89551L315.901 4.02734C316.271 3.82682 316.674 3.6696 317.111 3.55566C317.553 3.44173 317.995 3.38477 318.438 3.38477C319.331 3.38477 319.992 3.58301 320.42 3.97949C320.853 4.37598 321.069 5.01172 321.069 5.88672V11H320.229ZM317.665 10.2002C318.371 10.2002 318.925 10.0065 319.326 9.61914C319.732 9.23177 319.935 8.68945 319.935 7.99219V7.31543L318.8 7.36328C317.897 7.39518 317.246 7.53646 316.845 7.78711C316.448 8.0332 316.25 8.41829 316.25 8.94238C316.25 9.35254 316.373 9.66471 316.619 9.87891C316.87 10.0931 317.218 10.2002 317.665 10.2002ZM328.514 9.99512H328.452C327.928 10.7562 327.144 11.1367 326.101 11.1367C325.121 11.1367 324.357 10.8018 323.811 10.1318C323.268 9.46191 322.997 8.50944 322.997 7.27441C322.997 6.03939 323.271 5.08008 323.817 4.39648C324.364 3.71289 325.125 3.37109 326.101 3.37109C327.117 3.37109 327.896 3.74023 328.438 4.47852H328.527L328.479 3.93848L328.452 3.41211V0.363281H329.587V11H328.664L328.514 9.99512ZM326.244 10.1865C327.019 10.1865 327.579 9.97689 327.926 9.55762C328.277 9.13379 328.452 8.45247 328.452 7.51367V7.27441C328.452 6.21257 328.274 5.45605 327.919 5.00488C327.568 4.54915 327.005 4.32129 326.23 4.32129C325.565 4.32129 325.055 4.58105 324.699 5.10059C324.348 5.61556 324.173 6.34473 324.173 7.28809C324.173 8.24512 324.348 8.96745 324.699 9.45508C325.05 9.94271 325.565 10.1865 326.244 10.1865ZM333.641 11L330.797 3.50781H332.014L333.627 7.95117C333.992 8.99023 334.206 9.66471 334.27 9.97461H334.324C334.374 9.73307 334.532 9.23405 334.796 8.47754C335.065 7.71647 335.664 6.0599 336.594 3.50781H337.811L334.967 11H333.641ZM340.148 11H339.014V3.50781H340.148V11ZM338.918 1.47754C338.918 1.21777 338.982 1.02865 339.109 0.910156C339.237 0.787109 339.396 0.725586 339.588 0.725586C339.77 0.725586 339.927 0.787109 340.06 0.910156C340.192 1.0332 340.258 1.22233 340.258 1.47754C340.258 1.73275 340.192 1.92415 340.06 2.05176C339.927 2.1748 339.77 2.23633 339.588 2.23633C339.396 2.23633 339.237 2.1748 339.109 2.05176C338.982 1.92415 338.918 1.73275 338.918 1.47754ZM345.549 11.1367C344.464 11.1367 343.623 10.804 343.026 10.1387C342.434 9.46875 342.138 8.52311 342.138 7.30176C342.138 6.0485 342.438 5.08008 343.04 4.39648C343.646 3.71289 344.507 3.37109 345.624 3.37109C345.984 3.37109 346.344 3.40983 346.704 3.4873C347.064 3.56478 347.347 3.65592 347.552 3.76074L347.203 4.72461C346.952 4.62435 346.679 4.54232 346.383 4.47852C346.087 4.41016 345.825 4.37598 345.597 4.37598C344.075 4.37598 343.313 5.34668 343.313 7.28809C343.313 8.20866 343.498 8.91504 343.867 9.40723C344.241 9.89941 344.792 10.1455 345.521 10.1455C346.146 10.1455 346.786 10.0111 347.442 9.74219V10.7471C346.941 11.0068 346.31 11.1367 345.549 11.1367ZM352.392 11.1367C351.284 11.1367 350.409 10.7995 349.767 10.125C349.129 9.45052 348.81 8.514 348.81 7.31543C348.81 6.10775 349.106 5.14844 349.698 4.4375C350.295 3.72656 351.095 3.37109 352.098 3.37109C353.036 3.37109 353.779 3.68099 354.326 4.30078C354.873 4.91602 355.146 5.72949 355.146 6.74121V7.45898H349.985C350.008 8.33854 350.229 9.00618 350.648 9.46191C351.072 9.91764 351.667 10.1455 352.433 10.1455C353.239 10.1455 354.037 9.97689 354.825 9.63965V10.6514C354.424 10.8245 354.044 10.9476 353.684 11.0205C353.328 11.098 352.897 11.1367 352.392 11.1367ZM352.084 4.32129C351.482 4.32129 351.002 4.51725 350.642 4.90918C350.286 5.30111 350.076 5.84342 350.013 6.53613H353.93C353.93 5.82064 353.77 5.27376 353.451 4.89551C353.132 4.5127 352.676 4.32129 352.084 4.32129ZM367.191 7.24707C367.191 8.46842 366.884 9.42318 366.269 10.1113C365.653 10.7949 364.803 11.1367 363.719 11.1367C363.049 11.1367 362.454 10.9795 361.935 10.665C361.415 10.3506 361.014 9.89941 360.731 9.31152C360.449 8.72363 360.308 8.03548 360.308 7.24707C360.308 6.02572 360.613 5.07552 361.224 4.39648C361.834 3.71289 362.682 3.37109 363.767 3.37109C364.815 3.37109 365.646 3.71973 366.262 4.41699C366.882 5.11426 367.191 6.05762 367.191 7.24707ZM361.483 7.24707C361.483 8.2041 361.675 8.93327 362.058 9.43457C362.44 9.93587 363.003 10.1865 363.746 10.1865C364.489 10.1865 365.052 9.93815 365.435 9.44141C365.822 8.9401 366.016 8.20866 366.016 7.24707C366.016 6.2946 365.822 5.57227 365.435 5.08008C365.052 4.58333 364.484 4.33496 363.732 4.33496C362.99 4.33496 362.429 4.57878 362.051 5.06641C361.673 5.55404 361.483 6.28092 361.483 7.24707ZM372.564 4.38965H370.657V11H369.522V4.38965H368.183V3.87695L369.522 3.4668V3.0498C369.522 1.20866 370.327 0.288086 371.936 0.288086C372.332 0.288086 372.797 0.367839 373.33 0.527344L373.036 1.43652C372.599 1.29525 372.225 1.22461 371.915 1.22461C371.487 1.22461 371.17 1.36816 370.965 1.65527C370.76 1.93783 370.657 2.39355 370.657 3.02246V3.50781H372.564V4.38965ZM382.176 11L381.95 9.93359H381.896C381.522 10.403 381.148 10.722 380.774 10.8906C380.405 11.0547 379.943 11.1367 379.387 11.1367C378.644 11.1367 378.061 10.9453 377.637 10.5625C377.217 10.1797 377.008 9.63509 377.008 8.92871C377.008 7.41569 378.218 6.62272 380.638 6.5498L381.909 6.50879V6.04395C381.909 5.45605 381.782 5.02311 381.526 4.74512C381.276 4.46257 380.872 4.32129 380.316 4.32129C379.692 4.32129 378.986 4.5127 378.197 4.89551L377.849 4.02734C378.218 3.82682 378.621 3.6696 379.059 3.55566C379.501 3.44173 379.943 3.38477 380.385 3.38477C381.278 3.38477 381.939 3.58301 382.367 3.97949C382.8 4.37598 383.017 5.01172 383.017 5.88672V11H382.176ZM379.612 10.2002C380.319 10.2002 380.872 10.0065 381.273 9.61914C381.679 9.23177 381.882 8.68945 381.882 7.99219V7.31543L380.747 7.36328C379.845 7.39518 379.193 7.53646 378.792 7.78711C378.396 8.0332 378.197 8.41829 378.197 8.94238C378.197 9.35254 378.32 9.66471 378.566 9.87891C378.817 10.0931 379.166 10.2002 379.612 10.2002ZM36.0586 30V25.1533C36.0586 24.5426 35.9196 24.0869 35.6416 23.7861C35.3636 23.4854 34.9284 23.335 34.3359 23.335C33.5521 23.335 32.9779 23.5469 32.6133 23.9707C32.2487 24.3945 32.0664 25.0941 32.0664 26.0693V30H30.9316V22.5078H31.8545L32.0391 23.5332H32.0938C32.3262 23.1641 32.652 22.8792 33.0713 22.6787C33.4906 22.4736 33.9577 22.3711 34.4727 22.3711C35.375 22.3711 36.054 22.5898 36.5098 23.0273C36.9655 23.4603 37.1934 24.1553 37.1934 25.1123V30H36.0586ZM40.5977 22.5078V27.3682C40.5977 27.9788 40.7367 28.4346 41.0146 28.7354C41.2926 29.0361 41.7279 29.1865 42.3203 29.1865C43.1042 29.1865 43.6761 28.9723 44.0361 28.5439C44.4007 28.1156 44.583 27.416 44.583 26.4453V22.5078H45.7178V30H44.7812L44.6172 28.9951H44.5557C44.3232 29.3643 43.9997 29.6468 43.585 29.8428C43.1748 30.0387 42.7054 30.1367 42.1768 30.1367C41.2653 30.1367 40.5817 29.9202 40.126 29.4873C39.6748 29.0544 39.4492 28.3617 39.4492 27.4092V22.5078H40.5977ZM50.5508 29.2002C50.7513 29.2002 50.945 29.1865 51.1318 29.1592C51.3187 29.1273 51.4668 29.0954 51.5762 29.0635V29.9316C51.4531 29.9909 51.2708 30.0387 51.0293 30.0752C50.7923 30.1162 50.5781 30.1367 50.3867 30.1367C48.9375 30.1367 48.2129 29.3734 48.2129 27.8467V23.3896H47.1396V22.8428L48.2129 22.3711L48.6914 20.7715H49.3477V22.5078H51.5215V23.3896H49.3477V27.7988C49.3477 28.25 49.4548 28.5964 49.6689 28.8379C49.8831 29.0794 50.1771 29.2002 50.5508 29.2002ZM56.498 22.3711C56.8307 22.3711 57.1292 22.3984 57.3936 22.4531L57.2363 23.5059C56.9264 23.4375 56.653 23.4033 56.416 23.4033C55.8099 23.4033 55.2904 23.6494 54.8574 24.1416C54.429 24.6338 54.2148 25.2467 54.2148 25.9805V30H53.0801V22.5078H54.0166L54.1465 23.8955H54.2012C54.4792 23.4079 54.8141 23.0319 55.2061 22.7676C55.598 22.5033 56.0286 22.3711 56.498 22.3711ZM59.9297 30H58.7949V22.5078H59.9297V30ZM58.6992 20.4775C58.6992 20.2178 58.763 20.0286 58.8906 19.9102C59.0182 19.7871 59.1777 19.7256 59.3691 19.7256C59.5514 19.7256 59.7087 19.7871 59.8408 19.9102C59.973 20.0332 60.0391 20.2223 60.0391 20.4775C60.0391 20.7327 59.973 20.9242 59.8408 21.0518C59.7087 21.1748 59.5514 21.2363 59.3691 21.2363C59.1777 21.2363 59.0182 21.1748 58.8906 21.0518C58.763 20.9242 58.6992 20.7327 58.6992 20.4775ZM64.7559 29.2002C64.9564 29.2002 65.1501 29.1865 65.3369 29.1592C65.5238 29.1273 65.6719 29.0954 65.7812 29.0635V29.9316C65.6582 29.9909 65.4759 30.0387 65.2344 30.0752C64.9974 30.1162 64.7832 30.1367 64.5918 30.1367C63.1426 30.1367 62.418 29.3734 62.418 27.8467V23.3896H61.3447V22.8428L62.418 22.3711L62.8965 20.7715H63.5527V22.5078H65.7266V23.3896H63.5527V27.7988C63.5527 28.25 63.6598 28.5964 63.874 28.8379C64.0882 29.0794 64.3822 29.2002 64.7559 29.2002ZM68.4199 30H67.2852V22.5078H68.4199V30ZM67.1895 20.4775C67.1895 20.2178 67.2533 20.0286 67.3809 19.9102C67.5085 19.7871 67.668 19.7256 67.8594 19.7256C68.0417 19.7256 68.1989 19.7871 68.3311 19.9102C68.4632 20.0332 68.5293 20.2223 68.5293 20.4775C68.5293 20.7327 68.4632 20.9242 68.3311 21.0518C68.1989 21.1748 68.0417 21.2363 67.8594 21.2363C67.668 21.2363 67.5085 21.1748 67.3809 21.0518C67.2533 20.9242 67.1895 20.7327 67.1895 20.4775ZM77.293 26.2471C77.293 27.4684 76.9854 28.4232 76.3701 29.1113C75.7549 29.7949 74.9049 30.1367 73.8203 30.1367C73.1504 30.1367 72.5557 29.9795 72.0361 29.665C71.5166 29.3506 71.1156 28.8994 70.833 28.3115C70.5505 27.7236 70.4092 27.0355 70.4092 26.2471C70.4092 25.0257 70.7145 24.0755 71.3252 23.3965C71.9359 22.7129 72.7835 22.3711 73.8682 22.3711C74.9163 22.3711 75.748 22.7197 76.3633 23.417C76.9831 24.1143 77.293 25.0576 77.293 26.2471ZM71.585 26.2471C71.585 27.2041 71.7764 27.9333 72.1592 28.4346C72.542 28.9359 73.1048 29.1865 73.8477 29.1865C74.5905 29.1865 75.1533 28.9382 75.5361 28.4414C75.9235 27.9401 76.1172 27.2087 76.1172 26.2471C76.1172 25.2946 75.9235 24.5723 75.5361 24.0801C75.1533 23.5833 74.5859 23.335 73.834 23.335C73.0911 23.335 72.5306 23.5788 72.1523 24.0664C71.7741 24.554 71.585 25.2809 71.585 26.2471ZM84.416 30V25.1533C84.416 24.5426 84.277 24.0869 83.999 23.7861C83.721 23.4854 83.2858 23.335 82.6934 23.335C81.9095 23.335 81.3353 23.5469 80.9707 23.9707C80.6061 24.3945 80.4238 25.0941 80.4238 26.0693V30H79.2891V22.5078H80.2119L80.3965 23.5332H80.4512C80.6836 23.1641 81.0094 22.8792 81.4287 22.6787C81.848 22.4736 82.3151 22.3711 82.8301 22.3711C83.7324 22.3711 84.4115 22.5898 84.8672 23.0273C85.3229 23.4603 85.5508 24.1553 85.5508 25.1123V30H84.416ZM89.0234 30H87.8887V22.5078H89.0234V30ZM87.793 20.4775C87.793 20.2178 87.8568 20.0286 87.9844 19.9102C88.112 19.7871 88.2715 19.7256 88.4629 19.7256C88.6452 19.7256 88.8024 19.7871 88.9346 19.9102C89.0667 20.0332 89.1328 20.2223 89.1328 20.4775C89.1328 20.7327 89.0667 20.9242 88.9346 21.0518C88.8024 21.1748 88.6452 21.2363 88.4629 21.2363C88.2715 21.2363 88.112 21.1748 87.9844 21.0518C87.8568 20.9242 87.793 20.7327 87.793 20.4775ZM96.2627 27.9561C96.2627 28.6533 96.0029 29.1911 95.4834 29.5693C94.9639 29.9476 94.2347 30.1367 93.2959 30.1367C92.3024 30.1367 91.5277 29.9795 90.9717 29.665V28.6123C91.3317 28.7946 91.7168 28.9382 92.127 29.043C92.5417 29.1478 92.9404 29.2002 93.3232 29.2002C93.9157 29.2002 94.3714 29.1068 94.6904 28.9199C95.0094 28.7285 95.1689 28.4391 95.1689 28.0518C95.1689 27.7601 95.0413 27.5117 94.7861 27.3066C94.5355 27.097 94.0433 26.8509 93.3096 26.5684C92.6123 26.3086 92.1156 26.083 91.8193 25.8916C91.5277 25.6956 91.3089 25.4746 91.1631 25.2285C91.0218 24.9824 90.9512 24.6885 90.9512 24.3467C90.9512 23.736 91.1995 23.2552 91.6963 22.9043C92.193 22.5488 92.8743 22.3711 93.7402 22.3711C94.5469 22.3711 95.3353 22.5352 96.1055 22.8633L95.7021 23.7861C94.9502 23.4762 94.2689 23.3213 93.6582 23.3213C93.1204 23.3213 92.7148 23.4056 92.4414 23.5742C92.168 23.7428 92.0312 23.9753 92.0312 24.2715C92.0312 24.472 92.0814 24.6429 92.1816 24.7842C92.2865 24.9255 92.4528 25.0599 92.6807 25.1875C92.9085 25.3151 93.346 25.4997 93.9932 25.7412C94.8818 26.0648 95.4811 26.3906 95.791 26.7188C96.1055 27.0469 96.2627 27.4593 96.2627 27.9561ZM100.535 29.2002C100.736 29.2002 100.929 29.1865 101.116 29.1592C101.303 29.1273 101.451 29.0954 101.561 29.0635V29.9316C101.438 29.9909 101.255 30.0387 101.014 30.0752C100.777 30.1162 100.562 30.1367 100.371 30.1367C98.9219 30.1367 98.1973 29.3734 98.1973 27.8467V23.3896H97.124V22.8428L98.1973 22.3711L98.6758 20.7715H99.332V22.5078H101.506V23.3896H99.332V27.7988C99.332 28.25 99.4391 28.5964 99.6533 28.8379C99.8675 29.0794 100.161 29.2002 100.535 29.2002ZM111.309 30L111.083 28.9336H111.028C110.655 29.403 110.281 29.722 109.907 29.8906C109.538 30.0547 109.076 30.1367 108.52 30.1367C107.777 30.1367 107.193 29.9453 106.77 29.5625C106.35 29.1797 106.141 28.6351 106.141 27.9287C106.141 26.4157 107.351 25.6227 109.771 25.5498L111.042 25.5088V25.0439C111.042 24.4561 110.914 24.0231 110.659 23.7451C110.409 23.4626 110.005 23.3213 109.449 23.3213C108.825 23.3213 108.118 23.5127 107.33 23.8955L106.981 23.0273C107.351 22.8268 107.754 22.6696 108.191 22.5557C108.633 22.4417 109.076 22.3848 109.518 22.3848C110.411 22.3848 111.072 22.583 111.5 22.9795C111.933 23.376 112.149 24.0117 112.149 24.8867V30H111.309ZM108.745 29.2002C109.451 29.2002 110.005 29.0065 110.406 28.6191C110.812 28.2318 111.015 27.6895 111.015 26.9922V26.3154L109.88 26.3633C108.978 26.3952 108.326 26.5365 107.925 26.7871C107.528 27.0332 107.33 27.4183 107.33 27.9424C107.33 28.3525 107.453 28.6647 107.699 28.8789C107.95 29.0931 108.299 29.2002 108.745 29.2002ZM119.621 30V25.1533C119.621 24.5426 119.482 24.0869 119.204 23.7861C118.926 23.4854 118.491 23.335 117.898 23.335C117.115 23.335 116.54 23.5469 116.176 23.9707C115.811 24.3945 115.629 25.0941 115.629 26.0693V30H114.494V22.5078H115.417L115.602 23.5332H115.656C115.889 23.1641 116.215 22.8792 116.634 22.6787C117.053 22.4736 117.52 22.3711 118.035 22.3711C118.938 22.3711 119.617 22.5898 120.072 23.0273C120.528 23.4603 120.756 24.1553 120.756 25.1123V30H119.621ZM128.193 28.9951H128.132C127.608 29.7562 126.824 30.1367 125.78 30.1367C124.8 30.1367 124.037 29.8018 123.49 29.1318C122.948 28.4619 122.677 27.5094 122.677 26.2744C122.677 25.0394 122.95 24.0801 123.497 23.3965C124.044 22.7129 124.805 22.3711 125.78 22.3711C126.797 22.3711 127.576 22.7402 128.118 23.4785H128.207L128.159 22.9385L128.132 22.4121V19.3633H129.267V30H128.344L128.193 28.9951ZM125.924 29.1865C126.699 29.1865 127.259 28.9769 127.605 28.5576C127.956 28.1338 128.132 27.4525 128.132 26.5137V26.2744C128.132 25.2126 127.954 24.4561 127.599 24.0049C127.248 23.5492 126.685 23.3213 125.91 23.3213C125.245 23.3213 124.734 23.5811 124.379 24.1006C124.028 24.6156 123.853 25.3447 123.853 26.2881C123.853 27.2451 124.028 27.9674 124.379 28.4551C124.73 28.9427 125.245 29.1865 125.924 29.1865ZM138.311 30.1367C137.226 30.1367 136.385 29.804 135.788 29.1387C135.196 28.4688 134.899 27.5231 134.899 26.3018C134.899 25.0485 135.2 24.0801 135.802 23.3965C136.408 22.7129 137.269 22.3711 138.386 22.3711C138.746 22.3711 139.106 22.4098 139.466 22.4873C139.826 22.5648 140.108 22.6559 140.313 22.7607L139.965 23.7246C139.714 23.6243 139.441 23.5423 139.145 23.4785C138.848 23.4102 138.586 23.376 138.358 23.376C136.836 23.376 136.075 24.3467 136.075 26.2881C136.075 27.2087 136.26 27.915 136.629 28.4072C137.003 28.8994 137.554 29.1455 138.283 29.1455C138.908 29.1455 139.548 29.0111 140.204 28.7422V29.7471C139.703 30.0068 139.072 30.1367 138.311 30.1367ZM147.115 30V25.1533C147.115 24.5426 146.976 24.0869 146.698 23.7861C146.42 23.4854 145.985 23.335 145.393 23.335C144.604 23.335 144.028 23.5492 143.663 23.9775C143.303 24.4059 143.123 25.1077 143.123 26.083V30H141.988V19.3633H143.123V22.583C143.123 22.9704 143.105 23.2917 143.068 23.5469H143.137C143.36 23.1868 143.677 22.9043 144.087 22.6992C144.502 22.4896 144.973 22.3848 145.502 22.3848C146.418 22.3848 147.104 22.6035 147.56 23.041C148.02 23.474 148.25 24.1644 148.25 25.1123V30H147.115ZM157.055 26.2471C157.055 27.4684 156.747 28.4232 156.132 29.1113C155.517 29.7949 154.667 30.1367 153.582 30.1367C152.912 30.1367 152.317 29.9795 151.798 29.665C151.278 29.3506 150.877 28.8994 150.595 28.3115C150.312 27.7236 150.171 27.0355 150.171 26.2471C150.171 25.0257 150.476 24.0755 151.087 23.3965C151.698 22.7129 152.545 22.3711 153.63 22.3711C154.678 22.3711 155.51 22.7197 156.125 23.417C156.745 24.1143 157.055 25.0576 157.055 26.2471ZM151.347 26.2471C151.347 27.2041 151.538 27.9333 151.921 28.4346C152.304 28.9359 152.867 29.1865 153.609 29.1865C154.352 29.1865 154.915 28.9382 155.298 28.4414C155.685 27.9401 155.879 27.2087 155.879 26.2471C155.879 25.2946 155.685 24.5723 155.298 24.0801C154.915 23.5833 154.348 23.335 153.596 23.335C152.853 23.335 152.292 23.5788 151.914 24.0664C151.536 24.554 151.347 25.2809 151.347 26.2471ZM165.518 26.2471C165.518 27.4684 165.21 28.4232 164.595 29.1113C163.979 29.7949 163.13 30.1367 162.045 30.1367C161.375 30.1367 160.78 29.9795 160.261 29.665C159.741 29.3506 159.34 28.8994 159.058 28.3115C158.775 27.7236 158.634 27.0355 158.634 26.2471C158.634 25.0257 158.939 24.0755 159.55 23.3965C160.16 22.7129 161.008 22.3711 162.093 22.3711C163.141 22.3711 163.973 22.7197 164.588 23.417C165.208 24.1143 165.518 25.0576 165.518 26.2471ZM159.81 26.2471C159.81 27.2041 160.001 27.9333 160.384 28.4346C160.767 28.9359 161.329 29.1865 162.072 29.1865C162.815 29.1865 163.378 28.9382 163.761 28.4414C164.148 27.9401 164.342 27.2087 164.342 26.2471C164.342 25.2946 164.148 24.5723 163.761 24.0801C163.378 23.5833 162.811 23.335 162.059 23.335C161.316 23.335 160.755 23.5788 160.377 24.0664C159.999 24.554 159.81 25.2809 159.81 26.2471ZM172.347 27.9561C172.347 28.6533 172.087 29.1911 171.567 29.5693C171.048 29.9476 170.319 30.1367 169.38 30.1367C168.386 30.1367 167.612 29.9795 167.056 29.665V28.6123C167.416 28.7946 167.801 28.9382 168.211 29.043C168.626 29.1478 169.024 29.2002 169.407 29.2002C170 29.2002 170.455 29.1068 170.774 28.9199C171.093 28.7285 171.253 28.4391 171.253 28.0518C171.253 27.7601 171.125 27.5117 170.87 27.3066C170.619 27.097 170.127 26.8509 169.394 26.5684C168.696 26.3086 168.2 26.083 167.903 25.8916C167.612 25.6956 167.393 25.4746 167.247 25.2285C167.106 24.9824 167.035 24.6885 167.035 24.3467C167.035 23.736 167.284 23.2552 167.78 22.9043C168.277 22.5488 168.958 22.3711 169.824 22.3711C170.631 22.3711 171.419 22.5352 172.189 22.8633L171.786 23.7861C171.034 23.4762 170.353 23.3213 169.742 23.3213C169.204 23.3213 168.799 23.4056 168.525 23.5742C168.252 23.7428 168.115 23.9753 168.115 24.2715C168.115 24.472 168.165 24.6429 168.266 24.7842C168.37 24.9255 168.537 25.0599 168.765 25.1875C168.993 25.3151 169.43 25.4997 170.077 25.7412C170.966 26.0648 171.565 26.3906 171.875 26.7188C172.189 27.0469 172.347 27.4593 172.347 27.9561ZM177.364 30.1367C176.257 30.1367 175.382 29.7995 174.739 29.125C174.101 28.4505 173.782 27.514 173.782 26.3154C173.782 25.1077 174.078 24.1484 174.671 23.4375C175.268 22.7266 176.068 22.3711 177.07 22.3711C178.009 22.3711 178.752 22.681 179.299 23.3008C179.846 23.916 180.119 24.7295 180.119 25.7412V26.459H174.958C174.981 27.3385 175.202 28.0062 175.621 28.4619C176.045 28.9176 176.64 29.1455 177.405 29.1455C178.212 29.1455 179.009 28.9769 179.798 28.6396V29.6514C179.397 29.8245 179.016 29.9476 178.656 30.0205C178.301 30.098 177.87 30.1367 177.364 30.1367ZM177.057 23.3213C176.455 23.3213 175.974 23.5173 175.614 23.9092C175.259 24.3011 175.049 24.8434 174.985 25.5361H178.902C178.902 24.8206 178.743 24.2738 178.424 23.8955C178.105 23.5127 177.649 23.3213 177.057 23.3213ZM188.117 29.2002C188.318 29.2002 188.511 29.1865 188.698 29.1592C188.885 29.1273 189.033 29.0954 189.143 29.0635V29.9316C189.02 29.9909 188.837 30.0387 188.596 30.0752C188.359 30.1162 188.145 30.1367 187.953 30.1367C186.504 30.1367 185.779 29.3734 185.779 27.8467V23.3896H184.706V22.8428L185.779 22.3711L186.258 20.7715H186.914V22.5078H189.088V23.3896H186.914V27.7988C186.914 28.25 187.021 28.5964 187.235 28.8379C187.45 29.0794 187.743 29.2002 188.117 29.2002ZM195.773 30V25.1533C195.773 24.5426 195.634 24.0869 195.356 23.7861C195.078 23.4854 194.643 23.335 194.051 23.335C193.262 23.335 192.686 23.5492 192.321 23.9775C191.961 24.4059 191.781 25.1077 191.781 26.083V30H190.646V19.3633H191.781V22.583C191.781 22.9704 191.763 23.2917 191.727 23.5469H191.795C192.018 23.1868 192.335 22.9043 192.745 22.6992C193.16 22.4896 193.632 22.3848 194.16 22.3848C195.076 22.3848 195.762 22.6035 196.218 23.041C196.678 23.474 196.908 24.1644 196.908 25.1123V30H195.773ZM202.411 30.1367C201.304 30.1367 200.429 29.7995 199.786 29.125C199.148 28.4505 198.829 27.514 198.829 26.3154C198.829 25.1077 199.125 24.1484 199.718 23.4375C200.315 22.7266 201.115 22.3711 202.117 22.3711C203.056 22.3711 203.799 22.681 204.346 23.3008C204.893 23.916 205.166 24.7295 205.166 25.7412V26.459H200.005C200.028 27.3385 200.249 28.0062 200.668 28.4619C201.092 28.9176 201.687 29.1455 202.452 29.1455C203.259 29.1455 204.056 28.9769 204.845 28.6396V29.6514C204.444 29.8245 204.063 29.9476 203.703 30.0205C203.348 30.098 202.917 30.1367 202.411 30.1367ZM202.104 23.3213C201.502 23.3213 201.021 23.5173 200.661 23.9092C200.306 24.3011 200.096 24.8434 200.032 25.5361H203.949C203.949 24.8206 203.79 24.2738 203.471 23.8955C203.152 23.5127 202.696 23.3213 202.104 23.3213ZM214.23 30.1367C213.743 30.1367 213.296 30.0479 212.891 29.8701C212.49 29.6878 212.152 29.4098 211.879 29.0361H211.797C211.852 29.4736 211.879 29.8883 211.879 30.2803V33.3633H210.744V22.5078H211.667L211.824 23.5332H211.879C212.171 23.123 212.51 22.8268 212.897 22.6445C213.285 22.4622 213.729 22.3711 214.23 22.3711C215.224 22.3711 215.99 22.7106 216.527 23.3896C217.07 24.0687 217.341 25.0212 217.341 26.2471C217.341 27.4775 217.065 28.4346 216.514 29.1182C215.967 29.7972 215.206 30.1367 214.23 30.1367ZM214.066 23.335C213.301 23.335 212.747 23.5469 212.405 23.9707C212.063 24.3945 211.888 25.069 211.879 25.9941V26.2471C211.879 27.2998 212.054 28.054 212.405 28.5098C212.756 28.9609 213.319 29.1865 214.094 29.1865C214.741 29.1865 215.247 28.9245 215.611 28.4004C215.98 27.8763 216.165 27.154 216.165 26.2334C216.165 25.2992 215.98 24.5837 215.611 24.0869C215.247 23.5856 214.732 23.335 214.066 23.335ZM222.495 30.1367C221.388 30.1367 220.513 29.7995 219.87 29.125C219.232 28.4505 218.913 27.514 218.913 26.3154C218.913 25.1077 219.209 24.1484 219.802 23.4375C220.399 22.7266 221.199 22.3711 222.201 22.3711C223.14 22.3711 223.883 22.681 224.43 23.3008C224.977 23.916 225.25 24.7295 225.25 25.7412V26.459H220.089C220.112 27.3385 220.333 28.0062 220.752 28.4619C221.176 28.9176 221.771 29.1455 222.536 29.1455C223.343 29.1455 224.14 28.9769 224.929 28.6396V29.6514C224.528 29.8245 224.147 29.9476 223.787 30.0205C223.432 30.098 223.001 30.1367 222.495 30.1367ZM222.188 23.3213C221.586 23.3213 221.105 23.5173 220.745 23.9092C220.39 24.3011 220.18 24.8434 220.116 25.5361H224.033C224.033 24.8206 223.874 24.2738 223.555 23.8955C223.236 23.5127 222.78 23.3213 222.188 23.3213ZM230.609 22.3711C230.942 22.3711 231.241 22.3984 231.505 22.4531L231.348 23.5059C231.038 23.4375 230.764 23.4033 230.527 23.4033C229.921 23.4033 229.402 23.6494 228.969 24.1416C228.54 24.6338 228.326 25.2467 228.326 25.9805V30H227.191V22.5078H228.128L228.258 23.8955H228.312C228.59 23.4079 228.925 23.0319 229.317 22.7676C229.709 22.5033 230.14 22.3711 230.609 22.3711ZM236.283 23.3896H234.376V30H233.241V23.3896H231.901V22.877L233.241 22.4668V22.0498C233.241 20.2087 234.046 19.2881 235.654 19.2881C236.051 19.2881 236.516 19.3678 237.049 19.5273L236.755 20.4365C236.317 20.2952 235.944 20.2246 235.634 20.2246C235.205 20.2246 234.889 20.3682 234.684 20.6553C234.479 20.9378 234.376 21.3936 234.376 22.0225V22.5078H236.283V23.3896ZM240.815 30.1367C239.708 30.1367 238.833 29.7995 238.19 29.125C237.552 28.4505 237.233 27.514 237.233 26.3154C237.233 25.1077 237.53 24.1484 238.122 23.4375C238.719 22.7266 239.519 22.3711 240.521 22.3711C241.46 22.3711 242.203 22.681 242.75 23.3008C243.297 23.916 243.57 24.7295 243.57 25.7412V26.459H238.409C238.432 27.3385 238.653 28.0062 239.072 28.4619C239.496 28.9176 240.091 29.1455 240.856 29.1455C241.663 29.1455 242.461 28.9769 243.249 28.6396V29.6514C242.848 29.8245 242.467 29.9476 242.107 30.0205C241.752 30.098 241.321 30.1367 240.815 30.1367ZM240.508 23.3213C239.906 23.3213 239.425 23.5173 239.065 23.9092C238.71 24.3011 238.5 24.8434 238.437 25.5361H242.354C242.354 24.8206 242.194 24.2738 241.875 23.8955C241.556 23.5127 241.1 23.3213 240.508 23.3213ZM248.506 30.1367C247.421 30.1367 246.58 29.804 245.983 29.1387C245.391 28.4688 245.095 27.5231 245.095 26.3018C245.095 25.0485 245.396 24.0801 245.997 23.3965C246.603 22.7129 247.465 22.3711 248.581 22.3711C248.941 22.3711 249.301 22.4098 249.661 22.4873C250.021 22.5648 250.304 22.6559 250.509 22.7607L250.16 23.7246C249.91 23.6243 249.636 23.5423 249.34 23.4785C249.044 23.4102 248.782 23.376 248.554 23.376C247.032 23.376 246.271 24.3467 246.271 26.2881C246.271 27.2087 246.455 27.915 246.824 28.4072C247.198 28.8994 247.749 29.1455 248.479 29.1455C249.103 29.1455 249.743 29.0111 250.399 28.7422V29.7471C249.898 30.0068 249.267 30.1367 248.506 30.1367ZM254.604 29.2002C254.804 29.2002 254.998 29.1865 255.185 29.1592C255.371 29.1273 255.52 29.0954 255.629 29.0635V29.9316C255.506 29.9909 255.324 30.0387 255.082 30.0752C254.845 30.1162 254.631 30.1367 254.439 30.1367C252.99 30.1367 252.266 29.3734 252.266 27.8467V23.3896H251.192V22.8428L252.266 22.3711L252.744 20.7715H253.4V22.5078H255.574V23.3896H253.4V27.7988C253.4 28.25 253.507 28.5964 253.722 28.8379C253.936 29.0794 254.23 29.2002 254.604 29.2002ZM261.891 26.165C262.087 25.887 262.385 25.5225 262.786 25.0713L265.206 22.5078H266.553L263.518 25.7002L266.765 30H265.391L262.745 26.459L261.891 27.1973V30H260.77V19.3633H261.891V25.0029C261.891 25.2536 261.872 25.641 261.836 26.165H261.891ZM269.26 30H268.125V22.5078H269.26V30ZM268.029 20.4775C268.029 20.2178 268.093 20.0286 268.221 19.9102C268.348 19.7871 268.508 19.7256 268.699 19.7256C268.882 19.7256 269.039 19.7871 269.171 19.9102C269.303 20.0332 269.369 20.2223 269.369 20.4775C269.369 20.7327 269.303 20.9242 269.171 21.0518C269.039 21.1748 268.882 21.2363 268.699 21.2363C268.508 21.2363 268.348 21.1748 268.221 21.0518C268.093 20.9242 268.029 20.7327 268.029 20.4775ZM274.086 29.2002C274.286 29.2002 274.48 29.1865 274.667 29.1592C274.854 29.1273 275.002 29.0954 275.111 29.0635V29.9316C274.988 29.9909 274.806 30.0387 274.564 30.0752C274.327 30.1162 274.113 30.1367 273.922 30.1367C272.473 30.1367 271.748 29.3734 271.748 27.8467V23.3896H270.675V22.8428L271.748 22.3711L272.227 20.7715H272.883V22.5078H275.057V23.3896H272.883V27.7988C272.883 28.25 272.99 28.5964 273.204 28.8379C273.418 29.0794 273.712 29.2002 274.086 29.2002ZM283.629 23.3896H281.722V30H280.587V23.3896H279.247V22.877L280.587 22.4668V22.0498C280.587 20.2087 281.391 19.2881 283 19.2881C283.396 19.2881 283.861 19.3678 284.395 19.5273L284.101 20.4365C283.663 20.2952 283.289 20.2246 282.979 20.2246C282.551 20.2246 282.234 20.3682 282.029 20.6553C281.824 20.9378 281.722 21.3936 281.722 22.0225V22.5078H283.629V23.3896ZM291.463 26.2471C291.463 27.4684 291.155 28.4232 290.54 29.1113C289.925 29.7949 289.075 30.1367 287.99 30.1367C287.32 30.1367 286.726 29.9795 286.206 29.665C285.687 29.3506 285.285 28.8994 285.003 28.3115C284.72 27.7236 284.579 27.0355 284.579 26.2471C284.579 25.0257 284.884 24.0755 285.495 23.3965C286.106 22.7129 286.953 22.3711 288.038 22.3711C289.086 22.3711 289.918 22.7197 290.533 23.417C291.153 24.1143 291.463 25.0576 291.463 26.2471ZM285.755 26.2471C285.755 27.2041 285.946 27.9333 286.329 28.4346C286.712 28.9359 287.275 29.1865 288.018 29.1865C288.76 29.1865 289.323 28.9382 289.706 28.4414C290.093 27.9401 290.287 27.2087 290.287 26.2471C290.287 25.2946 290.093 24.5723 289.706 24.0801C289.323 23.5833 288.756 23.335 288.004 23.335C287.261 23.335 286.701 23.5788 286.322 24.0664C285.944 24.554 285.755 25.2809 285.755 26.2471ZM296.877 22.3711C297.21 22.3711 297.508 22.3984 297.772 22.4531L297.615 23.5059C297.305 23.4375 297.032 23.4033 296.795 23.4033C296.189 23.4033 295.669 23.6494 295.236 24.1416C294.808 24.6338 294.594 25.2467 294.594 25.9805V30H293.459V22.5078H294.396L294.525 23.8955H294.58C294.858 23.4079 295.193 23.0319 295.585 22.7676C295.977 22.5033 296.408 22.3711 296.877 22.3711ZM301.621 22.5078H302.838L304.479 26.7803C304.839 27.7555 305.062 28.4596 305.148 28.8926H305.203C305.262 28.6602 305.385 28.2637 305.572 27.7031C305.764 27.138 306.383 25.4062 307.432 22.5078H308.648L305.429 31.0391C305.11 31.8822 304.736 32.4792 304.308 32.8301C303.884 33.1855 303.362 33.3633 302.742 33.3633C302.396 33.3633 302.054 33.3245 301.717 33.2471V32.3379C301.967 32.3926 302.248 32.4199 302.558 32.4199C303.337 32.4199 303.893 31.9824 304.226 31.1074L304.643 30.041L301.621 22.5078ZM316.332 26.2471C316.332 27.4684 316.024 28.4232 315.409 29.1113C314.794 29.7949 313.944 30.1367 312.859 30.1367C312.189 30.1367 311.595 29.9795 311.075 29.665C310.556 29.3506 310.155 28.8994 309.872 28.3115C309.59 27.7236 309.448 27.0355 309.448 26.2471C309.448 25.0257 309.754 24.0755 310.364 23.3965C310.975 22.7129 311.823 22.3711 312.907 22.3711C313.955 22.3711 314.787 22.7197 315.402 23.417C316.022 24.1143 316.332 25.0576 316.332 26.2471ZM310.624 26.2471C310.624 27.2041 310.815 27.9333 311.198 28.4346C311.581 28.9359 312.144 29.1865 312.887 29.1865C313.63 29.1865 314.192 28.9382 314.575 28.4414C314.963 27.9401 315.156 27.2087 315.156 26.2471C315.156 25.2946 314.963 24.5723 314.575 24.0801C314.192 23.5833 313.625 23.335 312.873 23.335C312.13 23.335 311.57 23.5788 311.191 24.0664C310.813 24.554 310.624 25.2809 310.624 26.2471ZM319.395 22.5078V27.3682C319.395 27.9788 319.534 28.4346 319.812 28.7354C320.09 29.0361 320.525 29.1865 321.117 29.1865C321.901 29.1865 322.473 28.9723 322.833 28.5439C323.198 28.1156 323.38 27.416 323.38 26.4453V22.5078H324.515V30H323.578L323.414 28.9951H323.353C323.12 29.3643 322.797 29.6468 322.382 29.8428C321.972 30.0387 321.502 30.1367 320.974 30.1367C320.062 30.1367 319.379 29.9202 318.923 29.4873C318.472 29.0544 318.246 28.3617 318.246 27.4092V22.5078H319.395ZM330.346 22.3711C330.678 22.3711 330.977 22.3984 331.241 22.4531L331.084 23.5059C330.774 23.4375 330.501 23.4033 330.264 23.4033C329.658 23.4033 329.138 23.6494 328.705 24.1416C328.277 24.6338 328.062 25.2467 328.062 25.9805V30H326.928V22.5078H327.864L327.994 23.8955H328.049C328.327 23.4079 328.662 23.0319 329.054 22.7676C329.446 22.5033 329.876 22.3711 330.346 22.3711ZM337.476 27.9561C337.476 28.6533 337.216 29.1911 336.696 29.5693C336.177 29.9476 335.448 30.1367 334.509 30.1367C333.515 30.1367 332.741 29.9795 332.185 29.665V28.6123C332.545 28.7946 332.93 28.9382 333.34 29.043C333.755 29.1478 334.153 29.2002 334.536 29.2002C335.129 29.2002 335.584 29.1068 335.903 28.9199C336.222 28.7285 336.382 28.4391 336.382 28.0518C336.382 27.7601 336.254 27.5117 335.999 27.3066C335.748 27.097 335.256 26.8509 334.522 26.5684C333.825 26.3086 333.328 26.083 333.032 25.8916C332.741 25.6956 332.522 25.4746 332.376 25.2285C332.235 24.9824 332.164 24.6885 332.164 24.3467C332.164 23.736 332.412 23.2552 332.909 22.9043C333.406 22.5488 334.087 22.3711 334.953 22.3711C335.76 22.3711 336.548 22.5352 337.318 22.8633L336.915 23.7861C336.163 23.4762 335.482 23.3213 334.871 23.3213C334.333 23.3213 333.928 23.4056 333.654 23.5742C333.381 23.7428 333.244 23.9753 333.244 24.2715C333.244 24.472 333.294 24.6429 333.395 24.7842C333.499 24.9255 333.666 25.0599 333.894 25.1875C334.121 25.3151 334.559 25.4997 335.206 25.7412C336.095 26.0648 336.694 26.3906 337.004 26.7188C337.318 27.0469 337.476 27.4593 337.476 27.9561ZM342.493 30.1367C341.386 30.1367 340.511 29.7995 339.868 29.125C339.23 28.4505 338.911 27.514 338.911 26.3154C338.911 25.1077 339.207 24.1484 339.8 23.4375C340.397 22.7266 341.197 22.3711 342.199 22.3711C343.138 22.3711 343.881 22.681 344.428 23.3008C344.975 23.916 345.248 24.7295 345.248 25.7412V26.459H340.087C340.11 27.3385 340.331 28.0062 340.75 28.4619C341.174 28.9176 341.769 29.1455 342.534 29.1455C343.341 29.1455 344.138 28.9769 344.927 28.6396V29.6514C344.526 29.8245 344.145 29.9476 343.785 30.0205C343.43 30.098 342.999 30.1367 342.493 30.1367ZM342.186 23.3213C341.584 23.3213 341.103 23.5173 340.743 23.9092C340.388 24.3011 340.178 24.8434 340.114 25.5361H344.031C344.031 24.8206 343.872 24.2738 343.553 23.8955C343.234 23.5127 342.778 23.3213 342.186 23.3213ZM348.324 30H347.189V19.3633H348.324V30ZM354.107 23.3896H352.2V30H351.065V23.3896H349.726V22.877L351.065 22.4668V22.0498C351.065 20.2087 351.87 19.2881 353.479 19.2881C353.875 19.2881 354.34 19.3678 354.873 19.5273L354.579 20.4365C354.142 20.2952 353.768 20.2246 353.458 20.2246C353.03 20.2246 352.713 20.3682 352.508 20.6553C352.303 20.9378 352.2 21.3936 352.2 22.0225V22.5078H354.107V23.3896Z" fill="#111112"/>
</svg>
