<svg width="80" height="23" viewBox="0 0 80 23" fill="none" xmlns="http://www.w3.org/2000/svg">
<rect width="80" height="23" rx="8" fill="#F5F5F5"/>
<path d="M15.877 9.35742C15.877 9.99544 15.6969 10.5173 15.3369 10.9229C14.9814 11.3285 14.4756 11.5996 13.8193 11.7363V11.791C14.6214 11.8913 15.2161 12.1465 15.6035 12.5566C15.9909 12.9668 16.1846 13.5046 16.1846 14.1699C16.1846 15.1224 15.8542 15.8561 15.1934 16.3711C14.5326 16.8815 13.5938 17.1367 12.377 17.1367C11.8483 17.1367 11.363 17.0957 10.9209 17.0137C10.4834 16.9362 10.0573 16.7972 9.64258 16.5967V15.5166C10.0755 15.7308 10.5358 15.8949 11.0234 16.0088C11.5156 16.1182 11.9805 16.1729 12.418 16.1729C14.1452 16.1729 15.0088 15.4961 15.0088 14.1426C15.0088 12.9303 14.0563 12.3242 12.1514 12.3242H11.167V11.3467H12.165C12.9443 11.3467 13.5618 11.1758 14.0176 10.834C14.4733 10.4876 14.7012 10.0091 14.7012 9.39844C14.7012 8.91081 14.5326 8.52799 14.1953 8.25C13.8626 7.97201 13.4092 7.83301 12.835 7.83301C12.3975 7.83301 11.985 7.89225 11.5977 8.01074C11.2103 8.12923 10.7682 8.34798 10.2715 8.66699L9.69727 7.90137C10.1074 7.5778 10.5791 7.32487 11.1123 7.14258C11.6501 6.95573 12.2152 6.8623 12.8076 6.8623C13.7783 6.8623 14.5326 7.08561 15.0703 7.53223C15.6081 7.97428 15.877 8.58268 15.877 9.35742ZM24.3193 11.9893C24.3193 13.7165 24.0459 15.0062 23.499 15.8584C22.9567 16.7106 22.125 17.1367 21.0039 17.1367C19.9284 17.1367 19.1104 16.7015 18.5498 15.8311C17.9893 14.9561 17.709 13.6755 17.709 11.9893C17.709 10.2484 17.9801 8.95638 18.5225 8.11328C19.0648 7.27018 19.8919 6.84863 21.0039 6.84863C22.0885 6.84863 22.9111 7.28841 23.4717 8.16797C24.0368 9.04753 24.3193 10.3213 24.3193 11.9893ZM18.8574 11.9893C18.8574 13.443 19.0283 14.5026 19.3701 15.168C19.7119 15.8288 20.2565 16.1592 21.0039 16.1592C21.7604 16.1592 22.3073 15.8242 22.6445 15.1543C22.9863 14.4798 23.1572 13.4248 23.1572 11.9893C23.1572 10.5537 22.9863 9.50326 22.6445 8.83789C22.3073 8.16797 21.7604 7.83301 21.0039 7.83301C20.2565 7.83301 19.7119 8.16341 19.3701 8.82422C19.0283 9.48047 18.8574 10.5355 18.8574 11.9893ZM32.3311 11.9893C32.3311 13.7165 32.0576 15.0062 31.5107 15.8584C30.9684 16.7106 30.1367 17.1367 29.0156 17.1367C27.9401 17.1367 27.1221 16.7015 26.5615 15.8311C26.001 14.9561 25.7207 13.6755 25.7207 11.9893C25.7207 10.2484 25.9919 8.95638 26.5342 8.11328C27.0765 7.27018 27.9036 6.84863 29.0156 6.84863C30.1003 6.84863 30.9229 7.28841 31.4834 8.16797C32.0485 9.04753 32.3311 10.3213 32.3311 11.9893ZM26.8691 11.9893C26.8691 13.443 27.04 14.5026 27.3818 15.168C27.7236 15.8288 28.2682 16.1592 29.0156 16.1592C29.7721 16.1592 30.319 15.8242 30.6562 15.1543C30.998 14.4798 31.1689 13.4248 31.1689 11.9893C31.1689 10.5537 30.998 9.50326 30.6562 8.83789C30.319 8.16797 29.7721 7.83301 29.0156 7.83301C28.2682 7.83301 27.7236 8.16341 27.3818 8.82422C27.04 9.48047 26.8691 10.5355 26.8691 11.9893ZM40.3428 11.9893C40.3428 13.7165 40.0693 15.0062 39.5225 15.8584C38.9801 16.7106 38.1484 17.1367 37.0273 17.1367C35.9518 17.1367 35.1338 16.7015 34.5732 15.8311C34.0127 14.9561 33.7324 13.6755 33.7324 11.9893C33.7324 10.2484 34.0036 8.95638 34.5459 8.11328C35.0882 7.27018 35.9154 6.84863 37.0273 6.84863C38.112 6.84863 38.9346 7.28841 39.4951 8.16797C40.0602 9.04753 40.3428 10.3213 40.3428 11.9893ZM34.8809 11.9893C34.8809 13.443 35.0518 14.5026 35.3936 15.168C35.7354 15.8288 36.2799 16.1592 37.0273 16.1592C37.7839 16.1592 38.3307 15.8242 38.668 15.1543C39.0098 14.4798 39.1807 13.4248 39.1807 11.9893C39.1807 10.5537 39.0098 9.50326 38.668 8.83789C38.3307 8.16797 37.7839 7.83301 37.0273 7.83301C36.2799 7.83301 35.7354 8.16341 35.3936 8.82422C35.0518 9.48047 34.8809 10.5355 34.8809 11.9893ZM47.0078 13.165C47.2038 12.887 47.5023 12.5225 47.9033 12.0713L50.3232 9.50781H51.6699L48.6348 12.7002L51.8818 17H50.5078L47.8623 13.459L47.0078 14.1973V17H45.8867V6.36328H47.0078V12.0029C47.0078 12.2536 46.9896 12.641 46.9531 13.165H47.0078ZM56.2363 17.1367C55.1517 17.1367 54.3109 16.804 53.7139 16.1387C53.1214 15.4688 52.8252 14.5231 52.8252 13.3018C52.8252 12.0485 53.126 11.0801 53.7275 10.3965C54.3337 9.71289 55.195 9.37109 56.3115 9.37109C56.6715 9.37109 57.0316 9.40983 57.3916 9.4873C57.7516 9.56478 58.0342 9.65592 58.2393 9.76074L57.8906 10.7246C57.64 10.6243 57.3665 10.5423 57.0703 10.4785C56.7741 10.4102 56.512 10.376 56.2842 10.376C54.762 10.376 54.001 11.3467 54.001 13.2881C54.001 14.2087 54.1855 14.915 54.5547 15.4072C54.9284 15.8994 55.4798 16.1455 56.209 16.1455C56.8333 16.1455 57.4736 16.0111 58.1299 15.7422V16.7471C57.6286 17.0068 56.9974 17.1367 56.2363 17.1367ZM64.5215 17L64.2959 15.9336H64.2412C63.8675 16.403 63.4938 16.722 63.1201 16.8906C62.751 17.0547 62.2884 17.1367 61.7324 17.1367C60.9896 17.1367 60.4062 16.9453 59.9824 16.5625C59.5632 16.1797 59.3535 15.6351 59.3535 14.9287C59.3535 13.4157 60.5635 12.6227 62.9834 12.5498L64.2549 12.5088V12.0439C64.2549 11.4561 64.1273 11.0231 63.8721 10.7451C63.6214 10.4626 63.2181 10.3213 62.6621 10.3213C62.0378 10.3213 61.3314 10.5127 60.543 10.8955L60.1943 10.0273C60.5635 9.82682 60.9668 9.6696 61.4043 9.55566C61.8464 9.44173 62.2884 9.38477 62.7305 9.38477C63.6237 9.38477 64.2845 9.58301 64.7129 9.97949C65.1458 10.376 65.3623 11.0117 65.3623 11.8867V17H64.5215ZM61.958 16.2002C62.6644 16.2002 63.2181 16.0065 63.6191 15.6191C64.0247 15.2318 64.2275 14.6895 64.2275 13.9922V13.3154L63.0928 13.3633C62.1904 13.3952 61.5387 13.5365 61.1377 13.7871C60.7412 14.0332 60.543 14.4183 60.543 14.9424C60.543 15.3525 60.666 15.6647 60.9121 15.8789C61.1628 16.0931 61.5114 16.2002 61.958 16.2002ZM68.8418 17H67.707V6.36328H68.8418V17Z" fill="#111112"/>
</svg>
