<svg width="98" height="39" viewBox="0 0 98 39" fill="none" xmlns="http://www.w3.org/2000/svg">
<rect width="98" height="39" rx="10" fill="#1AC84B"/>
<path d="M29.5713 16.2568C29.0928 16.2568 28.6644 16.3434 28.2861 16.5166C27.9124 16.6898 27.5957 16.9404 27.3359 17.2686C27.0762 17.5921 26.8779 17.9863 26.7412 18.4512C26.6045 18.9115 26.5361 19.431 26.5361 20.0098C26.5361 20.7845 26.6455 21.4521 26.8643 22.0127C27.083 22.5687 27.4157 22.9971 27.8623 23.2979C28.3089 23.5941 28.874 23.7422 29.5576 23.7422C29.9814 23.7422 30.3939 23.7012 30.7949 23.6191C31.196 23.5371 31.6107 23.4255 32.0391 23.2842V24.6787C31.6335 24.8382 31.2233 24.9544 30.8086 25.0273C30.3939 25.1003 29.9154 25.1367 29.373 25.1367C28.3522 25.1367 27.5046 24.9248 26.8301 24.501C26.1602 24.0771 25.6589 23.4801 25.3262 22.71C24.998 21.9398 24.834 21.0374 24.834 20.0029C24.834 19.2464 24.9388 18.5537 25.1484 17.9248C25.3581 17.2959 25.6634 16.7536 26.0645 16.2979C26.4655 15.8376 26.96 15.4844 27.5479 15.2383C28.1403 14.9876 28.8171 14.8623 29.5781 14.8623C30.0794 14.8623 30.5716 14.9193 31.0547 15.0332C31.5423 15.1426 31.9935 15.2998 32.4082 15.5049L31.834 16.8584C31.4876 16.6943 31.1253 16.5531 30.7471 16.4346C30.3688 16.3161 29.9769 16.2568 29.5713 16.2568ZM35.6279 14.3633V17.0361C35.6279 17.3141 35.6188 17.5853 35.6006 17.8496C35.5869 18.1139 35.571 18.319 35.5527 18.4648H35.6416C35.8011 18.2005 35.9971 17.984 36.2295 17.8154C36.4619 17.6423 36.7217 17.5124 37.0088 17.4258C37.3005 17.3392 37.6104 17.2959 37.9385 17.2959C38.5173 17.2959 39.0094 17.3939 39.415 17.5898C39.8206 17.7812 40.1305 18.0798 40.3447 18.4854C40.5635 18.891 40.6729 19.4173 40.6729 20.0645V25H39.0664V20.3652C39.0664 19.7773 38.9456 19.3376 38.7041 19.0459C38.4626 18.7497 38.0889 18.6016 37.583 18.6016C37.0954 18.6016 36.708 18.7041 36.4209 18.9092C36.1383 19.1097 35.9355 19.4082 35.8125 19.8047C35.6895 20.1966 35.6279 20.6751 35.6279 21.2402V25H34.0215V14.3633H35.6279ZM49.6211 21.1992C49.6211 21.8281 49.5391 22.3864 49.375 22.874C49.2109 23.3617 48.9717 23.7741 48.6572 24.1113C48.3428 24.444 47.9645 24.6992 47.5225 24.877C47.0804 25.0501 46.5814 25.1367 46.0254 25.1367C45.5059 25.1367 45.0296 25.0501 44.5967 24.877C44.1637 24.6992 43.7878 24.444 43.4688 24.1113C43.1543 23.7741 42.9105 23.3617 42.7373 22.874C42.5641 22.3864 42.4775 21.8281 42.4775 21.1992C42.4775 20.3652 42.6211 19.6589 42.9082 19.0801C43.1999 18.4967 43.6146 18.0524 44.1523 17.7471C44.6901 17.4417 45.3304 17.2891 46.0732 17.2891C46.7705 17.2891 47.3857 17.4417 47.9189 17.7471C48.4521 18.0524 48.8691 18.4967 49.1699 19.0801C49.4707 19.6634 49.6211 20.3698 49.6211 21.1992ZM44.1318 21.1992C44.1318 21.7507 44.1979 22.2223 44.3301 22.6143C44.4668 23.0062 44.6764 23.307 44.959 23.5166C45.2415 23.7217 45.6061 23.8242 46.0527 23.8242C46.4993 23.8242 46.8639 23.7217 47.1465 23.5166C47.429 23.307 47.6364 23.0062 47.7686 22.6143C47.9007 22.2223 47.9668 21.7507 47.9668 21.1992C47.9668 20.6478 47.9007 20.1807 47.7686 19.7979C47.6364 19.4105 47.429 19.1165 47.1465 18.916C46.8639 18.7109 46.4971 18.6084 46.0459 18.6084C45.3805 18.6084 44.8952 18.8317 44.5898 19.2783C44.2845 19.7249 44.1318 20.3652 44.1318 21.1992ZM58.166 21.1992C58.166 21.8281 58.084 22.3864 57.9199 22.874C57.7559 23.3617 57.5166 23.7741 57.2021 24.1113C56.8877 24.444 56.5094 24.6992 56.0674 24.877C55.6253 25.0501 55.1263 25.1367 54.5703 25.1367C54.0508 25.1367 53.5745 25.0501 53.1416 24.877C52.7087 24.6992 52.3327 24.444 52.0137 24.1113C51.6992 23.7741 51.4554 23.3617 51.2822 22.874C51.109 22.3864 51.0225 21.8281 51.0225 21.1992C51.0225 20.3652 51.166 19.6589 51.4531 19.0801C51.7448 18.4967 52.1595 18.0524 52.6973 17.7471C53.235 17.4417 53.8753 17.2891 54.6182 17.2891C55.3154 17.2891 55.9307 17.4417 56.4639 17.7471C56.9971 18.0524 57.4141 18.4967 57.7148 19.0801C58.0156 19.6634 58.166 20.3698 58.166 21.1992ZM52.6768 21.1992C52.6768 21.7507 52.7428 22.2223 52.875 22.6143C53.0117 23.0062 53.2214 23.307 53.5039 23.5166C53.7865 23.7217 54.151 23.8242 54.5977 23.8242C55.0443 23.8242 55.4089 23.7217 55.6914 23.5166C55.974 23.307 56.1813 23.0062 56.3135 22.6143C56.4456 22.2223 56.5117 21.7507 56.5117 21.1992C56.5117 20.6478 56.4456 20.1807 56.3135 19.7979C56.1813 19.4105 55.974 19.1165 55.6914 18.916C55.4089 18.7109 55.042 18.6084 54.5908 18.6084C53.9255 18.6084 53.4401 18.8317 53.1348 19.2783C52.8294 19.7249 52.6768 20.3652 52.6768 21.1992ZM65.0977 22.8398C65.0977 23.3366 64.9769 23.7559 64.7354 24.0977C64.4938 24.4395 64.1406 24.6992 63.6758 24.877C63.2155 25.0501 62.6504 25.1367 61.9805 25.1367C61.4518 25.1367 60.9961 25.098 60.6133 25.0205C60.235 24.9476 59.8773 24.8337 59.54 24.6787V23.291C59.9001 23.4596 60.3034 23.6055 60.75 23.7285C61.2012 23.8516 61.6273 23.9131 62.0283 23.9131C62.557 23.9131 62.9375 23.8311 63.1699 23.667C63.4023 23.4984 63.5186 23.2751 63.5186 22.9971C63.5186 22.833 63.4707 22.6872 63.375 22.5596C63.2839 22.4274 63.1107 22.293 62.8555 22.1562C62.6048 22.015 62.2357 21.8464 61.748 21.6504C61.2695 21.459 60.8662 21.2676 60.5381 21.0762C60.21 20.8848 59.9616 20.6546 59.793 20.3857C59.6243 20.1123 59.54 19.7637 59.54 19.3398C59.54 18.6699 59.8044 18.1618 60.333 17.8154C60.8662 17.4645 61.5703 17.2891 62.4453 17.2891C62.9102 17.2891 63.3477 17.3369 63.7578 17.4326C64.1725 17.5238 64.5781 17.6582 64.9746 17.8359L64.4688 19.0459C64.127 18.8955 63.7829 18.7725 63.4365 18.6768C63.0947 18.5765 62.7461 18.5264 62.3906 18.5264C61.9759 18.5264 61.6592 18.5902 61.4404 18.7178C61.2262 18.8454 61.1191 19.0277 61.1191 19.2646C61.1191 19.4424 61.1715 19.5928 61.2764 19.7158C61.3812 19.8389 61.5612 19.9619 61.8164 20.085C62.0762 20.208 62.4362 20.3607 62.8965 20.543C63.3477 20.7161 63.7373 20.8984 64.0654 21.0898C64.3981 21.2767 64.6533 21.5068 64.8311 21.7803C65.0088 22.0537 65.0977 22.4069 65.0977 22.8398ZM69.8486 17.2891C70.5231 17.2891 71.1019 17.4281 71.585 17.7061C72.068 17.984 72.4395 18.3783 72.6992 18.8887C72.959 19.3991 73.0889 20.0098 73.0889 20.7207V21.582H68.0371C68.0553 22.3158 68.2513 22.8809 68.625 23.2773C69.0033 23.6738 69.5319 23.8721 70.2109 23.8721C70.694 23.8721 71.127 23.8265 71.5098 23.7354C71.8971 23.6396 72.2959 23.5007 72.7061 23.3184V24.624C72.3278 24.8018 71.9427 24.9316 71.5508 25.0137C71.1589 25.0957 70.6895 25.1367 70.1426 25.1367C69.3997 25.1367 68.7458 24.9932 68.1807 24.7061C67.6201 24.4144 67.1803 23.9814 66.8613 23.4072C66.5469 22.833 66.3896 22.1198 66.3896 21.2676C66.3896 20.4199 66.5332 19.6999 66.8203 19.1074C67.1074 18.515 67.5107 18.0638 68.0303 17.7539C68.5498 17.444 69.1559 17.2891 69.8486 17.2891ZM69.8486 18.499C69.3428 18.499 68.9326 18.6631 68.6182 18.9912C68.3083 19.3193 68.126 19.8001 68.0713 20.4336H71.5166C71.512 20.0553 71.4482 19.7204 71.3252 19.4287C71.2067 19.137 71.0244 18.9092 70.7783 18.7451C70.5368 18.5811 70.2269 18.499 69.8486 18.499Z" fill="#FDFBFA"/>
</svg>
