<svg width="80" height="23" viewBox="0 0 80 23" fill="none" xmlns="http://www.w3.org/2000/svg">
<rect width="80" height="23" rx="8" fill="#F5F5F5"/>
<path d="M13.8877 17H12.7803V9.87695C12.7803 9.28451 12.7985 8.72396 12.835 8.19531C12.7393 8.29102 12.6322 8.39128 12.5137 8.49609C12.3952 8.60091 11.8529 9.04525 10.8867 9.8291L10.2852 9.0498L12.9307 7.00586H13.8877V17ZM21.0039 6.8623C21.9154 6.8623 22.6377 7.07422 23.1709 7.49805C23.7041 7.92188 23.9707 8.50749 23.9707 9.25488C23.9707 9.74707 23.818 10.196 23.5127 10.6016C23.2074 11.0072 22.7197 11.3763 22.0498 11.709C22.861 12.0964 23.4375 12.5042 23.7793 12.9326C24.1211 13.3564 24.292 13.8486 24.292 14.4092C24.292 15.2386 24.0026 15.9017 23.4238 16.3984C22.8451 16.8906 22.0521 17.1367 21.0449 17.1367C19.9785 17.1367 19.1582 16.9043 18.584 16.4395C18.0098 15.9701 17.7227 15.307 17.7227 14.4502C17.7227 13.3063 18.4199 12.4154 19.8145 11.7773C19.1855 11.4219 18.7344 11.0391 18.4609 10.6289C18.1875 10.2142 18.0508 9.75163 18.0508 9.24121C18.0508 8.5166 18.3174 7.9401 18.8506 7.51172C19.3883 7.07878 20.1061 6.8623 21.0039 6.8623ZM18.8438 14.4775C18.8438 15.0244 19.0329 15.4505 19.4111 15.7559C19.7939 16.0612 20.3294 16.2139 21.0176 16.2139C21.6966 16.2139 22.2253 16.0544 22.6035 15.7354C22.9818 15.4163 23.1709 14.9788 23.1709 14.4229C23.1709 13.9808 22.9932 13.5889 22.6377 13.2471C22.2822 12.9007 21.6624 12.5658 20.7783 12.2422C20.0993 12.5339 19.6071 12.8574 19.3018 13.2129C18.9964 13.5638 18.8438 13.9854 18.8438 14.4775ZM20.9902 7.78516C20.4206 7.78516 19.974 7.92188 19.6504 8.19531C19.3268 8.46875 19.165 8.83333 19.165 9.28906C19.165 9.70833 19.2995 10.0684 19.5684 10.3691C19.8372 10.6699 20.334 10.9707 21.0586 11.2715C21.7103 10.998 22.1706 10.7041 22.4395 10.3896C22.7129 10.0752 22.8496 9.70833 22.8496 9.28906C22.8496 8.82878 22.6833 8.46419 22.3506 8.19531C22.0225 7.92188 21.569 7.78516 20.9902 7.78516ZM32.3311 11.9893C32.3311 13.7165 32.0576 15.0062 31.5107 15.8584C30.9684 16.7106 30.1367 17.1367 29.0156 17.1367C27.9401 17.1367 27.1221 16.7015 26.5615 15.8311C26.001 14.9561 25.7207 13.6755 25.7207 11.9893C25.7207 10.2484 25.9919 8.95638 26.5342 8.11328C27.0765 7.27018 27.9036 6.84863 29.0156 6.84863C30.1003 6.84863 30.9229 7.28841 31.4834 8.16797C32.0485 9.04753 32.3311 10.3213 32.3311 11.9893ZM26.8691 11.9893C26.8691 13.443 27.04 14.5026 27.3818 15.168C27.7236 15.8288 28.2682 16.1592 29.0156 16.1592C29.7721 16.1592 30.319 15.8242 30.6562 15.1543C30.998 14.4798 31.1689 13.4248 31.1689 11.9893C31.1689 10.5537 30.998 9.50326 30.6562 8.83789C30.319 8.16797 29.7721 7.83301 29.0156 7.83301C28.2682 7.83301 27.7236 8.16341 27.3818 8.82422C27.04 9.48047 26.8691 10.5355 26.8691 11.9893ZM40.3428 11.9893C40.3428 13.7165 40.0693 15.0062 39.5225 15.8584C38.9801 16.7106 38.1484 17.1367 37.0273 17.1367C35.9518 17.1367 35.1338 16.7015 34.5732 15.8311C34.0127 14.9561 33.7324 13.6755 33.7324 11.9893C33.7324 10.2484 34.0036 8.95638 34.5459 8.11328C35.0882 7.27018 35.9154 6.84863 37.0273 6.84863C38.112 6.84863 38.9346 7.28841 39.4951 8.16797C40.0602 9.04753 40.3428 10.3213 40.3428 11.9893ZM34.8809 11.9893C34.8809 13.443 35.0518 14.5026 35.3936 15.168C35.7354 15.8288 36.2799 16.1592 37.0273 16.1592C37.7839 16.1592 38.3307 15.8242 38.668 15.1543C39.0098 14.4798 39.1807 13.4248 39.1807 11.9893C39.1807 10.5537 39.0098 9.50326 38.668 8.83789C38.3307 8.16797 37.7839 7.83301 37.0273 7.83301C36.2799 7.83301 35.7354 8.16341 35.3936 8.82422C35.0518 9.48047 34.8809 10.5355 34.8809 11.9893ZM47.0078 13.165C47.2038 12.887 47.5023 12.5225 47.9033 12.0713L50.3232 9.50781H51.6699L48.6348 12.7002L51.8818 17H50.5078L47.8623 13.459L47.0078 14.1973V17H45.8867V6.36328H47.0078V12.0029C47.0078 12.2536 46.9896 12.641 46.9531 13.165H47.0078ZM56.2363 17.1367C55.1517 17.1367 54.3109 16.804 53.7139 16.1387C53.1214 15.4688 52.8252 14.5231 52.8252 13.3018C52.8252 12.0485 53.126 11.0801 53.7275 10.3965C54.3337 9.71289 55.195 9.37109 56.3115 9.37109C56.6715 9.37109 57.0316 9.40983 57.3916 9.4873C57.7516 9.56478 58.0342 9.65592 58.2393 9.76074L57.8906 10.7246C57.64 10.6243 57.3665 10.5423 57.0703 10.4785C56.7741 10.4102 56.512 10.376 56.2842 10.376C54.762 10.376 54.001 11.3467 54.001 13.2881C54.001 14.2087 54.1855 14.915 54.5547 15.4072C54.9284 15.8994 55.4798 16.1455 56.209 16.1455C56.8333 16.1455 57.4736 16.0111 58.1299 15.7422V16.7471C57.6286 17.0068 56.9974 17.1367 56.2363 17.1367ZM64.5215 17L64.2959 15.9336H64.2412C63.8675 16.403 63.4938 16.722 63.1201 16.8906C62.751 17.0547 62.2884 17.1367 61.7324 17.1367C60.9896 17.1367 60.4062 16.9453 59.9824 16.5625C59.5632 16.1797 59.3535 15.6351 59.3535 14.9287C59.3535 13.4157 60.5635 12.6227 62.9834 12.5498L64.2549 12.5088V12.0439C64.2549 11.4561 64.1273 11.0231 63.8721 10.7451C63.6214 10.4626 63.2181 10.3213 62.6621 10.3213C62.0378 10.3213 61.3314 10.5127 60.543 10.8955L60.1943 10.0273C60.5635 9.82682 60.9668 9.6696 61.4043 9.55566C61.8464 9.44173 62.2884 9.38477 62.7305 9.38477C63.6237 9.38477 64.2845 9.58301 64.7129 9.97949C65.1458 10.376 65.3623 11.0117 65.3623 11.8867V17H64.5215ZM61.958 16.2002C62.6644 16.2002 63.2181 16.0065 63.6191 15.6191C64.0247 15.2318 64.2275 14.6895 64.2275 13.9922V13.3154L63.0928 13.3633C62.1904 13.3952 61.5387 13.5365 61.1377 13.7871C60.7412 14.0332 60.543 14.4183 60.543 14.9424C60.543 15.3525 60.666 15.6647 60.9121 15.8789C61.1628 16.0931 61.5114 16.2002 61.958 16.2002ZM68.8418 17H67.707V6.36328H68.8418V17Z" fill="#111112"/>
</svg>
