<svg width="98" height="29" viewBox="0 0 98 29" fill="none" xmlns="http://www.w3.org/2000/svg">
<rect width="98" height="29" rx="10" fill="#FDFBFA"/>
<path d="M34.3516 14.9072C34.3516 16.557 33.9027 17.8193 33.0049 18.6943C32.1117 19.5648 30.8242 20 29.1426 20H26.374V10.0059H29.4365C30.9906 10.0059 32.1982 10.4365 33.0596 11.2979C33.9209 12.1592 34.3516 13.3623 34.3516 14.9072ZM33.1211 14.9482C33.1211 13.6449 32.793 12.6628 32.1367 12.002C31.485 11.3411 30.5143 11.0107 29.2246 11.0107H27.5361V18.9951H28.9512C30.3366 18.9951 31.3779 18.6556 32.0752 17.9766C32.7725 17.293 33.1211 16.2835 33.1211 14.9482ZM37.5508 20H36.416V12.5078H37.5508V20ZM36.3203 10.4775C36.3203 10.2178 36.3841 10.0286 36.5117 9.91016C36.6393 9.78711 36.7988 9.72559 36.9902 9.72559C37.1725 9.72559 37.3298 9.78711 37.4619 9.91016C37.5941 10.0332 37.6602 10.2223 37.6602 10.4775C37.6602 10.7327 37.5941 10.9242 37.4619 11.0518C37.3298 11.1748 37.1725 11.2363 36.9902 11.2363C36.7988 11.2363 36.6393 11.1748 36.5117 11.0518C36.3841 10.9242 36.3203 10.7327 36.3203 10.4775ZM45.084 20V15.1533C45.084 14.5426 44.945 14.0869 44.667 13.7861C44.389 13.4854 43.9538 13.335 43.3613 13.335C42.5775 13.335 42.0033 13.5469 41.6387 13.9707C41.2741 14.3945 41.0918 15.0941 41.0918 16.0693V20H39.957V12.5078H40.8799L41.0645 13.5332H41.1191C41.3516 13.1641 41.6774 12.8792 42.0967 12.6787C42.516 12.4736 42.9831 12.3711 43.498 12.3711C44.4004 12.3711 45.0794 12.5898 45.5352 13.0273C45.9909 13.4603 46.2188 14.1553 46.2188 15.1123V20H45.084ZM53.6836 20V15.1533C53.6836 14.5426 53.5446 14.0869 53.2666 13.7861C52.9886 13.4854 52.5534 13.335 51.9609 13.335C51.1771 13.335 50.6029 13.5469 50.2383 13.9707C49.8737 14.3945 49.6914 15.0941 49.6914 16.0693V20H48.5566V12.5078H49.4795L49.6641 13.5332H49.7188C49.9512 13.1641 50.277 12.8792 50.6963 12.6787C51.1156 12.4736 51.5827 12.3711 52.0977 12.3711C53 12.3711 53.679 12.5898 54.1348 13.0273C54.5905 13.4603 54.8184 14.1553 54.8184 15.1123V20H53.6836ZM60.3213 20.1367C59.2139 20.1367 58.3389 19.7995 57.6963 19.125C57.0583 18.4505 56.7393 17.514 56.7393 16.3154C56.7393 15.1077 57.0355 14.1484 57.6279 13.4375C58.2249 12.7266 59.0247 12.3711 60.0273 12.3711C60.9661 12.3711 61.709 12.681 62.2559 13.3008C62.8027 13.916 63.0762 14.7295 63.0762 15.7412V16.459H57.915C57.9378 17.3385 58.1589 18.0062 58.5781 18.4619C59.002 18.9176 59.5967 19.1455 60.3623 19.1455C61.1689 19.1455 61.9665 18.9769 62.7549 18.6396V19.6514C62.3538 19.8245 61.9733 19.9476 61.6133 20.0205C61.2578 20.098 60.8271 20.1367 60.3213 20.1367ZM60.0137 13.3213C59.4121 13.3213 58.9313 13.5173 58.5713 13.9092C58.2158 14.3011 58.0062 14.8434 57.9424 15.5361H61.8594C61.8594 14.8206 61.6999 14.2738 61.3809 13.8955C61.0618 13.5127 60.6061 13.3213 60.0137 13.3213ZM68.4355 12.3711C68.7682 12.3711 69.0667 12.3984 69.3311 12.4531L69.1738 13.5059C68.8639 13.4375 68.5905 13.4033 68.3535 13.4033C67.7474 13.4033 67.2279 13.6494 66.7949 14.1416C66.3665 14.6338 66.1523 15.2467 66.1523 15.9805V20H65.0176V12.5078H65.9541L66.084 13.8955H66.1387C66.4167 13.4079 66.7516 13.0319 67.1436 12.7676C67.5355 12.5033 67.9661 12.3711 68.4355 12.3711Z" fill="#ADAEAF"/>
</svg>
