<svg width="98" height="29" viewBox="0 0 98 29" fill="none" xmlns="http://www.w3.org/2000/svg">
<rect width="98" height="29" rx="10" fill="#FDFBFA"/>
<path d="M30.374 20V10.0059H31.5361V18.9473H35.9453V20H30.374ZM38.543 12.5078V17.3682C38.543 17.9788 38.682 18.4346 38.96 18.7354C39.238 19.0361 39.6732 19.1865 40.2656 19.1865C41.0495 19.1865 41.6214 18.9723 41.9814 18.5439C42.346 18.1156 42.5283 17.416 42.5283 16.4453V12.5078H43.6631V20H42.7266L42.5625 18.9951H42.501C42.2686 19.3643 41.945 19.6468 41.5303 19.8428C41.1201 20.0387 40.6507 20.1367 40.1221 20.1367C39.2106 20.1367 38.527 19.9202 38.0713 19.4873C37.6201 19.0544 37.3945 18.3617 37.3945 17.4092V12.5078H38.543ZM51.2031 20V15.1533C51.2031 14.5426 51.0641 14.0869 50.7861 13.7861C50.5081 13.4854 50.0729 13.335 49.4805 13.335C48.6966 13.335 48.1224 13.5469 47.7578 13.9707C47.3932 14.3945 47.2109 15.0941 47.2109 16.0693V20H46.0762V12.5078H46.999L47.1836 13.5332H47.2383C47.4707 13.1641 47.7965 12.8792 48.2158 12.6787C48.6351 12.4736 49.1022 12.3711 49.6172 12.3711C50.5195 12.3711 51.1986 12.5898 51.6543 13.0273C52.11 13.4603 52.3379 14.1553 52.3379 15.1123V20H51.2031ZM57.6699 20.1367C56.5853 20.1367 55.7445 19.804 55.1475 19.1387C54.555 18.4688 54.2588 17.5231 54.2588 16.3018C54.2588 15.0485 54.5596 14.0801 55.1611 13.3965C55.7673 12.7129 56.6286 12.3711 57.7451 12.3711C58.1051 12.3711 58.4652 12.4098 58.8252 12.4873C59.1852 12.5648 59.4678 12.6559 59.6729 12.7607L59.3242 13.7246C59.0736 13.6243 58.8001 13.5423 58.5039 13.4785C58.2077 13.4102 57.9456 13.376 57.7178 13.376C56.1956 13.376 55.4346 14.3467 55.4346 16.2881C55.4346 17.2087 55.6191 17.915 55.9883 18.4072C56.362 18.8994 56.9134 19.1455 57.6426 19.1455C58.2669 19.1455 58.9072 19.0111 59.5635 18.7422V19.7471C59.0622 20.0068 58.431 20.1367 57.6699 20.1367ZM66.4746 20V15.1533C66.4746 14.5426 66.3356 14.0869 66.0576 13.7861C65.7796 13.4854 65.3444 13.335 64.752 13.335C63.9635 13.335 63.387 13.5492 63.0225 13.9775C62.6624 14.4059 62.4824 15.1077 62.4824 16.083V20H61.3477V9.36328H62.4824V12.583C62.4824 12.9704 62.4642 13.2917 62.4277 13.5469H62.4961C62.7194 13.1868 63.0361 12.9043 63.4463 12.6992C63.861 12.4896 64.3327 12.3848 64.8613 12.3848C65.7773 12.3848 66.4632 12.6035 66.9189 13.041C67.3792 13.474 67.6094 14.1644 67.6094 15.1123V20H66.4746Z" fill="#ADAEAF"/>
</svg>
