<svg width="98" height="29" viewBox="0 0 98 29" fill="none" xmlns="http://www.w3.org/2000/svg">
<rect width="98" height="29" rx="10" fill="#FDFBFA"/>
<path d="M33.0137 17.3408C33.0137 18.2204 32.6947 18.9062 32.0566 19.3984C31.4186 19.8906 30.5527 20.1367 29.459 20.1367C28.2741 20.1367 27.3626 19.984 26.7246 19.6787V18.5576C27.1348 18.7308 27.5814 18.8675 28.0645 18.9678C28.5475 19.068 29.026 19.1182 29.5 19.1182C30.2747 19.1182 30.8581 18.9723 31.25 18.6807C31.6419 18.3844 31.8379 17.9743 31.8379 17.4502C31.8379 17.1038 31.7673 16.8213 31.626 16.6025C31.4893 16.3792 31.2568 16.1742 30.9287 15.9873C30.6051 15.8005 30.1107 15.5885 29.4453 15.3516C28.5156 15.0189 27.8503 14.6247 27.4492 14.1689C27.0527 13.7132 26.8545 13.1185 26.8545 12.3848C26.8545 11.6146 27.1439 11.0016 27.7227 10.5459C28.3014 10.0902 29.0671 9.8623 30.0195 9.8623C31.013 9.8623 31.9268 10.0446 32.7607 10.4092L32.3984 11.4209C31.5736 11.0745 30.7715 10.9014 29.9922 10.9014C29.377 10.9014 28.8962 11.0335 28.5498 11.2979C28.2035 11.5622 28.0303 11.929 28.0303 12.3984C28.0303 12.7448 28.0941 13.0296 28.2217 13.2529C28.3493 13.4717 28.5635 13.6745 28.8643 13.8613C29.1696 14.0436 29.6344 14.2464 30.2588 14.4697C31.307 14.8434 32.027 15.2445 32.4189 15.6729C32.8154 16.1012 33.0137 16.6572 33.0137 17.3408ZM40.0137 20V15.1533C40.0137 14.5426 39.8747 14.0869 39.5967 13.7861C39.3187 13.4854 38.8835 13.335 38.291 13.335C37.5072 13.335 36.9329 13.5469 36.5684 13.9707C36.2038 14.3945 36.0215 15.0941 36.0215 16.0693V20H34.8867V12.5078H35.8096L35.9941 13.5332H36.0488C36.2812 13.1641 36.6071 12.8792 37.0264 12.6787C37.4456 12.4736 37.9128 12.3711 38.4277 12.3711C39.3301 12.3711 40.0091 12.5898 40.4648 13.0273C40.9206 13.4603 41.1484 14.1553 41.1484 15.1123V20H40.0137ZM48.0938 20L47.8682 18.9336H47.8135C47.4398 19.403 47.0661 19.722 46.6924 19.8906C46.3232 20.0547 45.8607 20.1367 45.3047 20.1367C44.5618 20.1367 43.9785 19.9453 43.5547 19.5625C43.1354 19.1797 42.9258 18.6351 42.9258 17.9287C42.9258 16.4157 44.1357 15.6227 46.5557 15.5498L47.8271 15.5088V15.0439C47.8271 14.4561 47.6995 14.0231 47.4443 13.7451C47.1937 13.4626 46.7904 13.3213 46.2344 13.3213C45.61 13.3213 44.9036 13.5127 44.1152 13.8955L43.7666 13.0273C44.1357 12.8268 44.5391 12.6696 44.9766 12.5557C45.4186 12.4417 45.8607 12.3848 46.3027 12.3848C47.196 12.3848 47.8568 12.583 48.2852 12.9795C48.7181 13.376 48.9346 14.0117 48.9346 14.8867V20H48.0938ZM45.5303 19.2002C46.2367 19.2002 46.7904 19.0065 47.1914 18.6191C47.597 18.2318 47.7998 17.6895 47.7998 16.9922V16.3154L46.665 16.3633C45.7627 16.3952 45.111 16.5365 44.71 16.7871C44.3135 17.0332 44.1152 17.4183 44.1152 17.9424C44.1152 18.3525 44.2383 18.6647 44.4844 18.8789C44.735 19.0931 45.0837 19.2002 45.5303 19.2002ZM54.2734 20.1367C53.1888 20.1367 52.348 19.804 51.751 19.1387C51.1585 18.4688 50.8623 17.5231 50.8623 16.3018C50.8623 15.0485 51.1631 14.0801 51.7646 13.3965C52.3708 12.7129 53.2321 12.3711 54.3486 12.3711C54.7087 12.3711 55.0687 12.4098 55.4287 12.4873C55.7887 12.5648 56.0713 12.6559 56.2764 12.7607L55.9277 13.7246C55.6771 13.6243 55.4036 13.5423 55.1074 13.4785C54.8112 13.4102 54.5492 13.376 54.3213 13.376C52.7992 13.376 52.0381 14.3467 52.0381 16.2881C52.0381 17.2087 52.2227 17.915 52.5918 18.4072C52.9655 18.8994 53.5169 19.1455 54.2461 19.1455C54.8704 19.1455 55.5107 19.0111 56.167 18.7422V19.7471C55.6657 20.0068 55.0345 20.1367 54.2734 20.1367ZM59.0723 16.165C59.2682 15.887 59.5667 15.5225 59.9678 15.0713L62.3877 12.5078H63.7344L60.6992 15.7002L63.9463 20H62.5723L59.9268 16.459L59.0723 17.1973V20H57.9512V9.36328H59.0723V15.0029C59.0723 15.2536 59.054 15.641 59.0176 16.165H59.0723ZM70.1396 17.9561C70.1396 18.6533 69.8799 19.1911 69.3604 19.5693C68.8408 19.9476 68.1117 20.1367 67.1729 20.1367C66.1794 20.1367 65.4046 19.9795 64.8486 19.665V18.6123C65.2087 18.7946 65.5938 18.9382 66.0039 19.043C66.4186 19.1478 66.8174 19.2002 67.2002 19.2002C67.7926 19.2002 68.2484 19.1068 68.5674 18.9199C68.8864 18.7285 69.0459 18.4391 69.0459 18.0518C69.0459 17.7601 68.9183 17.5117 68.6631 17.3066C68.4124 17.097 67.9202 16.8509 67.1865 16.5684C66.4893 16.3086 65.9925 16.083 65.6963 15.8916C65.4046 15.6956 65.1859 15.4746 65.04 15.2285C64.8988 14.9824 64.8281 14.6885 64.8281 14.3467C64.8281 13.736 65.0765 13.2552 65.5732 12.9043C66.07 12.5488 66.7513 12.3711 67.6172 12.3711C68.4238 12.3711 69.2122 12.5352 69.9824 12.8633L69.5791 13.7861C68.8271 13.4762 68.1458 13.3213 67.5352 13.3213C66.9974 13.3213 66.5918 13.4056 66.3184 13.5742C66.0449 13.7428 65.9082 13.9753 65.9082 14.2715C65.9082 14.472 65.9583 14.6429 66.0586 14.7842C66.1634 14.9255 66.3298 15.0599 66.5576 15.1875C66.7855 15.3151 67.223 15.4997 67.8701 15.7412C68.7588 16.0648 69.3581 16.3906 69.668 16.7188C69.9824 17.0469 70.1396 17.4593 70.1396 17.9561Z" fill="#ADAEAF"/>
</svg>
