<svg width="135" height="43" viewBox="0 0 135 43" fill="none" xmlns="http://www.w3.org/2000/svg">
<rect width="135" height="43" rx="18" fill="#FFB21A"/>
<path d="M52.6592 18.2568C52.1807 18.2568 51.7523 18.3434 51.374 18.5166C51.0003 18.6898 50.6836 18.9404 50.4238 19.2686C50.1641 19.5921 49.9658 19.9863 49.8291 20.4512C49.6924 20.9115 49.624 21.431 49.624 22.0098C49.624 22.7845 49.7334 23.4521 49.9521 24.0127C50.1709 24.5687 50.5036 24.9971 50.9502 25.2979C51.3968 25.5941 51.9619 25.7422 52.6455 25.7422C53.0693 25.7422 53.4818 25.7012 53.8828 25.6191C54.2839 25.5371 54.6986 25.4255 55.127 25.2842V26.6787C54.7214 26.8382 54.3112 26.9544 53.8965 27.0273C53.4818 27.1003 53.0033 27.1367 52.4609 27.1367C51.4401 27.1367 50.5924 26.9248 49.918 26.501C49.248 26.0771 48.7467 25.4801 48.4141 24.71C48.0859 23.9398 47.9219 23.0374 47.9219 22.0029C47.9219 21.2464 48.0267 20.5537 48.2363 19.9248C48.446 19.2959 48.7513 18.7536 49.1523 18.2979C49.5534 17.8376 50.0479 17.4844 50.6357 17.2383C51.2282 16.9876 51.9049 16.8623 52.666 16.8623C53.1673 16.8623 53.6595 16.9193 54.1426 17.0332C54.6302 17.1426 55.0814 17.2998 55.4961 17.5049L54.9219 18.8584C54.5755 18.6943 54.2132 18.5531 53.835 18.4346C53.4567 18.3161 53.0648 18.2568 52.6592 18.2568ZM58.7158 16.3633V19.0361C58.7158 19.3141 58.7067 19.5853 58.6885 19.8496C58.6748 20.1139 58.6589 20.319 58.6406 20.4648H58.7295C58.889 20.2005 59.085 19.984 59.3174 19.8154C59.5498 19.6423 59.8096 19.5124 60.0967 19.4258C60.3883 19.3392 60.6982 19.2959 61.0264 19.2959C61.6051 19.2959 62.0973 19.3939 62.5029 19.5898C62.9085 19.7812 63.2184 20.0798 63.4326 20.4854C63.6514 20.891 63.7607 21.4173 63.7607 22.0645V27H62.1543V22.3652C62.1543 21.7773 62.0335 21.3376 61.792 21.0459C61.5505 20.7497 61.1768 20.6016 60.6709 20.6016C60.1833 20.6016 59.7959 20.7041 59.5088 20.9092C59.2262 21.1097 59.0234 21.4082 58.9004 21.8047C58.7773 22.1966 58.7158 22.6751 58.7158 23.2402V27H57.1094V16.3633H58.7158ZM69.0244 19.2891C69.6989 19.2891 70.2777 19.4281 70.7607 19.7061C71.2438 19.984 71.6152 20.3783 71.875 20.8887C72.1348 21.3991 72.2646 22.0098 72.2646 22.7207V23.582H67.2129C67.2311 24.3158 67.4271 24.8809 67.8008 25.2773C68.179 25.6738 68.7077 25.8721 69.3867 25.8721C69.8698 25.8721 70.3027 25.8265 70.6855 25.7354C71.0729 25.6396 71.4717 25.5007 71.8818 25.3184V26.624C71.5036 26.8018 71.1185 26.9316 70.7266 27.0137C70.3346 27.0957 69.8652 27.1367 69.3184 27.1367C68.5755 27.1367 67.9215 26.9932 67.3564 26.7061C66.7959 26.4144 66.3561 25.9814 66.0371 25.4072C65.7227 24.833 65.5654 24.1198 65.5654 23.2676C65.5654 22.4199 65.709 21.6999 65.9961 21.1074C66.2832 20.515 66.6865 20.0638 67.2061 19.7539C67.7256 19.444 68.3317 19.2891 69.0244 19.2891ZM69.0244 20.499C68.5186 20.499 68.1084 20.6631 67.7939 20.9912C67.484 21.3193 67.3018 21.8001 67.2471 22.4336H70.6924C70.6878 22.0553 70.624 21.7204 70.501 21.4287C70.3825 21.137 70.2002 20.9092 69.9541 20.7451C69.7126 20.5811 69.4027 20.499 69.0244 20.499ZM77.125 27.1367C76.4095 27.1367 75.7897 26.9977 75.2656 26.7197C74.7415 26.4417 74.3382 26.0156 74.0557 25.4414C73.7731 24.8672 73.6318 24.138 73.6318 23.2539C73.6318 22.3333 73.7868 21.5814 74.0967 20.998C74.4066 20.4147 74.835 19.984 75.3818 19.7061C75.9333 19.4281 76.5645 19.2891 77.2754 19.2891C77.7266 19.2891 78.1344 19.3346 78.499 19.4258C78.8682 19.5124 79.1803 19.6195 79.4355 19.7471L78.957 21.0322C78.679 20.9183 78.3942 20.8226 78.1025 20.7451C77.8109 20.6676 77.5306 20.6289 77.2617 20.6289C76.8197 20.6289 76.4505 20.7269 76.1543 20.9229C75.8626 21.1188 75.6439 21.4105 75.498 21.7979C75.3568 22.1852 75.2861 22.666 75.2861 23.2402C75.2861 23.7962 75.359 24.2656 75.5049 24.6484C75.6507 25.0267 75.8672 25.3138 76.1543 25.5098C76.4414 25.7012 76.7946 25.7969 77.2139 25.7969C77.6286 25.7969 78 25.7467 78.3281 25.6465C78.6562 25.5462 78.9661 25.4163 79.2578 25.2568V26.6514C78.9707 26.8154 78.6631 26.9362 78.335 27.0137C78.0068 27.0957 77.6035 27.1367 77.125 27.1367ZM82.6416 16.3633V21.5039C82.6416 21.7363 82.6325 21.9915 82.6143 22.2695C82.596 22.543 82.5778 22.8005 82.5596 23.042H82.5938C82.7122 22.8825 82.8535 22.6956 83.0176 22.4814C83.1862 22.2673 83.3457 22.0804 83.4961 21.9209L85.8066 19.4326H87.6523L84.624 22.6865L87.8506 27H85.9639L83.5439 23.6777L82.6416 24.4502V27H81.0352V16.3633H82.6416Z" fill="#FDFBFA"/>
</svg>
