<svg width="709" height="352" viewBox="0 0 709 352" fill="none" xmlns="http://www.w3.org/2000/svg">
<rect width="222" height="58" rx="18" fill="#F5F5F5"/>
<path d="M82.5625 35H79.8047L78.2578 29C78.2005 28.7865 78.1016 28.3464 77.9609 27.6797C77.8255 27.0078 77.7474 26.5573 77.7266 26.3281C77.6953 26.6094 77.6172 27.0625 77.4922 27.6875C77.3672 28.3073 77.2708 28.75 77.2031 29.0156L75.6641 35H72.9141L70 23.5781H72.3828L73.8438 29.8125C74.099 30.9635 74.2839 31.9609 74.3984 32.8047C74.4297 32.5078 74.5 32.0495 74.6094 31.4297C74.724 30.8047 74.8307 30.3203 74.9297 29.9766L76.5938 23.5781H78.8828L80.5469 29.9766C80.6198 30.263 80.7109 30.7005 80.8203 31.2891C80.9297 31.8776 81.013 32.3828 81.0703 32.8047C81.1224 32.3984 81.2057 31.8932 81.3203 31.2891C81.4349 30.6797 81.5391 30.1875 81.6328 29.8125L83.0859 23.5781H85.4688L82.5625 35ZM92.2656 35L91.8047 33.8125H91.7422C91.3411 34.3177 90.9271 34.6693 90.5 34.8672C90.0781 35.0599 89.526 35.1562 88.8438 35.1562C88.0052 35.1562 87.3438 34.9167 86.8594 34.4375C86.3802 33.9583 86.1406 33.276 86.1406 32.3906C86.1406 31.4635 86.4635 30.7812 87.1094 30.3438C87.7604 29.901 88.7396 29.6562 90.0469 29.6094L91.5625 29.5625V29.1797C91.5625 28.2943 91.1094 27.8516 90.2031 27.8516C89.5052 27.8516 88.6849 28.0625 87.7422 28.4844L86.9531 26.875C87.9583 26.349 89.0729 26.0859 90.2969 26.0859C91.4688 26.0859 92.3672 26.3411 92.9922 26.8516C93.6172 27.362 93.9297 28.138 93.9297 29.1797V35H92.2656ZM91.5625 30.9531L90.6406 30.9844C89.9479 31.0052 89.4323 31.1302 89.0938 31.3594C88.7552 31.5885 88.5859 31.9375 88.5859 32.4062C88.5859 33.0781 88.9714 33.4141 89.7422 33.4141C90.2943 33.4141 90.7344 33.2552 91.0625 32.9375C91.3958 32.6198 91.5625 32.1979 91.5625 31.6719V30.9531ZM101.266 26.1016C101.589 26.1016 101.857 26.125 102.07 26.1719L101.891 28.4062C101.698 28.3542 101.464 28.3281 101.188 28.3281C100.427 28.3281 99.8333 28.5234 99.4062 28.9141C98.9844 29.3047 98.7734 29.8516 98.7734 30.5547V35H96.3906V26.2656H98.1953L98.5469 27.7344H98.6641C98.9349 27.2448 99.2995 26.8516 99.7578 26.5547C100.221 26.2526 100.724 26.1016 101.266 26.1016ZM109.75 32.4062C109.75 33.3021 109.438 33.9844 108.812 34.4531C108.193 34.9219 107.263 35.1562 106.023 35.1562C105.388 35.1562 104.846 35.112 104.398 35.0234C103.951 34.9401 103.531 34.8151 103.141 34.6484V32.6797C103.583 32.888 104.081 33.0625 104.633 33.2031C105.19 33.3438 105.68 33.4141 106.102 33.4141C106.966 33.4141 107.398 33.1641 107.398 32.6641C107.398 32.4766 107.341 32.3255 107.227 32.2109C107.112 32.0911 106.914 31.9583 106.633 31.8125C106.352 31.6615 105.977 31.487 105.508 31.2891C104.836 31.0078 104.341 30.7474 104.023 30.5078C103.711 30.2682 103.482 29.9948 103.336 29.6875C103.195 29.375 103.125 28.9922 103.125 28.5391C103.125 27.763 103.424 27.1641 104.023 26.7422C104.628 26.3151 105.482 26.1016 106.586 26.1016C107.638 26.1016 108.661 26.3307 109.656 26.7891L108.938 28.5078C108.5 28.3203 108.091 28.1667 107.711 28.0469C107.331 27.9271 106.943 27.8672 106.547 27.8672C105.844 27.8672 105.492 28.0573 105.492 28.4375C105.492 28.651 105.604 28.8359 105.828 28.9922C106.057 29.1484 106.555 29.3802 107.32 29.6875C108.003 29.9635 108.503 30.2214 108.82 30.4609C109.138 30.7005 109.372 30.9766 109.523 31.2891C109.674 31.6016 109.75 31.974 109.75 32.4062ZM117.688 35H110.789V33.5938L114.836 28.0859H111.031V26.2656H117.547V27.8125L113.609 33.1797H117.688V35ZM124.969 35L124.508 33.8125H124.445C124.044 34.3177 123.63 34.6693 123.203 34.8672C122.781 35.0599 122.229 35.1562 121.547 35.1562C120.708 35.1562 120.047 34.9167 119.562 34.4375C119.083 33.9583 118.844 33.276 118.844 32.3906C118.844 31.4635 119.167 30.7812 119.812 30.3438C120.464 29.901 121.443 29.6562 122.75 29.6094L124.266 29.5625V29.1797C124.266 28.2943 123.812 27.8516 122.906 27.8516C122.208 27.8516 121.388 28.0625 120.445 28.4844L119.656 26.875C120.661 26.349 121.776 26.0859 123 26.0859C124.172 26.0859 125.07 26.3411 125.695 26.8516C126.32 27.362 126.633 28.138 126.633 29.1797V35H124.969ZM124.266 30.9531L123.344 30.9844C122.651 31.0052 122.135 31.1302 121.797 31.3594C121.458 31.5885 121.289 31.9375 121.289 32.4062C121.289 33.0781 121.674 33.4141 122.445 33.4141C122.997 33.4141 123.438 33.2552 123.766 32.9375C124.099 32.6198 124.266 32.1979 124.266 31.6719V30.9531ZM136.273 35L135.602 31.9453L134.695 28.0859H134.641L133.047 35H130.484L128 26.2656H130.375L131.383 30.1328C131.544 30.8255 131.708 31.7812 131.875 33H131.922C131.943 32.6042 132.034 31.9766 132.195 31.1172L132.32 30.4531L133.398 26.2656H136.023L137.047 30.4531C137.068 30.5677 137.099 30.737 137.141 30.9609C137.188 31.1849 137.232 31.4245 137.273 31.6797C137.315 31.9297 137.352 32.1771 137.383 32.4219C137.419 32.6615 137.44 32.8542 137.445 33H137.492C137.539 32.625 137.622 32.112 137.742 31.4609C137.862 30.8047 137.948 30.362 138 30.1328L139.047 26.2656H141.383L138.867 35H136.273ZM148.344 35L147.883 33.8125H147.82C147.419 34.3177 147.005 34.6693 146.578 34.8672C146.156 35.0599 145.604 35.1562 144.922 35.1562C144.083 35.1562 143.422 34.9167 142.938 34.4375C142.458 33.9583 142.219 33.276 142.219 32.3906C142.219 31.4635 142.542 30.7812 143.188 30.3438C143.839 29.901 144.818 29.6562 146.125 29.6094L147.641 29.5625V29.1797C147.641 28.2943 147.188 27.8516 146.281 27.8516C145.583 27.8516 144.763 28.0625 143.82 28.4844L143.031 26.875C144.036 26.349 145.151 26.0859 146.375 26.0859C147.547 26.0859 148.445 26.3411 149.07 26.8516C149.695 27.362 150.008 28.138 150.008 29.1797V35H148.344ZM147.641 30.9531L146.719 30.9844C146.026 31.0052 145.51 31.1302 145.172 31.3594C144.833 31.5885 144.664 31.9375 144.664 32.4062C144.664 33.0781 145.049 33.4141 145.82 33.4141C146.372 33.4141 146.812 33.2552 147.141 32.9375C147.474 32.6198 147.641 32.1979 147.641 31.6719V30.9531Z" fill="#111112"/>
<rect y="98" width="223" height="58" rx="18" fill="#F5F5F5"/>
<path d="M85.8594 126.953H86.6562C87.401 126.953 87.9583 126.807 88.3281 126.516C88.6979 126.219 88.8828 125.789 88.8828 125.227C88.8828 124.659 88.7266 124.24 88.4141 123.969C88.1068 123.698 87.6224 123.562 86.9609 123.562H85.8594V126.953ZM91.3281 125.141C91.3281 126.37 90.9427 127.31 90.1719 127.961C89.4062 128.612 88.3151 128.938 86.8984 128.938H85.8594V133H83.4375V121.578H87.0859C88.4714 121.578 89.5234 121.878 90.2422 122.477C90.9661 123.07 91.3281 123.958 91.3281 125.141ZM95.1953 128.617C95.1953 129.482 95.3359 130.135 95.6172 130.578C95.9036 131.021 96.3672 131.242 97.0078 131.242C97.6432 131.242 98.099 131.023 98.375 130.586C98.6562 130.143 98.7969 129.487 98.7969 128.617C98.7969 127.753 98.6562 127.104 98.375 126.672C98.0938 126.24 97.6328 126.023 96.9922 126.023C96.3568 126.023 95.8984 126.24 95.6172 126.672C95.3359 127.099 95.1953 127.747 95.1953 128.617ZM101.234 128.617C101.234 130.039 100.859 131.151 100.109 131.953C99.3594 132.755 98.3151 133.156 96.9766 133.156C96.138 133.156 95.3984 132.974 94.7578 132.609C94.1172 132.24 93.625 131.711 93.2812 131.023C92.9375 130.336 92.7656 129.534 92.7656 128.617C92.7656 127.19 93.138 126.081 93.8828 125.289C94.6276 124.497 95.6745 124.102 97.0234 124.102C97.862 124.102 98.6016 124.284 99.2422 124.648C99.8828 125.013 100.375 125.536 100.719 126.219C101.062 126.901 101.234 127.701 101.234 128.617ZM109.281 133H102.383V131.594L106.43 126.086H102.625V124.266H109.141V125.812L105.203 131.18H109.281V133ZM119.078 133H116.695V127.898C116.695 127.268 116.583 126.797 116.359 126.484C116.135 126.167 115.779 126.008 115.289 126.008C114.622 126.008 114.141 126.232 113.844 126.68C113.547 127.122 113.398 127.859 113.398 128.891V133H111.016V124.266H112.836L113.156 125.383H113.289C113.555 124.961 113.919 124.643 114.383 124.43C114.852 124.211 115.383 124.102 115.977 124.102C116.992 124.102 117.763 124.378 118.289 124.93C118.815 125.477 119.078 126.268 119.078 127.305V133ZM127.078 133L126.617 131.812H126.555C126.154 132.318 125.74 132.669 125.312 132.867C124.891 133.06 124.339 133.156 123.656 133.156C122.818 133.156 122.156 132.917 121.672 132.438C121.193 131.958 120.953 131.276 120.953 130.391C120.953 129.464 121.276 128.781 121.922 128.344C122.573 127.901 123.552 127.656 124.859 127.609L126.375 127.562V127.18C126.375 126.294 125.922 125.852 125.016 125.852C124.318 125.852 123.497 126.062 122.555 126.484L121.766 124.875C122.771 124.349 123.885 124.086 125.109 124.086C126.281 124.086 127.18 124.341 127.805 124.852C128.43 125.362 128.742 126.138 128.742 127.18V133H127.078ZM126.375 128.953L125.453 128.984C124.76 129.005 124.245 129.13 123.906 129.359C123.568 129.589 123.398 129.938 123.398 130.406C123.398 131.078 123.784 131.414 124.555 131.414C125.107 131.414 125.547 131.255 125.875 130.938C126.208 130.62 126.375 130.198 126.375 129.672V128.953ZM139.266 133H136.883V127.898C136.883 127.268 136.771 126.797 136.547 126.484C136.323 126.167 135.966 126.008 135.477 126.008C134.81 126.008 134.328 126.232 134.031 126.68C133.734 127.122 133.586 127.859 133.586 128.891V133H131.203V124.266H133.023L133.344 125.383H133.477C133.742 124.961 134.107 124.643 134.57 124.43C135.039 124.211 135.57 124.102 136.164 124.102C137.18 124.102 137.951 124.378 138.477 124.93C139.003 125.477 139.266 126.268 139.266 127.305V133ZM133.875 123.305V123.094C134.771 122.052 135.383 121.268 135.711 120.742H138.383V120.906C138.112 121.177 137.648 121.581 136.992 122.117C136.341 122.648 135.831 123.044 135.461 123.305H133.875Z" fill="#111112"/>
<rect y="196" width="222" height="58" rx="18" fill="#F5F5F5"/>
<path d="M86.1797 227.828C86.1797 228.859 85.8073 229.672 85.0625 230.266C84.3229 230.859 83.2917 231.156 81.9688 231.156C80.75 231.156 79.6719 230.927 78.7344 230.469V228.219C79.5052 228.562 80.1562 228.805 80.6875 228.945C81.224 229.086 81.7135 229.156 82.1562 229.156C82.6875 229.156 83.0938 229.055 83.375 228.852C83.6615 228.648 83.8047 228.346 83.8047 227.945C83.8047 227.721 83.7422 227.523 83.6172 227.352C83.4922 227.174 83.3073 227.005 83.0625 226.844C82.8229 226.682 82.3307 226.424 81.5859 226.07C80.888 225.742 80.3646 225.427 80.0156 225.125C79.6667 224.823 79.388 224.471 79.1797 224.07C78.9714 223.669 78.8672 223.201 78.8672 222.664C78.8672 221.654 79.2083 220.859 79.8906 220.281C80.5781 219.703 81.526 219.414 82.7344 219.414C83.3281 219.414 83.8932 219.484 84.4297 219.625C84.9714 219.766 85.5365 219.964 86.125 220.219L85.3438 222.102C84.7344 221.852 84.2292 221.677 83.8281 221.578C83.4323 221.479 83.0417 221.43 82.6562 221.43C82.1979 221.43 81.8464 221.536 81.6016 221.75C81.3568 221.964 81.2344 222.242 81.2344 222.586C81.2344 222.799 81.2839 222.987 81.3828 223.148C81.4818 223.305 81.638 223.458 81.8516 223.609C82.0703 223.755 82.5833 224.021 83.3906 224.406C84.4583 224.917 85.1901 225.43 85.5859 225.945C85.9818 226.456 86.1797 227.083 86.1797 227.828ZM94.1406 231H87.2422V229.594L91.2891 224.086H87.4844V222.266H94V223.812L90.0625 229.18H94.1406V231ZM99.4219 231.156C96.7031 231.156 95.3438 229.664 95.3438 226.68C95.3438 225.195 95.7135 224.062 96.4531 223.281C97.1927 222.495 98.2526 222.102 99.6328 222.102C100.643 222.102 101.549 222.299 102.352 222.695L101.648 224.539C101.273 224.388 100.924 224.266 100.602 224.172C100.279 224.073 99.9557 224.023 99.6328 224.023C98.3932 224.023 97.7734 224.904 97.7734 226.664C97.7734 228.372 98.3932 229.227 99.6328 229.227C100.091 229.227 100.516 229.167 100.906 229.047C101.297 228.922 101.688 228.729 102.078 228.469V230.508C101.693 230.753 101.302 230.922 100.906 231.016C100.516 231.109 100.021 231.156 99.4219 231.156ZM110.188 231H103.289V229.594L107.336 224.086H103.531V222.266H110.047V223.812L106.109 229.18H110.188V231ZM115.539 223.797C115.034 223.797 114.638 223.958 114.352 224.281C114.065 224.599 113.901 225.052 113.859 225.641H117.203C117.193 225.052 117.039 224.599 116.742 224.281C116.445 223.958 116.044 223.797 115.539 223.797ZM115.875 231.156C114.469 231.156 113.37 230.768 112.578 229.992C111.786 229.216 111.391 228.117 111.391 226.695C111.391 225.232 111.755 224.102 112.484 223.305C113.219 222.503 114.232 222.102 115.523 222.102C116.758 222.102 117.719 222.453 118.406 223.156C119.094 223.859 119.438 224.831 119.438 226.07V227.227H113.805C113.831 227.904 114.031 228.432 114.406 228.812C114.781 229.193 115.307 229.383 115.984 229.383C116.51 229.383 117.008 229.328 117.477 229.219C117.945 229.109 118.435 228.935 118.945 228.695V230.539C118.529 230.747 118.083 230.901 117.609 231C117.135 231.104 116.557 231.156 115.875 231.156ZM124.922 231.156C122.203 231.156 120.844 229.664 120.844 226.68C120.844 225.195 121.214 224.062 121.953 223.281C122.693 222.495 123.753 222.102 125.133 222.102C126.143 222.102 127.049 222.299 127.852 222.695L127.148 224.539C126.773 224.388 126.424 224.266 126.102 224.172C125.779 224.073 125.456 224.023 125.133 224.023C123.893 224.023 123.273 224.904 123.273 226.664C123.273 228.372 123.893 229.227 125.133 229.227C125.591 229.227 126.016 229.167 126.406 229.047C126.797 228.922 127.188 228.729 127.578 228.469V230.508C127.193 230.753 126.802 230.922 126.406 231.016C126.016 231.109 125.521 231.156 124.922 231.156ZM129.508 220.008C129.508 219.232 129.94 218.844 130.805 218.844C131.669 218.844 132.102 219.232 132.102 220.008C132.102 220.378 131.992 220.667 131.773 220.875C131.56 221.078 131.237 221.18 130.805 221.18C129.94 221.18 129.508 220.789 129.508 220.008ZM131.992 231H129.609V222.266H131.992V231ZM142.562 231H140.18V225.898C140.18 225.268 140.068 224.797 139.844 224.484C139.62 224.167 139.263 224.008 138.773 224.008C138.107 224.008 137.625 224.232 137.328 224.68C137.031 225.122 136.883 225.859 136.883 226.891V231H134.5V222.266H136.32L136.641 223.383H136.773C137.039 222.961 137.404 222.643 137.867 222.43C138.336 222.211 138.867 222.102 139.461 222.102C140.477 222.102 141.247 222.378 141.773 222.93C142.299 223.477 142.562 224.268 142.562 225.305V231Z" fill="#111112"/>
<rect y="294" width="222" height="58" rx="18" fill="#F5F5F5"/>
<path d="M80.8594 322.648H81.6406C82.4062 322.648 82.9714 322.521 83.3359 322.266C83.7005 322.01 83.8828 321.609 83.8828 321.062C83.8828 320.521 83.6953 320.135 83.3203 319.906C82.9505 319.677 82.375 319.562 81.5938 319.562H80.8594V322.648ZM80.8594 324.617V329H78.4375V317.578H81.7656C83.3177 317.578 84.4661 317.862 85.2109 318.43C85.9557 318.992 86.3281 319.849 86.3281 321C86.3281 321.672 86.1432 322.271 85.7734 322.797C85.4036 323.318 84.8802 323.727 84.2031 324.023C85.9219 326.591 87.0417 328.25 87.5625 329H84.875L82.1484 324.617H80.8594ZM94.8906 329H87.9922V327.594L92.0391 322.086H88.2344V320.266H94.75V321.812L90.8125 327.18H94.8906V329ZM100.242 321.797C99.737 321.797 99.3411 321.958 99.0547 322.281C98.7682 322.599 98.6042 323.052 98.5625 323.641H101.906C101.896 323.052 101.742 322.599 101.445 322.281C101.148 321.958 100.747 321.797 100.242 321.797ZM100.578 329.156C99.1719 329.156 98.0729 328.768 97.2812 327.992C96.4896 327.216 96.0938 326.117 96.0938 324.695C96.0938 323.232 96.4583 322.102 97.1875 321.305C97.9219 320.503 98.9349 320.102 100.227 320.102C101.461 320.102 102.422 320.453 103.109 321.156C103.797 321.859 104.141 322.831 104.141 324.07V325.227H98.5078C98.5339 325.904 98.7344 326.432 99.1094 326.812C99.4844 327.193 100.01 327.383 100.688 327.383C101.214 327.383 101.711 327.328 102.18 327.219C102.648 327.109 103.138 326.935 103.648 326.695V328.539C103.232 328.747 102.786 328.901 102.312 329C101.839 329.104 101.26 329.156 100.578 329.156ZM112.172 326.406C112.172 327.302 111.859 327.984 111.234 328.453C110.615 328.922 109.685 329.156 108.445 329.156C107.81 329.156 107.268 329.112 106.82 329.023C106.372 328.94 105.953 328.815 105.562 328.648V326.68C106.005 326.888 106.503 327.062 107.055 327.203C107.612 327.344 108.102 327.414 108.523 327.414C109.388 327.414 109.82 327.164 109.82 326.664C109.82 326.477 109.763 326.326 109.648 326.211C109.534 326.091 109.336 325.958 109.055 325.812C108.773 325.661 108.398 325.487 107.93 325.289C107.258 325.008 106.763 324.747 106.445 324.508C106.133 324.268 105.904 323.995 105.758 323.688C105.617 323.375 105.547 322.992 105.547 322.539C105.547 321.763 105.846 321.164 106.445 320.742C107.049 320.315 107.904 320.102 109.008 320.102C110.06 320.102 111.083 320.331 112.078 320.789L111.359 322.508C110.922 322.32 110.513 322.167 110.133 322.047C109.753 321.927 109.365 321.867 108.969 321.867C108.266 321.867 107.914 322.057 107.914 322.438C107.914 322.651 108.026 322.836 108.25 322.992C108.479 323.148 108.977 323.38 109.742 323.688C110.424 323.964 110.924 324.221 111.242 324.461C111.56 324.701 111.794 324.977 111.945 325.289C112.096 325.602 112.172 325.974 112.172 326.406ZM120.109 329H113.211V327.594L117.258 322.086H113.453V320.266H119.969V321.812L116.031 327.18H120.109V329ZM123.742 324.617C123.742 325.482 123.883 326.135 124.164 326.578C124.451 327.021 124.914 327.242 125.555 327.242C126.19 327.242 126.646 327.023 126.922 326.586C127.203 326.143 127.344 325.487 127.344 324.617C127.344 323.753 127.203 323.104 126.922 322.672C126.641 322.24 126.18 322.023 125.539 322.023C124.904 322.023 124.445 322.24 124.164 322.672C123.883 323.099 123.742 323.747 123.742 324.617ZM129.781 324.617C129.781 326.039 129.406 327.151 128.656 327.953C127.906 328.755 126.862 329.156 125.523 329.156C124.685 329.156 123.945 328.974 123.305 328.609C122.664 328.24 122.172 327.711 121.828 327.023C121.484 326.336 121.312 325.534 121.312 324.617C121.312 323.19 121.685 322.081 122.43 321.289C123.174 320.497 124.221 320.102 125.57 320.102C126.409 320.102 127.148 320.284 127.789 320.648C128.43 321.013 128.922 321.536 129.266 322.219C129.609 322.901 129.781 323.701 129.781 324.617ZM124.242 319.305V319.094C125.138 318.052 125.75 317.268 126.078 316.742H128.75V316.906C128.479 317.177 128.016 317.581 127.359 318.117C126.708 318.648 126.198 319.044 125.828 319.305H124.242ZM138.93 329L138.258 325.945L137.352 322.086H137.297L135.703 329H133.141L130.656 320.266H133.031L134.039 324.133C134.201 324.826 134.365 325.781 134.531 327H134.578C134.599 326.604 134.69 325.977 134.852 325.117L134.977 324.453L136.055 320.266H138.68L139.703 324.453C139.724 324.568 139.755 324.737 139.797 324.961C139.844 325.185 139.888 325.424 139.93 325.68C139.971 325.93 140.008 326.177 140.039 326.422C140.076 326.661 140.096 326.854 140.102 327H140.148C140.195 326.625 140.279 326.112 140.398 325.461C140.518 324.805 140.604 324.362 140.656 324.133L141.703 320.266H144.039L141.523 329H138.93Z" fill="#111112"/>
<rect x="486" width="222" height="58" rx="18" fill="#F5F5F5"/>
<path d="M574.562 35H571.805L570.258 29C570.201 28.7865 570.102 28.3464 569.961 27.6797C569.826 27.0078 569.747 26.5573 569.727 26.3281C569.695 26.6094 569.617 27.0625 569.492 27.6875C569.367 28.3073 569.271 28.75 569.203 29.0156L567.664 35H564.914L562 23.5781H564.383L565.844 29.8125C566.099 30.9635 566.284 31.9609 566.398 32.8047C566.43 32.5078 566.5 32.0495 566.609 31.4297C566.724 30.8047 566.831 30.3203 566.93 29.9766L568.594 23.5781H570.883L572.547 29.9766C572.62 30.263 572.711 30.7005 572.82 31.2891C572.93 31.8776 573.013 32.3828 573.07 32.8047C573.122 32.3984 573.206 31.8932 573.32 31.2891C573.435 30.6797 573.539 30.1875 573.633 29.8125L575.086 23.5781H577.469L574.562 35ZM583.594 26.1016C583.917 26.1016 584.185 26.125 584.398 26.1719L584.219 28.4062C584.026 28.3542 583.792 28.3281 583.516 28.3281C582.755 28.3281 582.161 28.5234 581.734 28.9141C581.312 29.3047 581.102 29.8516 581.102 30.5547V35H578.719V26.2656H580.523L580.875 27.7344H580.992C581.263 27.2448 581.628 26.8516 582.086 26.5547C582.549 26.2526 583.052 26.1016 583.594 26.1016ZM587.883 30.6172C587.883 31.4818 588.023 32.1354 588.305 32.5781C588.591 33.0208 589.055 33.2422 589.695 33.2422C590.331 33.2422 590.786 33.0234 591.062 32.5859C591.344 32.1432 591.484 31.487 591.484 30.6172C591.484 29.7526 591.344 29.1042 591.062 28.6719C590.781 28.2396 590.32 28.0234 589.68 28.0234C589.044 28.0234 588.586 28.2396 588.305 28.6719C588.023 29.099 587.883 29.7474 587.883 30.6172ZM593.922 30.6172C593.922 32.0391 593.547 33.151 592.797 33.9531C592.047 34.7552 591.003 35.1562 589.664 35.1562C588.826 35.1562 588.086 34.974 587.445 34.6094C586.805 34.2396 586.312 33.7109 585.969 33.0234C585.625 32.3359 585.453 31.5339 585.453 30.6172C585.453 29.1901 585.826 28.0807 586.57 27.2891C587.315 26.4974 588.362 26.1016 589.711 26.1016C590.549 26.1016 591.289 26.2839 591.93 26.6484C592.57 27.013 593.062 27.5365 593.406 28.2188C593.75 28.901 593.922 29.7005 593.922 30.6172ZM599.438 35.1562C596.719 35.1562 595.359 33.6641 595.359 30.6797C595.359 29.1953 595.729 28.0625 596.469 27.2812C597.208 26.4948 598.268 26.1016 599.648 26.1016C600.659 26.1016 601.565 26.2995 602.367 26.6953L601.664 28.5391C601.289 28.388 600.94 28.2656 600.617 28.1719C600.294 28.0729 599.971 28.0234 599.648 28.0234C598.409 28.0234 597.789 28.9036 597.789 30.6641C597.789 32.3724 598.409 33.2266 599.648 33.2266C600.107 33.2266 600.531 33.1667 600.922 33.0469C601.312 32.9219 601.703 32.7292 602.094 32.4688V34.5078C601.708 34.7526 601.318 34.9219 600.922 35.0156C600.531 35.1094 600.036 35.1562 599.438 35.1562ZM606.695 27.7344L607.242 27.3984L608.156 28.9375L606.695 29.8125V35H604.312V31.2734L603.758 31.6094L602.875 30.0703L604.312 29.1953V22.8438H606.695V27.7344ZM614.953 35L614.492 33.8125H614.43C614.029 34.3177 613.615 34.6693 613.188 34.8672C612.766 35.0599 612.214 35.1562 611.531 35.1562C610.693 35.1562 610.031 34.9167 609.547 34.4375C609.068 33.9583 608.828 33.276 608.828 32.3906C608.828 31.4635 609.151 30.7812 609.797 30.3438C610.448 29.901 611.427 29.6562 612.734 29.6094L614.25 29.5625V29.1797C614.25 28.2943 613.797 27.8516 612.891 27.8516C612.193 27.8516 611.372 28.0625 610.43 28.4844L609.641 26.875C610.646 26.349 611.76 26.0859 612.984 26.0859C614.156 26.0859 615.055 26.3411 615.68 26.8516C616.305 27.362 616.617 28.138 616.617 29.1797V35H614.953ZM614.25 30.9531L613.328 30.9844C612.635 31.0052 612.12 31.1302 611.781 31.3594C611.443 31.5885 611.273 31.9375 611.273 32.4062C611.273 33.0781 611.659 33.4141 612.43 33.4141C612.982 33.4141 613.422 33.2552 613.75 32.9375C614.083 32.6198 614.25 32.1979 614.25 31.6719V30.9531ZM626.258 35L625.586 31.9453L624.68 28.0859H624.625L623.031 35H620.469L617.984 26.2656H620.359L621.367 30.1328C621.529 30.8255 621.693 31.7812 621.859 33H621.906C621.927 32.6042 622.018 31.9766 622.18 31.1172L622.305 30.4531L623.383 26.2656H626.008L627.031 30.4531C627.052 30.5677 627.083 30.737 627.125 30.9609C627.172 31.1849 627.216 31.4245 627.258 31.6797C627.299 31.9297 627.336 32.1771 627.367 32.4219C627.404 32.6615 627.424 32.8542 627.43 33H627.477C627.523 32.625 627.607 32.112 627.727 31.4609C627.846 30.8047 627.932 30.362 627.984 30.1328L629.031 26.2656H631.367L628.852 35H626.258Z" fill="#111112"/>
<rect x="486" y="98" width="222" height="58" rx="18" fill="#F5F5F5"/>
<path d="M573.438 133V121.578H575.859V131H580.492V133H573.438ZM588.484 133L588.164 131.883H588.039C587.784 132.289 587.422 132.604 586.953 132.828C586.484 133.047 585.951 133.156 585.352 133.156C584.326 133.156 583.552 132.883 583.031 132.336C582.51 131.784 582.25 130.992 582.25 129.961V124.266H584.633V129.367C584.633 129.997 584.745 130.471 584.969 130.789C585.193 131.102 585.549 131.258 586.039 131.258C586.706 131.258 587.188 131.036 587.484 130.594C587.781 130.146 587.93 129.406 587.93 128.375V124.266H590.312V133H588.484ZM597.672 124.102C598.703 124.102 599.51 124.505 600.094 125.312C600.677 126.115 600.969 127.216 600.969 128.617C600.969 130.06 600.667 131.177 600.062 131.969C599.464 132.76 598.646 133.156 597.609 133.156C596.583 133.156 595.779 132.784 595.195 132.039H595.031L594.633 133H592.812V120.844H595.195V123.672C595.195 124.031 595.164 124.607 595.102 125.398H595.195C595.753 124.534 596.578 124.102 597.672 124.102ZM596.906 126.008C596.318 126.008 595.888 126.19 595.617 126.555C595.346 126.914 595.206 127.51 595.195 128.344V128.602C595.195 129.539 595.333 130.211 595.609 130.617C595.891 131.023 596.333 131.227 596.938 131.227C597.427 131.227 597.815 131.003 598.102 130.555C598.393 130.102 598.539 129.445 598.539 128.586C598.539 127.727 598.393 127.083 598.102 126.656C597.81 126.224 597.411 126.008 596.906 126.008ZM605.32 133H602.938V120.844H605.32V133ZM607.727 122.008C607.727 121.232 608.159 120.844 609.023 120.844C609.888 120.844 610.32 121.232 610.32 122.008C610.32 122.378 610.211 122.667 609.992 122.875C609.779 123.078 609.456 123.18 609.023 123.18C608.159 123.18 607.727 122.789 607.727 122.008ZM610.211 133H607.828V124.266H610.211V133ZM620.781 133H618.398V127.898C618.398 127.268 618.286 126.797 618.062 126.484C617.839 126.167 617.482 126.008 616.992 126.008C616.326 126.008 615.844 126.232 615.547 126.68C615.25 127.122 615.102 127.859 615.102 128.891V133H612.719V124.266H614.539L614.859 125.383H614.992C615.258 124.961 615.622 124.643 616.086 124.43C616.555 124.211 617.086 124.102 617.68 124.102C618.695 124.102 619.466 124.378 619.992 124.93C620.518 125.477 620.781 126.268 620.781 127.305V133Z" fill="#111112"/>
<rect x="486" y="196" width="223" height="58" rx="18" fill="#F5F5F5"/>
<path d="M580.438 231V227.156L579.898 227.477L579.016 225.945L580.438 225.078V219.578H582.859V223.609L583.977 222.922L584.891 224.453L582.859 225.688V229H587.492V231H580.438ZM591.195 226.617C591.195 227.482 591.336 228.135 591.617 228.578C591.904 229.021 592.367 229.242 593.008 229.242C593.643 229.242 594.099 229.023 594.375 228.586C594.656 228.143 594.797 227.487 594.797 226.617C594.797 225.753 594.656 225.104 594.375 224.672C594.094 224.24 593.633 224.023 592.992 224.023C592.357 224.023 591.898 224.24 591.617 224.672C591.336 225.099 591.195 225.747 591.195 226.617ZM597.234 226.617C597.234 228.039 596.859 229.151 596.109 229.953C595.359 230.755 594.315 231.156 592.977 231.156C592.138 231.156 591.398 230.974 590.758 230.609C590.117 230.24 589.625 229.711 589.281 229.023C588.938 228.336 588.766 227.534 588.766 226.617C588.766 225.19 589.138 224.081 589.883 223.289C590.628 222.497 591.674 222.102 593.023 222.102C593.862 222.102 594.602 222.284 595.242 222.648C595.883 223.013 596.375 223.536 596.719 224.219C597.062 224.901 597.234 225.701 597.234 226.617ZM591.695 221.305V221.094C592.591 220.052 593.203 219.268 593.531 218.742H596.203V218.906C595.932 219.177 595.469 219.581 594.812 220.117C594.161 220.648 593.651 221.044 593.281 221.305H591.695ZM601.969 231.156C600.943 231.156 600.135 230.758 599.547 229.961C598.964 229.164 598.672 228.06 598.672 226.648C598.672 225.216 598.969 224.102 599.562 223.305C600.161 222.503 600.984 222.102 602.031 222.102C603.13 222.102 603.969 222.529 604.547 223.383H604.625C604.505 222.732 604.445 222.151 604.445 221.641V218.844H606.836V231H605.008L604.547 229.867H604.445C603.904 230.727 603.078 231.156 601.969 231.156ZM602.805 229.258C603.414 229.258 603.859 229.081 604.141 228.727C604.427 228.372 604.583 227.771 604.609 226.922V226.664C604.609 225.727 604.464 225.055 604.172 224.648C603.885 224.242 603.417 224.039 602.766 224.039C602.234 224.039 601.82 224.266 601.523 224.719C601.232 225.167 601.086 225.82 601.086 226.68C601.086 227.539 601.234 228.185 601.531 228.617C601.828 229.044 602.253 229.258 602.805 229.258ZM615.406 231H608.508V229.594L612.555 224.086H608.75V222.266H615.266V223.812L611.328 229.18H615.406V231ZM610.828 221.305V221.094C611.724 220.052 612.336 219.268 612.664 218.742H615.336V218.906C615.065 219.177 614.602 219.581 613.945 220.117C613.294 220.648 612.784 221.044 612.414 221.305H610.828Z" fill="#111112"/>
<rect x="486" y="294" width="222" height="58" rx="18" fill="#F5F5F5"/>
<path d="M578.805 323.273C578.805 325.164 578.336 326.617 577.398 327.633C576.461 328.648 575.117 329.156 573.367 329.156C571.617 329.156 570.273 328.648 569.336 327.633C568.398 326.617 567.93 325.159 567.93 323.258C567.93 321.357 568.398 319.906 569.336 318.906C570.279 317.901 571.628 317.398 573.383 317.398C575.138 317.398 576.479 317.904 577.406 318.914C578.339 319.924 578.805 321.378 578.805 323.273ZM570.469 323.273C570.469 324.549 570.711 325.51 571.195 326.156C571.68 326.802 572.404 327.125 573.367 327.125C575.299 327.125 576.266 325.841 576.266 323.273C576.266 320.701 575.305 319.414 573.383 319.414C572.419 319.414 571.693 319.74 571.203 320.391C570.714 321.036 570.469 321.997 570.469 323.273ZM583.367 329H580.984V316.844H583.367V329ZM591.969 326.406C591.969 327.302 591.656 327.984 591.031 328.453C590.411 328.922 589.482 329.156 588.242 329.156C587.607 329.156 587.065 329.112 586.617 329.023C586.169 328.94 585.75 328.815 585.359 328.648V326.68C585.802 326.888 586.299 327.062 586.852 327.203C587.409 327.344 587.898 327.414 588.32 327.414C589.185 327.414 589.617 327.164 589.617 326.664C589.617 326.477 589.56 326.326 589.445 326.211C589.331 326.091 589.133 325.958 588.852 325.812C588.57 325.661 588.195 325.487 587.727 325.289C587.055 325.008 586.56 324.747 586.242 324.508C585.93 324.268 585.701 323.995 585.555 323.688C585.414 323.375 585.344 322.992 585.344 322.539C585.344 321.763 585.643 321.164 586.242 320.742C586.846 320.315 587.701 320.102 588.805 320.102C589.857 320.102 590.88 320.331 591.875 320.789L591.156 322.508C590.719 322.32 590.31 322.167 589.93 322.047C589.549 321.927 589.161 321.867 588.766 321.867C588.062 321.867 587.711 322.057 587.711 322.438C587.711 322.651 587.823 322.836 588.047 322.992C588.276 323.148 588.773 323.38 589.539 323.688C590.221 323.964 590.721 324.221 591.039 324.461C591.357 324.701 591.591 324.977 591.742 325.289C591.893 325.602 591.969 325.974 591.969 326.406ZM599.906 329H593.008V327.594L597.055 322.086H593.25V320.266H599.766V321.812L595.828 327.18H599.906V329ZM605.32 327.258C605.737 327.258 606.237 327.167 606.82 326.984V328.758C606.227 329.023 605.497 329.156 604.633 329.156C603.68 329.156 602.984 328.917 602.547 328.438C602.115 327.953 601.898 327.229 601.898 326.266V322.055H600.758V321.047L602.07 320.25L602.758 318.406H604.281V320.266H606.727V322.055H604.281V326.266C604.281 326.604 604.375 326.854 604.562 327.016C604.755 327.177 605.008 327.258 605.32 327.258ZM607.344 320.266H609.953L611.602 325.18C611.742 325.607 611.839 326.112 611.891 326.695H611.938C611.995 326.159 612.107 325.654 612.273 325.18L613.891 320.266H616.445L612.75 330.117C612.411 331.029 611.927 331.711 611.297 332.164C610.672 332.617 609.94 332.844 609.102 332.844C608.69 332.844 608.286 332.799 607.891 332.711V330.82C608.177 330.888 608.49 330.922 608.828 330.922C609.25 330.922 609.617 330.792 609.93 330.531C610.247 330.276 610.495 329.888 610.672 329.367L610.812 328.938L607.344 320.266ZM625.766 329H623.383V323.898C623.383 323.268 623.271 322.797 623.047 322.484C622.823 322.167 622.466 322.008 621.977 322.008C621.31 322.008 620.828 322.232 620.531 322.68C620.234 323.122 620.086 323.859 620.086 324.891V329H617.703V320.266H619.523L619.844 321.383H619.977C620.242 320.961 620.607 320.643 621.07 320.43C621.539 320.211 622.07 320.102 622.664 320.102C623.68 320.102 624.451 320.378 624.977 320.93C625.503 321.477 625.766 322.268 625.766 323.305V329Z" fill="#111112"/>
<rect x="243" width="222" height="58" rx="18" fill="#F5F5F5"/>
<path d="M333.625 35H330.875L327.883 30.1875L326.859 30.9219V35H324.438V23.5781H326.859V28.8047L327.812 27.4609L330.906 23.5781H333.594L329.609 28.6328L333.625 35ZM339.75 26.1016C340.073 26.1016 340.341 26.125 340.555 26.1719L340.375 28.4062C340.182 28.3542 339.948 28.3281 339.672 28.3281C338.911 28.3281 338.318 28.5234 337.891 28.9141C337.469 29.3047 337.258 29.8516 337.258 30.5547V35H334.875V26.2656H336.68L337.031 27.7344H337.148C337.419 27.2448 337.784 26.8516 338.242 26.5547C338.706 26.2526 339.208 26.1016 339.75 26.1016ZM347.688 35L347.227 33.8125H347.164C346.763 34.3177 346.349 34.6693 345.922 34.8672C345.5 35.0599 344.948 35.1562 344.266 35.1562C343.427 35.1562 342.766 34.9167 342.281 34.4375C341.802 33.9583 341.562 33.276 341.562 32.3906C341.562 31.4635 341.885 30.7812 342.531 30.3438C343.182 29.901 344.161 29.6562 345.469 29.6094L346.984 29.5625V29.1797C346.984 28.2943 346.531 27.8516 345.625 27.8516C344.927 27.8516 344.107 28.0625 343.164 28.4844L342.375 26.875C343.38 26.349 344.495 26.0859 345.719 26.0859C346.891 26.0859 347.789 26.3411 348.414 26.8516C349.039 27.362 349.352 28.138 349.352 29.1797V35H347.688ZM346.984 30.9531L346.062 30.9844C345.37 31.0052 344.854 31.1302 344.516 31.3594C344.177 31.5885 344.008 31.9375 344.008 32.4062C344.008 33.0781 344.393 33.4141 345.164 33.4141C345.716 33.4141 346.156 33.2552 346.484 32.9375C346.818 32.6198 346.984 32.1979 346.984 31.6719V30.9531ZM354.102 30.25L355.141 28.9219L357.586 26.2656H360.273L356.805 30.0547L360.484 35H357.734L355.219 31.4609L354.195 32.2812V35H351.812V22.8438H354.195V28.2656L354.07 30.25H354.102ZM363.633 30.6172C363.633 31.4818 363.773 32.1354 364.055 32.5781C364.341 33.0208 364.805 33.2422 365.445 33.2422C366.081 33.2422 366.536 33.0234 366.812 32.5859C367.094 32.1432 367.234 31.487 367.234 30.6172C367.234 29.7526 367.094 29.1042 366.812 28.6719C366.531 28.2396 366.07 28.0234 365.43 28.0234C364.794 28.0234 364.336 28.2396 364.055 28.6719C363.773 29.099 363.633 29.7474 363.633 30.6172ZM369.672 30.6172C369.672 32.0391 369.297 33.151 368.547 33.9531C367.797 34.7552 366.753 35.1562 365.414 35.1562C364.576 35.1562 363.836 34.974 363.195 34.6094C362.555 34.2396 362.062 33.7109 361.719 33.0234C361.375 32.3359 361.203 31.5339 361.203 30.6172C361.203 29.1901 361.576 28.0807 362.32 27.2891C363.065 26.4974 364.112 26.1016 365.461 26.1016C366.299 26.1016 367.039 26.2839 367.68 26.6484C368.32 27.013 368.812 27.5365 369.156 28.2188C369.5 28.901 369.672 29.7005 369.672 30.6172ZM364.133 25.3047V25.0938C365.029 24.0521 365.641 23.2682 365.969 22.7422H368.641V22.9062C368.37 23.1771 367.906 23.5807 367.25 24.1172C366.599 24.6484 366.089 25.0443 365.719 25.3047H364.133ZM378.82 35L378.148 31.9453L377.242 28.0859H377.188L375.594 35H373.031L370.547 26.2656H372.922L373.93 30.1328C374.091 30.8255 374.255 31.7812 374.422 33H374.469C374.49 32.6042 374.581 31.9766 374.742 31.1172L374.867 30.4531L375.945 26.2656H378.57L379.594 30.4531C379.615 30.5677 379.646 30.737 379.688 30.9609C379.734 31.1849 379.779 31.4245 379.82 31.6797C379.862 31.9297 379.898 32.1771 379.93 32.4219C379.966 32.6615 379.987 32.8542 379.992 33H380.039C380.086 32.625 380.169 32.112 380.289 31.4609C380.409 30.8047 380.495 30.362 380.547 30.1328L381.594 26.2656H383.93L381.414 35H378.82Z" fill="#111112"/>
<rect x="243" y="98" width="222" height="58" rx="18" fill="#F5F5F5"/>
<path d="M329.773 126.586H334.305V132.508C333.57 132.747 332.878 132.914 332.227 133.008C331.581 133.107 330.919 133.156 330.242 133.156C328.518 133.156 327.201 132.651 326.289 131.641C325.383 130.625 324.93 129.169 324.93 127.273C324.93 125.43 325.456 123.992 326.508 122.961C327.565 121.93 329.029 121.414 330.898 121.414C332.07 121.414 333.201 121.648 334.289 122.117L333.484 124.055C332.651 123.638 331.784 123.43 330.883 123.43C329.836 123.43 328.997 123.781 328.367 124.484C327.737 125.188 327.422 126.133 327.422 127.32C327.422 128.56 327.674 129.508 328.18 130.164C328.69 130.815 329.43 131.141 330.398 131.141C330.904 131.141 331.417 131.089 331.938 130.984V128.602H329.773V126.586ZM339.609 133.156C338.583 133.156 337.776 132.758 337.188 131.961C336.604 131.164 336.312 130.06 336.312 128.648C336.312 127.216 336.609 126.102 337.203 125.305C337.802 124.503 338.625 124.102 339.672 124.102C340.771 124.102 341.609 124.529 342.188 125.383H342.266C342.146 124.732 342.086 124.151 342.086 123.641V120.844H344.477V133H342.648L342.188 131.867H342.086C341.544 132.727 340.719 133.156 339.609 133.156ZM340.445 131.258C341.055 131.258 341.5 131.081 341.781 130.727C342.068 130.372 342.224 129.771 342.25 128.922V128.664C342.25 127.727 342.104 127.055 341.812 126.648C341.526 126.242 341.057 126.039 340.406 126.039C339.875 126.039 339.461 126.266 339.164 126.719C338.872 127.167 338.727 127.82 338.727 128.68C338.727 129.539 338.875 130.185 339.172 130.617C339.469 131.044 339.893 131.258 340.445 131.258ZM352.516 133L352.055 131.812H351.992C351.591 132.318 351.177 132.669 350.75 132.867C350.328 133.06 349.776 133.156 349.094 133.156C348.255 133.156 347.594 132.917 347.109 132.438C346.63 131.958 346.391 131.276 346.391 130.391C346.391 129.464 346.714 128.781 347.359 128.344C348.01 127.901 348.99 127.656 350.297 127.609L351.812 127.562V127.18C351.812 126.294 351.359 125.852 350.453 125.852C349.755 125.852 348.935 126.062 347.992 126.484L347.203 124.875C348.208 124.349 349.323 124.086 350.547 124.086C351.719 124.086 352.617 124.341 353.242 124.852C353.867 125.362 354.18 126.138 354.18 127.18V133H352.516ZM351.812 128.953L350.891 128.984C350.198 129.005 349.682 129.13 349.344 129.359C349.005 129.589 348.836 129.938 348.836 130.406C348.836 131.078 349.221 131.414 349.992 131.414C350.544 131.414 350.984 131.255 351.312 130.938C351.646 130.62 351.812 130.198 351.812 129.672V128.953ZM364.703 133H362.32V127.898C362.32 127.268 362.208 126.797 361.984 126.484C361.76 126.167 361.404 126.008 360.914 126.008C360.247 126.008 359.766 126.232 359.469 126.68C359.172 127.122 359.023 127.859 359.023 128.891V133H356.641V124.266H358.461L358.781 125.383H358.914C359.18 124.961 359.544 124.643 360.008 124.43C360.477 124.211 361.008 124.102 361.602 124.102C362.617 124.102 363.388 124.378 363.914 124.93C364.44 125.477 364.703 126.268 364.703 127.305V133ZM359.312 123.305V123.094C360.208 122.052 360.82 121.268 361.148 120.742H363.82V120.906C363.549 121.177 363.086 121.581 362.43 122.117C361.779 122.648 361.268 123.044 360.898 123.305H359.312ZM373.25 130.406C373.25 131.302 372.938 131.984 372.312 132.453C371.693 132.922 370.763 133.156 369.523 133.156C368.888 133.156 368.346 133.112 367.898 133.023C367.451 132.94 367.031 132.815 366.641 132.648V130.68C367.083 130.888 367.581 131.062 368.133 131.203C368.69 131.344 369.18 131.414 369.602 131.414C370.466 131.414 370.898 131.164 370.898 130.664C370.898 130.477 370.841 130.326 370.727 130.211C370.612 130.091 370.414 129.958 370.133 129.812C369.852 129.661 369.477 129.487 369.008 129.289C368.336 129.008 367.841 128.747 367.523 128.508C367.211 128.268 366.982 127.995 366.836 127.688C366.695 127.375 366.625 126.992 366.625 126.539C366.625 125.763 366.924 125.164 367.523 124.742C368.128 124.315 368.982 124.102 370.086 124.102C371.138 124.102 372.161 124.331 373.156 124.789L372.438 126.508C372 126.32 371.591 126.167 371.211 126.047C370.831 125.927 370.443 125.867 370.047 125.867C369.344 125.867 368.992 126.057 368.992 126.438C368.992 126.651 369.104 126.836 369.328 126.992C369.557 127.148 370.055 127.38 370.82 127.688C371.503 127.964 372.003 128.221 372.32 128.461C372.638 128.701 372.872 128.977 373.023 129.289C373.174 129.602 373.25 129.974 373.25 130.406ZM377.398 128.25L378.438 126.922L380.883 124.266H383.57L380.102 128.055L383.781 133H381.031L378.516 129.461L377.492 130.281V133H375.109V120.844H377.492V126.266L377.367 128.25H377.398Z" fill="#111112"/>
<rect x="243" y="196" width="223" height="58" rx="18" fill="#F5F5F5"/>
<path d="M315.438 219.578H318.992C320.612 219.578 321.786 219.81 322.516 220.273C323.25 220.732 323.617 221.464 323.617 222.469C323.617 223.151 323.456 223.711 323.133 224.148C322.815 224.586 322.391 224.849 321.859 224.938V225.016C322.583 225.177 323.104 225.479 323.422 225.922C323.745 226.365 323.906 226.953 323.906 227.688C323.906 228.729 323.529 229.542 322.773 230.125C322.023 230.708 321.003 231 319.711 231H315.438V219.578ZM317.859 224.102H319.266C319.922 224.102 320.396 224 320.688 223.797C320.984 223.594 321.133 223.258 321.133 222.789C321.133 222.352 320.971 222.039 320.648 221.852C320.331 221.659 319.826 221.562 319.133 221.562H317.859V224.102ZM317.859 226.023V229H319.438C320.104 229 320.596 228.872 320.914 228.617C321.232 228.362 321.391 227.971 321.391 227.445C321.391 226.497 320.714 226.023 319.359 226.023H317.859ZM324.75 222.266H327.359L329.008 227.18C329.148 227.607 329.245 228.112 329.297 228.695H329.344C329.401 228.159 329.513 227.654 329.68 227.18L331.297 222.266H333.852L330.156 232.117C329.818 233.029 329.333 233.711 328.703 234.164C328.078 234.617 327.346 234.844 326.508 234.844C326.096 234.844 325.693 234.799 325.297 234.711V232.82C325.583 232.888 325.896 232.922 326.234 232.922C326.656 232.922 327.023 232.792 327.336 232.531C327.654 232.276 327.901 231.888 328.078 231.367L328.219 230.938L324.75 222.266ZM337.875 231.156C336.849 231.156 336.042 230.758 335.453 229.961C334.87 229.164 334.578 228.06 334.578 226.648C334.578 225.216 334.875 224.102 335.469 223.305C336.068 222.503 336.891 222.102 337.938 222.102C339.036 222.102 339.875 222.529 340.453 223.383H340.531C340.411 222.732 340.352 222.151 340.352 221.641V218.844H342.742V231H340.914L340.453 229.867H340.352C339.81 230.727 338.984 231.156 337.875 231.156ZM338.711 229.258C339.32 229.258 339.766 229.081 340.047 228.727C340.333 228.372 340.49 227.771 340.516 226.922V226.664C340.516 225.727 340.37 225.055 340.078 224.648C339.792 224.242 339.323 224.039 338.672 224.039C338.141 224.039 337.727 224.266 337.43 224.719C337.138 225.167 336.992 225.82 336.992 226.68C336.992 227.539 337.141 228.185 337.438 228.617C337.734 229.044 338.159 229.258 338.711 229.258ZM352.836 222.266V223.477L351.469 223.828C351.719 224.219 351.844 224.656 351.844 225.141C351.844 226.078 351.516 226.81 350.859 227.336C350.208 227.857 349.302 228.117 348.141 228.117L347.711 228.094L347.359 228.055C347.115 228.242 346.992 228.451 346.992 228.68C346.992 229.023 347.43 229.195 348.305 229.195H349.789C350.747 229.195 351.477 229.401 351.977 229.812C352.482 230.224 352.734 230.828 352.734 231.625C352.734 232.646 352.307 233.438 351.453 234C350.604 234.562 349.383 234.844 347.789 234.844C346.57 234.844 345.638 234.63 344.992 234.203C344.352 233.781 344.031 233.188 344.031 232.422C344.031 231.896 344.195 231.456 344.523 231.102C344.852 230.747 345.333 230.495 345.969 230.344C345.724 230.24 345.51 230.07 345.328 229.836C345.146 229.596 345.055 229.344 345.055 229.078C345.055 228.745 345.151 228.469 345.344 228.25C345.536 228.026 345.815 227.807 346.18 227.594C345.721 227.396 345.357 227.078 345.086 226.641C344.82 226.203 344.688 225.688 344.688 225.094C344.688 224.141 344.997 223.404 345.617 222.883C346.237 222.362 347.122 222.102 348.273 222.102C348.518 222.102 348.807 222.125 349.141 222.172C349.479 222.214 349.695 222.245 349.789 222.266H352.836ZM346.094 232.234C346.094 232.562 346.25 232.82 346.562 233.008C346.88 233.195 347.323 233.289 347.891 233.289C348.745 233.289 349.414 233.172 349.898 232.938C350.383 232.703 350.625 232.383 350.625 231.977C350.625 231.648 350.482 231.422 350.195 231.297C349.909 231.172 349.466 231.109 348.867 231.109H347.633C347.195 231.109 346.828 231.211 346.531 231.414C346.24 231.622 346.094 231.896 346.094 232.234ZM346.961 225.125C346.961 225.599 347.068 225.974 347.281 226.25C347.5 226.526 347.831 226.664 348.273 226.664C348.721 226.664 349.049 226.526 349.258 226.25C349.466 225.974 349.57 225.599 349.57 225.125C349.57 224.073 349.138 223.547 348.273 223.547C347.398 223.547 346.961 224.073 346.961 225.125ZM356.18 226.617C356.18 227.482 356.32 228.135 356.602 228.578C356.888 229.021 357.352 229.242 357.992 229.242C358.628 229.242 359.083 229.023 359.359 228.586C359.641 228.143 359.781 227.487 359.781 226.617C359.781 225.753 359.641 225.104 359.359 224.672C359.078 224.24 358.617 224.023 357.977 224.023C357.341 224.023 356.883 224.24 356.602 224.672C356.32 225.099 356.18 225.747 356.18 226.617ZM362.219 226.617C362.219 228.039 361.844 229.151 361.094 229.953C360.344 230.755 359.299 231.156 357.961 231.156C357.122 231.156 356.383 230.974 355.742 230.609C355.102 230.24 354.609 229.711 354.266 229.023C353.922 228.336 353.75 227.534 353.75 226.617C353.75 225.19 354.122 224.081 354.867 223.289C355.612 222.497 356.659 222.102 358.008 222.102C358.846 222.102 359.586 222.284 360.227 222.648C360.867 223.013 361.359 223.536 361.703 224.219C362.047 224.901 362.219 225.701 362.219 226.617ZM370.281 228.406C370.281 229.302 369.969 229.984 369.344 230.453C368.724 230.922 367.794 231.156 366.555 231.156C365.919 231.156 365.378 231.112 364.93 231.023C364.482 230.94 364.062 230.815 363.672 230.648V228.68C364.115 228.888 364.612 229.062 365.164 229.203C365.721 229.344 366.211 229.414 366.633 229.414C367.497 229.414 367.93 229.164 367.93 228.664C367.93 228.477 367.872 228.326 367.758 228.211C367.643 228.091 367.445 227.958 367.164 227.812C366.883 227.661 366.508 227.487 366.039 227.289C365.367 227.008 364.872 226.747 364.555 226.508C364.242 226.268 364.013 225.995 363.867 225.688C363.727 225.375 363.656 224.992 363.656 224.539C363.656 223.763 363.956 223.164 364.555 222.742C365.159 222.315 366.013 222.102 367.117 222.102C368.169 222.102 369.193 222.331 370.188 222.789L369.469 224.508C369.031 224.32 368.622 224.167 368.242 224.047C367.862 223.927 367.474 223.867 367.078 223.867C366.375 223.867 366.023 224.057 366.023 224.438C366.023 224.651 366.135 224.836 366.359 224.992C366.589 225.148 367.086 225.38 367.852 225.688C368.534 225.964 369.034 226.221 369.352 226.461C369.669 226.701 369.904 226.977 370.055 227.289C370.206 227.602 370.281 227.974 370.281 228.406ZM378.219 231H371.32V229.594L375.367 224.086H371.562V222.266H378.078V223.812L374.141 229.18H378.219V231ZM383.5 231.156C380.781 231.156 379.422 229.664 379.422 226.68C379.422 225.195 379.792 224.062 380.531 223.281C381.271 222.495 382.331 222.102 383.711 222.102C384.721 222.102 385.628 222.299 386.43 222.695L385.727 224.539C385.352 224.388 385.003 224.266 384.68 224.172C384.357 224.073 384.034 224.023 383.711 224.023C382.471 224.023 381.852 224.904 381.852 226.664C381.852 228.372 382.471 229.227 383.711 229.227C384.169 229.227 384.594 229.167 384.984 229.047C385.375 228.922 385.766 228.729 386.156 228.469V230.508C385.771 230.753 385.38 230.922 384.984 231.016C384.594 231.109 384.099 231.156 383.5 231.156ZM394.266 231H387.367V229.594L391.414 224.086H387.609V222.266H394.125V223.812L390.188 229.18H394.266V231Z" fill="#111112"/>
<rect x="243" y="294" width="223" height="58" rx="18" fill="#F5F5F5"/>
<path d="M318.438 317.578H321.992C323.612 317.578 324.786 317.81 325.516 318.273C326.25 318.732 326.617 319.464 326.617 320.469C326.617 321.151 326.456 321.711 326.133 322.148C325.815 322.586 325.391 322.849 324.859 322.938V323.016C325.583 323.177 326.104 323.479 326.422 323.922C326.745 324.365 326.906 324.953 326.906 325.688C326.906 326.729 326.529 327.542 325.773 328.125C325.023 328.708 324.003 329 322.711 329H318.438V317.578ZM320.859 322.102H322.266C322.922 322.102 323.396 322 323.688 321.797C323.984 321.594 324.133 321.258 324.133 320.789C324.133 320.352 323.971 320.039 323.648 319.852C323.331 319.659 322.826 319.562 322.133 319.562H320.859V322.102ZM320.859 324.023V327H322.438C323.104 327 323.596 326.872 323.914 326.617C324.232 326.362 324.391 325.971 324.391 325.445C324.391 324.497 323.714 324.023 322.359 324.023H320.859ZM328.898 318.008C328.898 317.232 329.331 316.844 330.195 316.844C331.06 316.844 331.492 317.232 331.492 318.008C331.492 318.378 331.383 318.667 331.164 318.875C330.951 319.078 330.628 319.18 330.195 319.18C329.331 319.18 328.898 318.789 328.898 318.008ZM331.383 329H329V320.266H331.383V329ZM339.438 329L338.977 327.812H338.914C338.513 328.318 338.099 328.669 337.672 328.867C337.25 329.06 336.698 329.156 336.016 329.156C335.177 329.156 334.516 328.917 334.031 328.438C333.552 327.958 333.312 327.276 333.312 326.391C333.312 325.464 333.635 324.781 334.281 324.344C334.932 323.901 335.911 323.656 337.219 323.609L338.734 323.562V323.18C338.734 322.294 338.281 321.852 337.375 321.852C336.677 321.852 335.857 322.062 334.914 322.484L334.125 320.875C335.13 320.349 336.245 320.086 337.469 320.086C338.641 320.086 339.539 320.341 340.164 320.852C340.789 321.362 341.102 322.138 341.102 323.18V329H339.438ZM338.734 324.953L337.812 324.984C337.12 325.005 336.604 325.13 336.266 325.359C335.927 325.589 335.758 325.938 335.758 326.406C335.758 327.078 336.143 327.414 336.914 327.414C337.466 327.414 337.906 327.255 338.234 326.938C338.568 326.62 338.734 326.198 338.734 325.672V324.953ZM346.133 321.734L346.68 321.398L347.594 322.938L346.133 323.812V329H343.75V325.273L343.195 325.609L342.312 324.07L343.75 323.195V316.844H346.133V321.734ZM347.594 320.266H350.203L351.852 325.18C351.992 325.607 352.089 326.112 352.141 326.695H352.188C352.245 326.159 352.357 325.654 352.523 325.18L354.141 320.266H356.695L353 330.117C352.661 331.029 352.177 331.711 351.547 332.164C350.922 332.617 350.19 332.844 349.352 332.844C348.94 332.844 348.536 332.799 348.141 332.711V330.82C348.427 330.888 348.74 330.922 349.078 330.922C349.5 330.922 349.867 330.792 350.18 330.531C350.497 330.276 350.745 329.888 350.922 329.367L351.062 328.938L347.594 320.266ZM364.047 326.406C364.047 327.302 363.734 327.984 363.109 328.453C362.49 328.922 361.56 329.156 360.32 329.156C359.685 329.156 359.143 329.112 358.695 329.023C358.247 328.94 357.828 328.815 357.438 328.648V326.68C357.88 326.888 358.378 327.062 358.93 327.203C359.487 327.344 359.977 327.414 360.398 327.414C361.263 327.414 361.695 327.164 361.695 326.664C361.695 326.477 361.638 326.326 361.523 326.211C361.409 326.091 361.211 325.958 360.93 325.812C360.648 325.661 360.273 325.487 359.805 325.289C359.133 325.008 358.638 324.747 358.32 324.508C358.008 324.268 357.779 323.995 357.633 323.688C357.492 323.375 357.422 322.992 357.422 322.539C357.422 321.763 357.721 321.164 358.32 320.742C358.924 320.315 359.779 320.102 360.883 320.102C361.935 320.102 362.958 320.331 363.953 320.789L363.234 322.508C362.797 322.32 362.388 322.167 362.008 322.047C361.628 321.927 361.24 321.867 360.844 321.867C360.141 321.867 359.789 322.057 359.789 322.438C359.789 322.651 359.901 322.836 360.125 322.992C360.354 323.148 360.852 323.38 361.617 323.688C362.299 323.964 362.799 324.221 363.117 324.461C363.435 324.701 363.669 324.977 363.82 325.289C363.971 325.602 364.047 325.974 364.047 326.406ZM369.586 327.258C370.003 327.258 370.503 327.167 371.086 326.984V328.758C370.492 329.023 369.763 329.156 368.898 329.156C367.945 329.156 367.25 328.917 366.812 328.438C366.38 327.953 366.164 327.229 366.164 326.266V322.055H365.023V321.047L366.336 320.25L367.023 318.406H368.547V320.266H370.992V322.055H368.547V326.266C368.547 326.604 368.641 326.854 368.828 327.016C369.021 327.177 369.273 327.258 369.586 327.258ZM374.758 324.617C374.758 325.482 374.898 326.135 375.18 326.578C375.466 327.021 375.93 327.242 376.57 327.242C377.206 327.242 377.661 327.023 377.938 326.586C378.219 326.143 378.359 325.487 378.359 324.617C378.359 323.753 378.219 323.104 377.938 322.672C377.656 322.24 377.195 322.023 376.555 322.023C375.919 322.023 375.461 322.24 375.18 322.672C374.898 323.099 374.758 323.747 374.758 324.617ZM380.797 324.617C380.797 326.039 380.422 327.151 379.672 327.953C378.922 328.755 377.878 329.156 376.539 329.156C375.701 329.156 374.961 328.974 374.32 328.609C373.68 328.24 373.188 327.711 372.844 327.023C372.5 326.336 372.328 325.534 372.328 324.617C372.328 323.19 372.701 322.081 373.445 321.289C374.19 320.497 375.237 320.102 376.586 320.102C377.424 320.102 378.164 320.284 378.805 320.648C379.445 321.013 379.938 321.536 380.281 322.219C380.625 322.901 380.797 323.701 380.797 324.617ZM385.055 324.25L386.094 322.922L388.539 320.266H391.227L387.758 324.055L391.438 329H388.688L386.172 325.461L385.148 326.281V329H382.766V316.844H385.148V322.266L385.023 324.25H385.055Z" fill="#111112"/>
</svg>
