<svg width="103" height="25" viewBox="0 0 103 25" fill="none" xmlns="http://www.w3.org/2000/svg">
<path d="M12.9375 16.8438C13.9735 16.8438 14.9671 16.4322 15.6996 15.6996C16.4322 14.9671 16.8438 13.9735 16.8438 12.9375C16.8438 11.9015 16.4322 10.9079 15.6996 10.1754C14.9671 9.4428 13.9735 9.03125 12.9375 9.03125C11.9015 9.03125 10.9079 9.4428 10.1754 10.1754C9.4428 10.9079 9.03125 11.9015 9.03125 12.9375C9.03125 13.9735 9.4428 14.9671 10.1754 15.6996C10.9079 16.4322 11.9015 16.8438 12.9375 16.8438ZM13.7188 2.78125C13.7188 2.57405 13.6364 2.37534 13.4899 2.22882C13.3434 2.08231 13.1447 2 12.9375 2C12.7303 2 12.5316 2.08231 12.3851 2.22882C12.2386 2.37534 12.1562 2.57405 12.1562 2.78125V5.16406C10.3633 5.34483 8.68798 6.13958 7.41378 7.41378C6.13958 8.68798 5.34483 10.3633 5.16406 12.1562H2.78125C2.57405 12.1562 2.37534 12.2386 2.22882 12.3851C2.08231 12.5316 2 12.7303 2 12.9375C2 13.1447 2.08231 13.3434 2.22882 13.4899C2.37534 13.6364 2.57405 13.7188 2.78125 13.7188H5.16406C5.34449 15.5119 6.13909 17.1877 7.41332 18.4622C8.68756 19.7367 10.3631 20.5317 12.1562 20.7125V23.0938C12.1562 23.301 12.2386 23.4997 12.3851 23.6462C12.5316 23.7927 12.7303 23.875 12.9375 23.875C13.1447 23.875 13.3434 23.7927 13.4899 23.6462C13.6364 23.4997 13.7188 23.301 13.7188 23.0938V20.7125C15.5119 20.5317 17.1874 19.7367 18.4617 18.4622C19.7359 17.1877 20.5305 15.5119 20.7109 13.7188H23.0938C23.301 13.7188 23.4997 13.6364 23.6462 13.4899C23.7927 13.3434 23.875 13.1447 23.875 12.9375C23.875 12.7303 23.7927 12.5316 23.6462 12.3851C23.4997 12.2386 23.301 12.1562 23.0938 12.1562H20.7109C20.5302 10.3633 19.7354 8.68798 18.4612 7.41378C17.187 6.13958 15.5117 5.34483 13.7188 5.16406V2.78125ZM12.9375 19.1875C11.2799 19.1875 9.69018 18.529 8.51808 17.3569C7.34598 16.1848 6.6875 14.5951 6.6875 12.9375C6.6875 11.2799 7.34598 9.69018 8.51808 8.51808C9.69018 7.34598 11.2799 6.6875 12.9375 6.6875C14.5951 6.6875 16.1848 7.34598 17.3569 8.51808C18.529 9.69018 19.1875 11.2799 19.1875 12.9375C19.1875 14.5951 18.529 16.1848 17.3569 17.3569C16.1848 18.529 14.5951 19.1875 12.9375 19.1875Z" fill="#111112"/>
<path d="M34.3125 18V8.00586H35.9531V16.6055H40.1982V18H34.3125ZM48.4629 14.1992C48.4629 14.8281 48.3809 15.3864 48.2168 15.874C48.0527 16.3617 47.8135 16.7741 47.499 17.1113C47.1846 17.444 46.8063 17.6992 46.3643 17.877C45.9222 18.0501 45.4232 18.1367 44.8672 18.1367C44.3477 18.1367 43.8714 18.0501 43.4385 17.877C43.0055 17.6992 42.6296 17.444 42.3105 17.1113C41.9961 16.7741 41.7523 16.3617 41.5791 15.874C41.4059 15.3864 41.3193 14.8281 41.3193 14.1992C41.3193 13.3652 41.4629 12.6589 41.75 12.0801C42.0417 11.4967 42.4564 11.0524 42.9941 10.7471C43.5319 10.4417 44.1722 10.2891 44.915 10.2891C45.6123 10.2891 46.2275 10.4417 46.7607 10.7471C47.2939 11.0524 47.7109 11.4967 48.0117 12.0801C48.3125 12.6634 48.4629 13.3698 48.4629 14.1992ZM42.9736 14.1992C42.9736 14.7507 43.0397 15.2223 43.1719 15.6143C43.3086 16.0062 43.5182 16.307 43.8008 16.5166C44.0833 16.7217 44.4479 16.8242 44.8945 16.8242C45.3411 16.8242 45.7057 16.7217 45.9883 16.5166C46.2708 16.307 46.4782 16.0062 46.6104 15.6143C46.7425 15.2223 46.8086 14.7507 46.8086 14.1992C46.8086 13.6478 46.7425 13.1807 46.6104 12.7979C46.4782 12.4105 46.2708 12.1165 45.9883 11.916C45.7057 11.7109 45.3389 11.6084 44.8877 11.6084C44.2223 11.6084 43.737 11.8317 43.4316 12.2783C43.1263 12.7249 42.9736 13.3652 42.9736 14.1992ZM53.3574 18.1367C52.6419 18.1367 52.0221 17.9977 51.498 17.7197C50.974 17.4417 50.5706 17.0156 50.2881 16.4414C50.0055 15.8672 49.8643 15.138 49.8643 14.2539C49.8643 13.3333 50.0192 12.5814 50.3291 11.998C50.639 11.4147 51.0674 10.984 51.6143 10.7061C52.1657 10.4281 52.7969 10.2891 53.5078 10.2891C53.959 10.2891 54.3669 10.3346 54.7314 10.4258C55.1006 10.5124 55.4128 10.6195 55.668 10.7471L55.1895 12.0322C54.9115 11.9183 54.6266 11.8226 54.335 11.7451C54.0433 11.6676 53.763 11.6289 53.4941 11.6289C53.0521 11.6289 52.6829 11.7269 52.3867 11.9229C52.0951 12.1188 51.8763 12.4105 51.7305 12.7979C51.5892 13.1852 51.5186 13.666 51.5186 14.2402C51.5186 14.7962 51.5915 15.2656 51.7373 15.6484C51.8831 16.0267 52.0996 16.3138 52.3867 16.5098C52.6738 16.7012 53.027 16.7969 53.4463 16.7969C53.861 16.7969 54.2324 16.7467 54.5605 16.6465C54.8887 16.5462 55.1986 16.4163 55.4902 16.2568V17.6514C55.2031 17.8154 54.8955 17.9362 54.5674 18.0137C54.2393 18.0957 53.8359 18.1367 53.3574 18.1367ZM60.2344 10.2891C61.1914 10.2891 61.9137 10.501 62.4014 10.9248C62.8936 11.3486 63.1396 12.0094 63.1396 12.9072V18H61.998L61.6904 16.9268H61.6357C61.4215 17.2002 61.2005 17.4258 60.9727 17.6035C60.7448 17.7812 60.4805 17.9134 60.1797 18C59.8835 18.0911 59.5212 18.1367 59.0928 18.1367C58.6416 18.1367 58.2383 18.0547 57.8828 17.8906C57.5273 17.722 57.2471 17.4668 57.042 17.125C56.8369 16.7832 56.7344 16.3503 56.7344 15.8262C56.7344 15.0469 57.0238 14.4613 57.6025 14.0693C58.1859 13.6774 59.0654 13.4609 60.2412 13.4199L61.5537 13.3721V12.9756C61.5537 12.4515 61.4307 12.0778 61.1846 11.8545C60.943 11.6312 60.6012 11.5195 60.1592 11.5195C59.7809 11.5195 59.4141 11.5742 59.0586 11.6836C58.7031 11.793 58.3568 11.9274 58.0195 12.0869L57.5 10.9521C57.8691 10.7562 58.2884 10.5967 58.7578 10.4736C59.2318 10.3506 59.724 10.2891 60.2344 10.2891ZM61.5469 14.3838L60.5693 14.418C59.7673 14.4453 59.2044 14.582 58.8809 14.8281C58.5573 15.0742 58.3955 15.4115 58.3955 15.8398C58.3955 16.2135 58.5072 16.487 58.7305 16.6602C58.9538 16.8288 59.2477 16.9131 59.6123 16.9131C60.1683 16.9131 60.6286 16.7559 60.9932 16.4414C61.3623 16.1224 61.5469 15.6553 61.5469 15.04V14.3838ZM68.2051 16.8379C68.4147 16.8379 68.6221 16.8197 68.8271 16.7832C69.0322 16.7422 69.2191 16.6943 69.3877 16.6396V17.8564C69.21 17.9339 68.9798 18 68.6973 18.0547C68.4147 18.1094 68.1208 18.1367 67.8154 18.1367C67.387 18.1367 67.002 18.0661 66.6602 17.9248C66.3184 17.779 66.0472 17.5306 65.8467 17.1797C65.6462 16.8288 65.5459 16.3434 65.5459 15.7236V11.6562H64.5137V10.9385L65.6211 10.3711L66.1475 8.75098H67.1592V10.4326H69.3262V11.6562H67.1592V15.7031C67.1592 16.0859 67.2549 16.3708 67.4463 16.5576C67.6377 16.7445 67.8906 16.8379 68.2051 16.8379ZM73.9404 10.2891C74.6149 10.2891 75.1937 10.4281 75.6768 10.7061C76.1598 10.984 76.5312 11.3783 76.791 11.8887C77.0508 12.3991 77.1807 13.0098 77.1807 13.7207V14.582H72.1289C72.1471 15.3158 72.3431 15.8809 72.7168 16.2773C73.0951 16.6738 73.6237 16.8721 74.3027 16.8721C74.7858 16.8721 75.2188 16.8265 75.6016 16.7354C75.9889 16.6396 76.3877 16.5007 76.7979 16.3184V17.624C76.4196 17.8018 76.0345 17.9316 75.6426 18.0137C75.2507 18.0957 74.7812 18.1367 74.2344 18.1367C73.4915 18.1367 72.8376 17.9932 72.2725 17.7061C71.7119 17.4144 71.2721 16.9814 70.9531 16.4072C70.6387 15.833 70.4814 15.1198 70.4814 14.2676C70.4814 13.4199 70.625 12.6999 70.9121 12.1074C71.1992 11.515 71.6025 11.0638 72.1221 10.7539C72.6416 10.444 73.2477 10.2891 73.9404 10.2891ZM73.9404 11.499C73.4346 11.499 73.0244 11.6631 72.71 11.9912C72.4001 12.3193 72.2178 12.8001 72.1631 13.4336H75.6084C75.6038 13.0553 75.54 12.7204 75.417 12.4287C75.2985 12.137 75.1162 11.9092 74.8701 11.7451C74.6286 11.5811 74.3187 11.499 73.9404 11.499ZM91.1807 10.2891C92.0283 10.2891 92.6663 10.5078 93.0947 10.9453C93.5277 11.3828 93.7441 12.0846 93.7441 13.0508V18H92.1377V13.3379C92.1377 12.7637 92.026 12.3307 91.8027 12.0391C91.5794 11.7474 91.2399 11.6016 90.7842 11.6016C90.1462 11.6016 89.6859 11.8066 89.4033 12.2168C89.1253 12.6224 88.9863 13.2126 88.9863 13.9873V18H87.3799V13.3379C87.3799 12.9551 87.3298 12.6361 87.2295 12.3809C87.1338 12.1211 86.9857 11.9274 86.7852 11.7998C86.5846 11.6676 86.3317 11.6016 86.0264 11.6016C85.5843 11.6016 85.2311 11.7018 84.9668 11.9023C84.707 12.1029 84.5202 12.3991 84.4062 12.791C84.2923 13.1784 84.2354 13.6546 84.2354 14.2197V18H82.6289V10.4326H83.8799L84.1055 11.4512H84.1943C84.3493 11.1868 84.5407 10.9704 84.7686 10.8018C85.001 10.6286 85.2585 10.501 85.541 10.4189C85.8236 10.3324 86.1175 10.2891 86.4229 10.2891C86.988 10.2891 87.4642 10.3893 87.8516 10.5898C88.2389 10.7858 88.5283 11.0866 88.7197 11.4922H88.8428C89.0798 11.082 89.4102 10.779 89.834 10.583C90.2578 10.387 90.7067 10.2891 91.1807 10.2891ZM99.001 10.2891C99.6755 10.2891 100.254 10.4281 100.737 10.7061C101.22 10.984 101.592 11.3783 101.852 11.8887C102.111 12.3991 102.241 13.0098 102.241 13.7207V14.582H97.1895C97.2077 15.3158 97.4036 15.8809 97.7773 16.2773C98.1556 16.6738 98.6842 16.8721 99.3633 16.8721C99.8464 16.8721 100.279 16.8265 100.662 16.7354C101.049 16.6396 101.448 16.5007 101.858 16.3184V17.624C101.48 17.8018 101.095 17.9316 100.703 18.0137C100.311 18.0957 99.8418 18.1367 99.2949 18.1367C98.5521 18.1367 97.8981 17.9932 97.333 17.7061C96.7725 17.4144 96.3327 16.9814 96.0137 16.4072C95.6992 15.833 95.542 15.1198 95.542 14.2676C95.542 13.4199 95.6855 12.6999 95.9727 12.1074C96.2598 11.515 96.6631 11.0638 97.1826 10.7539C97.7021 10.444 98.3083 10.2891 99.001 10.2891ZM99.001 11.499C98.4951 11.499 98.085 11.6631 97.7705 11.9912C97.4606 12.3193 97.2783 12.8001 97.2236 13.4336H100.669C100.664 13.0553 100.601 12.7204 100.478 12.4287C100.359 12.137 100.177 11.9092 99.9307 11.7451C99.6891 11.5811 99.3792 11.499 99.001 11.499Z" fill="#111112"/>
</svg>
