<svg width="87" height="19" viewBox="0 0 87 19" fill="none" xmlns="http://www.w3.org/2000/svg">
<path d="M7.50586 15L6.52832 12.2246H2.70703L1.72949 15H0L3.71875 4.96484H5.53711L9.24902 15H7.50586ZM6.10449 10.8164L5.1543 8.08203C5.11784 7.96354 5.06543 7.7972 4.99707 7.58301C4.92871 7.36426 4.86035 7.14323 4.79199 6.91992C4.72363 6.69206 4.66667 6.50065 4.62109 6.3457C4.57552 6.53255 4.51855 6.74219 4.4502 6.97461C4.38639 7.20247 4.32259 7.41667 4.25879 7.61719C4.19954 7.81771 4.15397 7.97266 4.12207 8.08203L3.16504 10.8164H6.10449ZM14.3486 7.28906C15.2008 7.28906 15.8639 7.51009 16.3379 7.95215C16.8164 8.38965 17.0557 9.09375 17.0557 10.0645V15H15.4492V10.3652C15.4492 9.77734 15.3285 9.33757 15.0869 9.0459C14.8454 8.74967 14.4717 8.60156 13.9658 8.60156C13.2321 8.60156 12.7217 8.82715 12.4346 9.27832C12.152 9.72949 12.0107 10.3835 12.0107 11.2402V15H10.4043V7.43262H11.6553L11.8809 8.45801H11.9697C12.1338 8.19368 12.3366 7.97721 12.5781 7.80859C12.8242 7.63542 13.0977 7.50553 13.3984 7.41895C13.7038 7.33236 14.0205 7.28906 14.3486 7.28906ZM26.0039 11.1992C26.0039 11.8281 25.9219 12.3864 25.7578 12.874C25.5938 13.3617 25.3545 13.7741 25.04 14.1113C24.7256 14.444 24.3473 14.6992 23.9053 14.877C23.4632 15.0501 22.9642 15.1367 22.4082 15.1367C21.8887 15.1367 21.4124 15.0501 20.9795 14.877C20.5465 14.6992 20.1706 14.444 19.8516 14.1113C19.5371 13.7741 19.2933 13.3617 19.1201 12.874C18.9469 12.3864 18.8604 11.8281 18.8604 11.1992C18.8604 10.3652 19.0039 9.65885 19.291 9.08008C19.5827 8.49674 19.9974 8.05241 20.5352 7.74707C21.0729 7.44173 21.7132 7.28906 22.4561 7.28906C23.1533 7.28906 23.7686 7.44173 24.3018 7.74707C24.835 8.05241 25.252 8.49674 25.5527 9.08008C25.8535 9.66341 26.0039 10.3698 26.0039 11.1992ZM20.5146 11.1992C20.5146 11.7507 20.5807 12.2223 20.7129 12.6143C20.8496 13.0062 21.0592 13.307 21.3418 13.5166C21.6243 13.7217 21.9889 13.8242 22.4355 13.8242C22.8822 13.8242 23.2467 13.7217 23.5293 13.5166C23.8118 13.307 24.0192 13.0062 24.1514 12.6143C24.2835 12.2223 24.3496 11.7507 24.3496 11.1992C24.3496 10.6478 24.2835 10.1807 24.1514 9.79785C24.0192 9.41048 23.8118 9.11654 23.5293 8.91602C23.2467 8.71094 22.8799 8.6084 22.4287 8.6084C21.7633 8.6084 21.278 8.83171 20.9727 9.27832C20.6673 9.72493 20.5146 10.3652 20.5146 11.1992ZM31.7939 7.28906C32.6462 7.28906 33.3092 7.51009 33.7832 7.95215C34.2617 8.38965 34.501 9.09375 34.501 10.0645V15H32.8945V10.3652C32.8945 9.77734 32.7738 9.33757 32.5322 9.0459C32.2907 8.74967 31.917 8.60156 31.4111 8.60156C30.6774 8.60156 30.167 8.82715 29.8799 9.27832C29.5973 9.72949 29.4561 10.3835 29.4561 11.2402V15H27.8496V7.43262H29.1006L29.3262 8.45801H29.415C29.5791 8.19368 29.7819 7.97721 30.0234 7.80859C30.2695 7.63542 30.543 7.50553 30.8438 7.41895C31.1491 7.33236 31.4658 7.28906 31.7939 7.28906ZM38.3564 7.43262V15H36.75V7.43262H38.3564ZM37.5635 4.53418C37.8096 4.53418 38.0215 4.60026 38.1992 4.73242C38.3815 4.86458 38.4727 5.09245 38.4727 5.41602C38.4727 5.73503 38.3815 5.96289 38.1992 6.09961C38.0215 6.23177 37.8096 6.29785 37.5635 6.29785C37.3083 6.29785 37.0918 6.23177 36.9141 6.09961C36.7409 5.96289 36.6543 5.73503 36.6543 5.41602C36.6543 5.09245 36.7409 4.86458 36.9141 4.73242C37.0918 4.60026 37.3083 4.53418 37.5635 4.53418ZM49.2119 7.28906C50.0596 7.28906 50.6976 7.50781 51.126 7.94531C51.5589 8.38281 51.7754 9.08464 51.7754 10.0508V15H50.1689V10.3379C50.1689 9.76367 50.0573 9.33073 49.834 9.03906C49.6107 8.7474 49.2712 8.60156 48.8154 8.60156C48.1774 8.60156 47.7171 8.80664 47.4346 9.2168C47.1566 9.6224 47.0176 10.2126 47.0176 10.9873V15H45.4111V10.3379C45.4111 9.95508 45.361 9.63607 45.2607 9.38086C45.165 9.12109 45.0169 8.92741 44.8164 8.7998C44.6159 8.66764 44.363 8.60156 44.0576 8.60156C43.6156 8.60156 43.2624 8.70182 42.998 8.90234C42.7383 9.10286 42.5514 9.39909 42.4375 9.79102C42.3236 10.1784 42.2666 10.6546 42.2666 11.2197V15H40.6602V7.43262H41.9111L42.1367 8.45117H42.2256C42.3805 8.18685 42.5719 7.97038 42.7998 7.80176C43.0322 7.62858 43.2897 7.50098 43.5723 7.41895C43.8548 7.33236 44.1488 7.28906 44.4541 7.28906C45.0192 7.28906 45.4954 7.38932 45.8828 7.58984C46.2702 7.78581 46.5596 8.08659 46.751 8.49219H46.874C47.111 8.08203 47.4414 7.77897 47.8652 7.58301C48.2891 7.38704 48.738 7.28906 49.2119 7.28906Z" fill="#111112"/>
<line x1="87" y1="10" x2="63" y2="10" stroke="#111112"/>
</svg>
