<svg width="135" height="19" viewBox="0 0 135 19" fill="none" xmlns="http://www.w3.org/2000/svg">
<path d="M6.97266 15H1.3125V5.00586H6.97266V6.38672H2.95312V9.10059H6.71973V10.4746H2.95312V13.6123H6.97266V15ZM14.0547 12.8398C14.0547 13.3366 13.9339 13.7559 13.6924 14.0977C13.4508 14.4395 13.0977 14.6992 12.6328 14.877C12.1725 15.0501 11.6074 15.1367 10.9375 15.1367C10.4089 15.1367 9.95312 15.098 9.57031 15.0205C9.19206 14.9476 8.83431 14.8337 8.49707 14.6787V13.291C8.8571 13.4596 9.26042 13.6055 9.70703 13.7285C10.1582 13.8516 10.5843 13.9131 10.9854 13.9131C11.514 13.9131 11.8945 13.8311 12.127 13.667C12.3594 13.4984 12.4756 13.2751 12.4756 12.9971C12.4756 12.833 12.4277 12.6872 12.332 12.5596C12.2409 12.4274 12.0677 12.293 11.8125 12.1562C11.5618 12.015 11.1927 11.8464 10.7051 11.6504C10.2266 11.459 9.82324 11.2676 9.49512 11.0762C9.16699 10.8848 8.91862 10.6546 8.75 10.3857C8.58138 10.1123 8.49707 9.76367 8.49707 9.33984C8.49707 8.66992 8.76139 8.16178 9.29004 7.81543C9.82324 7.46452 10.5273 7.28906 11.4023 7.28906C11.8672 7.28906 12.3047 7.33691 12.7148 7.43262C13.1296 7.52376 13.5352 7.6582 13.9316 7.83594L13.4258 9.0459C13.084 8.89551 12.7399 8.77246 12.3936 8.67676C12.0518 8.5765 11.7031 8.52637 11.3477 8.52637C10.9329 8.52637 10.6162 8.59017 10.3975 8.71777C10.1833 8.84538 10.0762 9.02767 10.0762 9.26465C10.0762 9.44238 10.1286 9.59277 10.2334 9.71582C10.3382 9.83887 10.5182 9.96191 10.7734 10.085C11.0332 10.208 11.3932 10.3607 11.8535 10.543C12.3047 10.7161 12.6943 10.8984 13.0225 11.0898C13.3551 11.2767 13.6104 11.5068 13.7881 11.7803C13.9658 12.0537 14.0547 12.4069 14.0547 12.8398ZM18.6074 13.8379C18.8171 13.8379 19.0244 13.8197 19.2295 13.7832C19.4346 13.7422 19.6214 13.6943 19.79 13.6396V14.8564C19.6123 14.9339 19.3822 15 19.0996 15.0547C18.8171 15.1094 18.5231 15.1367 18.2178 15.1367C17.7894 15.1367 17.4043 15.0661 17.0625 14.9248C16.7207 14.779 16.4495 14.5306 16.249 14.1797C16.0485 13.8288 15.9482 13.3434 15.9482 12.7236V8.65625H14.916V7.93848L16.0234 7.37109L16.5498 5.75098H17.5615V7.43262H19.7285V8.65625H17.5615V12.7031C17.5615 13.0859 17.6572 13.3708 17.8486 13.5576C18.04 13.7445 18.293 13.8379 18.6074 13.8379ZM22.9346 4.36328V7.03613C22.9346 7.31413 22.9255 7.58529 22.9072 7.84961C22.8936 8.11393 22.8776 8.31901 22.8594 8.46484H22.9482C23.1077 8.20052 23.3037 7.98405 23.5361 7.81543C23.7686 7.64225 24.0283 7.51237 24.3154 7.42578C24.6071 7.33919 24.917 7.2959 25.2451 7.2959C25.8239 7.2959 26.3161 7.39388 26.7217 7.58984C27.1273 7.78125 27.4372 8.07975 27.6514 8.48535C27.8701 8.89095 27.9795 9.41732 27.9795 10.0645V15H26.373V10.3652C26.373 9.77734 26.2523 9.33757 26.0107 9.0459C25.7692 8.74967 25.3955 8.60156 24.8896 8.60156C24.402 8.60156 24.0146 8.7041 23.7275 8.90918C23.445 9.1097 23.2422 9.4082 23.1191 9.80469C22.9961 10.1966 22.9346 10.6751 22.9346 11.2402V15H21.3281V4.36328H22.9346ZM33.2432 7.28906C33.9176 7.28906 34.4964 7.42806 34.9795 7.70605C35.4626 7.98405 35.834 8.37826 36.0938 8.88867C36.3535 9.39909 36.4834 10.0098 36.4834 10.7207V11.582H31.4316C31.4499 12.3158 31.6458 12.8809 32.0195 13.2773C32.3978 13.6738 32.9264 13.8721 33.6055 13.8721C34.0885 13.8721 34.5215 13.8265 34.9043 13.7354C35.2917 13.6396 35.6904 13.5007 36.1006 13.3184V14.624C35.7223 14.8018 35.3372 14.9316 34.9453 15.0137C34.5534 15.0957 34.084 15.1367 33.5371 15.1367C32.7943 15.1367 32.1403 14.9932 31.5752 14.7061C31.0146 14.4144 30.5749 13.9814 30.2559 13.4072C29.9414 12.833 29.7842 12.1198 29.7842 11.2676C29.7842 10.4199 29.9277 9.69987 30.2148 9.10742C30.502 8.51497 30.9053 8.0638 31.4248 7.75391C31.9443 7.44401 32.5505 7.28906 33.2432 7.28906ZM33.2432 8.49902C32.7373 8.49902 32.3271 8.66309 32.0127 8.99121C31.7028 9.31934 31.5205 9.80013 31.4658 10.4336H34.9111C34.9066 10.0553 34.8428 9.72038 34.7197 9.42871C34.6012 9.13704 34.4189 8.90918 34.1729 8.74512C33.9313 8.58105 33.6214 8.49902 33.2432 8.49902ZM42.1299 7.28906C42.2575 7.28906 42.3965 7.2959 42.5469 7.30957C42.6973 7.32324 42.8271 7.34147 42.9365 7.36426L42.7861 8.86816C42.6904 8.84082 42.5719 8.82031 42.4307 8.80664C42.2939 8.79297 42.1709 8.78613 42.0615 8.78613C41.7744 8.78613 41.501 8.83398 41.2412 8.92969C40.9814 9.02083 40.7513 9.16211 40.5508 9.35352C40.3503 9.54036 40.193 9.77507 40.0791 10.0576C39.9652 10.3402 39.9082 10.6683 39.9082 11.042V15H38.2949V7.43262H39.5527L39.7715 8.76562H39.8467C39.9971 8.49674 40.1839 8.25065 40.4072 8.02734C40.6305 7.80404 40.8857 7.6263 41.1729 7.49414C41.4645 7.35742 41.7835 7.28906 42.1299 7.28906ZM56.0205 15H54.3867V10.4883H49.7793V15H48.1387V5.00586H49.7793V9.09375H54.3867V5.00586H56.0205V15ZM65.2012 11.1992C65.2012 11.8281 65.1191 12.3864 64.9551 12.874C64.791 13.3617 64.5518 13.7741 64.2373 14.1113C63.9229 14.444 63.5446 14.6992 63.1025 14.877C62.6605 15.0501 62.1615 15.1367 61.6055 15.1367C61.0859 15.1367 60.6097 15.0501 60.1768 14.877C59.7438 14.6992 59.3678 14.444 59.0488 14.1113C58.7344 13.7741 58.4906 13.3617 58.3174 12.874C58.1442 12.3864 58.0576 11.8281 58.0576 11.1992C58.0576 10.3652 58.2012 9.65885 58.4883 9.08008C58.7799 8.49674 59.1947 8.05241 59.7324 7.74707C60.2702 7.44173 60.9105 7.28906 61.6533 7.28906C62.3506 7.28906 62.9658 7.44173 63.499 7.74707C64.0322 8.05241 64.4492 8.49674 64.75 9.08008C65.0508 9.66341 65.2012 10.3698 65.2012 11.1992ZM59.7119 11.1992C59.7119 11.7507 59.778 12.2223 59.9102 12.6143C60.0469 13.0062 60.2565 13.307 60.5391 13.5166C60.8216 13.7217 61.1862 13.8242 61.6328 13.8242C62.0794 13.8242 62.444 13.7217 62.7266 13.5166C63.0091 13.307 63.2165 13.0062 63.3486 12.6143C63.4808 12.2223 63.5469 11.7507 63.5469 11.1992C63.5469 10.6478 63.4808 10.1807 63.3486 9.79785C63.2165 9.41048 63.0091 9.11654 62.7266 8.91602C62.444 8.71094 62.0771 8.6084 61.626 8.6084C60.9606 8.6084 60.4753 8.83171 60.1699 9.27832C59.8646 9.72493 59.7119 10.3652 59.7119 11.1992ZM73.2334 14.9932L72.2764 11.4727C72.2308 11.2995 72.1761 11.0898 72.1123 10.8438C72.0485 10.5977 71.9847 10.3447 71.9209 10.085C71.8571 9.82064 71.7979 9.57682 71.7432 9.35352C71.693 9.13021 71.6543 8.95703 71.627 8.83398H71.5723C71.5495 8.95703 71.513 9.13021 71.4629 9.35352C71.4128 9.57682 71.3558 9.82064 71.292 10.085C71.2282 10.3493 71.1644 10.6068 71.1006 10.8574C71.0413 11.1081 70.9867 11.3223 70.9365 11.5L69.9316 14.9932H68.168L66.0488 7.42578H67.6758L68.6602 11.1855C68.724 11.4408 68.7855 11.7165 68.8447 12.0127C68.9085 12.3089 68.9632 12.5915 69.0088 12.8604C69.0544 13.1292 69.0885 13.3503 69.1113 13.5234H69.166C69.1842 13.4004 69.2093 13.2454 69.2412 13.0586C69.2731 12.8672 69.3096 12.6689 69.3506 12.4639C69.3916 12.2542 69.4326 12.0583 69.4736 11.876C69.5146 11.6891 69.5534 11.5387 69.5898 11.4248L70.752 7.42578H72.5088L73.623 11.4248C73.6732 11.598 73.7279 11.8167 73.7871 12.0811C73.8464 12.3408 73.8988 12.6029 73.9443 12.8672C73.9945 13.127 74.0264 13.3434 74.04 13.5166H74.0947C74.113 13.3617 74.1449 13.152 74.1904 12.8877C74.2406 12.6188 74.2975 12.334 74.3613 12.0332C74.4251 11.7279 74.4912 11.4453 74.5596 11.1855L75.5645 7.42578H77.1641L75.0312 14.9932H73.2334ZM81.4297 7.28906C82.3867 7.28906 83.109 7.50098 83.5967 7.9248C84.0889 8.34863 84.335 9.00944 84.335 9.90723V15H83.1934L82.8857 13.9268H82.8311C82.6169 14.2002 82.3958 14.4258 82.168 14.6035C81.9401 14.7812 81.6758 14.9134 81.375 15C81.0788 15.0911 80.7165 15.1367 80.2881 15.1367C79.8369 15.1367 79.4336 15.0547 79.0781 14.8906C78.7227 14.722 78.4424 14.4668 78.2373 14.125C78.0322 13.7832 77.9297 13.3503 77.9297 12.8262C77.9297 12.0469 78.2191 11.4613 78.7979 11.0693C79.3812 10.6774 80.2607 10.4609 81.4365 10.4199L82.749 10.3721V9.97559C82.749 9.4515 82.626 9.0778 82.3799 8.85449C82.1383 8.63118 81.7965 8.51953 81.3545 8.51953C80.9762 8.51953 80.6094 8.57422 80.2539 8.68359C79.8984 8.79297 79.5521 8.92741 79.2148 9.08691L78.6953 7.95215C79.0645 7.75618 79.4837 7.59668 79.9531 7.47363C80.4271 7.35059 80.9193 7.28906 81.4297 7.28906ZM82.7422 11.3838L81.7646 11.418C80.9626 11.4453 80.3997 11.582 80.0762 11.8281C79.7526 12.0742 79.5908 12.4115 79.5908 12.8398C79.5908 13.2135 79.7025 13.487 79.9258 13.6602C80.1491 13.8288 80.443 13.9131 80.8076 13.9131C81.3636 13.9131 81.8239 13.7559 82.1885 13.4414C82.5576 13.1224 82.7422 12.6553 82.7422 12.04V11.3838ZM90.4189 7.28906C90.5465 7.28906 90.6855 7.2959 90.8359 7.30957C90.9863 7.32324 91.1162 7.34147 91.2256 7.36426L91.0752 8.86816C90.9795 8.84082 90.861 8.82031 90.7197 8.80664C90.583 8.79297 90.46 8.78613 90.3506 8.78613C90.0635 8.78613 89.79 8.83398 89.5303 8.92969C89.2705 9.02083 89.0404 9.16211 88.8398 9.35352C88.6393 9.54036 88.4821 9.77507 88.3682 10.0576C88.2542 10.3402 88.1973 10.6683 88.1973 11.042V15H86.584V7.43262H87.8418L88.0605 8.76562H88.1357C88.2861 8.49674 88.473 8.25065 88.6963 8.02734C88.9196 7.80404 89.1748 7.6263 89.4619 7.49414C89.7536 7.35742 90.0726 7.28906 90.4189 7.28906ZM95.1699 15.1367C94.2676 15.1367 93.543 14.8086 92.9961 14.1523C92.4538 13.4915 92.1826 12.5186 92.1826 11.2334C92.1826 9.93457 92.4583 8.95247 93.0098 8.28711C93.5658 7.62174 94.2972 7.28906 95.2041 7.28906C95.5869 7.28906 95.9219 7.34147 96.209 7.44629C96.4961 7.54655 96.7422 7.68327 96.9473 7.85645C97.1569 8.02962 97.3346 8.22331 97.4805 8.4375H97.5557C97.5329 8.29622 97.5055 8.09342 97.4736 7.8291C97.4463 7.56022 97.4326 7.31185 97.4326 7.08398V4.36328H99.0459V15H97.7881L97.501 13.9678H97.4326C97.2959 14.1865 97.1227 14.3848 96.9131 14.5625C96.708 14.7357 96.4619 14.8747 96.1748 14.9795C95.8923 15.0843 95.5573 15.1367 95.1699 15.1367ZM95.6211 13.8311C96.3092 13.8311 96.7946 13.6328 97.0771 13.2363C97.3597 12.8398 97.5055 12.2451 97.5146 11.4521V11.2402C97.5146 10.3926 97.3779 9.74316 97.1045 9.29199C96.8311 8.83626 96.332 8.6084 95.6074 8.6084C95.0286 8.6084 94.5866 8.8431 94.2812 9.3125C93.9805 9.77734 93.8301 10.4268 93.8301 11.2607C93.8301 12.0947 93.9805 12.7327 94.2812 13.1748C94.5866 13.6123 95.0332 13.8311 95.6211 13.8311Z" fill="#111112"/>
<line x1="135" y1="10" x2="111" y2="10" stroke="#111112"/>
</svg>
