<svg width="113" height="19" viewBox="0 0 113 19" fill="none" xmlns="http://www.w3.org/2000/svg">
<path d="M2.06836 17.7822C1.81771 17.7822 1.59896 17.7663 1.41211 17.7344C1.2207 17.707 1.05664 17.6683 0.919922 17.6182V16.2441C1.06576 16.2806 1.22298 16.3125 1.3916 16.3398C1.56022 16.3672 1.74023 16.3809 1.93164 16.3809C2.18229 16.3809 2.41016 16.333 2.61523 16.2373C2.82031 16.1416 2.9821 15.9684 3.10059 15.7178C3.22363 15.4671 3.28516 15.1139 3.28516 14.6582V5.00586H4.92578V14.6035C4.92578 15.3464 4.80729 15.9502 4.57031 16.415C4.33333 16.8844 4.00065 17.2285 3.57227 17.4473C3.14388 17.6706 2.64258 17.7822 2.06836 17.7822ZM10.3125 7.28906C11.2695 7.28906 11.9919 7.50098 12.4795 7.9248C12.9717 8.34863 13.2178 9.00944 13.2178 9.90723V15H12.0762L11.7686 13.9268H11.7139C11.4997 14.2002 11.2786 14.4258 11.0508 14.6035C10.8229 14.7812 10.5586 14.9134 10.2578 15C9.96159 15.0911 9.59928 15.1367 9.1709 15.1367C8.71973 15.1367 8.31641 15.0547 7.96094 14.8906C7.60547 14.722 7.3252 14.4668 7.12012 14.125C6.91504 13.7832 6.8125 13.3503 6.8125 12.8262C6.8125 12.0469 7.10189 11.4613 7.68066 11.0693C8.264 10.6774 9.14355 10.4609 10.3193 10.4199L11.6318 10.3721V9.97559C11.6318 9.4515 11.5088 9.0778 11.2627 8.85449C11.0212 8.63118 10.6794 8.51953 10.2373 8.51953C9.85905 8.51953 9.49219 8.57422 9.13672 8.68359C8.78125 8.79297 8.4349 8.92741 8.09766 9.08691L7.57812 7.95215C7.94727 7.75618 8.36654 7.59668 8.83594 7.47363C9.3099 7.35059 9.80208 7.28906 10.3125 7.28906ZM11.625 11.3838L10.6475 11.418C9.84538 11.4453 9.28255 11.582 8.95898 11.8281C8.63542 12.0742 8.47363 12.4115 8.47363 12.8398C8.47363 13.2135 8.58529 13.487 8.80859 13.6602C9.0319 13.8288 9.32585 13.9131 9.69043 13.9131C10.2464 13.9131 10.7067 13.7559 11.0713 13.4414C11.4404 13.1224 11.625 12.6553 11.625 12.04V11.3838ZM18.5156 15.1367C17.8001 15.1367 17.1803 14.9977 16.6562 14.7197C16.1322 14.4417 15.7288 14.0156 15.4463 13.4414C15.1637 12.8672 15.0225 12.138 15.0225 11.2539C15.0225 10.3333 15.1774 9.58138 15.4873 8.99805C15.7972 8.41471 16.2256 7.98405 16.7725 7.70605C17.3239 7.42806 17.9551 7.28906 18.666 7.28906C19.1172 7.28906 19.5251 7.33464 19.8896 7.42578C20.2588 7.51237 20.571 7.61947 20.8262 7.74707L20.3477 9.03223C20.0697 8.91829 19.7848 8.82259 19.4932 8.74512C19.2015 8.66764 18.9212 8.62891 18.6523 8.62891C18.2103 8.62891 17.8411 8.72689 17.5449 8.92285C17.2533 9.11882 17.0345 9.41048 16.8887 9.79785C16.7474 10.1852 16.6768 10.666 16.6768 11.2402C16.6768 11.7962 16.7497 12.2656 16.8955 12.6484C17.0413 13.0267 17.2578 13.3138 17.5449 13.5098C17.832 13.7012 18.1852 13.7969 18.6045 13.7969C19.0192 13.7969 19.3906 13.7467 19.7188 13.6465C20.0469 13.5462 20.3568 13.4163 20.6484 13.2568V14.6514C20.3613 14.8154 20.0537 14.9362 19.7256 15.0137C19.3975 15.0957 18.9941 15.1367 18.5156 15.1367ZM29.125 11.1992C29.125 11.8281 29.043 12.3864 28.8789 12.874C28.7148 13.3617 28.4756 13.7741 28.1611 14.1113C27.8467 14.444 27.4684 14.6992 27.0264 14.877C26.5843 15.0501 26.0853 15.1367 25.5293 15.1367C25.0098 15.1367 24.5335 15.0501 24.1006 14.877C23.6676 14.6992 23.2917 14.444 22.9727 14.1113C22.6582 13.7741 22.4144 13.3617 22.2412 12.874C22.068 12.3864 21.9814 11.8281 21.9814 11.1992C21.9814 10.3652 22.125 9.65885 22.4121 9.08008C22.7038 8.49674 23.1185 8.05241 23.6562 7.74707C24.194 7.44173 24.8343 7.28906 25.5771 7.28906C26.2744 7.28906 26.8896 7.44173 27.4229 7.74707C27.9561 8.05241 28.373 8.49674 28.6738 9.08008C28.9746 9.66341 29.125 10.3698 29.125 11.1992ZM23.6357 11.1992C23.6357 11.7507 23.7018 12.2223 23.834 12.6143C23.9707 13.0062 24.1803 13.307 24.4629 13.5166C24.7454 13.7217 25.11 13.8242 25.5566 13.8242C26.0033 13.8242 26.3678 13.7217 26.6504 13.5166C26.9329 13.307 27.1403 13.0062 27.2725 12.6143C27.4046 12.2223 27.4707 11.7507 27.4707 11.1992C27.4707 10.6478 27.4046 10.1807 27.2725 9.79785C27.1403 9.41048 26.9329 9.11654 26.6504 8.91602C26.3678 8.71094 26.001 8.6084 25.5498 8.6084C24.8844 8.6084 24.3991 8.83171 24.0938 9.27832C23.7884 9.72493 23.6357 10.3652 23.6357 11.1992ZM32.5771 4.36328V6.92676C32.5771 7.22298 32.568 7.51465 32.5498 7.80176C32.5361 8.08431 32.5225 8.30534 32.5088 8.46484H32.5771C32.7822 8.13672 33.0671 7.861 33.4316 7.6377C33.8008 7.40983 34.2725 7.2959 34.8467 7.2959C35.7445 7.2959 36.4668 7.6263 37.0137 8.28711C37.5605 8.94336 37.834 9.91634 37.834 11.2061C37.834 12.0628 37.7087 12.7829 37.458 13.3662C37.2074 13.9495 36.8542 14.3916 36.3984 14.6924C35.9473 14.9886 35.4163 15.1367 34.8057 15.1367C34.2314 15.1367 33.7666 15.0319 33.4111 14.8223C33.0602 14.6081 32.7845 14.3597 32.584 14.0771H32.4678L32.1738 15H30.9707V4.36328H32.5771ZM34.4229 8.60156C33.9671 8.60156 33.6048 8.69271 33.3359 8.875C33.0716 9.05729 32.8802 9.33073 32.7617 9.69531C32.6432 10.0553 32.5817 10.5133 32.5771 11.0693V11.2129C32.5771 12.056 32.7093 12.7008 32.9736 13.1475C33.2425 13.5941 33.7301 13.8174 34.4365 13.8174C34.9971 13.8174 35.4277 13.5918 35.7285 13.1406C36.0293 12.6849 36.1797 12.0332 36.1797 11.1855C36.1797 10.3288 36.0293 9.68392 35.7285 9.25098C35.4323 8.81803 34.9971 8.60156 34.4229 8.60156ZM42.25 17.7822C41.9993 17.7822 41.7806 17.7663 41.5938 17.7344C41.4023 17.707 41.2383 17.6683 41.1016 17.6182V16.2441C41.2474 16.2806 41.4046 16.3125 41.5732 16.3398C41.7419 16.3672 41.9219 16.3809 42.1133 16.3809C42.3639 16.3809 42.5918 16.333 42.7969 16.2373C43.002 16.1416 43.1637 15.9684 43.2822 15.7178C43.4053 15.4671 43.4668 15.1139 43.4668 14.6582V5.00586H45.1074V14.6035C45.1074 15.3464 44.9889 15.9502 44.752 16.415C44.515 16.8844 44.1823 17.2285 43.7539 17.4473C43.3255 17.6706 42.8242 17.7822 42.25 17.7822ZM54.2266 11.1992C54.2266 11.8281 54.1445 12.3864 53.9805 12.874C53.8164 13.3617 53.5771 13.7741 53.2627 14.1113C52.9482 14.444 52.57 14.6992 52.1279 14.877C51.6859 15.0501 51.1868 15.1367 50.6309 15.1367C50.1113 15.1367 49.6351 15.0501 49.2021 14.877C48.7692 14.6992 48.3932 14.444 48.0742 14.1113C47.7598 13.7741 47.516 13.3617 47.3428 12.874C47.1696 12.3864 47.083 11.8281 47.083 11.1992C47.083 10.3652 47.2266 9.65885 47.5137 9.08008C47.8053 8.49674 48.2201 8.05241 48.7578 7.74707C49.2956 7.44173 49.9359 7.28906 50.6787 7.28906C51.376 7.28906 51.9912 7.44173 52.5244 7.74707C53.0576 8.05241 53.4746 8.49674 53.7754 9.08008C54.0762 9.66341 54.2266 10.3698 54.2266 11.1992ZM48.7373 11.1992C48.7373 11.7507 48.8034 12.2223 48.9355 12.6143C49.0723 13.0062 49.2819 13.307 49.5645 13.5166C49.847 13.7217 50.2116 13.8242 50.6582 13.8242C51.1048 13.8242 51.4694 13.7217 51.752 13.5166C52.0345 13.307 52.2419 13.0062 52.374 12.6143C52.5062 12.2223 52.5723 11.7507 52.5723 11.1992C52.5723 10.6478 52.5062 10.1807 52.374 9.79785C52.2419 9.41048 52.0345 9.11654 51.752 8.91602C51.4694 8.71094 51.1025 8.6084 50.6514 8.6084C49.986 8.6084 49.5007 8.83171 49.1953 9.27832C48.89 9.72493 48.7373 10.3652 48.7373 11.1992ZM60.0166 7.28906C60.8688 7.28906 61.5319 7.51009 62.0059 7.95215C62.4844 8.38965 62.7236 9.09375 62.7236 10.0645V15H61.1172V10.3652C61.1172 9.77734 60.9964 9.33757 60.7549 9.0459C60.5133 8.74967 60.1396 8.60156 59.6338 8.60156C58.9001 8.60156 58.3896 8.82715 58.1025 9.27832C57.82 9.72949 57.6787 10.3835 57.6787 11.2402V15H56.0723V7.43262H57.3232L57.5488 8.45801H57.6377C57.8018 8.19368 58.0046 7.97721 58.2461 7.80859C58.4922 7.63542 58.7656 7.50553 59.0664 7.41895C59.3717 7.33236 59.6885 7.28906 60.0166 7.28906ZM67.9873 7.28906C68.6618 7.28906 69.2406 7.42806 69.7236 7.70605C70.2067 7.98405 70.5781 8.37826 70.8379 8.88867C71.0977 9.39909 71.2275 10.0098 71.2275 10.7207V11.582H66.1758C66.194 12.3158 66.39 12.8809 66.7637 13.2773C67.1419 13.6738 67.6706 13.8721 68.3496 13.8721C68.8327 13.8721 69.2656 13.8265 69.6484 13.7354C70.0358 13.6396 70.4346 13.5007 70.8447 13.3184V14.624C70.4665 14.8018 70.0814 14.9316 69.6895 15.0137C69.2975 15.0957 68.8281 15.1367 68.2812 15.1367C67.5384 15.1367 66.8844 14.9932 66.3193 14.7061C65.7588 14.4144 65.319 13.9814 65 13.4072C64.6855 12.833 64.5283 12.1198 64.5283 11.2676C64.5283 10.4199 64.6719 9.69987 64.959 9.10742C65.2461 8.51497 65.6494 8.0638 66.1689 7.75391C66.6885 7.44401 67.2946 7.28906 67.9873 7.28906ZM67.9873 8.49902C67.4814 8.49902 67.0713 8.66309 66.7568 8.99121C66.4469 9.31934 66.2646 9.80013 66.21 10.4336H69.6553C69.6507 10.0553 69.5869 9.72038 69.4639 9.42871C69.3454 9.13704 69.1631 8.90918 68.917 8.74512C68.6755 8.58105 68.3656 8.49902 67.9873 8.49902ZM78.125 12.8398C78.125 13.3366 78.0042 13.7559 77.7627 14.0977C77.5212 14.4395 77.168 14.6992 76.7031 14.877C76.2428 15.0501 75.6777 15.1367 75.0078 15.1367C74.4792 15.1367 74.0234 15.098 73.6406 15.0205C73.2624 14.9476 72.9046 14.8337 72.5674 14.6787V13.291C72.9274 13.4596 73.3307 13.6055 73.7773 13.7285C74.2285 13.8516 74.6546 13.9131 75.0557 13.9131C75.5843 13.9131 75.9648 13.8311 76.1973 13.667C76.4297 13.4984 76.5459 13.2751 76.5459 12.9971C76.5459 12.833 76.498 12.6872 76.4023 12.5596C76.3112 12.4274 76.138 12.293 75.8828 12.1562C75.6322 12.015 75.263 11.8464 74.7754 11.6504C74.2969 11.459 73.8936 11.2676 73.5654 11.0762C73.2373 10.8848 72.9889 10.6546 72.8203 10.3857C72.6517 10.1123 72.5674 9.76367 72.5674 9.33984C72.5674 8.66992 72.8317 8.16178 73.3604 7.81543C73.8936 7.46452 74.5977 7.28906 75.4727 7.28906C75.9375 7.28906 76.375 7.33691 76.7852 7.43262C77.1999 7.52376 77.6055 7.6582 78.002 7.83594L77.4961 9.0459C77.1543 8.89551 76.8102 8.77246 76.4639 8.67676C76.1221 8.5765 75.7734 8.52637 75.418 8.52637C75.0033 8.52637 74.6865 8.59017 74.4678 8.71777C74.2536 8.84538 74.1465 9.02767 74.1465 9.26465C74.1465 9.44238 74.1989 9.59277 74.3037 9.71582C74.4085 9.83887 74.5885 9.96191 74.8438 10.085C75.1035 10.208 75.4635 10.3607 75.9238 10.543C76.375 10.7161 76.7646 10.8984 77.0928 11.0898C77.4255 11.2767 77.6807 11.5068 77.8584 11.7803C78.0361 12.0537 78.125 12.4069 78.125 12.8398Z" fill="#111112"/>
<line x1="113" y1="10" x2="89" y2="10" stroke="#111112"/>
</svg>
