<svg width="122" height="19" viewBox="0 0 122 19" fill="none" xmlns="http://www.w3.org/2000/svg">
<path d="M5.3457 9.57227H9.07812V14.5898C8.55404 14.763 8.01172 14.8975 7.45117 14.9932C6.89062 15.0889 6.26172 15.1367 5.56445 15.1367C4.54818 15.1367 3.68685 14.9362 2.98047 14.5352C2.27865 14.1296 1.74544 13.5439 1.38086 12.7783C1.01628 12.0081 0.833984 11.0807 0.833984 9.99609C0.833984 8.95247 1.03678 8.04785 1.44238 7.28223C1.84798 6.51204 2.43815 5.91732 3.21289 5.49805C3.98763 5.07422 4.92643 4.8623 6.0293 4.8623C6.57161 4.8623 7.0957 4.91699 7.60156 5.02637C8.11198 5.13118 8.5791 5.27702 9.00293 5.46387L8.42871 6.81738C8.09147 6.65788 7.71322 6.52344 7.29395 6.41406C6.87467 6.30469 6.43945 6.25 5.98828 6.25C5.27279 6.25 4.65527 6.40495 4.13574 6.71484C3.62077 7.02474 3.22428 7.46224 2.94629 8.02734C2.66829 8.58789 2.5293 9.25098 2.5293 10.0166C2.5293 10.7594 2.64095 11.4111 2.86426 11.9717C3.08757 12.5322 3.4362 12.9697 3.91016 13.2842C4.38867 13.5941 5.00618 13.749 5.7627 13.749C6.14095 13.749 6.46224 13.7285 6.72656 13.6875C6.99089 13.6465 7.2347 13.6009 7.45801 13.5508V10.9736H5.3457V9.57227ZM17.9033 7.43262V15H16.6387L16.4199 13.9814H16.3311C16.1715 14.2412 15.9688 14.4577 15.7227 14.6309C15.4766 14.7995 15.2031 14.9248 14.9023 15.0068C14.6016 15.0934 14.2848 15.1367 13.9521 15.1367C13.3825 15.1367 12.8949 15.041 12.4893 14.8496C12.0882 14.6536 11.7806 14.3529 11.5664 13.9473C11.3522 13.5417 11.2451 13.0176 11.2451 12.375V7.43262H12.8584V12.0742C12.8584 12.6621 12.9769 13.1019 13.2139 13.3936C13.4554 13.6852 13.8291 13.8311 14.335 13.8311C14.8226 13.8311 15.21 13.7308 15.4971 13.5303C15.7842 13.3298 15.987 13.0335 16.1055 12.6416C16.2285 12.2497 16.29 11.7689 16.29 11.1992V7.43262H17.9033ZM19.0654 7.43262H20.8154L22.3672 11.7529C22.4355 11.9489 22.4971 12.1426 22.5518 12.334C22.611 12.5208 22.6611 12.7054 22.7021 12.8877C22.7477 13.07 22.7842 13.2523 22.8115 13.4346H22.8525C22.8981 13.1976 22.9619 12.9333 23.0439 12.6416C23.1305 12.3454 23.2262 12.0492 23.3311 11.7529L24.8213 7.43262H26.5508L23.3037 16.0391C23.1169 16.5312 22.8867 16.9505 22.6133 17.2969C22.3444 17.6478 22.0254 17.9121 21.6562 18.0898C21.2871 18.2721 20.8656 18.3633 20.3916 18.3633C20.1637 18.3633 19.9655 18.3496 19.7969 18.3223C19.6283 18.2995 19.4847 18.2744 19.3662 18.2471V16.9619C19.4619 16.9847 19.5827 17.0052 19.7285 17.0234C19.8743 17.0417 20.0247 17.0508 20.1797 17.0508C20.4668 17.0508 20.7152 16.9938 20.9248 16.8799C21.1344 16.766 21.3122 16.6042 21.458 16.3945C21.6038 16.1895 21.7246 15.9548 21.8203 15.6904L22.0869 14.9795L19.0654 7.43262ZM39.3818 15H37.748V10.4883H33.1406V15H31.5V5.00586H33.1406V9.09375H37.748V5.00586H39.3818V15ZM44.8301 7.28906C45.7871 7.28906 46.5094 7.50098 46.9971 7.9248C47.4893 8.34863 47.7354 9.00944 47.7354 9.90723V15H46.5938L46.2861 13.9268H46.2314C46.0173 14.2002 45.7962 14.4258 45.5684 14.6035C45.3405 14.7812 45.0762 14.9134 44.7754 15C44.4792 15.0911 44.1169 15.1367 43.6885 15.1367C43.2373 15.1367 42.834 15.0547 42.4785 14.8906C42.123 14.722 41.8428 14.4668 41.6377 14.125C41.4326 13.7832 41.3301 13.3503 41.3301 12.8262C41.3301 12.0469 41.6195 11.4613 42.1982 11.0693C42.7816 10.6774 43.6611 10.4609 44.8369 10.4199L46.1494 10.3721V9.97559C46.1494 9.4515 46.0264 9.0778 45.7803 8.85449C45.5387 8.63118 45.1969 8.51953 44.7549 8.51953C44.3766 8.51953 44.0098 8.57422 43.6543 8.68359C43.2988 8.79297 42.9525 8.92741 42.6152 9.08691L42.0957 7.95215C42.4648 7.75618 42.8841 7.59668 43.3535 7.47363C43.8275 7.35059 44.3197 7.28906 44.8301 7.28906ZM46.1426 11.3838L45.165 11.418C44.363 11.4453 43.8001 11.582 43.4766 11.8281C43.153 12.0742 42.9912 12.4115 42.9912 12.8398C42.9912 13.2135 43.1029 13.487 43.3262 13.6602C43.5495 13.8288 43.8434 13.9131 44.208 13.9131C44.764 13.9131 45.2243 13.7559 45.5889 13.4414C45.958 13.1224 46.1426 12.6553 46.1426 12.04V11.3838ZM56.1709 14.9932L55.2139 11.4727C55.1683 11.2995 55.1136 11.0898 55.0498 10.8438C54.986 10.5977 54.9222 10.3447 54.8584 10.085C54.7946 9.82064 54.7354 9.57682 54.6807 9.35352C54.6305 9.13021 54.5918 8.95703 54.5645 8.83398H54.5098C54.487 8.95703 54.4505 9.13021 54.4004 9.35352C54.3503 9.57682 54.2933 9.82064 54.2295 10.085C54.1657 10.3493 54.1019 10.6068 54.0381 10.8574C53.9788 11.1081 53.9242 11.3223 53.874 11.5L52.8691 14.9932H51.1055L48.9863 7.42578H50.6133L51.5977 11.1855C51.6615 11.4408 51.723 11.7165 51.7822 12.0127C51.846 12.3089 51.9007 12.5915 51.9463 12.8604C51.9919 13.1292 52.026 13.3503 52.0488 13.5234H52.1035C52.1217 13.4004 52.1468 13.2454 52.1787 13.0586C52.2106 12.8672 52.2471 12.6689 52.2881 12.4639C52.3291 12.2542 52.3701 12.0583 52.4111 11.876C52.4521 11.6891 52.4909 11.5387 52.5273 11.4248L53.6895 7.42578H55.4463L56.5605 11.4248C56.6107 11.598 56.6654 11.8167 56.7246 12.0811C56.7839 12.3408 56.8363 12.6029 56.8818 12.8672C56.932 13.127 56.9639 13.3434 56.9775 13.5166H57.0322C57.0505 13.3617 57.0824 13.152 57.1279 12.8877C57.1781 12.6188 57.235 12.334 57.2988 12.0332C57.3626 11.7279 57.4287 11.4453 57.4971 11.1855L58.502 7.42578H60.1016L57.9688 14.9932H56.1709ZM63.0068 4.36328V9.50391C63.0068 9.73633 62.9977 9.99154 62.9795 10.2695C62.9613 10.543 62.943 10.8005 62.9248 11.042H62.959C63.0775 10.8825 63.2188 10.6956 63.3828 10.4814C63.5514 10.2673 63.7109 10.0804 63.8613 9.9209L66.1719 7.43262H68.0176L64.9893 10.6865L68.2158 15H66.3291L63.9092 11.6777L63.0068 12.4502V15H61.4004V4.36328H63.0068ZM71.0322 7.43262V15H69.4258V7.43262H71.0322ZM70.2393 4.53418C70.4854 4.53418 70.6973 4.60026 70.875 4.73242C71.0573 4.86458 71.1484 5.09245 71.1484 5.41602C71.1484 5.73503 71.0573 5.96289 70.875 6.09961C70.6973 6.23177 70.4854 6.29785 70.2393 6.29785C69.984 6.29785 69.7676 6.23177 69.5898 6.09961C69.4167 5.96289 69.3301 5.73503 69.3301 5.41602C69.3301 5.09245 69.4167 4.86458 69.5898 4.73242C69.7676 4.60026 69.984 4.53418 70.2393 4.53418ZM77.2803 7.28906C78.1325 7.28906 78.7956 7.51009 79.2695 7.95215C79.748 8.38965 79.9873 9.09375 79.9873 10.0645V15H78.3809V10.3652C78.3809 9.77734 78.2601 9.33757 78.0186 9.0459C77.777 8.74967 77.4033 8.60156 76.8975 8.60156C76.1637 8.60156 75.6533 8.82715 75.3662 9.27832C75.0837 9.72949 74.9424 10.3835 74.9424 11.2402V15H73.3359V7.43262H74.5869L74.8125 8.45801H74.9014C75.0654 8.19368 75.2682 7.97721 75.5098 7.80859C75.7559 7.63542 76.0293 7.50553 76.3301 7.41895C76.6354 7.33236 76.9521 7.28906 77.2803 7.28906ZM87.3223 12.8398C87.3223 13.3366 87.2015 13.7559 86.96 14.0977C86.7184 14.4395 86.3652 14.6992 85.9004 14.877C85.4401 15.0501 84.875 15.1367 84.2051 15.1367C83.6764 15.1367 83.2207 15.098 82.8379 15.0205C82.4596 14.9476 82.1019 14.8337 81.7646 14.6787V13.291C82.1247 13.4596 82.528 13.6055 82.9746 13.7285C83.4258 13.8516 83.8519 13.9131 84.2529 13.9131C84.7816 13.9131 85.1621 13.8311 85.3945 13.667C85.627 13.4984 85.7432 13.2751 85.7432 12.9971C85.7432 12.833 85.6953 12.6872 85.5996 12.5596C85.5085 12.4274 85.3353 12.293 85.0801 12.1562C84.8294 12.015 84.4603 11.8464 83.9727 11.6504C83.4941 11.459 83.0908 11.2676 82.7627 11.0762C82.4346 10.8848 82.1862 10.6546 82.0176 10.3857C81.849 10.1123 81.7646 9.76367 81.7646 9.33984C81.7646 8.66992 82.029 8.16178 82.5576 7.81543C83.0908 7.46452 83.7949 7.28906 84.6699 7.28906C85.1348 7.28906 85.5723 7.33691 85.9824 7.43262C86.3971 7.52376 86.8027 7.6582 87.1992 7.83594L86.6934 9.0459C86.3516 8.89551 86.0075 8.77246 85.6611 8.67676C85.3193 8.5765 84.9707 8.52637 84.6152 8.52637C84.2005 8.52637 83.8838 8.59017 83.665 8.71777C83.4508 8.84538 83.3438 9.02767 83.3438 9.26465C83.3438 9.44238 83.3962 9.59277 83.501 9.71582C83.6058 9.83887 83.7858 9.96191 84.041 10.085C84.3008 10.208 84.6608 10.3607 85.1211 10.543C85.5723 10.7161 85.9619 10.8984 86.29 11.0898C86.6227 11.2767 86.8779 11.5068 87.0557 11.7803C87.2334 12.0537 87.3223 12.4069 87.3223 12.8398Z" fill="#111112"/>
<line x1="122" y1="10" x2="98" y2="10" stroke="#111112"/>
</svg>
