<svg width="335" height="128" viewBox="0 0 335 128" fill="none" xmlns="http://www.w3.org/2000/svg">
<rect width="134" height="128" rx="28" fill="#F5F5F5"/>
<path d="M94.0979 55.8999C74.9024 54.1517 74.4717 66.5628 74.4581 72.7014C90.0955 78.3916 95.0587 66.1273 95.7851 57.88C95.8745 56.8653 95.1123 55.9923 94.0979 55.8999Z" stroke="#111112" stroke-width="3"/>
<path d="M40.1016 48.2891C40.7762 73.1712 56.5892 71.7247 64.3535 70.7587C69.0856 49.8901 52.3137 45.7928 41.859 46.3415C40.8418 46.3949 40.074 47.2709 40.1016 48.2891Z" stroke="#111112" stroke-width="3"/>
<path d="M67.2419 88.1594C67.2419 87.4814 69.6152 72.9031 82.4983 66.4612" stroke="#111112" stroke-width="3" stroke-linecap="round"/>
<path d="M67.242 87.8205C67.581 82.622 66.2249 63.0713 53.0027 57.9858" stroke="#111112" stroke-width="3" stroke-linecap="round"/>
<line x1="195" y1="63.5" x2="335" y2="63.5" stroke="#EAEAEA"/>
</svg>
