<svg width="134" height="128" viewBox="0 0 134 128" fill="none" xmlns="http://www.w3.org/2000/svg">
<rect width="134" height="128" rx="28" fill="#F5F5F5"/>
<path d="M76.3796 46.378L76.3796 83.0505C76.3796 84.4699 77.4907 85.641 78.9082 85.7156C80.4351 85.796 81.7172 84.5795 81.7172 83.0505L81.7172 70.5704C81.7172 70.2907 81.8416 70.0188 82.0434 69.8252C91.1477 61.0899 85.3061 50.8839 79.4198 45.0003C78.2467 43.8277 76.3796 44.7193 76.3796 46.378Z" stroke="#111112" stroke-width="3"/>
<path d="M56.4122 48.5078V45.6592C56.4122 45.107 55.9645 44.6592 55.4122 44.6592H54.7796C52.5165 44.6592 50.704 46.5353 50.782 48.7971L51.125 58.7447C51.2135 61.3093 53.229 63.3906 55.7895 63.5613L56.0915 63.5814V82.8196C56.0915 84.263 57.2166 85.4563 58.6575 85.541V85.541C60.2233 85.6331 61.5437 84.3882 61.5437 82.8196L61.5437 63.9022L62.4441 63.8492C65.0229 63.6975 67.0617 61.6063 67.1477 59.0244L67.492 48.6954C67.5701 46.3521 65.6253 44.4444 63.284 44.5676L62.4911 44.6094C61.96 44.6373 61.5437 45.0761 61.5437 45.608V47.8664" stroke="#111112" stroke-width="3" stroke-linecap="round"/>
<path d="M56.4121 56.2056V45.3013" stroke="#111112" stroke-width="3" stroke-linecap="round"/>
<path d="M61.5437 56.2056V45.3013" stroke="#111112" stroke-width="3" stroke-linecap="round"/>
<path d="M56.4123 47.225V47.225C56.4123 45.808 57.561 44.6593 58.978 44.6593V44.6593C60.395 44.6593 61.5437 45.808 61.5437 47.225V47.225" stroke="#111112" stroke-width="3" stroke-linecap="round"/>
</svg>
