<svg width="134" height="128" viewBox="0 0 134 128" fill="none" xmlns="http://www.w3.org/2000/svg">
<rect width="134" height="128" rx="28" fill="#F5F5F5"/>
<path d="M43.2635 74.4327C43.2175 73.8817 43.1941 73.3249 43.1941 72.7632C43.1941 60.7766 53.8524 51.0596 67.0001 51.0596C80.1477 51.0596 90.806 60.7766 90.806 72.7632C90.806 73.3249 90.7826 73.8817 90.7366 74.4327" stroke="#111112" stroke-width="3"/>
<circle cx="66.9999" cy="47.1642" r="3.66418" stroke="#111112" stroke-width="3"/>
<path d="M39.5 77.8955C39.5 76.3334 40.7663 75.0671 42.3284 75.0671H91.6716C93.2337 75.0671 94.5 76.3334 94.5 77.8955C94.5 79.4576 93.2337 80.7239 91.6716 80.7239H42.3284C40.7663 80.7239 39.5 79.4576 39.5 77.8955Z" stroke="#111112" stroke-width="3"/>
</svg>
