<svg width="579" height="33" viewBox="0 0 579 33" fill="none" xmlns="http://www.w3.org/2000/svg">
<rect x="0.5" y="15.5" width="248.5" height="2" fill="#666666" fill-opacity="0.25"/>
<path d="M282.008 24.432C280.712 24.432 279.52 24.208 278.432 23.76C277.36 23.312 276.424 22.696 275.624 21.912C274.84 21.112 274.224 20.168 273.776 19.08C273.344 17.976 273.128 16.784 273.128 15.504C273.128 14.224 273.344 13.04 273.776 11.952C274.224 10.848 274.84 9.904 275.624 9.12C276.424 8.32 277.36 7.696 278.432 7.248C279.52 6.8 280.712 6.576 282.008 6.576C283.304 6.576 284.488 6.8 285.56 7.248C286.648 7.696 287.584 8.32 288.368 9.12C289.168 9.904 289.784 10.848 290.216 11.952C290.664 13.04 290.888 14.224 290.888 15.504C290.888 16.784 290.664 17.976 290.216 19.08C289.784 20.168 289.168 21.112 288.368 21.912C287.584 22.696 286.648 23.312 285.56 23.76C284.488 24.208 283.304 24.432 282.008 24.432ZM282.008 22.56C283 22.56 283.904 22.376 284.72 22.008C285.552 21.64 286.264 21.136 286.856 20.496C287.448 19.856 287.904 19.112 288.224 18.264C288.56 17.4 288.728 16.48 288.728 15.504C288.728 14.528 288.56 13.616 288.224 12.768C287.904 11.904 287.448 11.152 286.856 10.512C286.264 9.872 285.552 9.368 284.72 9C283.904 8.632 283 8.448 282.008 8.448C281.016 8.448 280.104 8.632 279.272 9C278.456 9.368 277.752 9.872 277.16 10.512C276.568 11.152 276.104 11.904 275.768 12.768C275.448 13.616 275.288 14.528 275.288 15.504C275.288 16.48 275.448 17.4 275.768 18.264C276.104 19.112 276.568 19.856 277.16 20.496C277.752 21.136 278.456 21.64 279.272 22.008C280.104 22.376 281.016 22.56 282.008 22.56ZM294.128 7.008H298.472C299.288 7.008 300.096 7.056 300.896 7.152C301.712 7.248 302.44 7.456 303.08 7.776C303.72 8.096 304.24 8.568 304.64 9.192C305.04 9.8 305.24 10.632 305.24 11.688C305.24 12.936 304.864 13.944 304.112 14.712C303.36 15.48 302.32 15.968 300.992 16.176L305.816 24H303.344L298.736 16.368H296.144V24H294.128V7.008ZM296.144 14.496H297.944C298.504 14.496 299.08 14.48 299.672 14.448C300.28 14.416 300.832 14.312 301.328 14.136C301.84 13.96 302.256 13.688 302.576 13.32C302.912 12.936 303.08 12.392 303.08 11.688C303.08 11.08 302.96 10.592 302.72 10.224C302.48 9.856 302.16 9.576 301.76 9.384C301.376 9.176 300.936 9.04 300.44 8.976C299.96 8.912 299.472 8.88 298.976 8.88H296.144V14.496Z" fill="#666666"/>
<rect x="330" y="15.5" width="248.5" height="2" fill="#666666" fill-opacity="0.25"/>
</svg>
