<svg width="580" height="27" viewBox="0 0 580 27" fill="none" xmlns="http://www.w3.org/2000/svg">
<rect y="12.5" width="191.5" height="2" fill="#666666" fill-opacity="0.25"/>
<path d="M222.84 20.36C221.76 20.36 220.767 20.1733 219.86 19.8C218.967 19.4267 218.187 18.9133 217.52 18.26C216.867 17.5933 216.353 16.8067 215.98 15.9C215.62 14.98 215.44 13.9867 215.44 12.92C215.44 11.8533 215.62 10.8667 215.98 9.96C216.353 9.04 216.867 8.25333 217.52 7.6C218.187 6.93333 218.967 6.41333 219.86 6.04C220.767 5.66667 221.76 5.48 222.84 5.48C223.92 5.48 224.907 5.66667 225.8 6.04C226.707 6.41333 227.487 6.93333 228.14 7.6C228.807 8.25333 229.32 9.04 229.68 9.96C230.053 10.8667 230.24 11.8533 230.24 12.92C230.24 13.9867 230.053 14.98 229.68 15.9C229.32 16.8067 228.807 17.5933 228.14 18.26C227.487 18.9133 226.707 19.4267 225.8 19.8C224.907 20.1733 223.92 20.36 222.84 20.36ZM222.84 18.8C223.667 18.8 224.42 18.6467 225.1 18.34C225.793 18.0333 226.387 17.6133 226.88 17.08C227.373 16.5467 227.753 15.9267 228.02 15.22C228.3 14.5 228.44 13.7333 228.44 12.92C228.44 12.1067 228.3 11.3467 228.02 10.64C227.753 9.92 227.373 9.29333 226.88 8.76C226.387 8.22667 225.793 7.80667 225.1 7.5C224.42 7.19333 223.667 7.04 222.84 7.04C222.013 7.04 221.253 7.19333 220.56 7.5C219.88 7.80667 219.293 8.22667 218.8 8.76C218.307 9.29333 217.92 9.92 217.64 10.64C217.373 11.3467 217.24 12.1067 217.24 12.92C217.24 13.7333 217.373 14.5 217.64 15.22C217.92 15.9267 218.307 16.5467 218.8 17.08C219.293 17.6133 219.88 18.0333 220.56 18.34C221.253 18.6467 222.013 18.8 222.84 18.8ZM232.66 12.86C232.66 12.4333 232.646 12.0333 232.62 11.66C232.593 11.2867 232.58 10.9467 232.58 10.64H234.06C234.06 10.8933 234.066 11.1467 234.08 11.4C234.093 11.6533 234.1 11.9133 234.1 12.18H234.14C234.246 11.9533 234.393 11.7333 234.58 11.52C234.78 11.3067 235.013 11.12 235.28 10.96C235.546 10.7867 235.846 10.6533 236.18 10.56C236.513 10.4533 236.873 10.4 237.26 10.4C237.366 10.4 237.473 10.4067 237.58 10.42C237.686 10.4333 237.793 10.46 237.9 10.5L237.8 12.08C237.533 12 237.253 11.96 236.96 11.96C236 11.96 235.3 12.2733 234.86 12.9C234.433 13.5133 234.22 14.36 234.22 15.44V20H232.66V12.86ZM251.917 12.98C251.584 12.58 251.224 12.2933 250.837 12.12C250.451 11.9333 250.024 11.84 249.557 11.84C249.037 11.84 248.577 11.9333 248.177 12.12C247.777 12.2933 247.444 12.54 247.177 12.86C246.924 13.18 246.731 13.5533 246.597 13.98C246.464 14.3933 246.397 14.84 246.397 15.32C246.397 15.8 246.471 16.2533 246.617 16.68C246.777 17.0933 246.991 17.46 247.257 17.78C247.537 18.1 247.871 18.3533 248.257 18.54C248.644 18.7133 249.077 18.8 249.557 18.8C250.584 18.8 251.377 18.4133 251.937 17.64L253.097 18.74C252.644 19.26 252.111 19.64 251.497 19.88C250.884 20.12 250.237 20.24 249.557 20.24C248.837 20.24 248.177 20.12 247.577 19.88C246.977 19.64 246.464 19.3 246.037 18.86C245.624 18.42 245.297 17.9 245.057 17.3C244.831 16.7 244.717 16.04 244.717 15.32C244.717 14.6133 244.831 13.96 245.057 13.36C245.297 12.76 245.631 12.24 246.057 11.8C246.484 11.36 246.991 11.02 247.577 10.78C248.177 10.5267 248.837 10.4 249.557 10.4C250.251 10.4 250.904 10.52 251.517 10.76C252.144 11 252.691 11.3733 253.157 11.88L251.917 12.98ZM254.366 15.32C254.366 14.5867 254.492 13.92 254.746 13.32C254.999 12.72 255.346 12.2067 255.786 11.78C256.226 11.34 256.752 11 257.366 10.76C257.979 10.52 258.646 10.4 259.366 10.4C260.086 10.4 260.752 10.52 261.366 10.76C261.979 11 262.506 11.34 262.946 11.78C263.386 12.2067 263.732 12.72 263.986 13.32C264.239 13.92 264.366 14.5867 264.366 15.32C264.366 16.0533 264.239 16.72 263.986 17.32C263.732 17.92 263.386 18.44 262.946 18.88C262.506 19.3067 261.979 19.64 261.366 19.88C260.752 20.12 260.086 20.24 259.366 20.24C258.646 20.24 257.979 20.12 257.366 19.88C256.752 19.64 256.226 19.3067 255.786 18.88C255.346 18.44 254.999 17.92 254.746 17.32C254.492 16.72 254.366 16.0533 254.366 15.32ZM256.046 15.32C256.046 15.8133 256.119 16.2733 256.266 16.7C256.426 17.1133 256.652 17.48 256.946 17.8C257.239 18.1067 257.586 18.3533 257.986 18.54C258.399 18.7133 258.859 18.8 259.366 18.8C259.872 18.8 260.326 18.7133 260.726 18.54C261.139 18.3533 261.492 18.1067 261.786 17.8C262.079 17.48 262.299 17.1133 262.446 16.7C262.606 16.2733 262.686 15.8133 262.686 15.32C262.686 14.8267 262.606 14.3733 262.446 13.96C262.299 13.5333 262.079 13.1667 261.786 12.86C261.492 12.54 261.139 12.2933 260.726 12.12C260.326 11.9333 259.872 11.84 259.366 11.84C258.859 11.84 258.399 11.9333 257.986 12.12C257.586 12.2933 257.239 12.54 256.946 12.86C256.652 13.1667 256.426 13.5333 256.266 13.96C256.119 14.3733 256.046 14.8267 256.046 15.32ZM266.781 12.86C266.781 12.4333 266.767 12.0333 266.741 11.66C266.714 11.2867 266.701 10.9467 266.701 10.64H268.181C268.181 10.8933 268.187 11.1467 268.201 11.4C268.214 11.6533 268.221 11.9133 268.221 12.18H268.261C268.367 11.9533 268.514 11.7333 268.701 11.52C268.901 11.3067 269.134 11.12 269.401 10.96C269.667 10.7867 269.967 10.6533 270.301 10.56C270.634 10.4533 270.994 10.4 271.381 10.4C271.994 10.4 272.521 10.4933 272.961 10.68C273.414 10.8667 273.787 11.1267 274.081 11.46C274.374 11.7933 274.587 12.2 274.721 12.68C274.867 13.1467 274.941 13.66 274.941 14.22V20H273.381V14.38C273.381 13.5933 273.207 12.9733 272.861 12.52C272.514 12.0667 271.974 11.84 271.241 11.84C270.734 11.84 270.294 11.9267 269.921 12.1C269.561 12.2733 269.261 12.52 269.021 12.84C268.794 13.16 268.621 13.54 268.501 13.98C268.394 14.42 268.341 14.9067 268.341 15.44V20H266.781V12.86ZM283.014 11.96H280.254V16.64C280.254 16.9467 280.261 17.2333 280.274 17.5C280.287 17.7533 280.341 17.98 280.434 18.18C280.527 18.3667 280.667 18.52 280.854 18.64C281.041 18.7467 281.307 18.8 281.654 18.8C281.881 18.8 282.114 18.7733 282.354 18.72C282.594 18.6667 282.821 18.5867 283.034 18.48L283.094 19.9C282.827 20.02 282.527 20.1067 282.194 20.16C281.874 20.2133 281.567 20.24 281.274 20.24C280.714 20.24 280.267 20.1667 279.934 20.02C279.601 19.8733 279.341 19.6667 279.154 19.4C278.967 19.1333 278.841 18.8067 278.774 18.42C278.721 18.02 278.694 17.58 278.694 17.1V11.96H276.654V10.64H278.694V7.98H280.254V10.64H283.014V11.96ZM285.085 10.64H286.645V20H285.085V10.64ZM284.725 6.98C284.725 6.67333 284.832 6.40667 285.045 6.18C285.272 5.95333 285.545 5.84 285.865 5.84C286.185 5.84 286.452 5.95333 286.665 6.18C286.892 6.40667 287.005 6.67333 287.005 6.98C287.005 7.31333 286.898 7.58667 286.685 7.8C286.472 8.01333 286.198 8.12 285.865 8.12C285.532 8.12 285.258 8.01333 285.045 7.8C284.832 7.58667 284.725 7.31333 284.725 6.98ZM289.75 12.86C289.75 12.4333 289.736 12.0333 289.71 11.66C289.683 11.2867 289.67 10.9467 289.67 10.64H291.15C291.15 10.8933 291.156 11.1467 291.17 11.4C291.183 11.6533 291.19 11.9133 291.19 12.18H291.23C291.336 11.9533 291.483 11.7333 291.67 11.52C291.87 11.3067 292.103 11.12 292.37 10.96C292.636 10.7867 292.936 10.6533 293.27 10.56C293.603 10.4533 293.963 10.4 294.35 10.4C294.963 10.4 295.49 10.4933 295.93 10.68C296.383 10.8667 296.756 11.1267 297.05 11.46C297.343 11.7933 297.556 12.2 297.69 12.68C297.836 13.1467 297.91 13.66 297.91 14.22V20H296.35V14.38C296.35 13.5933 296.176 12.9733 295.83 12.52C295.483 12.0667 294.943 11.84 294.21 11.84C293.703 11.84 293.263 11.9267 292.89 12.1C292.53 12.2733 292.23 12.52 291.99 12.84C291.763 13.16 291.59 13.54 291.47 13.98C291.363 14.42 291.31 14.9067 291.31 15.44V20H289.75V12.86ZM309.023 17.78C309.023 18.2067 309.036 18.6067 309.063 18.98C309.089 19.3533 309.103 19.6933 309.103 20H307.623C307.623 19.7467 307.616 19.4933 307.603 19.24C307.589 18.9867 307.583 18.7267 307.583 18.46H307.543C307.436 18.6867 307.283 18.9067 307.083 19.12C306.896 19.3333 306.669 19.5267 306.403 19.7C306.136 19.86 305.836 19.9867 305.503 20.08C305.169 20.1867 304.809 20.24 304.423 20.24C303.809 20.24 303.276 20.1467 302.823 19.96C302.383 19.7733 302.016 19.5133 301.723 19.18C301.429 18.8467 301.209 18.4467 301.063 17.98C300.929 17.5 300.863 16.98 300.863 16.42V10.64H302.423V16.26C302.423 17.0467 302.596 17.6667 302.943 18.12C303.289 18.5733 303.829 18.8 304.563 18.8C305.069 18.8 305.503 18.7133 305.863 18.54C306.236 18.3667 306.536 18.12 306.763 17.8C307.003 17.48 307.176 17.1 307.283 16.66C307.403 16.22 307.463 15.7333 307.463 15.2V10.64H309.023V17.78ZM320.336 18.3C319.776 19.02 319.163 19.5267 318.496 19.82C317.829 20.1 317.056 20.24 316.176 20.24C315.443 20.24 314.783 20.1133 314.196 19.86C313.609 19.5933 313.109 19.24 312.696 18.8C312.296 18.36 311.983 17.84 311.756 17.24C311.543 16.64 311.436 16 311.436 15.32C311.436 14.6 311.556 13.94 311.796 13.34C312.036 12.7267 312.369 12.2067 312.796 11.78C313.223 11.34 313.729 11 314.316 10.76C314.903 10.52 315.543 10.4 316.236 10.4C316.889 10.4 317.489 10.5133 318.036 10.74C318.583 10.9533 319.049 11.2733 319.436 11.7C319.836 12.1133 320.143 12.6267 320.356 13.24C320.569 13.84 320.676 14.5267 320.676 15.3V15.8H313.116C313.143 16.2 313.236 16.5867 313.396 16.96C313.569 17.32 313.789 17.64 314.056 17.92C314.323 18.1867 314.636 18.4 314.996 18.56C315.356 18.72 315.749 18.8 316.176 18.8C316.856 18.8 317.429 18.68 317.896 18.44C318.363 18.2 318.783 17.8467 319.156 17.38L320.336 18.3ZM318.996 14.48C318.969 13.68 318.709 13.04 318.216 12.56C317.723 12.08 317.043 11.84 316.176 11.84C315.309 11.84 314.609 12.08 314.076 12.56C313.543 13.04 313.223 13.68 313.116 14.48H318.996ZM338.696 20H337.156L334.496 12.8H334.456L332.096 20H330.496L327.456 10.64H329.176L331.316 17.84H331.356L333.776 10.64H335.416L337.876 17.84H337.916L340.036 10.64H341.716L338.696 20ZM343.62 10.64H345.18V20H343.62V10.64ZM343.26 6.98C343.26 6.67333 343.367 6.40667 343.58 6.18C343.807 5.95333 344.08 5.84 344.4 5.84C344.72 5.84 344.987 5.95333 345.2 6.18C345.427 6.40667 345.54 6.67333 345.54 6.98C345.54 7.31333 345.433 7.58667 345.22 7.8C345.007 8.01333 344.733 8.12 344.4 8.12C344.067 8.12 343.793 8.01333 343.58 7.8C343.367 7.58667 343.26 7.31333 343.26 6.98ZM353.405 11.96H350.645V16.64C350.645 16.9467 350.651 17.2333 350.665 17.5C350.678 17.7533 350.731 17.98 350.825 18.18C350.918 18.3667 351.058 18.52 351.245 18.64C351.431 18.7467 351.698 18.8 352.045 18.8C352.271 18.8 352.505 18.7733 352.745 18.72C352.985 18.6667 353.211 18.5867 353.425 18.48L353.485 19.9C353.218 20.02 352.918 20.1067 352.585 20.16C352.265 20.2133 351.958 20.24 351.665 20.24C351.105 20.24 350.658 20.1667 350.325 20.02C349.991 19.8733 349.731 19.6667 349.545 19.4C349.358 19.1333 349.231 18.8067 349.165 18.42C349.111 18.02 349.085 17.58 349.085 17.1V11.96H347.045V10.64H349.085V7.98H350.645V10.64H353.405V11.96ZM355.335 4.88H356.895V11.94H356.935C357.042 11.7533 357.189 11.5733 357.375 11.4C357.562 11.2133 357.782 11.0467 358.035 10.9C358.302 10.7533 358.595 10.6333 358.915 10.54C359.235 10.4467 359.575 10.4 359.935 10.4C360.549 10.4 361.075 10.4933 361.515 10.68C361.969 10.8667 362.342 11.1267 362.635 11.46C362.929 11.7933 363.142 12.2 363.275 12.68C363.422 13.1467 363.495 13.66 363.495 14.22V20H361.935V14.38C361.935 13.5933 361.762 12.9733 361.415 12.52C361.069 12.0667 360.529 11.84 359.795 11.84C359.289 11.84 358.849 11.9267 358.475 12.1C358.115 12.2733 357.815 12.52 357.575 12.84C357.349 13.16 357.175 13.54 357.055 13.98C356.949 14.42 356.895 14.9067 356.895 15.44V20H355.335V4.88Z" fill="#111111"/>
<rect x="388.5" y="12.5" width="191.5" height="2" fill="#666666" fill-opacity="0.25"/>
</svg>
